<svg width="212" height="312" viewBox="0 0 212 312" fill="none" xmlns="http://www.w3.org/2000/svg">
<path d="M-107.075 23.3873C-107.036 11.1039 -96.0361 1.75853 -83.9077 3.70384L182.741 46.4724C191.959 47.9509 198.928 55.6105 199.532 64.927L210.835 239.412C211.497 249.63 204.335 258.697 194.242 260.42L-84.5594 308C-96.7987 310.088 -107.964 300.637 -107.924 288.221L-107.075 23.3873Z" fill="#B0E3FF"/>
<path d="M35.424 74V62.64H44V74H42.88V63.632H36.544V74H35.424ZM50.8779 74.16C50.1845 74.16 49.5605 73.9787 49.0059 73.616C48.4619 73.2533 48.0299 72.8053 47.7099 72.272V77.408H46.6219V65.664H47.5979V67.28C47.9285 66.7573 48.3659 66.336 48.9099 66.016C49.4645 65.6853 50.0619 65.52 50.7019 65.52C51.2779 65.52 51.8059 65.6427 52.2859 65.888C52.7659 66.1227 53.1819 66.4427 53.5339 66.848C53.8965 67.2533 54.1739 67.7173 54.3659 68.24C54.5579 68.752 54.6539 69.2853 54.6539 69.84C54.6539 70.6187 54.4939 71.3387 54.1739 72C53.8645 72.6507 53.4219 73.1733 52.8459 73.568C52.2805 73.9627 51.6245 74.16 50.8779 74.16ZM50.5739 73.2C51.1819 73.2 51.7045 73.04 52.1419 72.72C52.5899 72.3893 52.9365 71.968 53.1819 71.456C53.4272 70.944 53.5499 70.4053 53.5499 69.84C53.5499 69.2427 53.4112 68.688 53.1339 68.176C52.8565 67.664 52.4832 67.2533 52.0139 66.944C51.5552 66.6347 51.0325 66.48 50.4459 66.48C50.0832 66.48 49.6992 66.576 49.2939 66.768C48.8992 66.9493 48.5472 67.2 48.2379 67.52C47.9392 67.8293 47.7632 68.1707 47.7099 68.544V71.104C47.9552 71.6907 48.3392 72.1867 48.8619 72.592C49.3845 72.9973 49.9552 73.2 50.5739 73.2ZM60.0489 74.16C59.2489 74.16 58.5342 73.9627 57.9049 73.568C57.2862 73.1733 56.8009 72.6507 56.4489 72C56.0969 71.3387 55.9209 70.624 55.9209 69.856C55.9209 69.0773 56.0969 68.3627 56.4489 67.712C56.8115 67.0507 57.3022 66.5227 57.9209 66.128C58.5502 65.7227 59.2595 65.52 60.0489 65.52C60.8489 65.52 61.5582 65.7227 62.1769 66.128C62.8062 66.5227 63.2969 67.0507 63.6489 67.712C64.0115 68.3627 64.1929 69.0773 64.1929 69.856C64.1929 70.624 64.0169 71.3387 63.6649 72C63.3129 72.6507 62.8222 73.1733 62.1929 73.568C61.5742 73.9627 60.8595 74.16 60.0489 74.16ZM57.0249 69.872C57.0249 70.4907 57.1582 71.056 57.4249 71.568C57.7022 72.0693 58.0702 72.4693 58.5289 72.768C58.9875 73.056 59.4942 73.2 60.0489 73.2C60.6035 73.2 61.1102 73.0507 61.5689 72.752C62.0275 72.4533 62.3955 72.048 62.6729 71.536C62.9502 71.024 63.0889 70.4587 63.0889 69.84C63.0889 69.2213 62.9502 68.656 62.6729 68.144C62.3955 67.632 62.0275 67.2267 61.5689 66.928C61.1102 66.6293 60.6035 66.48 60.0489 66.48C59.5049 66.48 59.0035 66.6347 58.5449 66.944C58.0862 67.2427 57.7182 67.648 57.4409 68.16C57.1635 68.672 57.0249 69.2427 57.0249 69.872ZM69.6285 74.16C68.8178 74.16 68.0978 73.9627 67.4685 73.568C66.8392 73.1627 66.3432 72.6347 65.9805 71.984C65.6178 71.3227 65.4365 70.5973 65.4365 69.808C65.4365 69.0187 65.6125 68.304 65.9645 67.664C66.3165 67.0133 66.8072 66.496 67.4365 66.112C68.0658 65.7173 68.7912 65.52 69.6125 65.52C70.3912 65.52 71.0738 65.7013 71.6605 66.064C72.2578 66.416 72.7058 66.896 73.0045 67.504L71.9485 67.84C71.7138 67.4133 71.3832 67.0827 70.9565 66.848C70.5405 66.6027 70.0765 66.48 69.5645 66.48C68.9992 66.48 68.4872 66.624 68.0285 66.912C67.5805 67.2 67.2178 67.6 66.9405 68.112C66.6738 68.6133 66.5405 69.1787 66.5405 69.808C66.5405 70.4373 66.6792 71.008 66.9565 71.52C67.2338 72.032 67.6018 72.4427 68.0605 72.752C68.5192 73.0507 69.0258 73.2 69.5805 73.2C69.9432 73.2 70.2952 73.136 70.6365 73.008C70.9778 72.88 71.2712 72.7093 71.5165 72.496C71.7618 72.272 71.9272 72.032 72.0125 71.776L73.0845 72.096C72.9352 72.4907 72.6898 72.848 72.3485 73.168C72.0072 73.4773 71.6018 73.7227 71.1325 73.904C70.6632 74.0747 70.1618 74.16 69.6285 74.16ZM76.8738 74V66.64H73.8978V65.664H80.9378V66.64H77.9618V74H76.8738ZM86.6748 74.16C85.9814 74.16 85.3574 73.9787 84.8028 73.616C84.2588 73.2533 83.8268 72.8053 83.5068 72.272V77.408H82.4188V65.664H83.3948V67.28C83.7254 66.7573 84.1628 66.336 84.7068 66.016C85.2614 65.6853 85.8588 65.52 86.4988 65.52C87.0748 65.52 87.6028 65.6427 88.0828 65.888C88.5628 66.1227 88.9788 66.4427 89.3308 66.848C89.6934 67.2533 89.9708 67.7173 90.1628 68.24C90.3548 68.752 90.4508 69.2853 90.4508 69.84C90.4508 70.6187 90.2908 71.3387 89.9708 72C89.6614 72.6507 89.2188 73.1733 88.6428 73.568C88.0774 73.9627 87.4214 74.16 86.6748 74.16ZM86.3708 73.2C86.9788 73.2 87.5014 73.04 87.9388 72.72C88.3868 72.3893 88.7334 71.968 88.9788 71.456C89.2241 70.944 89.3468 70.4053 89.3468 69.84C89.3468 69.2427 89.2081 68.688 88.9308 68.176C88.6534 67.664 88.2801 67.2533 87.8108 66.944C87.3521 66.6347 86.8294 66.48 86.2428 66.48C85.8801 66.48 85.4961 66.576 85.0908 66.768C84.6961 66.9493 84.3441 67.2 84.0348 67.52C83.7361 67.8293 83.5601 68.1707 83.5068 68.544V71.104C83.7521 71.6907 84.1361 72.1867 84.6588 72.592C85.1814 72.9973 85.7521 73.2 86.3708 73.2ZM91.6217 71.6C91.6217 71.088 91.7711 70.6453 92.0698 70.272C92.3684 69.888 92.7791 69.5893 93.3018 69.376C93.8351 69.1627 94.4484 69.056 95.1418 69.056C95.5471 69.056 95.9684 69.0933 96.4058 69.168C96.8431 69.232 97.2324 69.3227 97.5738 69.44V68.736C97.5738 68.032 97.3658 67.472 96.9498 67.056C96.5338 66.64 95.9578 66.432 95.2218 66.432C94.7844 66.432 94.3471 66.5173 93.9098 66.688C93.4724 66.848 93.0191 67.088 92.5498 67.408L92.1338 66.64C92.6778 66.2667 93.2111 65.9893 93.7338 65.808C94.2564 65.616 94.7898 65.52 95.3338 65.52C96.3578 65.52 97.1684 65.8133 97.7658 66.4C98.3631 66.9867 98.6618 67.7973 98.6618 68.832V72.688C98.6618 72.976 98.7951 73.1253 99.0618 73.136V74C98.8271 74.032 98.6618 74.0427 98.5658 74.032C98.2991 74.0213 98.0964 73.936 97.9578 73.776C97.8191 73.616 97.7444 73.4453 97.7338 73.264L97.7178 72.656C97.3444 73.136 96.8591 73.5093 96.2618 73.776C95.6644 74.032 95.0564 74.16 94.4378 74.16C93.8938 74.16 93.4084 74.048 92.9818 73.824C92.5551 73.5893 92.2191 73.28 91.9738 72.896C91.7391 72.5013 91.6217 72.0693 91.6217 71.6ZM97.2058 72.24C97.4511 71.952 97.5738 71.6853 97.5738 71.44V70.224C96.8378 69.936 96.0698 69.792 95.2698 69.792C94.4911 69.792 93.8618 69.9467 93.3818 70.256C92.9018 70.5653 92.6618 70.9867 92.6618 71.52C92.6618 71.9787 92.8378 72.3947 93.1898 72.768C93.5524 73.1413 94.0538 73.328 94.6938 73.328C95.2164 73.328 95.7018 73.2267 96.1498 73.024C96.6084 72.8213 96.9604 72.56 97.2058 72.24ZM100.997 74V65.664H102.085V69.248H106.853V65.664H107.941V74H106.853V70.224H102.085V74H100.997ZM113.957 74.16C113.146 74.16 112.426 73.9627 111.797 73.568C111.167 73.1627 110.671 72.6347 110.309 71.984C109.946 71.3227 109.765 70.5973 109.765 69.808C109.765 69.0187 109.941 68.304 110.293 67.664C110.645 67.0133 111.135 66.496 111.765 66.112C112.394 65.7173 113.119 65.52 113.941 65.52C114.719 65.52 115.402 65.7013 115.989 66.064C116.586 66.416 117.034 66.896 117.333 67.504L116.277 67.84C116.042 67.4133 115.711 67.0827 115.285 66.848C114.869 66.6027 114.405 66.48 113.893 66.48C113.327 66.48 112.815 66.624 112.357 66.912C111.909 67.2 111.546 67.6 111.269 68.112C111.002 68.6133 110.869 69.1787 110.869 69.808C110.869 70.4373 111.007 71.008 111.285 71.52C111.562 72.032 111.93 72.4427 112.389 72.752C112.847 73.0507 113.354 73.2 113.909 73.2C114.271 73.2 114.623 73.136 114.965 73.008C115.306 72.88 115.599 72.7093 115.845 72.496C116.09 72.272 116.255 72.032 116.341 71.776L117.413 72.096C117.263 72.4907 117.018 72.848 116.677 73.168C116.335 73.4773 115.93 73.7227 115.461 73.904C114.991 74.0747 114.49 74.16 113.957 74.16ZM121.202 74V66.64H118.226V65.664H125.266V66.64H122.29V74H121.202ZM126.731 74V65.664H130.891C131.36 65.664 131.755 65.7653 132.075 65.968C132.395 66.16 132.635 66.416 132.795 66.736C132.966 67.0453 133.051 67.3707 133.051 67.712C133.051 68.16 132.939 68.5653 132.715 68.928C132.502 69.28 132.198 69.5467 131.803 69.728C132.283 69.856 132.672 70.1067 132.971 70.48C133.27 70.8533 133.419 71.2907 133.419 71.792C133.419 72.464 133.179 73.0027 132.699 73.408C132.23 73.8027 131.627 74 130.891 74H126.731ZM127.771 69.424H130.603C131.019 69.424 131.355 69.2693 131.611 68.96C131.878 68.64 132.011 68.2827 132.011 67.888C132.011 67.504 131.883 67.168 131.627 66.88C131.382 66.592 131.062 66.448 130.667 66.448H127.771V69.424ZM127.771 73.216H130.859C131.286 73.216 131.643 73.0613 131.931 72.752C132.219 72.432 132.363 72.08 132.363 71.696C132.363 71.28 132.224 70.9227 131.947 70.624C131.67 70.3253 131.328 70.176 130.923 70.176H127.771V73.216ZM138.861 74.16C138.061 74.16 137.347 73.9627 136.717 73.568C136.099 73.1733 135.613 72.6507 135.261 72C134.909 71.3387 134.733 70.624 134.733 69.856C134.733 69.0773 134.909 68.3627 135.261 67.712C135.624 67.0507 136.115 66.5227 136.733 66.128C137.363 65.7227 138.072 65.52 138.861 65.52C139.661 65.52 140.371 65.7227 140.989 66.128C141.619 66.5227 142.109 67.0507 142.461 67.712C142.824 68.3627 143.005 69.0773 143.005 69.856C143.005 70.624 142.829 71.3387 142.477 72C142.125 72.6507 141.635 73.1733 141.005 73.568C140.387 73.9627 139.672 74.16 138.861 74.16ZM135.837 69.872C135.837 70.4907 135.971 71.056 136.237 71.568C136.515 72.0693 136.883 72.4693 137.341 72.768C137.8 73.056 138.307 73.2 138.861 73.2C139.416 73.2 139.923 73.0507 140.381 72.752C140.84 72.4533 141.208 72.048 141.485 71.536C141.763 71.024 141.901 70.4587 141.901 69.84C141.901 69.2213 141.763 68.656 141.485 68.144C141.208 67.632 140.84 67.2267 140.381 66.928C139.923 66.6293 139.416 66.48 138.861 66.48C138.317 66.48 137.816 66.6347 137.357 66.944C136.899 67.2427 136.531 67.648 136.253 68.16C135.976 68.672 135.837 69.2427 135.837 69.872ZM147.975 75.936V73.024H148.119C148.439 73.024 148.727 72.8853 148.983 72.608C149.239 72.3307 149.447 71.8293 149.607 71.104C149.778 70.368 149.879 69.328 149.911 67.984L149.991 65.664H155.415V73.024H156.535V75.936H155.559V74H148.935V75.936H147.975ZM149.767 73.024H154.327V66.64H150.967L150.919 68.08C150.866 69.5733 150.743 70.704 150.551 71.472C150.359 72.2293 150.098 72.7467 149.767 73.024ZM157.384 74.048V73.056C157.662 73.056 157.912 72.9813 158.136 72.832C158.371 72.6827 158.574 72.4213 158.744 72.048C158.926 71.6747 159.07 71.1573 159.176 70.496C159.283 69.8347 159.352 68.9973 159.384 67.984L159.48 65.664H164.888V74H163.8V66.64H160.44L160.408 68.08C160.355 69.6267 160.211 70.832 159.976 71.696C159.742 72.56 159.406 73.168 158.968 73.52C158.542 73.8613 158.014 74.0373 157.384 74.048ZM166.67 74L169.15 70.592C168.574 70.5173 168.115 70.272 167.774 69.856C167.432 69.44 167.262 68.8747 167.262 68.16C167.262 67.6907 167.374 67.2693 167.598 66.896C167.822 66.512 168.136 66.208 168.542 65.984C168.958 65.76 169.443 65.648 169.998 65.648H173.182V74H172.094V70.768H170.238L167.886 74H166.67ZM169.982 69.936H172.094V66.512H170.174C169.619 66.512 169.176 66.672 168.846 66.992C168.515 67.3013 168.35 67.696 168.35 68.176C168.35 68.6667 168.483 69.0827 168.75 69.424C169.027 69.7653 169.438 69.936 169.982 69.936ZM35.184 95V86.664H39.344C39.8133 86.664 40.208 86.7653 40.528 86.968C40.848 87.16 41.088 87.416 41.248 87.736C41.4187 88.0453 41.504 88.3707 41.504 88.712C41.504 89.16 41.392 89.5653 41.168 89.928C40.9547 90.28 40.6507 90.5467 40.256 90.728C40.736 90.856 41.1253 91.1067 41.424 91.48C41.7227 91.8533 41.872 92.2907 41.872 92.792C41.872 93.464 41.632 94.0027 41.152 94.408C40.6827 94.8027 40.08 95 39.344 95H35.184ZM36.224 90.424H39.056C39.472 90.424 39.808 90.2693 40.064 89.96C40.3307 89.64 40.464 89.2827 40.464 88.888C40.464 88.504 40.336 88.168 40.08 87.88C39.8347 87.592 39.5147 87.448 39.12 87.448H36.224V90.424ZM36.224 94.216H39.312C39.7387 94.216 40.096 94.0613 40.384 93.752C40.672 93.432 40.816 93.08 40.816 92.696C40.816 92.28 40.6773 91.9227 40.4 91.624C40.1227 91.3253 39.7813 91.176 39.376 91.176H36.224V94.216ZM47.3785 95.16C46.5678 95.16 45.8478 94.9627 45.2185 94.568C44.5892 94.1627 44.0932 93.6347 43.7305 92.984C43.3678 92.3227 43.1865 91.5973 43.1865 90.808C43.1865 90.0187 43.3625 89.304 43.7145 88.664C44.0665 88.0133 44.5572 87.496 45.1865 87.112C45.8158 86.7173 46.5412 86.52 47.3625 86.52C48.1412 86.52 48.8238 86.7013 49.4105 87.064C50.0078 87.416 50.4558 87.896 50.7545 88.504L49.6985 88.84C49.4638 88.4133 49.1332 88.0827 48.7065 87.848C48.2905 87.6027 47.8265 87.48 47.3145 87.48C46.7492 87.48 46.2372 87.624 45.7785 87.912C45.3305 88.2 44.9678 88.6 44.6905 89.112C44.4238 89.6133 44.2905 90.1787 44.2905 90.808C44.2905 91.4373 44.4292 92.008 44.7065 92.52C44.9838 93.032 45.3518 93.4427 45.8105 93.752C46.2692 94.0507 46.7758 94.2 47.3305 94.2C47.6932 94.2 48.0452 94.136 48.3865 94.008C48.7278 93.88 49.0212 93.7093 49.2665 93.496C49.5118 93.272 49.6772 93.032 49.7625 92.776L50.8345 93.096C50.6852 93.4907 50.4398 93.848 50.0985 94.168C49.7572 94.4773 49.3518 94.7227 48.8825 94.904C48.4132 95.0747 47.9118 95.16 47.3785 95.16ZM56.0656 95.16C55.2656 95.16 54.551 94.9627 53.9216 94.568C53.2923 94.1733 52.7963 93.6453 52.4336 92.984C52.071 92.3227 51.8896 91.5973 51.8896 90.808C51.8896 90.0293 52.0656 89.3147 52.4176 88.664C52.7803 88.0133 53.2763 87.496 53.9056 87.112C54.535 86.7173 55.2496 86.52 56.0496 86.52C56.871 86.52 57.591 86.7173 58.2096 87.112C58.8283 87.5067 59.3083 88.0293 59.6496 88.68C60.0016 89.32 60.1776 90.024 60.1776 90.792C60.1776 90.9627 60.1723 91.1067 60.1616 91.224H53.0256C53.079 91.8213 53.2496 92.3547 53.5376 92.824C53.8256 93.2827 54.1936 93.6507 54.6416 93.928C55.0896 94.1947 55.5803 94.328 56.1136 94.328C56.6576 94.328 57.1696 94.1893 57.6496 93.912C58.1296 93.6347 58.471 93.272 58.6736 92.824L59.6176 93.08C59.447 93.4853 59.1803 93.848 58.8176 94.168C58.4656 94.4773 58.055 94.7227 57.5856 94.904C57.1163 95.0747 56.6096 95.16 56.0656 95.16ZM52.9936 90.44H59.1536C59.111 89.8427 58.9456 89.3147 58.6576 88.856C58.3696 88.3867 58.0016 88.024 57.5536 87.768C57.1056 87.5013 56.6096 87.368 56.0656 87.368C55.5216 87.368 55.0256 87.5013 54.5776 87.768C54.1296 88.024 53.7616 88.3867 53.4736 88.856C53.1963 89.3147 53.0363 89.8427 52.9936 90.44ZM62.1123 86.664L64.5603 89.928L64.6883 90.168L64.8163 89.928L67.2483 86.664H68.4803L65.3123 90.856L68.4803 95H67.2483L64.8163 91.752L64.6883 91.528L64.5603 91.752L62.1283 95H60.8963L64.0483 90.856L60.8963 86.664H62.1123ZM70.0948 96.296L70.3668 94.952H69.9988V93.432H71.0548V94.952L70.6548 96.296H70.0948ZM77.5746 95V86.664H78.6626V90.232H79.9106L82.7106 86.664H83.9586L80.7746 90.712L84.3586 95H83.0786L79.9106 91.24H78.6626V95H77.5746ZM87.9831 95V87.64H85.0071V86.664H92.0471V87.64H89.0711V95H87.9831ZM97.0801 95.16C96.2801 95.16 95.5655 94.9627 94.9361 94.568C94.3175 94.1733 93.8321 93.6507 93.4801 93C93.1281 92.3387 92.9521 91.624 92.9521 90.856C92.9521 90.0773 93.1281 89.3627 93.4801 88.712C93.8428 88.0507 94.3335 87.5227 94.9521 87.128C95.5815 86.7227 96.2908 86.52 97.0801 86.52C97.8801 86.52 98.5895 86.7227 99.2081 87.128C99.8375 87.5227 100.328 88.0507 100.68 88.712C101.043 89.3627 101.224 90.0773 101.224 90.856C101.224 91.624 101.048 92.3387 100.696 93C100.344 93.6507 99.8535 94.1733 99.2241 94.568C98.6055 94.9627 97.8908 95.16 97.0801 95.16ZM94.0561 90.872C94.0561 91.4907 94.1895 92.056 94.4561 92.568C94.7335 93.0693 95.1015 93.4693 95.5601 93.768C96.0188 94.056 96.5255 94.2 97.0801 94.2C97.6348 94.2 98.1415 94.0507 98.6001 93.752C99.0588 93.4533 99.4268 93.048 99.7041 92.536C99.9815 92.024 100.12 91.4587 100.12 90.84C100.12 90.2213 99.9815 89.656 99.7041 89.144C99.4268 88.632 99.0588 88.2267 98.6001 87.928C98.1415 87.6293 97.6348 87.48 97.0801 87.48C96.5361 87.48 96.0348 87.6347 95.5761 87.944C95.1175 88.2427 94.7495 88.648 94.4721 89.16C94.1948 89.672 94.0561 90.2427 94.0561 90.872ZM107.378 86.664L109.826 89.928L109.954 90.168L110.082 89.928L112.514 86.664H113.746L110.578 90.856L113.746 95H112.514L110.082 91.752L109.954 91.528L109.826 91.752L107.394 95H106.162L109.314 90.856L106.162 86.664H107.378ZM118.736 95.16C117.936 95.16 117.222 94.9627 116.592 94.568C115.974 94.1733 115.488 93.6507 115.136 93C114.784 92.3387 114.608 91.624 114.608 90.856C114.608 90.0773 114.784 89.3627 115.136 88.712C115.499 88.0507 115.99 87.5227 116.608 87.128C117.238 86.7227 117.947 86.52 118.736 86.52C119.536 86.52 120.246 86.7227 120.864 87.128C121.494 87.5227 121.984 88.0507 122.336 88.712C122.699 89.3627 122.88 90.0773 122.88 90.856C122.88 91.624 122.704 92.3387 122.352 93C122 93.6507 121.51 94.1733 120.88 94.568C120.262 94.9627 119.547 95.16 118.736 95.16ZM115.712 90.872C115.712 91.4907 115.846 92.056 116.112 92.568C116.39 93.0693 116.758 93.4693 117.216 93.768C117.675 94.056 118.182 94.2 118.736 94.2C119.291 94.2 119.798 94.0507 120.256 93.752C120.715 93.4533 121.083 93.048 121.36 92.536C121.638 92.024 121.776 91.4587 121.776 90.84C121.776 90.2213 121.638 89.656 121.36 89.144C121.083 88.632 120.715 88.2267 120.256 87.928C119.798 87.6293 119.291 87.48 118.736 87.48C118.192 87.48 117.691 87.6347 117.232 87.944C116.774 88.2427 116.406 88.648 116.128 89.16C115.851 89.672 115.712 90.2427 115.712 90.872ZM129.468 95V91.512C128.796 91.832 128.039 91.992 127.196 91.992C125.351 91.992 124.428 91.0373 124.428 89.128V86.664H125.516V88.984C125.516 89.7307 125.665 90.2747 125.964 90.616C126.273 90.9573 126.764 91.128 127.436 91.128C127.82 91.128 128.193 91.0853 128.556 91C128.929 90.9147 129.233 90.8027 129.468 90.664V86.664H130.556V95H129.468ZM136.55 95.16C135.75 95.16 135.035 94.9627 134.406 94.568C133.777 94.1733 133.281 93.6453 132.918 92.984C132.555 92.3227 132.374 91.5973 132.374 90.808C132.374 90.0293 132.55 89.3147 132.902 88.664C133.265 88.0133 133.761 87.496 134.39 87.112C135.019 86.7173 135.734 86.52 136.534 86.52C137.355 86.52 138.075 86.7173 138.694 87.112C139.313 87.5067 139.793 88.0293 140.134 88.68C140.486 89.32 140.662 90.024 140.662 90.792C140.662 90.9627 140.657 91.1067 140.646 91.224H133.51C133.563 91.8213 133.734 92.3547 134.022 92.824C134.31 93.2827 134.678 93.6507 135.126 93.928C135.574 94.1947 136.065 94.328 136.598 94.328C137.142 94.328 137.654 94.1893 138.134 93.912C138.614 93.6347 138.955 93.272 139.158 92.824L140.102 93.08C139.931 93.4853 139.665 93.848 139.302 94.168C138.95 94.4773 138.539 94.7227 138.07 94.904C137.601 95.0747 137.094 95.16 136.55 95.16ZM133.478 90.44H139.638C139.595 89.8427 139.43 89.3147 139.142 88.856C138.854 88.3867 138.486 88.024 138.038 87.768C137.59 87.5013 137.094 87.368 136.55 87.368C136.006 87.368 135.51 87.5013 135.062 87.768C134.614 88.024 134.246 88.3867 133.958 88.856C133.681 89.3147 133.521 89.8427 133.478 90.44ZM144.421 95V87.64H141.445V86.664H148.485V87.64H145.509V95H144.421ZM35.184 116V107.664H36.272V111.248H41.04V107.664H42.128V116H41.04V112.224H36.272V116H35.184ZM43.8561 113.6C43.8561 113.088 44.0055 112.645 44.3041 112.272C44.6028 111.888 45.0135 111.589 45.5361 111.376C46.0695 111.163 46.6828 111.056 47.3761 111.056C47.7815 111.056 48.2028 111.093 48.6401 111.168C49.0775 111.232 49.4668 111.323 49.8081 111.44V110.736C49.8081 110.032 49.6001 109.472 49.1841 109.056C48.7681 108.64 48.1921 108.432 47.4561 108.432C47.0188 108.432 46.5815 108.517 46.1441 108.688C45.7068 108.848 45.2535 109.088 44.7841 109.408L44.3681 108.64C44.9121 108.267 45.4455 107.989 45.9681 107.808C46.4908 107.616 47.0241 107.52 47.5681 107.52C48.5921 107.52 49.4028 107.813 50.0001 108.4C50.5975 108.987 50.8961 109.797 50.8961 110.832V114.688C50.8961 114.976 51.0295 115.125 51.2961 115.136V116C51.0615 116.032 50.8961 116.043 50.8001 116.032C50.5335 116.021 50.3308 115.936 50.1921 115.776C50.0535 115.616 49.9788 115.445 49.9681 115.264L49.9521 114.656C49.5788 115.136 49.0935 115.509 48.4961 115.776C47.8988 116.032 47.2908 116.16 46.6721 116.16C46.1281 116.16 45.6428 116.048 45.2161 115.824C44.7895 115.589 44.4535 115.28 44.2081 114.896C43.9735 114.501 43.8561 114.069 43.8561 113.6ZM49.4401 114.24C49.6855 113.952 49.8081 113.685 49.8081 113.44V112.224C49.0721 111.936 48.3041 111.792 47.5041 111.792C46.7255 111.792 46.0961 111.947 45.6161 112.256C45.1361 112.565 44.8961 112.987 44.8961 113.52C44.8961 113.979 45.0721 114.395 45.4241 114.768C45.7868 115.141 46.2881 115.328 46.9281 115.328C47.4508 115.328 47.9361 115.227 48.3841 115.024C48.8428 114.821 49.1948 114.56 49.4401 114.24ZM53.2309 116V107.664H59.9349V116H58.8469V108.64H54.3189V116H53.2309ZM65.8926 116.16C65.0926 116.16 64.378 115.963 63.7486 115.568C63.13 115.173 62.6446 114.651 62.2926 114C61.9406 113.339 61.7646 112.624 61.7646 111.856C61.7646 111.077 61.9406 110.363 62.2926 109.712C62.6553 109.051 63.146 108.523 63.7646 108.128C64.394 107.723 65.1033 107.52 65.8926 107.52C66.6926 107.52 67.402 107.723 68.0206 108.128C68.65 108.523 69.1406 109.051 69.4926 109.712C69.8553 110.363 70.0366 111.077 70.0366 111.856C70.0366 112.624 69.8606 113.339 69.5086 114C69.1566 114.651 68.666 115.173 68.0366 115.568C67.418 115.963 66.7033 116.16 65.8926 116.16ZM62.8686 111.872C62.8686 112.491 63.002 113.056 63.2686 113.568C63.546 114.069 63.914 114.469 64.3726 114.768C64.8313 115.056 65.338 115.2 65.8926 115.2C66.4473 115.2 66.954 115.051 67.4126 114.752C67.8713 114.453 68.2393 114.048 68.5166 113.536C68.794 113.024 68.9326 112.459 68.9326 111.84C68.9326 111.221 68.794 110.656 68.5166 110.144C68.2393 109.632 67.8713 109.227 67.4126 108.928C66.954 108.629 66.4473 108.48 65.8926 108.48C65.3486 108.48 64.8473 108.635 64.3886 108.944C63.93 109.243 63.562 109.648 63.2846 110.16C63.0073 110.672 62.8686 111.243 62.8686 111.872ZM71.0563 116.048V115.056C71.3336 115.056 71.5843 114.981 71.8083 114.832C72.0429 114.683 72.2456 114.421 72.4163 114.048C72.5976 113.675 72.7416 113.157 72.8483 112.496C72.9549 111.835 73.0243 110.997 73.0563 109.984L73.1523 107.664H78.5603V116H77.4723V108.64H74.1123L74.0803 110.08C74.0269 111.627 73.8829 112.832 73.6483 113.696C73.4136 114.56 73.0776 115.168 72.6403 115.52C72.2136 115.861 71.6856 116.037 71.0563 116.048ZM80.9496 116V107.664H82.0376V111.248H86.8056V107.664H87.8936V116H86.8056V112.224H82.0376V116H80.9496ZM90.2778 116V107.68H91.3658V114.528L96.4378 107.664H97.4138V116H96.3258V109.264L91.3338 116H90.2778ZM101.874 116V108.64H98.8978V107.664H105.938V108.64H102.962V116H101.874ZM107.403 116V107.664H108.491V110.608H110.651C111.6 110.608 112.315 110.853 112.795 111.344C113.285 111.824 113.531 112.459 113.531 113.248C113.531 113.76 113.424 114.224 113.211 114.64C112.997 115.056 112.683 115.387 112.267 115.632C111.851 115.877 111.339 116 110.731 116H107.403ZM108.491 115.136H110.587C111.237 115.136 111.707 114.949 111.995 114.576C112.283 114.192 112.427 113.755 112.427 113.264C112.427 112.944 112.368 112.651 112.251 112.384C112.144 112.107 111.952 111.888 111.675 111.728C111.408 111.557 111.035 111.472 110.555 111.472H108.491V115.136ZM118.847 116.16C118.037 116.16 117.317 115.963 116.687 115.568C116.058 115.163 115.562 114.635 115.199 113.984C114.837 113.323 114.655 112.597 114.655 111.808C114.655 111.019 114.831 110.304 115.183 109.664C115.535 109.013 116.026 108.496 116.655 108.112C117.285 107.717 118.01 107.52 118.831 107.52C119.61 107.52 120.293 107.701 120.879 108.064C121.477 108.416 121.925 108.896 122.223 109.504L121.167 109.84C120.933 109.413 120.602 109.083 120.175 108.848C119.759 108.603 119.295 108.48 118.783 108.48C118.218 108.48 117.706 108.624 117.247 108.912C116.799 109.2 116.437 109.6 116.159 110.112C115.893 110.613 115.759 111.179 115.759 111.808C115.759 112.437 115.898 113.008 116.175 113.52C116.453 114.032 116.821 114.443 117.279 114.752C117.738 115.051 118.245 115.2 118.799 115.2C119.162 115.2 119.514 115.136 119.855 115.008C120.197 114.88 120.49 114.709 120.735 114.496C120.981 114.272 121.146 114.032 121.231 113.776L122.303 114.096C122.154 114.491 121.909 114.848 121.567 115.168C121.226 115.477 120.821 115.723 120.351 115.904C119.882 116.075 119.381 116.16 118.847 116.16ZM123.326 116L125.806 112.592C125.23 112.517 124.771 112.272 124.43 111.856C124.089 111.44 123.918 110.875 123.918 110.16C123.918 109.691 124.03 109.269 124.254 108.896C124.478 108.512 124.793 108.208 125.198 107.984C125.614 107.76 126.099 107.648 126.654 107.648H129.838V116H128.75V112.768H126.894L124.542 116H123.326ZM126.638 111.936H128.75V108.512H126.83C126.275 108.512 125.833 108.672 125.502 108.992C125.171 109.301 125.006 109.696 125.006 110.176C125.006 110.667 125.139 111.083 125.406 111.424C125.683 111.765 126.094 111.936 126.638 111.936ZM38.16 137.144C37.424 137.144 36.7253 136.973 36.064 136.632C35.4027 136.28 34.9173 135.784 34.608 135.144L35.488 134.744C35.7653 135.256 36.1387 135.635 36.608 135.88C37.088 136.125 37.5787 136.248 38.08 136.248C38.6347 136.248 39.136 136.109 39.584 135.832C40.0427 135.544 40.4107 135.165 40.688 134.696C40.976 134.216 41.1413 133.699 41.184 133.144H37.296V132.376H41.168C41.1147 131.875 40.96 131.4 40.704 130.952C40.448 130.504 40.1013 130.141 39.664 129.864C39.2267 129.576 38.704 129.432 38.096 129.432C37.5947 129.432 37.1253 129.539 36.688 129.752C36.2613 129.965 35.904 130.333 35.616 130.856L34.768 130.424C35.0667 129.859 35.4987 129.4 36.064 129.048C36.6293 128.696 37.312 128.52 38.112 128.52C38.784 128.52 39.376 128.643 39.888 128.888C40.4107 129.133 40.848 129.459 41.2 129.864C41.5627 130.269 41.8347 130.728 42.016 131.24C42.1973 131.752 42.288 132.269 42.288 132.792C42.288 133.336 42.192 133.869 42 134.392C41.808 134.904 41.5307 135.368 41.168 135.784C40.8053 136.2 40.368 136.531 39.856 136.776C39.3547 137.021 38.7893 137.144 38.16 137.144ZM44.0903 137V128.664H45.1783V132.248H49.9463V128.664H51.0343V137H49.9463V133.224H45.1783V137H44.0903ZM57.0344 137.16C56.2344 137.16 55.5197 136.963 54.8904 136.568C54.261 136.173 53.765 135.645 53.4024 134.984C53.0397 134.323 52.8584 133.597 52.8584 132.808C52.8584 132.029 53.0344 131.315 53.3864 130.664C53.749 130.013 54.245 129.496 54.8744 129.112C55.5037 128.717 56.2184 128.52 57.0184 128.52C57.8397 128.52 58.5597 128.717 59.1784 129.112C59.797 129.507 60.277 130.029 60.6184 130.68C60.9704 131.32 61.1464 132.024 61.1464 132.792C61.1464 132.963 61.141 133.107 61.1304 133.224H53.9944C54.0477 133.821 54.2184 134.355 54.5064 134.824C54.7944 135.283 55.1624 135.651 55.6104 135.928C56.0584 136.195 56.549 136.328 57.0824 136.328C57.6264 136.328 58.1384 136.189 58.6184 135.912C59.0984 135.635 59.4397 135.272 59.6424 134.824L60.5864 135.08C60.4157 135.485 60.149 135.848 59.7864 136.168C59.4344 136.477 59.0237 136.723 58.5544 136.904C58.085 137.075 57.5784 137.16 57.0344 137.16ZM53.9624 132.44H60.1224C60.0797 131.843 59.9144 131.315 59.6264 130.856C59.3384 130.387 58.9704 130.024 58.5224 129.768C58.0744 129.501 57.5784 129.368 57.0344 129.368C56.4904 129.368 55.9944 129.501 55.5464 129.768C55.0984 130.024 54.7304 130.387 54.4424 130.856C54.165 131.315 54.005 131.843 53.9624 132.44ZM67.081 137.16C66.3877 137.16 65.7637 136.979 65.209 136.616C64.665 136.253 64.233 135.805 63.913 135.272V140.408H62.825V128.664H63.801V130.28C64.1317 129.757 64.569 129.336 65.113 129.016C65.6677 128.685 66.265 128.52 66.905 128.52C67.481 128.52 68.009 128.643 68.489 128.888C68.969 129.123 69.385 129.443 69.737 129.848C70.0997 130.253 70.377 130.717 70.569 131.24C70.761 131.752 70.857 132.285 70.857 132.84C70.857 133.619 70.697 134.339 70.377 135C70.0677 135.651 69.625 136.173 69.049 136.568C68.4837 136.963 67.8277 137.16 67.081 137.16ZM66.777 136.2C67.385 136.2 67.9077 136.04 68.345 135.72C68.793 135.389 69.1397 134.968 69.385 134.456C69.6303 133.944 69.753 133.405 69.753 132.84C69.753 132.243 69.6143 131.688 69.337 131.176C69.0597 130.664 68.6863 130.253 68.217 129.944C67.7583 129.635 67.2357 129.48 66.649 129.48C66.2863 129.48 65.9023 129.576 65.497 129.768C65.1023 129.949 64.7503 130.2 64.441 130.52C64.1423 130.829 63.9663 131.171 63.913 131.544V134.104C64.1583 134.691 64.5423 135.187 65.065 135.592C65.5877 135.997 66.1583 136.2 66.777 136.2ZM72.684 137V128.664H77.66V129.64H73.772V137H72.684ZM79.1684 137V128.68H80.2564V135.528L85.3284 128.664H86.3044V137H85.2164V130.264L80.2244 137H79.1684ZM92.2844 137.16C91.4844 137.16 90.7697 136.963 90.1404 136.568C89.511 136.173 89.015 135.645 88.6524 134.984C88.2897 134.323 88.1084 133.597 88.1084 132.808C88.1084 132.029 88.2844 131.315 88.6364 130.664C88.999 130.013 89.495 129.496 90.1244 129.112C90.7537 128.717 91.4684 128.52 92.2684 128.52C93.0897 128.52 93.8097 128.717 94.4284 129.112C95.047 129.507 95.527 130.029 95.8684 130.68C96.2204 131.32 96.3964 132.024 96.3964 132.792C96.3964 132.963 96.391 133.107 96.3804 133.224H89.2444C89.2977 133.821 89.4684 134.355 89.7564 134.824C90.0444 135.283 90.4124 135.651 90.8604 135.928C91.3084 136.195 91.799 136.328 92.3324 136.328C92.8764 136.328 93.3884 136.189 93.8684 135.912C94.3484 135.635 94.6897 135.272 94.8924 134.824L95.8364 135.08C95.6657 135.485 95.399 135.848 95.0364 136.168C94.6844 136.477 94.2737 136.723 93.8044 136.904C93.335 137.075 92.8284 137.16 92.2844 137.16ZM89.2124 132.44H95.3724C95.3297 131.843 95.1644 131.315 94.8764 130.856C94.5884 130.387 94.2204 130.024 93.7724 129.768C93.3244 129.501 92.8284 129.368 92.2844 129.368C91.7404 129.368 91.2444 129.501 90.7964 129.768C90.3484 130.024 89.9804 130.387 89.6924 130.856C89.415 131.315 89.255 131.843 89.2124 132.44ZM98.059 137V128.68H99.147V135.528L104.219 128.664H105.195V137H104.107V130.264L99.115 137H98.059ZM101.643 127.608C100.918 127.608 100.358 127.437 99.963 127.096C99.5683 126.755 99.371 126.323 99.371 125.8H100.171C100.171 126.12 100.288 126.387 100.523 126.6C100.768 126.813 101.142 126.92 101.643 126.92C102.134 126.92 102.491 126.819 102.715 126.616C102.95 126.413 103.083 126.141 103.115 125.8H103.899C103.899 126.323 103.702 126.755 103.307 127.096C102.912 127.437 102.358 127.608 101.643 127.608ZM107.751 138.296L108.023 136.952H107.655V135.432H108.711V136.952L108.311 138.296H107.751ZM115.231 137V128.664H116.319V132.248H121.087V128.664H122.175V137H121.087V133.224H116.319V137H115.231ZM123.903 134.6C123.903 134.088 124.052 133.645 124.351 133.272C124.65 132.888 125.06 132.589 125.583 132.376C126.116 132.163 126.73 132.056 127.423 132.056C127.828 132.056 128.25 132.093 128.687 132.168C129.124 132.232 129.514 132.323 129.855 132.44V131.736C129.855 131.032 129.647 130.472 129.231 130.056C128.815 129.64 128.239 129.432 127.503 129.432C127.066 129.432 126.628 129.517 126.191 129.688C125.754 129.848 125.3 130.088 124.831 130.408L124.415 129.64C124.959 129.267 125.492 128.989 126.015 128.808C126.538 128.616 127.071 128.52 127.615 128.52C128.639 128.52 129.45 128.813 130.047 129.4C130.644 129.987 130.943 130.797 130.943 131.832V135.688C130.943 135.976 131.076 136.125 131.343 136.136V137C131.108 137.032 130.943 137.043 130.847 137.032C130.58 137.021 130.378 136.936 130.239 136.776C130.1 136.616 130.026 136.445 130.015 136.264L129.999 135.656C129.626 136.136 129.14 136.509 128.543 136.776C127.946 137.032 127.338 137.16 126.719 137.16C126.175 137.16 125.69 137.048 125.263 136.824C124.836 136.589 124.5 136.28 124.255 135.896C124.02 135.501 123.903 135.069 123.903 134.6ZM129.487 135.24C129.732 134.952 129.855 134.685 129.855 134.44V133.224C129.119 132.936 128.351 132.792 127.551 132.792C126.772 132.792 126.143 132.947 125.663 133.256C125.183 133.565 124.943 133.987 124.943 134.52C124.943 134.979 125.119 135.395 125.471 135.768C125.834 136.141 126.335 136.328 126.975 136.328C127.498 136.328 127.983 136.227 128.431 136.024C128.89 135.821 129.242 135.56 129.487 135.24ZM133.278 137V128.68H134.366V135.528L139.438 128.664H140.414V137H139.326V130.264L134.334 137H133.278ZM136.862 127.608C136.136 127.608 135.576 127.437 135.182 127.096C134.787 126.755 134.59 126.323 134.59 125.8H135.39C135.39 126.12 135.507 126.387 135.742 126.6C135.987 126.813 136.36 126.92 136.862 126.92C137.352 126.92 137.71 126.819 137.934 126.616C138.168 126.413 138.302 126.141 138.334 125.8H139.118C139.118 126.323 138.92 126.755 138.526 127.096C138.131 127.437 137.576 127.608 136.862 127.608ZM144.874 137V129.64H141.898V128.664H148.938V129.64H145.962V137H144.874ZM150.403 137V128.68H151.491V135.528L156.563 128.664H157.539V137H156.451V130.264L151.459 137H150.403ZM35.184 158V149.664H36.272V153.232H37.52L40.32 149.664H41.568L38.384 153.712L41.968 158H40.688L37.52 154.24H36.272V158H35.184ZM46.627 158.16C45.827 158.16 45.1123 157.963 44.483 157.568C43.8643 157.173 43.379 156.651 43.027 156C42.675 155.339 42.499 154.624 42.499 153.856C42.499 153.077 42.675 152.363 43.027 151.712C43.3897 151.051 43.8803 150.523 44.499 150.128C45.1283 149.723 45.8377 149.52 46.627 149.52C47.427 149.52 48.1363 149.723 48.755 150.128C49.3843 150.523 49.875 151.051 50.227 151.712C50.5897 152.363 50.771 153.077 50.771 153.856C50.771 154.624 50.595 155.339 50.243 156C49.891 156.651 49.4003 157.173 48.771 157.568C48.1523 157.963 47.4377 158.16 46.627 158.16ZM43.603 153.872C43.603 154.491 43.7363 155.056 44.003 155.568C44.2803 156.069 44.6483 156.469 45.107 156.768C45.5657 157.056 46.0723 157.2 46.627 157.2C47.1817 157.2 47.6883 157.051 48.147 156.752C48.6057 156.453 48.9737 156.048 49.251 155.536C49.5283 155.024 49.667 154.459 49.667 153.84C49.667 153.221 49.5283 152.656 49.251 152.144C48.9737 151.632 48.6057 151.227 48.147 150.928C47.6883 150.629 47.1817 150.48 46.627 150.48C46.083 150.48 45.5817 150.635 45.123 150.944C44.6643 151.243 44.2963 151.648 44.019 152.16C43.7417 152.672 43.603 153.243 43.603 153.872ZM52.5746 158V149.664H53.6626V153.248H58.4306V149.664H59.5186V158H58.4306V154.224H53.6626V158H52.5746ZM63.9988 158V150.64H61.0228V149.664H68.0628V150.64H65.0868V158H63.9988ZM68.8249 155.6C68.8249 155.088 68.9742 154.645 69.2729 154.272C69.5715 153.888 69.9822 153.589 70.5049 153.376C71.0382 153.163 71.6515 153.056 72.3449 153.056C72.7502 153.056 73.1715 153.093 73.6089 153.168C74.0462 153.232 74.4355 153.323 74.7769 153.44V152.736C74.7769 152.032 74.5689 151.472 74.1529 151.056C73.7369 150.64 73.1609 150.432 72.4249 150.432C71.9875 150.432 71.5502 150.517 71.1129 150.688C70.6755 150.848 70.2222 151.088 69.7529 151.408L69.3369 150.64C69.8809 150.267 70.4142 149.989 70.9369 149.808C71.4595 149.616 71.9929 149.52 72.5369 149.52C73.5609 149.52 74.3715 149.813 74.9689 150.4C75.5662 150.987 75.8649 151.797 75.8649 152.832V156.688C75.8649 156.976 75.9982 157.125 76.2649 157.136V158C76.0302 158.032 75.8649 158.043 75.7689 158.032C75.5022 158.021 75.2995 157.936 75.1609 157.776C75.0222 157.616 74.9475 157.445 74.9369 157.264L74.9209 156.656C74.5475 157.136 74.0622 157.509 73.4649 157.776C72.8675 158.032 72.2595 158.16 71.6409 158.16C71.0969 158.16 70.6115 158.048 70.1849 157.824C69.7582 157.589 69.4222 157.28 69.1769 156.896C68.9422 156.501 68.8249 156.069 68.8249 155.6ZM74.4089 156.24C74.6542 155.952 74.7769 155.685 74.7769 155.44V154.224C74.0409 153.936 73.2729 153.792 72.4729 153.792C71.6942 153.792 71.0649 153.947 70.5849 154.256C70.1049 154.565 69.8649 154.987 69.8649 155.52C69.8649 155.979 70.0409 156.395 70.3929 156.768C70.7555 157.141 71.2569 157.328 71.8969 157.328C72.4195 157.328 72.9049 157.227 73.3529 157.024C73.8115 156.821 74.1635 156.56 74.4089 156.24ZM78.1996 158V149.664H79.2876V153.232H80.5356L83.3356 149.664H84.5836L81.3996 153.712L84.9836 158H83.7036L80.5356 154.24H79.2876V158H78.1996ZM88.6081 158V150.64H85.6321V149.664H92.6721V150.64H89.6961V158H88.6081ZM101.847 158.16C101.037 158.16 100.317 157.963 99.6873 157.568C99.0579 157.163 98.5619 156.635 98.1993 155.984C97.8366 155.323 97.6553 154.597 97.6553 153.808C97.6553 153.019 97.8313 152.304 98.1833 151.664C98.5353 151.013 99.0259 150.496 99.6553 150.112C100.285 149.717 101.01 149.52 101.831 149.52C102.61 149.52 103.293 149.701 103.879 150.064C104.477 150.416 104.925 150.896 105.223 151.504L104.167 151.84C103.933 151.413 103.602 151.083 103.175 150.848C102.759 150.603 102.295 150.48 101.783 150.48C101.218 150.48 100.706 150.624 100.247 150.912C99.7993 151.2 99.4366 151.6 99.1593 152.112C98.8926 152.613 98.7593 153.179 98.7593 153.808C98.7593 154.437 98.8979 155.008 99.1753 155.52C99.4526 156.032 99.8206 156.443 100.279 156.752C100.738 157.051 101.245 157.2 101.799 157.2C102.162 157.2 102.514 157.136 102.855 157.008C103.197 156.88 103.49 156.709 103.735 156.496C103.981 156.272 104.146 156.032 104.231 155.776L105.303 156.096C105.154 156.491 104.909 156.848 104.567 157.168C104.226 157.477 103.821 157.723 103.351 157.904C102.882 158.075 102.381 158.16 101.847 158.16ZM113.171 158V150.64H110.195V149.664H117.235V150.64H114.259V158H113.171ZM122.316 158.16C121.516 158.16 120.801 157.963 120.172 157.568C119.542 157.173 119.046 156.645 118.684 155.984C118.321 155.323 118.14 154.597 118.14 153.808C118.14 153.029 118.316 152.315 118.668 151.664C119.03 151.013 119.526 150.496 120.156 150.112C120.785 149.717 121.5 149.52 122.3 149.52C123.121 149.52 123.841 149.717 124.46 150.112C125.078 150.507 125.558 151.029 125.9 151.68C126.252 152.32 126.428 153.024 126.428 153.792C126.428 153.963 126.422 154.107 126.412 154.224H119.276C119.329 154.821 119.5 155.355 119.788 155.824C120.076 156.283 120.444 156.651 120.892 156.928C121.34 157.195 121.83 157.328 122.364 157.328C122.908 157.328 123.42 157.189 123.9 156.912C124.38 156.635 124.721 156.272 124.924 155.824L125.868 156.08C125.697 156.485 125.43 156.848 125.068 157.168C124.716 157.477 124.305 157.723 123.836 157.904C123.366 158.075 122.86 158.16 122.316 158.16ZM119.244 153.44H125.404C125.361 152.843 125.196 152.315 124.908 151.856C124.62 151.387 124.252 151.024 123.804 150.768C123.356 150.501 122.86 150.368 122.316 150.368C121.772 150.368 121.276 150.501 120.828 150.768C120.38 151.024 120.012 151.387 119.724 151.856C119.446 152.315 119.286 152.843 119.244 153.44ZM127.306 158.048V157.056C127.584 157.056 127.834 156.981 128.058 156.832C128.293 156.683 128.496 156.421 128.666 156.048C128.848 155.675 128.992 155.157 129.098 154.496C129.205 153.835 129.274 152.997 129.306 151.984L129.402 149.664H134.81V158H133.722V150.64H130.362L130.33 152.08C130.277 153.627 130.133 154.832 129.898 155.696C129.664 156.56 129.328 157.168 128.89 157.52C128.464 157.861 127.936 158.037 127.306 158.048ZM140.768 158.16C139.968 158.16 139.253 157.963 138.624 157.568C138.005 157.173 137.52 156.651 137.168 156C136.816 155.339 136.64 154.624 136.64 153.856C136.64 153.077 136.816 152.363 137.168 151.712C137.53 151.051 138.021 150.523 138.64 150.128C139.269 149.723 139.978 149.52 140.768 149.52C141.568 149.52 142.277 149.723 142.896 150.128C143.525 150.523 144.016 151.051 144.368 151.712C144.73 152.363 144.912 153.077 144.912 153.856C144.912 154.624 144.736 155.339 144.384 156C144.032 156.651 143.541 157.173 142.912 157.568C142.293 157.963 141.578 158.16 140.768 158.16ZM137.744 153.872C137.744 154.491 137.877 155.056 138.144 155.568C138.421 156.069 138.789 156.469 139.248 156.768C139.706 157.056 140.213 157.2 140.768 157.2C141.322 157.2 141.829 157.051 142.288 156.752C142.746 156.453 143.114 156.048 143.392 155.536C143.669 155.024 143.808 154.459 143.808 153.84C143.808 153.221 143.669 152.656 143.392 152.144C143.114 151.632 142.746 151.227 142.288 150.928C141.829 150.629 141.322 150.48 140.768 150.48C140.224 150.48 139.722 150.635 139.264 150.944C138.805 151.243 138.437 151.648 138.16 152.16C137.882 152.672 137.744 153.243 137.744 153.872ZM146.715 158V149.664H147.835L151.147 155.408L154.475 149.664H155.547V158H154.507V151.296L151.499 156.512H150.795L147.755 151.296V158H146.715ZM158.126 159.296L158.398 157.952H158.03V156.432H159.086V157.952L158.686 159.296H158.126ZM38.816 179.16C38.0053 179.16 37.2853 178.963 36.656 178.568C36.0267 178.163 35.5307 177.635 35.168 176.984C34.8053 176.323 34.624 175.597 34.624 174.808C34.624 174.019 34.8 173.304 35.152 172.664C35.504 172.013 35.9947 171.496 36.624 171.112C37.2533 170.717 37.9787 170.52 38.8 170.52C39.5787 170.52 40.2613 170.701 40.848 171.064C41.4453 171.416 41.8933 171.896 42.192 172.504L41.136 172.84C40.9013 172.413 40.5707 172.083 40.144 171.848C39.728 171.603 39.264 171.48 38.752 171.48C38.1867 171.48 37.6747 171.624 37.216 171.912C36.768 172.2 36.4053 172.6 36.128 173.112C35.8613 173.613 35.728 174.179 35.728 174.808C35.728 175.437 35.8667 176.008 36.144 176.52C36.4213 177.032 36.7893 177.443 37.248 177.752C37.7067 178.051 38.2133 178.2 38.768 178.2C39.1307 178.2 39.4827 178.136 39.824 178.008C40.1653 177.88 40.4587 177.709 40.704 177.496C40.9493 177.272 41.1147 177.032 41.2 176.776L42.272 177.096C42.1227 177.491 41.8773 177.848 41.536 178.168C41.1947 178.477 40.7893 178.723 40.32 178.904C39.8507 179.075 39.3493 179.16 38.816 179.16ZM46.0613 179V171.64H43.0853V170.664H50.1253V171.64H47.1493V179H46.0613ZM50.8874 176.6C50.8874 176.088 51.0367 175.645 51.3354 175.272C51.634 174.888 52.0447 174.589 52.5674 174.376C53.1007 174.163 53.714 174.056 54.4074 174.056C54.8127 174.056 55.234 174.093 55.6714 174.168C56.1087 174.232 56.498 174.323 56.8394 174.44V173.736C56.8394 173.032 56.6314 172.472 56.2154 172.056C55.7994 171.64 55.2234 171.432 54.4874 171.432C54.05 171.432 53.6127 171.517 53.1754 171.688C52.738 171.848 52.2847 172.088 51.8154 172.408L51.3994 171.64C51.9434 171.267 52.4767 170.989 52.9994 170.808C53.522 170.616 54.0554 170.52 54.5994 170.52C55.6234 170.52 56.434 170.813 57.0314 171.4C57.6287 171.987 57.9274 172.797 57.9274 173.832V177.688C57.9274 177.976 58.0607 178.125 58.3274 178.136V179C58.0927 179.032 57.9274 179.043 57.8314 179.032C57.5647 179.021 57.362 178.936 57.2234 178.776C57.0847 178.616 57.01 178.445 56.9994 178.264L56.9834 177.656C56.61 178.136 56.1247 178.509 55.5274 178.776C54.93 179.032 54.322 179.16 53.7034 179.16C53.1594 179.16 52.674 179.048 52.2474 178.824C51.8207 178.589 51.4847 178.28 51.2394 177.896C51.0047 177.501 50.8874 177.069 50.8874 176.6ZM56.4714 177.24C56.7167 176.952 56.8394 176.685 56.8394 176.44V175.224C56.1034 174.936 55.3354 174.792 54.5354 174.792C53.7567 174.792 53.1274 174.947 52.6474 175.256C52.1674 175.565 51.9274 175.987 51.9274 176.52C51.9274 176.979 52.1034 177.395 52.4554 177.768C52.818 178.141 53.3194 178.328 53.9594 178.328C54.482 178.328 54.9674 178.227 55.4154 178.024C55.874 177.821 56.226 177.56 56.4714 177.24ZM62.2175 179V171.64H59.2415V170.664H66.2815V171.64H63.3055V179H62.2175ZM67.7465 179V170.664H68.8345V173.608H70.9945C71.9438 173.608 72.6585 173.853 73.1385 174.344C73.6292 174.824 73.8745 175.459 73.8745 176.248C73.8745 176.76 73.7678 177.224 73.5545 177.64C73.3412 178.056 73.0265 178.387 72.6105 178.632C72.1945 178.877 71.6825 179 71.0745 179H67.7465ZM68.8345 178.136H70.9305C71.5812 178.136 72.0505 177.949 72.3385 177.576C72.6265 177.192 72.7705 176.755 72.7705 176.264C72.7705 175.944 72.7118 175.651 72.5945 175.384C72.4878 175.107 72.2958 174.888 72.0185 174.728C71.7518 174.557 71.3785 174.472 70.8985 174.472H68.8345V178.136ZM79.6371 179V170.664H84.6131V171.64H80.7251V179H79.6371ZM86.1215 179V170.68H87.2095V177.528L92.2815 170.664H93.2575V179H92.1695V172.264L87.1775 179H86.1215ZM99.4615 179.16C98.1175 179.16 97.0988 178.749 96.4055 177.928C95.7228 177.096 95.3815 175.949 95.3815 174.488C95.3815 173.453 95.4668 172.579 95.6375 171.864C95.8082 171.149 96.0588 170.557 96.3895 170.088C96.7202 169.619 97.1255 169.24 97.6055 168.952C98.0962 168.653 98.6562 168.408 99.2855 168.216L102.79 167.064L102.885 168.008L99.5095 169.112C98.8695 169.336 98.3308 169.608 97.8935 169.928C97.4668 170.248 97.1308 170.669 96.8855 171.192C96.6508 171.704 96.5015 172.36 96.4375 173.16C96.7042 172.541 97.1255 172.067 97.7015 171.736C98.2882 171.395 98.9602 171.224 99.7175 171.224C100.528 171.224 101.216 171.389 101.782 171.72C102.358 172.051 102.795 172.509 103.094 173.096C103.392 173.683 103.542 174.36 103.542 175.128C103.542 176.344 103.19 177.32 102.486 178.056C101.792 178.792 100.784 179.16 99.4615 179.16ZM99.4615 178.2C100.411 178.2 101.142 177.928 101.654 177.384C102.176 176.829 102.438 176.093 102.438 175.176C102.438 174.28 102.182 173.549 101.67 172.984C101.158 172.419 100.422 172.136 99.4615 172.136C98.9068 172.136 98.4055 172.253 97.9575 172.488C97.5095 172.723 97.1522 173.064 96.8855 173.512C96.6295 173.96 96.5015 174.515 96.5015 175.176C96.5015 176.051 96.7522 176.776 97.2535 177.352C97.7655 177.917 98.5015 178.2 99.4615 178.2ZM110.14 179V175.512C109.468 175.832 108.711 175.992 107.868 175.992C106.023 175.992 105.1 175.037 105.1 173.128V170.664H106.188V172.984C106.188 173.731 106.337 174.275 106.636 174.616C106.945 174.957 107.436 175.128 108.108 175.128C108.492 175.128 108.865 175.085 109.228 175C109.601 174.915 109.905 174.803 110.14 174.664V170.664H111.228V179H110.14ZM117.222 179.16C116.422 179.16 115.707 178.963 115.078 178.568C114.449 178.173 113.953 177.645 113.59 176.984C113.227 176.323 113.046 175.597 113.046 174.808C113.046 174.029 113.222 173.315 113.574 172.664C113.937 172.013 114.433 171.496 115.062 171.112C115.691 170.717 116.406 170.52 117.206 170.52C118.027 170.52 118.747 170.717 119.366 171.112C119.985 171.507 120.465 172.029 120.806 172.68C121.158 173.32 121.334 174.024 121.334 174.792C121.334 174.963 121.329 175.107 121.318 175.224H114.182C114.235 175.821 114.406 176.355 114.694 176.824C114.982 177.283 115.35 177.651 115.798 177.928C116.246 178.195 116.737 178.328 117.27 178.328C117.814 178.328 118.326 178.189 118.806 177.912C119.286 177.635 119.627 177.272 119.83 176.824L120.774 177.08C120.603 177.485 120.337 177.848 119.974 178.168C119.622 178.477 119.211 178.723 118.742 178.904C118.273 179.075 117.766 179.16 117.222 179.16ZM114.15 174.44H120.31C120.267 173.843 120.102 173.315 119.814 172.856C119.526 172.387 119.158 172.024 118.71 171.768C118.262 171.501 117.766 171.368 117.222 171.368C116.678 171.368 116.182 171.501 115.734 171.768C115.286 172.024 114.918 172.387 114.63 172.856C114.353 173.315 114.193 173.843 114.15 174.44ZM127.075 179V170.68H128.163V177.528L133.235 170.664H134.211V179H133.123V172.264L128.131 179H127.075ZM38.816 200.16C38.0053 200.16 37.2853 199.963 36.656 199.568C36.0267 199.163 35.5307 198.635 35.168 197.984C34.8053 197.323 34.624 196.597 34.624 195.808C34.624 195.019 34.8 194.304 35.152 193.664C35.504 193.013 35.9947 192.496 36.624 192.112C37.2533 191.717 37.9787 191.52 38.8 191.52C39.5787 191.52 40.2613 191.701 40.848 192.064C41.4453 192.416 41.8933 192.896 42.192 193.504L41.136 193.84C40.9013 193.413 40.5707 193.083 40.144 192.848C39.728 192.603 39.264 192.48 38.752 192.48C38.1867 192.48 37.6747 192.624 37.216 192.912C36.768 193.2 36.4053 193.6 36.128 194.112C35.8613 194.613 35.728 195.179 35.728 195.808C35.728 196.437 35.8667 197.008 36.144 197.52C36.4213 198.032 36.7893 198.443 37.248 198.752C37.7067 199.051 38.2133 199.2 38.768 199.2C39.1307 199.2 39.4827 199.136 39.824 199.008C40.1653 198.88 40.4587 198.709 40.704 198.496C40.9493 198.272 41.1147 198.032 41.2 197.776L42.272 198.096C42.1227 198.491 41.8773 198.848 41.536 199.168C41.1947 199.477 40.7893 199.723 40.32 199.904C39.8507 200.075 39.3493 200.16 38.816 200.16ZM46.0613 200V192.64H43.0853V191.664H50.1253V192.64H47.1493V200H46.0613ZM55.8623 200.16C55.1689 200.16 54.5449 199.979 53.9903 199.616C53.4463 199.253 53.0143 198.805 52.6943 198.272V203.408H51.6063V191.664H52.5823V193.28C52.9129 192.757 53.3503 192.336 53.8943 192.016C54.4489 191.685 55.0463 191.52 55.6863 191.52C56.2623 191.52 56.7903 191.643 57.2703 191.888C57.7503 192.123 58.1663 192.443 58.5183 192.848C58.8809 193.253 59.1583 193.717 59.3503 194.24C59.5423 194.752 59.6383 195.285 59.6383 195.84C59.6383 196.619 59.4783 197.339 59.1583 198C58.8489 198.651 58.4063 199.173 57.8303 199.568C57.2649 199.963 56.6089 200.16 55.8623 200.16ZM55.5583 199.2C56.1663 199.2 56.6889 199.04 57.1263 198.72C57.5743 198.389 57.9209 197.968 58.1663 197.456C58.4116 196.944 58.5343 196.405 58.5343 195.84C58.5343 195.243 58.3956 194.688 58.1183 194.176C57.8409 193.664 57.4676 193.253 56.9983 192.944C56.5396 192.635 56.0169 192.48 55.4303 192.48C55.0676 192.48 54.6836 192.576 54.2783 192.768C53.8836 192.949 53.5316 193.2 53.2223 193.52C52.9236 193.829 52.7476 194.171 52.6943 194.544V197.104C52.9396 197.691 53.3236 198.187 53.8463 198.592C54.3689 198.997 54.9396 199.2 55.5583 199.2ZM65.0333 200.16C64.2333 200.16 63.5186 199.963 62.8893 199.568C62.2706 199.173 61.7853 198.651 61.4333 198C61.0813 197.339 60.9053 196.624 60.9053 195.856C60.9053 195.077 61.0813 194.363 61.4333 193.712C61.7959 193.051 62.2866 192.523 62.9053 192.128C63.5346 191.723 64.2439 191.52 65.0333 191.52C65.8333 191.52 66.5426 191.723 67.1613 192.128C67.7906 192.523 68.2813 193.051 68.6333 193.712C68.9959 194.363 69.1773 195.077 69.1773 195.856C69.1773 196.624 69.0013 197.339 68.6493 198C68.2973 198.651 67.8066 199.173 67.1773 199.568C66.5586 199.963 65.8439 200.16 65.0333 200.16ZM62.0093 195.872C62.0093 196.491 62.1426 197.056 62.4093 197.568C62.6866 198.069 63.0546 198.469 63.5133 198.768C63.9719 199.056 64.4786 199.2 65.0333 199.2C65.5879 199.2 66.0946 199.051 66.5533 198.752C67.0119 198.453 67.3799 198.048 67.6573 197.536C67.9346 197.024 68.0733 196.459 68.0733 195.84C68.0733 195.221 67.9346 194.656 67.6573 194.144C67.3799 193.632 67.0119 193.227 66.5533 192.928C66.0946 192.629 65.5879 192.48 65.0333 192.48C64.4893 192.48 63.9879 192.635 63.5293 192.944C63.0706 193.243 62.7026 193.648 62.4253 194.16C62.1479 194.672 62.0093 195.243 62.0093 195.872ZM70.9809 200V191.68H72.0689V198.528L77.1409 191.664H78.1169V200H77.0289V193.264L72.0369 200H70.9809ZM74.5649 190.608C73.8395 190.608 73.2795 190.437 72.8849 190.096C72.4902 189.755 72.2929 189.323 72.2929 188.8H73.0929C73.0929 189.12 73.2102 189.387 73.4449 189.6C73.6902 189.813 74.0635 189.92 74.5649 189.92C75.0555 189.92 75.4129 189.819 75.6369 189.616C75.8715 189.413 76.0049 189.141 76.0369 188.8H76.8209C76.8209 189.323 76.6235 189.755 76.2289 190.096C75.8342 190.437 75.2795 190.608 74.5649 190.608ZM80.4809 200V191.664H81.5689V195.248H86.3369V191.664H87.4249V200H86.3369V196.224H81.5689V200H80.4809ZM93.425 200.16C92.625 200.16 91.9103 199.963 91.281 199.568C90.6517 199.173 90.1557 198.645 89.793 197.984C89.4303 197.323 89.249 196.597 89.249 195.808C89.249 195.029 89.425 194.315 89.777 193.664C90.1397 193.013 90.6357 192.496 91.265 192.112C91.8943 191.717 92.609 191.52 93.409 191.52C94.2303 191.52 94.9503 191.717 95.569 192.112C96.1877 192.507 96.6677 193.029 97.009 193.68C97.361 194.32 97.537 195.024 97.537 195.792C97.537 195.963 97.5317 196.107 97.521 196.224H90.385C90.4383 196.821 90.609 197.355 90.897 197.824C91.185 198.283 91.553 198.651 92.001 198.928C92.449 199.195 92.9397 199.328 93.473 199.328C94.017 199.328 94.529 199.189 95.009 198.912C95.489 198.635 95.8303 198.272 96.033 197.824L96.977 198.08C96.8063 198.485 96.5397 198.848 96.177 199.168C95.825 199.477 95.4143 199.723 94.945 199.904C94.4757 200.075 93.969 200.16 93.425 200.16ZM90.353 195.44H96.513C96.4703 194.843 96.305 194.315 96.017 193.856C95.729 193.387 95.361 193.024 94.913 192.768C94.465 192.501 93.969 192.368 93.425 192.368C92.881 192.368 92.385 192.501 91.937 192.768C91.489 193.024 91.121 193.387 90.833 193.856C90.5557 194.315 90.3957 194.843 90.353 195.44ZM102.816 200.16C102.016 200.16 101.301 199.963 100.672 199.568C100.042 199.173 99.5463 198.645 99.1836 197.984C98.821 197.323 98.6396 196.597 98.6396 195.808C98.6396 195.029 98.8156 194.315 99.1676 193.664C99.5303 193.013 100.026 192.496 100.656 192.112C101.285 191.717 102 191.52 102.8 191.52C103.621 191.52 104.341 191.717 104.96 192.112C105.578 192.507 106.058 193.029 106.4 193.68C106.752 194.32 106.928 195.024 106.928 195.792C106.928 195.963 106.922 196.107 106.912 196.224H99.7756C99.829 196.821 99.9996 197.355 100.288 197.824C100.576 198.283 100.944 198.651 101.392 198.928C101.84 199.195 102.33 199.328 102.864 199.328C103.408 199.328 103.92 199.189 104.4 198.912C104.88 198.635 105.221 198.272 105.424 197.824L106.368 198.08C106.197 198.485 105.93 198.848 105.568 199.168C105.216 199.477 104.805 199.723 104.336 199.904C103.866 200.075 103.36 200.16 102.816 200.16ZM99.7436 195.44H105.904C105.861 194.843 105.696 194.315 105.408 193.856C105.12 193.387 104.752 193.024 104.304 192.768C103.856 192.501 103.36 192.368 102.816 192.368C102.272 192.368 101.776 192.501 101.328 192.768C100.88 193.024 100.512 193.387 100.224 193.856C99.9463 194.315 99.7863 194.843 99.7436 195.44ZM108.446 200V198.432H109.39V200H108.446ZM115.876 188.64L119.588 193.584L123.284 188.64H124.548L120.196 194.4L124.42 200H123.156L119.588 195.216L116.004 200H114.724L118.948 194.4L114.596 188.64H115.876ZM129.377 200.16C128.577 200.16 127.862 199.963 127.233 199.568C126.614 199.173 126.129 198.651 125.777 198C125.425 197.339 125.249 196.624 125.249 195.856C125.249 195.077 125.425 194.363 125.777 193.712C126.14 193.051 126.63 192.523 127.249 192.128C127.878 191.723 128.588 191.52 129.377 191.52C130.177 191.52 130.886 191.723 131.505 192.128C132.134 192.523 132.625 193.051 132.977 193.712C133.34 194.363 133.521 195.077 133.521 195.856C133.521 196.624 133.345 197.339 132.993 198C132.641 198.651 132.15 199.173 131.521 199.568C130.902 199.963 130.188 200.16 129.377 200.16ZM126.353 195.872C126.353 196.491 126.486 197.056 126.753 197.568C127.03 198.069 127.398 198.469 127.857 198.768C128.316 199.056 128.822 199.2 129.377 199.2C129.932 199.2 130.438 199.051 130.897 198.752C131.356 198.453 131.724 198.048 132.001 197.536C132.278 197.024 132.417 196.459 132.417 195.84C132.417 195.221 132.278 194.656 132.001 194.144C131.724 193.632 131.356 193.227 130.897 192.928C130.438 192.629 129.932 192.48 129.377 192.48C128.833 192.48 128.332 192.635 127.873 192.944C127.414 193.243 127.046 193.648 126.769 194.16C126.492 194.672 126.353 195.243 126.353 195.872ZM140.109 200V196.512C139.437 196.832 138.679 196.992 137.837 196.992C135.991 196.992 135.069 196.037 135.069 194.128V191.664H136.157V193.984C136.157 194.731 136.306 195.275 136.605 195.616C136.914 195.957 137.405 196.128 138.077 196.128C138.461 196.128 138.834 196.085 139.197 196C139.57 195.915 139.874 195.803 140.109 195.664V191.664H141.197V200H140.109ZM147.191 200.16C146.391 200.16 145.676 199.963 145.047 199.568C144.417 199.173 143.921 198.645 143.559 197.984C143.196 197.323 143.015 196.597 143.015 195.808C143.015 195.029 143.191 194.315 143.543 193.664C143.905 193.013 144.401 192.496 145.031 192.112C145.66 191.717 146.375 191.52 147.175 191.52C147.996 191.52 148.716 191.717 149.335 192.112C149.953 192.507 150.433 193.029 150.775 193.68C151.127 194.32 151.303 195.024 151.303 195.792C151.303 195.963 151.297 196.107 151.287 196.224H144.151C144.204 196.821 144.375 197.355 144.663 197.824C144.951 198.283 145.319 198.651 145.767 198.928C146.215 199.195 146.705 199.328 147.239 199.328C147.783 199.328 148.295 199.189 148.775 198.912C149.255 198.635 149.596 198.272 149.799 197.824L150.743 198.08C150.572 198.485 150.305 198.848 149.943 199.168C149.591 199.477 149.18 199.723 148.711 199.904C148.241 200.075 147.735 200.16 147.191 200.16ZM144.119 195.44H150.279C150.236 194.843 150.071 194.315 149.783 193.856C149.495 193.387 149.127 193.024 148.679 192.768C148.231 192.501 147.735 192.368 147.191 192.368C146.647 192.368 146.151 192.501 145.703 192.768C145.255 193.024 144.887 193.387 144.599 193.856C144.321 194.315 144.161 194.843 144.119 195.44ZM155.061 200V192.64H152.085V191.664H159.125V192.64H156.149V200H155.061ZM35.184 221V212.664H41.888V221H40.8V213.64H36.272V221H35.184ZM47.8458 221.16C47.0458 221.16 46.3311 220.963 45.7018 220.568C45.0831 220.173 44.5978 219.651 44.2458 219C43.8938 218.339 43.7178 217.624 43.7178 216.856C43.7178 216.077 43.8938 215.363 44.2458 214.712C44.6084 214.051 45.0991 213.523 45.7178 213.128C46.3471 212.723 47.0564 212.52 47.8458 212.52C48.6458 212.52 49.3551 212.723 49.9738 213.128C50.6031 213.523 51.0938 214.051 51.4458 214.712C51.8084 215.363 51.9898 216.077 51.9898 216.856C51.9898 217.624 51.8138 218.339 51.4618 219C51.1098 219.651 50.6191 220.173 49.9898 220.568C49.3711 220.963 48.6564 221.16 47.8458 221.16ZM44.8218 216.872C44.8218 217.491 44.9551 218.056 45.2218 218.568C45.4991 219.069 45.8671 219.469 46.3258 219.768C46.7844 220.056 47.2911 220.2 47.8458 220.2C48.4004 220.2 48.9071 220.051 49.3658 219.752C49.8244 219.453 50.1924 219.048 50.4698 218.536C50.7471 218.024 50.8858 217.459 50.8858 216.84C50.8858 216.221 50.7471 215.656 50.4698 215.144C50.1924 214.632 49.8244 214.227 49.3658 213.928C48.9071 213.629 48.4004 213.48 47.8458 213.48C47.3018 213.48 46.8004 213.635 46.3418 213.944C45.8831 214.243 45.5151 214.648 45.2378 215.16C44.9604 215.672 44.8218 216.243 44.8218 216.872ZM52.8814 222.936V220.024H53.0254C53.3454 220.024 53.6334 219.885 53.8894 219.608C54.1454 219.331 54.3534 218.829 54.5134 218.104C54.684 217.368 54.7854 216.328 54.8174 214.984L54.8974 212.664H60.3214V220.024H61.4414V222.936H60.4654V221H53.8414V222.936H52.8814ZM54.6734 220.024H59.2334V213.64H55.8734L55.8254 215.08C55.772 216.573 55.6494 217.704 55.4574 218.472C55.2654 219.229 55.004 219.747 54.6734 220.024ZM62.1626 222.936V220.024H62.3066C62.6266 220.024 62.9146 219.885 63.1706 219.608C63.4266 219.331 63.6346 218.829 63.7946 218.104C63.9653 217.368 64.0666 216.328 64.0986 214.984L64.1786 212.664H69.6026V220.024H70.7226V222.936H69.7466V221H63.1226V222.936H62.1626ZM63.9546 220.024H68.5146V213.64H65.1546L65.1066 215.08C65.0533 216.573 64.9306 217.704 64.7386 218.472C64.5466 219.229 64.2853 219.747 63.9546 220.024ZM75.9719 221.16C75.1719 221.16 74.4572 220.963 73.8279 220.568C73.1985 220.173 72.7025 219.645 72.3399 218.984C71.9772 218.323 71.7959 217.597 71.7959 216.808C71.7959 216.029 71.9719 215.315 72.3239 214.664C72.6865 214.013 73.1825 213.496 73.8119 213.112C74.4412 212.717 75.1559 212.52 75.9559 212.52C76.7772 212.52 77.4972 212.717 78.1159 213.112C78.7345 213.507 79.2145 214.029 79.5559 214.68C79.9079 215.32 80.0839 216.024 80.0839 216.792C80.0839 216.963 80.0785 217.107 80.0679 217.224H72.9319C72.9852 217.821 73.1559 218.355 73.4439 218.824C73.7319 219.283 74.0999 219.651 74.5479 219.928C74.9959 220.195 75.4865 220.328 76.0199 220.328C76.5639 220.328 77.0759 220.189 77.5559 219.912C78.0359 219.635 78.3772 219.272 78.5799 218.824L79.5239 219.08C79.3532 219.485 79.0865 219.848 78.7239 220.168C78.3719 220.477 77.9612 220.723 77.4919 220.904C77.0225 221.075 76.5159 221.16 75.9719 221.16ZM72.8999 216.44H79.0599C79.0172 215.843 78.8519 215.315 78.5639 214.856C78.2759 214.387 77.9079 214.024 77.4599 213.768C77.0119 213.501 76.5159 213.368 75.9719 213.368C75.4279 213.368 74.9319 213.501 74.4839 213.768C74.0359 214.024 73.6679 214.387 73.3799 214.856C73.1025 215.315 72.9425 215.843 72.8999 216.44ZM86.0185 221.16C85.3252 221.16 84.7012 220.979 84.1465 220.616C83.6025 220.253 83.1705 219.805 82.8505 219.272V224.408H81.7625V212.664H82.7385V214.28C83.0692 213.757 83.5065 213.336 84.0505 213.016C84.6052 212.685 85.2025 212.52 85.8425 212.52C86.4185 212.52 86.9465 212.643 87.4265 212.888C87.9065 213.123 88.3225 213.443 88.6745 213.848C89.0372 214.253 89.3145 214.717 89.5065 215.24C89.6985 215.752 89.7945 216.285 89.7945 216.84C89.7945 217.619 89.6345 218.339 89.3145 219C89.0052 219.651 88.5625 220.173 87.9865 220.568C87.4212 220.963 86.7652 221.16 86.0185 221.16ZM85.7145 220.2C86.3225 220.2 86.8452 220.04 87.2825 219.72C87.7305 219.389 88.0772 218.968 88.3225 218.456C88.5678 217.944 88.6905 217.405 88.6905 216.84C88.6905 216.243 88.5518 215.688 88.2745 215.176C87.9972 214.664 87.6238 214.253 87.1545 213.944C86.6958 213.635 86.1732 213.48 85.5865 213.48C85.2238 213.48 84.8398 213.576 84.4345 213.768C84.0398 213.949 83.6878 214.2 83.3785 214.52C83.0798 214.829 82.9038 215.171 82.8505 215.544V218.104C83.0958 218.691 83.4798 219.187 84.0025 219.592C84.5252 219.997 85.0958 220.2 85.7145 220.2ZM91.0455 221L94.1655 216.712L91.3495 212.664H92.5815L95.0935 216.264H96.1815V212.664H97.3015V216.264H98.4215L100.886 212.664H102.134L99.3015 216.712L102.454 221H101.19L98.4215 217.224H97.3015V221H96.1815V217.224H95.0935L92.3095 221H91.0455ZM103.59 218.6C103.59 218.088 103.74 217.645 104.039 217.272C104.337 216.888 104.748 216.589 105.271 216.376C105.804 216.163 106.417 216.056 107.111 216.056C107.516 216.056 107.937 216.093 108.375 216.168C108.812 216.232 109.201 216.323 109.543 216.44V215.736C109.543 215.032 109.335 214.472 108.919 214.056C108.503 213.64 107.927 213.432 107.191 213.432C106.753 213.432 106.316 213.517 105.879 213.688C105.441 213.848 104.988 214.088 104.519 214.408L104.103 213.64C104.647 213.267 105.18 212.989 105.703 212.808C106.225 212.616 106.759 212.52 107.303 212.52C108.327 212.52 109.137 212.813 109.735 213.4C110.332 213.987 110.631 214.797 110.631 215.832V219.688C110.631 219.976 110.764 220.125 111.031 220.136V221C110.796 221.032 110.631 221.043 110.535 221.032C110.268 221.021 110.065 220.936 109.927 220.776C109.788 220.616 109.713 220.445 109.703 220.264L109.687 219.656C109.313 220.136 108.828 220.509 108.231 220.776C107.633 221.032 107.025 221.16 106.407 221.16C105.863 221.16 105.377 221.048 104.951 220.824C104.524 220.589 104.188 220.28 103.943 219.896C103.708 219.501 103.59 219.069 103.59 218.6ZM109.175 219.24C109.42 218.952 109.543 218.685 109.543 218.44V217.224C108.807 216.936 108.039 216.792 107.239 216.792C106.46 216.792 105.831 216.947 105.351 217.256C104.871 217.565 104.631 217.987 104.631 218.52C104.631 218.979 104.807 219.395 105.159 219.768C105.521 220.141 106.023 220.328 106.663 220.328C107.185 220.328 107.671 220.227 108.119 220.024C108.577 219.821 108.929 219.56 109.175 219.24ZM114.921 221V213.64H111.945V212.664H118.985V213.64H116.009V221H114.921ZM120.45 221V212.664H121.538V215.608H123.698C124.647 215.608 125.362 215.853 125.842 216.344C126.332 216.824 126.578 217.459 126.578 218.248C126.578 218.76 126.471 219.224 126.258 219.64C126.044 220.056 125.73 220.387 125.314 220.632C124.898 220.877 124.386 221 123.778 221H120.45ZM121.538 220.136H123.634C124.284 220.136 124.754 219.949 125.042 219.576C125.33 219.192 125.474 218.755 125.474 218.264C125.474 217.944 125.415 217.651 125.298 217.384C125.191 217.107 124.999 216.888 124.722 216.728C124.455 216.557 124.082 216.472 123.602 216.472H121.538V220.136ZM135.972 221.16C135.162 221.16 134.442 220.963 133.812 220.568C133.183 220.163 132.687 219.635 132.324 218.984C131.962 218.323 131.78 217.597 131.78 216.808C131.78 216.019 131.956 215.304 132.308 214.664C132.66 214.013 133.151 213.496 133.78 213.112C134.41 212.717 135.135 212.52 135.956 212.52C136.735 212.52 137.418 212.701 138.004 213.064C138.602 213.416 139.05 213.896 139.348 214.504L138.292 214.84C138.058 214.413 137.727 214.083 137.3 213.848C136.884 213.603 136.42 213.48 135.908 213.48C135.343 213.48 134.831 213.624 134.372 213.912C133.924 214.2 133.562 214.6 133.284 215.112C133.018 215.613 132.884 216.179 132.884 216.808C132.884 217.437 133.023 218.008 133.3 218.52C133.578 219.032 133.946 219.443 134.404 219.752C134.863 220.051 135.37 220.2 135.924 220.2C136.287 220.2 136.639 220.136 136.98 220.008C137.322 219.88 137.615 219.709 137.86 219.496C138.106 219.272 138.271 219.032 138.356 218.776L139.428 219.096C139.279 219.491 139.034 219.848 138.692 220.168C138.351 220.477 137.946 220.723 137.476 220.904C137.007 221.075 136.506 221.16 135.972 221.16ZM144.659 221.16C143.859 221.16 143.145 220.963 142.515 220.568C141.886 220.173 141.39 219.645 141.027 218.984C140.665 218.323 140.483 217.597 140.483 216.808C140.483 216.029 140.659 215.315 141.011 214.664C141.374 214.013 141.87 213.496 142.499 213.112C143.129 212.717 143.843 212.52 144.643 212.52C145.465 212.52 146.185 212.717 146.803 213.112C147.422 213.507 147.902 214.029 148.243 214.68C148.595 215.32 148.771 216.024 148.771 216.792C148.771 216.963 148.766 217.107 148.755 217.224H141.619C141.673 217.821 141.843 218.355 142.131 218.824C142.419 219.283 142.787 219.651 143.235 219.928C143.683 220.195 144.174 220.328 144.707 220.328C145.251 220.328 145.763 220.189 146.243 219.912C146.723 219.635 147.065 219.272 147.267 218.824L148.211 219.08C148.041 219.485 147.774 219.848 147.411 220.168C147.059 220.477 146.649 220.723 146.179 220.904C145.71 221.075 145.203 221.16 144.659 221.16ZM141.587 216.44H147.747C147.705 215.843 147.539 215.315 147.251 214.856C146.963 214.387 146.595 214.024 146.147 213.768C145.699 213.501 145.203 213.368 144.659 213.368C144.115 213.368 143.619 213.501 143.171 213.768C142.723 214.024 142.355 214.387 142.067 214.856C141.79 215.315 141.63 215.843 141.587 216.44ZM154.274 221.16C152.93 221.16 151.911 220.749 151.218 219.928C150.535 219.096 150.194 217.949 150.194 216.488C150.194 215.453 150.279 214.579 150.45 213.864C150.621 213.149 150.871 212.557 151.202 212.088C151.533 211.619 151.938 211.24 152.418 210.952C152.909 210.653 153.469 210.408 154.098 210.216L157.602 209.064L157.698 210.008L154.322 211.112C153.682 211.336 153.143 211.608 152.706 211.928C152.279 212.248 151.943 212.669 151.698 213.192C151.463 213.704 151.314 214.36 151.25 215.16C151.517 214.541 151.938 214.067 152.514 213.736C153.101 213.395 153.773 213.224 154.53 213.224C155.341 213.224 156.029 213.389 156.594 213.72C157.17 214.051 157.607 214.509 157.906 215.096C158.205 215.683 158.354 216.36 158.354 217.128C158.354 218.344 158.002 219.32 157.298 220.056C156.605 220.792 155.597 221.16 154.274 221.16ZM154.274 220.2C155.223 220.2 155.954 219.928 156.466 219.384C156.989 218.829 157.25 218.093 157.25 217.176C157.25 216.28 156.994 215.549 156.482 214.984C155.97 214.419 155.234 214.136 154.274 214.136C153.719 214.136 153.218 214.253 152.77 214.488C152.322 214.723 151.965 215.064 151.698 215.512C151.442 215.96 151.314 216.515 151.314 217.176C151.314 218.051 151.565 218.776 152.066 219.352C152.578 219.917 153.314 220.2 154.274 220.2ZM159.56 221L162.04 217.592C161.464 217.517 161.006 217.272 160.664 216.856C160.323 216.44 160.152 215.875 160.152 215.16C160.152 214.691 160.264 214.269 160.488 213.896C160.712 213.512 161.027 213.208 161.432 212.984C161.848 212.76 162.334 212.648 162.888 212.648H166.072V221H164.984V217.768H163.128L160.776 221H159.56ZM162.872 216.936H164.984V213.512H163.064C162.51 213.512 162.067 213.672 161.736 213.992C161.406 214.301 161.24 214.696 161.24 215.176C161.24 215.667 161.374 216.083 161.64 216.424C161.918 216.765 162.328 216.936 162.872 216.936ZM172.528 221V212.68H173.616V219.528L178.688 212.664H179.664V221H178.576V214.264L173.584 221H172.528ZM38.752 242.16C37.952 242.16 37.2373 241.963 36.608 241.568C35.9893 241.173 35.504 240.651 35.152 240C34.8 239.339 34.624 238.624 34.624 237.856C34.624 237.077 34.8 236.363 35.152 235.712C35.5147 235.051 36.0053 234.523 36.624 234.128C37.2533 233.723 37.9627 233.52 38.752 233.52C39.552 233.52 40.2613 233.723 40.88 234.128C41.5093 234.523 42 235.051 42.352 235.712C42.7147 236.363 42.896 237.077 42.896 237.856C42.896 238.624 42.72 239.339 42.368 240C42.016 240.651 41.5253 241.173 40.896 241.568C40.2773 241.963 39.5627 242.16 38.752 242.16ZM35.728 237.872C35.728 238.491 35.8613 239.056 36.128 239.568C36.4053 240.069 36.7733 240.469 37.232 240.768C37.6907 241.056 38.1973 241.2 38.752 241.2C39.3067 241.2 39.8133 241.051 40.272 240.752C40.7307 240.453 41.0987 240.048 41.376 239.536C41.6533 239.024 41.792 238.459 41.792 237.84C41.792 237.221 41.6533 236.656 41.376 236.144C41.0987 235.632 40.7307 235.227 40.272 234.928C39.8133 234.629 39.3067 234.48 38.752 234.48C38.208 234.48 37.7067 234.635 37.248 234.944C36.7893 235.243 36.4213 235.648 36.144 236.16C35.8667 236.672 35.728 237.243 35.728 237.872ZM44.6996 242V233.664H45.7876V237.232H47.0356L49.8356 233.664H51.0836L47.8996 237.712L51.4836 242H50.2036L47.0356 238.24H45.7876V242H44.6996ZM57.2841 242.16C56.5908 242.16 55.9668 241.979 55.4121 241.616C54.8681 241.253 54.4361 240.805 54.1161 240.272V245.408H53.0281V233.664H54.0041V235.28C54.3348 234.757 54.7721 234.336 55.3161 234.016C55.8708 233.685 56.4681 233.52 57.1081 233.52C57.6841 233.52 58.2121 233.643 58.6921 233.888C59.1721 234.123 59.5881 234.443 59.9401 234.848C60.3028 235.253 60.5801 235.717 60.7721 236.24C60.9641 236.752 61.0601 237.285 61.0601 237.84C61.0601 238.619 60.9001 239.339 60.5801 240C60.2708 240.651 59.8281 241.173 59.2521 241.568C58.6868 241.963 58.0308 242.16 57.2841 242.16ZM56.9801 241.2C57.5881 241.2 58.1108 241.04 58.5481 240.72C58.9961 240.389 59.3428 239.968 59.5881 239.456C59.8335 238.944 59.9561 238.405 59.9561 237.84C59.9561 237.243 59.8175 236.688 59.5401 236.176C59.2628 235.664 58.8895 235.253 58.4201 234.944C57.9615 234.635 57.4388 234.48 56.8521 234.48C56.4895 234.48 56.1055 234.576 55.7001 234.768C55.3055 234.949 54.9535 235.2 54.6441 235.52C54.3455 235.829 54.1695 236.171 54.1161 236.544V239.104C54.3615 239.691 54.7455 240.187 55.2681 240.592C55.7908 240.997 56.3615 241.2 56.9801 241.2ZM63.5339 245.488C63.1819 245.488 62.8085 245.376 62.4139 245.152L62.8139 244.384C63.0379 244.533 63.2565 244.608 63.4699 244.608C64.0032 244.608 64.4992 244.064 64.9579 242.976L65.3739 241.936L61.6619 233.664H62.8139L65.8699 240.88L68.6859 233.664H69.7739L65.8059 243.312C65.4859 244.069 65.1392 244.619 64.7659 244.96C64.3925 245.312 63.9819 245.488 63.5339 245.488ZM70.7018 242L73.8218 237.712L71.0058 233.664H72.2378L74.7498 237.264H75.8378V233.664H76.9578V237.264H78.0778L80.5418 233.664H81.7898L78.9578 237.712L82.1098 242H80.8458L78.0778 238.224H76.9578V242H75.8378V238.224H74.7498L71.9658 242H70.7018ZM83.9028 242V233.68H84.9908V240.528L90.0628 233.664H91.0388V242H89.9508V235.264L84.9588 242H83.9028ZM95.4988 242V234.64H92.5228V233.664H99.5628V234.64H96.5868V242H95.4988ZM101.028 242V233.664H102.116V236.608H104.276C105.225 236.608 105.94 236.853 106.42 237.344C106.91 237.824 107.156 238.459 107.156 239.248C107.156 239.76 107.049 240.224 106.836 240.64C106.622 241.056 106.308 241.387 105.892 241.632C105.476 241.877 104.964 242 104.356 242H101.028ZM102.116 241.136H104.212C104.862 241.136 105.332 240.949 105.62 240.576C105.908 240.192 106.052 239.755 106.052 239.264C106.052 238.944 105.993 238.651 105.876 238.384C105.769 238.107 105.577 237.888 105.3 237.728C105.033 237.557 104.66 237.472 104.18 237.472H102.116V241.136ZM115.35 242.096C114.582 242.096 113.921 241.952 113.366 241.664C112.822 241.365 112.412 240.949 112.134 240.416L113.03 240.016C113.233 240.389 113.526 240.683 113.91 240.896C114.294 241.099 114.758 241.2 115.302 241.2C115.953 241.2 116.47 241.051 116.854 240.752C117.249 240.453 117.446 240.053 117.446 239.552C117.446 239.104 117.292 238.736 116.982 238.448C116.673 238.16 116.246 238.016 115.702 238.016H114.854V237.264H115.766C116.118 237.264 116.412 237.131 116.646 236.864C116.892 236.587 117.014 236.245 117.014 235.84C117.014 235.424 116.865 235.088 116.566 234.832C116.278 234.576 115.852 234.448 115.286 234.448C114.369 234.448 113.724 234.816 113.35 235.552L112.518 235.104C112.764 234.613 113.126 234.229 113.606 233.952C114.086 233.675 114.657 233.536 115.318 233.536C116.108 233.536 116.753 233.733 117.254 234.128C117.756 234.512 118.006 235.045 118.006 235.728C118.006 236.123 117.91 236.491 117.718 236.832C117.526 237.173 117.26 237.424 116.918 237.584C117.409 237.744 117.788 238.011 118.054 238.384C118.332 238.747 118.47 239.179 118.47 239.68C118.47 240.437 118.177 241.029 117.59 241.456C117.004 241.883 116.257 242.096 115.35 242.096ZM119.622 239.6C119.622 239.088 119.771 238.645 120.07 238.272C120.368 237.888 120.779 237.589 121.302 237.376C121.835 237.163 122.448 237.056 123.142 237.056C123.547 237.056 123.968 237.093 124.406 237.168C124.843 237.232 125.232 237.323 125.574 237.44V236.736C125.574 236.032 125.366 235.472 124.95 235.056C124.534 234.64 123.958 234.432 123.222 234.432C122.784 234.432 122.347 234.517 121.91 234.688C121.472 234.848 121.019 235.088 120.55 235.408L120.134 234.64C120.678 234.267 121.211 233.989 121.734 233.808C122.256 233.616 122.79 233.52 123.334 233.52C124.358 233.52 125.168 233.813 125.766 234.4C126.363 234.987 126.662 235.797 126.662 236.832V240.688C126.662 240.976 126.795 241.125 127.062 241.136V242C126.827 242.032 126.662 242.043 126.566 242.032C126.299 242.021 126.096 241.936 125.958 241.776C125.819 241.616 125.744 241.445 125.734 241.264L125.718 240.656C125.344 241.136 124.859 241.509 124.262 241.776C123.664 242.032 123.056 242.16 122.438 242.16C121.894 242.16 121.408 242.048 120.982 241.824C120.555 241.589 120.219 241.28 119.974 240.896C119.739 240.501 119.622 240.069 119.622 239.6ZM125.206 240.24C125.451 239.952 125.574 239.685 125.574 239.44V238.224C124.838 237.936 124.07 237.792 123.27 237.792C122.491 237.792 121.862 237.947 121.382 238.256C120.902 238.565 120.662 238.987 120.662 239.52C120.662 239.979 120.838 240.395 121.19 240.768C121.552 241.141 122.054 241.328 122.694 241.328C123.216 241.328 123.702 241.227 124.15 241.024C124.608 240.821 124.96 240.56 125.206 240.24ZM132.837 242.16C131.493 242.16 130.474 241.749 129.781 240.928C129.098 240.096 128.757 238.949 128.757 237.488C128.757 236.453 128.842 235.579 129.013 234.864C129.183 234.149 129.434 233.557 129.765 233.088C130.095 232.619 130.501 232.24 130.981 231.952C131.471 231.653 132.031 231.408 132.661 231.216L136.165 230.064L136.26 231.008L132.885 232.112C132.245 232.336 131.706 232.608 131.269 232.928C130.842 233.248 130.506 233.669 130.261 234.192C130.026 234.704 129.877 235.36 129.812 236.16C130.079 235.541 130.501 235.067 131.077 234.736C131.663 234.395 132.335 234.224 133.093 234.224C133.903 234.224 134.591 234.389 135.157 234.72C135.733 235.051 136.17 235.509 136.469 236.096C136.767 236.683 136.917 237.36 136.917 238.128C136.917 239.344 136.565 240.32 135.861 241.056C135.167 241.792 134.159 242.16 132.837 242.16ZM132.837 241.2C133.786 241.2 134.517 240.928 135.029 240.384C135.551 239.829 135.812 239.093 135.812 238.176C135.812 237.28 135.557 236.549 135.045 235.984C134.533 235.419 133.797 235.136 132.837 235.136C132.282 235.136 131.781 235.253 131.333 235.488C130.885 235.723 130.527 236.064 130.261 236.512C130.005 236.96 129.877 237.515 129.877 238.176C129.877 239.051 130.127 239.776 130.629 240.352C131.141 240.917 131.877 241.2 132.837 241.2ZM142.299 242.16C141.499 242.16 140.784 241.963 140.155 241.568C139.536 241.173 139.051 240.651 138.699 240C138.347 239.339 138.171 238.624 138.171 237.856C138.171 237.077 138.347 236.363 138.699 235.712C139.062 235.051 139.552 234.523 140.171 234.128C140.8 233.723 141.51 233.52 142.299 233.52C143.099 233.52 143.808 233.723 144.427 234.128C145.056 234.523 145.547 235.051 145.899 235.712C146.262 236.363 146.443 237.077 146.443 237.856C146.443 238.624 146.267 239.339 145.915 240C145.563 240.651 145.072 241.173 144.443 241.568C143.824 241.963 143.11 242.16 142.299 242.16ZM139.275 237.872C139.275 238.491 139.408 239.056 139.675 239.568C139.952 240.069 140.32 240.469 140.779 240.768C141.238 241.056 141.744 241.2 142.299 241.2C142.854 241.2 143.36 241.051 143.819 240.752C144.278 240.453 144.646 240.048 144.923 239.536C145.2 239.024 145.339 238.459 145.339 237.84C145.339 237.221 145.2 236.656 144.923 236.144C144.646 235.632 144.278 235.227 143.819 234.928C143.36 234.629 142.854 234.48 142.299 234.48C141.755 234.48 141.254 234.635 140.795 234.944C140.336 235.243 139.968 235.648 139.691 236.16C139.414 236.672 139.275 237.243 139.275 237.872ZM150.343 242V234.64H147.367V233.664H154.407V234.64H151.431V242H150.343ZM159.44 242.16C158.64 242.16 157.925 241.963 157.296 241.568C156.677 241.173 156.192 240.651 155.84 240C155.488 239.339 155.312 238.624 155.312 237.856C155.312 237.077 155.488 236.363 155.84 235.712C156.202 235.051 156.693 234.523 157.312 234.128C157.941 233.723 158.65 233.52 159.44 233.52C160.24 233.52 160.949 233.723 161.568 234.128C162.197 234.523 162.688 235.051 163.04 235.712C163.402 236.363 163.584 237.077 163.584 237.856C163.584 238.624 163.408 239.339 163.056 240C162.704 240.651 162.213 241.173 161.584 241.568C160.965 241.963 160.25 242.16 159.44 242.16ZM156.416 237.872C156.416 238.491 156.549 239.056 156.816 239.568C157.093 240.069 157.461 240.469 157.92 240.768C158.378 241.056 158.885 241.2 159.44 241.2C159.994 241.2 160.501 241.051 160.96 240.752C161.418 240.453 161.786 240.048 162.064 239.536C162.341 239.024 162.48 238.459 162.48 237.84C162.48 237.221 162.341 236.656 162.064 236.144C161.786 235.632 161.418 235.227 160.96 234.928C160.501 234.629 159.994 234.48 159.44 234.48C158.896 234.48 158.394 234.635 157.936 234.944C157.477 235.243 157.109 235.648 156.832 236.16C156.554 236.672 156.416 237.243 156.416 237.872ZM165.387 242V233.68H166.475V240.528L171.547 233.664H172.523V242H171.435V235.264L166.443 242H165.387ZM168.971 232.608C168.246 232.608 167.686 232.437 167.291 232.096C166.896 231.755 166.699 231.323 166.699 230.8H167.499C167.499 231.12 167.616 231.387 167.851 231.6C168.096 231.813 168.47 231.92 168.971 231.92C169.462 231.92 169.819 231.819 170.043 231.616C170.278 231.413 170.411 231.141 170.443 230.8H171.227C171.227 231.323 171.03 231.755 170.635 232.096C170.24 232.437 169.686 232.608 168.971 232.608ZM174.743 242V240.432H175.687V242H174.743Z" fill="black"/>
</svg>
