<svg width="318" height="164" viewBox="0 0 318 164" fill="none" xmlns="http://www.w3.org/2000/svg">
<path d="M14.825 1.8H8.5V18H6.75V1.8H0.425V0.249999H14.825V1.8ZM21.5377 18.25C20.4544 18.25 19.4794 17.9667 18.6127 17.4C17.7627 16.8333 17.0877 16.1333 16.5877 15.3V23.325H14.8877V4.975H16.4127V7.5C16.9294 6.68333 17.6127 6.025 18.4627 5.525C19.3294 5.00833 20.2627 4.75 21.2627 4.75C22.1627 4.75 22.9877 4.94167 23.7377 5.325C24.4877 5.69167 25.1377 6.19167 25.6877 6.825C26.2544 7.45833 26.6877 8.18333 26.9877 9C27.2877 9.8 27.4377 10.6333 27.4377 11.5C27.4377 12.7167 27.1877 13.8417 26.6877 14.875C26.2044 15.8917 25.5127 16.7083 24.6127 17.325C23.7294 17.9417 22.7044 18.25 21.5377 18.25ZM21.0627 16.75C22.0127 16.75 22.8294 16.5 23.5127 16C24.2127 15.4833 24.7544 14.825 25.1377 14.025C25.521 13.225 25.7127 12.3833 25.7127 11.5C25.7127 10.5667 25.496 9.7 25.0627 8.9C24.6294 8.1 24.046 7.45833 23.3127 6.975C22.596 6.49167 21.7794 6.25 20.8627 6.25C20.296 6.25 19.696 6.4 19.0627 6.7C18.446 6.98333 17.896 7.375 17.4127 7.875C16.946 8.35833 16.671 8.89167 16.5877 9.475V13.475C16.971 14.3917 17.571 15.1667 18.3877 15.8C19.2044 16.4333 20.096 16.75 21.0627 16.75ZM35.9424 18.25C34.6924 18.25 33.5757 17.9417 32.5924 17.325C31.609 16.7083 30.834 15.8833 30.2674 14.85C29.7007 13.8167 29.4174 12.6833 29.4174 11.45C29.4174 10.2333 29.6924 9.11667 30.2424 8.1C30.809 7.08333 31.584 6.275 32.5674 5.675C33.5507 5.05833 34.6674 4.75 35.9174 4.75C37.2007 4.75 38.3257 5.05833 39.2924 5.675C40.259 6.29167 41.0091 7.10833 41.5424 8.125C42.0924 9.125 42.3674 10.225 42.3674 11.425C42.3674 11.6917 42.3591 11.9167 42.3424 12.1H31.1924C31.2757 13.0333 31.5424 13.8667 31.9924 14.6C32.4424 15.3167 33.0174 15.8917 33.7174 16.325C34.4174 16.7417 35.184 16.95 36.0174 16.95C36.8674 16.95 37.6674 16.7333 38.4174 16.3C39.1674 15.8667 39.7007 15.3 40.0174 14.6L41.4924 15C41.2257 15.6333 40.8091 16.2 40.2424 16.7C39.6924 17.1833 39.0507 17.5667 38.3174 17.85C37.584 18.1167 36.7924 18.25 35.9424 18.25ZM31.1424 10.875H40.7674C40.7007 9.94167 40.4424 9.11667 39.9924 8.4C39.5424 7.66667 38.9674 7.1 38.2674 6.7C37.5674 6.28333 36.7924 6.075 35.9424 6.075C35.0924 6.075 34.3174 6.28333 33.6174 6.7C32.9174 7.1 32.3424 7.66667 31.8924 8.4C31.459 9.11667 31.209 9.94167 31.1424 10.875ZM44.9652 18V4.975H46.6652V10.575H54.1152V4.975H55.8152V18H54.1152V12.1H46.6652V18H44.9652ZM59.5404 18V5H61.2404V15.7L69.1654 4.975H70.6904V18H68.9904V7.475L61.1904 18H59.5404ZM81.0592 18.25C79.9758 18.25 79.0008 17.9667 78.1342 17.4C77.2842 16.8333 76.6092 16.1333 76.1092 15.3V23.325H74.4092V4.975H75.9342V7.5C76.4508 6.68333 77.1342 6.025 77.9842 5.525C78.8508 5.00833 79.7842 4.75 80.7842 4.75C81.6842 4.75 82.5092 4.94167 83.2592 5.325C84.0092 5.69167 84.6592 6.19167 85.2092 6.825C85.7758 7.45833 86.2092 8.18333 86.5092 9C86.8092 9.8 86.9592 10.6333 86.9592 11.5C86.9592 12.7167 86.7092 13.8417 86.2092 14.875C85.7258 15.8917 85.0342 16.7083 84.1342 17.325C83.2508 17.9417 82.2258 18.25 81.0592 18.25ZM80.5842 16.75C81.5342 16.75 82.3508 16.5 83.0342 16C83.7342 15.4833 84.2758 14.825 84.6592 14.025C85.0425 13.225 85.2342 12.3833 85.2342 11.5C85.2342 10.5667 85.0175 9.7 84.5842 8.9C84.1508 8.1 83.5675 7.45833 82.8342 6.975C82.1175 6.49167 81.3008 6.25 80.3842 6.25C79.8175 6.25 79.2175 6.4 78.5842 6.7C77.9675 6.98333 77.4175 7.375 76.9342 7.875C76.4675 8.35833 76.1925 8.89167 76.1092 9.475V13.475C76.4925 14.3917 77.0925 15.1667 77.9092 15.8C78.7258 16.4333 79.6175 16.75 80.5842 16.75ZM95.3889 18.25C94.1389 18.25 93.0222 17.9417 92.0389 17.325C91.0722 16.7083 90.3139 15.8917 89.7639 14.875C89.2139 13.8417 88.9389 12.725 88.9389 11.525C88.9389 10.3083 89.2139 9.19167 89.7639 8.175C90.3305 7.14167 91.0972 6.31667 92.0639 5.7C93.0472 5.06667 94.1555 4.75 95.3889 4.75C96.6389 4.75 97.7472 5.06667 98.7139 5.7C99.6972 6.31667 100.464 7.14167 101.014 8.175C101.581 9.19167 101.864 10.3083 101.864 11.525C101.864 12.725 101.589 13.8417 101.039 14.875C100.489 15.8917 99.7222 16.7083 98.7389 17.325C97.7722 17.9417 96.6555 18.25 95.3889 18.25ZM90.6639 11.55C90.6639 12.5167 90.8722 13.4 91.2889 14.2C91.7222 14.9833 92.2972 15.6083 93.0139 16.075C93.7305 16.525 94.5222 16.75 95.3889 16.75C96.2555 16.75 97.0472 16.5167 97.7639 16.05C98.4805 15.5833 99.0555 14.95 99.4889 14.15C99.9222 13.35 100.139 12.4667 100.139 11.5C100.139 10.5333 99.9222 9.65 99.4889 8.85C99.0555 8.05 98.4805 7.41667 97.7639 6.95C97.0472 6.48333 96.2555 6.25 95.3889 6.25C94.5389 6.25 93.7555 6.49167 93.0389 6.975C92.3222 7.44167 91.7472 8.075 91.3139 8.875C90.8805 9.675 90.6639 10.5667 90.6639 11.55ZM104.682 18V4.975H111.182C111.915 4.975 112.532 5.13333 113.032 5.45C113.532 5.75 113.907 6.15 114.157 6.65C114.424 7.13333 114.557 7.64167 114.557 8.175C114.557 8.875 114.382 9.50833 114.032 10.075C113.699 10.625 113.224 11.0417 112.607 11.325C113.357 11.525 113.965 11.9167 114.432 12.5C114.899 13.0833 115.132 13.7667 115.132 14.55C115.132 15.6 114.757 16.4417 114.007 17.075C113.274 17.6917 112.332 18 111.182 18H104.682ZM106.307 10.85H110.732C111.382 10.85 111.907 10.6083 112.307 10.125C112.724 9.625 112.932 9.06667 112.932 8.45C112.932 7.85 112.732 7.325 112.332 6.875C111.949 6.425 111.449 6.2 110.832 6.2H106.307V10.85ZM106.307 16.775H111.132C111.799 16.775 112.357 16.5333 112.807 16.05C113.257 15.55 113.482 15 113.482 14.4C113.482 13.75 113.265 13.1917 112.832 12.725C112.399 12.2583 111.865 12.025 111.232 12.025H106.307V16.775ZM118.061 18V4.975H119.761V10.55H121.711L126.086 4.975H128.036L123.061 11.3L128.661 18H126.661L121.711 12.125H119.761V18H118.061ZM131.049 18V5H132.749V15.7L140.674 4.975H142.199V18H140.499V7.475L132.699 18H131.049ZM152.265 18V4.975H158.765C159.498 4.975 160.115 5.13333 160.615 5.45C161.115 5.75 161.49 6.15 161.74 6.65C162.007 7.13333 162.14 7.64167 162.14 8.175C162.14 8.875 161.965 9.50833 161.615 10.075C161.282 10.625 160.807 11.0417 160.19 11.325C160.94 11.525 161.548 11.9167 162.015 12.5C162.482 13.0833 162.715 13.7667 162.715 14.55C162.715 15.6 162.34 16.4417 161.59 17.075C160.857 17.6917 159.915 18 158.765 18H152.265ZM153.89 10.85H158.315C158.965 10.85 159.49 10.6083 159.89 10.125C160.307 9.625 160.515 9.06667 160.515 8.45C160.515 7.85 160.315 7.325 159.915 6.875C159.532 6.425 159.032 6.2 158.415 6.2H153.89V10.85ZM153.89 16.775H158.715C159.382 16.775 159.94 16.5333 160.39 16.05C160.84 15.55 161.065 15 161.065 14.4C161.065 13.75 160.848 13.1917 160.415 12.725C159.982 12.2583 159.448 12.025 158.815 12.025H153.89V16.775ZM7.425 47.25C6.175 47.25 5.05833 46.9417 4.075 46.325C3.10833 45.7083 2.35 44.8917 1.8 43.875C1.25 42.8417 0.975 41.725 0.975 40.525C0.975 39.3083 1.25 38.1917 1.8 37.175C2.36667 36.1417 3.13333 35.3167 4.1 34.7C5.08333 34.0667 6.19167 33.75 7.425 33.75C8.675 33.75 9.78333 34.0667 10.75 34.7C11.7333 35.3167 12.5 36.1417 13.05 37.175C13.6167 38.1917 13.9 39.3083 13.9 40.525C13.9 41.725 13.625 42.8417 13.075 43.875C12.525 44.8917 11.7583 45.7083 10.775 46.325C9.80833 46.9417 8.69167 47.25 7.425 47.25ZM2.7 40.55C2.7 41.5167 2.90833 42.4 3.325 43.2C3.75833 43.9833 4.33333 44.6083 5.05 45.075C5.76667 45.525 6.55833 45.75 7.425 45.75C8.29167 45.75 9.08333 45.5167 9.8 45.05C10.5167 44.5833 11.0917 43.95 11.525 43.15C11.9583 42.35 12.175 41.4667 12.175 40.5C12.175 39.5333 11.9583 38.65 11.525 37.85C11.0917 37.05 10.5167 36.4167 9.8 35.95C9.08333 35.4833 8.29167 35.25 7.425 35.25C6.575 35.25 5.79167 35.4917 5.075 35.975C4.35833 36.4417 3.78333 37.075 3.35 37.875C2.91667 38.675 2.7 39.5667 2.7 40.55ZM16.7182 47V33.975H18.4182V39.575H25.8682V33.975H27.5682V47H25.8682V41.1H18.4182V47H16.7182ZM30.0684 47.075V45.525C30.5017 45.525 30.8934 45.4083 31.2434 45.175C31.61 44.9417 31.9267 44.5333 32.1934 43.95C32.4767 43.3667 32.7017 42.5583 32.8684 41.525C33.035 40.4917 33.1434 39.1833 33.1934 37.6L33.3434 33.975H41.7934V47H40.0934V35.5H34.8434L34.7934 37.75C34.71 40.1667 34.485 42.05 34.1184 43.4C33.7517 44.75 33.2267 45.7 32.5434 46.25C31.8767 46.7833 31.0517 47.0583 30.0684 47.075ZM44.5018 43.25C44.5018 42.45 44.7351 41.7583 45.2018 41.175C45.6684 40.575 46.3101 40.1083 47.1268 39.775C47.9601 39.4417 48.9184 39.275 50.0018 39.275C50.6351 39.275 51.2934 39.3333 51.9768 39.45C52.6601 39.55 53.2684 39.6917 53.8018 39.875V38.775C53.8018 37.675 53.4768 36.8 52.8268 36.15C52.1768 35.5 51.2768 35.175 50.1268 35.175C49.4434 35.175 48.7601 35.3083 48.0768 35.575C47.3934 35.825 46.6851 36.2 45.9518 36.7L45.3018 35.5C46.1518 34.9167 46.9851 34.4833 47.8018 34.2C48.6184 33.9 49.4518 33.75 50.3018 33.75C51.9018 33.75 53.1684 34.2083 54.1018 35.125C55.0351 36.0417 55.5018 37.3083 55.5018 38.925V44.95C55.5018 45.4 55.7101 45.6333 56.1268 45.65V47C55.7601 47.05 55.5018 47.0667 55.3518 47.05C54.9351 47.0333 54.6184 46.9 54.4018 46.65C54.1851 46.4 54.0684 46.1333 54.0518 45.85L54.0268 44.9C53.4434 45.65 52.6851 46.2333 51.7518 46.65C50.8184 47.05 49.8684 47.25 48.9018 47.25C48.0518 47.25 47.2934 47.075 46.6268 46.725C45.9601 46.3583 45.4351 45.875 45.0518 45.275C44.6851 44.6583 44.5018 43.9833 44.5018 43.25ZM53.2268 44.25C53.6101 43.8 53.8018 43.3833 53.8018 43V41.1C52.6518 40.65 51.4518 40.425 50.2018 40.425C48.9851 40.425 48.0018 40.6667 47.2518 41.15C46.5018 41.6333 46.1268 42.2917 46.1268 43.125C46.1268 43.8417 46.4018 44.4917 46.9518 45.075C47.5184 45.6583 48.3018 45.95 49.3018 45.95C50.1184 45.95 50.8768 45.7917 51.5768 45.475C52.2934 45.1583 52.8434 44.75 53.2268 44.25ZM59.1498 47V34H60.8498V44.7L68.7748 33.975H70.2998V47H68.5998V36.475L60.7998 47H59.1498ZM64.7498 32.325C63.6165 32.325 62.7415 32.0583 62.1248 31.525C61.5081 30.9917 61.1998 30.3167 61.1998 29.5H62.4498C62.4498 30 62.6331 30.4167 62.9998 30.75C63.3831 31.0833 63.9665 31.25 64.7498 31.25C65.5165 31.25 66.0748 31.0917 66.4248 30.775C66.7915 30.4583 66.9998 30.0333 67.0498 29.5H68.2748C68.2748 30.3167 67.9665 30.9917 67.3498 31.525C66.7331 32.0583 65.8665 32.325 64.7498 32.325ZM73.9936 47V33.975H75.6936V39.575H83.1436V33.975H84.8436V47H83.1436V41.1H75.6936V47H73.9936ZM88.3438 40.975V39.4H95.6438V40.975H88.3438ZM104.791 47.25C103.524 47.25 102.399 46.9417 101.416 46.325C100.432 45.6917 99.6573 44.8667 99.0906 43.85C98.524 42.8167 98.2406 41.6833 98.2406 40.45C98.2406 39.2167 98.5156 38.1 99.0656 37.1C99.6156 36.0833 100.382 35.275 101.366 34.675C102.349 34.0583 103.482 33.75 104.766 33.75C105.982 33.75 107.049 34.0333 107.966 34.6C108.899 35.15 109.599 35.9 110.066 36.85L108.416 37.375C108.049 36.7083 107.532 36.1917 106.866 35.825C106.216 35.4417 105.491 35.25 104.691 35.25C103.807 35.25 103.007 35.475 102.291 35.925C101.591 36.375 101.024 37 100.591 37.8C100.174 38.5833 99.9656 39.4667 99.9656 40.45C99.9656 41.4333 100.182 42.325 100.616 43.125C101.049 43.925 101.624 44.5667 102.341 45.05C103.057 45.5167 103.849 45.75 104.716 45.75C105.282 45.75 105.832 45.65 106.366 45.45C106.899 45.25 107.357 44.9833 107.741 44.65C108.124 44.3 108.382 43.925 108.516 43.525L110.191 44.025C109.957 44.6417 109.574 45.2 109.041 45.7C108.507 46.1833 107.874 46.5667 107.141 46.85C106.407 47.1167 105.624 47.25 104.791 47.25ZM116.111 47V35.5H111.461V33.975H122.461V35.5H117.811V47H116.111ZM126.2 52.45C125.65 52.45 125.067 52.275 124.45 51.925L125.075 50.725C125.425 50.9583 125.767 51.075 126.1 51.075C126.934 51.075 127.709 50.225 128.425 48.525L129.075 46.9L123.275 33.975H125.075L129.85 45.25L134.25 33.975H135.95L129.75 49.05C129.25 50.2333 128.709 51.0917 128.125 51.625C127.542 52.175 126.9 52.45 126.2 52.45ZM136.875 50.025V45.475H137.1C137.6 45.475 138.05 45.2583 138.45 44.825C138.85 44.3917 139.175 43.6083 139.425 42.475C139.692 41.325 139.85 39.7 139.9 37.6L140.025 33.975H148.5V45.475H150.25V50.025H148.725V47H138.375V50.025H136.875ZM139.675 45.475H146.8V35.5H141.55L141.475 37.75C141.392 40.0833 141.2 41.85 140.9 43.05C140.6 44.2333 140.192 45.0417 139.675 45.475ZM152.802 47V34H154.502V44.7L162.427 33.975H163.952V47H162.252V36.475L154.452 47H152.802ZM167.646 47V34H169.346V44.7L177.271 33.975H178.796V47H177.096V36.475L169.296 47H167.646ZM189.237 47V29.25H202.637V47H200.887V30.8H190.987V47H189.237ZM212.283 47.25C211.033 47.25 209.917 46.9417 208.933 46.325C207.967 45.7083 207.208 44.8917 206.658 43.875C206.108 42.8417 205.833 41.725 205.833 40.525C205.833 39.3083 206.108 38.1917 206.658 37.175C207.225 36.1417 207.992 35.3167 208.958 34.7C209.942 34.0667 211.05 33.75 212.283 33.75C213.533 33.75 214.642 34.0667 215.608 34.7C216.592 35.3167 217.358 36.1417 217.908 37.175C218.475 38.1917 218.758 39.3083 218.758 40.525C218.758 41.725 218.483 42.8417 217.933 43.875C217.383 44.8917 216.617 45.7083 215.633 46.325C214.667 46.9417 213.55 47.25 212.283 47.25ZM207.558 40.55C207.558 41.5167 207.767 42.4 208.183 43.2C208.617 43.9833 209.192 44.6083 209.908 45.075C210.625 45.525 211.417 45.75 212.283 45.75C213.15 45.75 213.942 45.5167 214.658 45.05C215.375 44.5833 215.95 43.95 216.383 43.15C216.817 42.35 217.033 41.4667 217.033 40.5C217.033 39.5333 216.817 38.65 216.383 37.85C215.95 37.05 215.375 36.4167 214.658 35.95C213.942 35.4833 213.15 35.25 212.283 35.25C211.433 35.25 210.65 35.4917 209.933 35.975C209.217 36.4417 208.642 37.075 208.208 37.875C207.775 38.675 207.558 39.5667 207.558 40.55ZM220.352 47.075V45.525C220.785 45.525 221.177 45.4083 221.527 45.175C221.893 44.9417 222.21 44.5333 222.477 43.95C222.76 43.3667 222.985 42.5583 223.152 41.525C223.318 40.4917 223.427 39.1833 223.477 37.6L223.627 33.975H232.077V47H230.377V35.5H225.127L225.077 37.75C224.993 40.1667 224.768 42.05 224.402 43.4C224.035 44.75 223.51 45.7 222.827 46.25C222.16 46.7833 221.335 47.0583 220.352 47.075ZM235.81 47V34H237.51V44.7L245.435 33.975H246.96V47H245.26V36.475L237.46 47H235.81ZM250.654 47V33.975H252.354V39.575H259.804V33.975H261.504V47H259.804V41.1H252.354V47H250.654ZM265.229 47V33.975H266.929V38.575H269.879C271.362 38.575 272.479 38.9583 273.229 39.725C273.996 40.475 274.379 41.4667 274.379 42.7C274.379 43.5 274.212 44.225 273.879 44.875C273.546 45.525 273.054 46.0417 272.404 46.425C271.754 46.8083 270.954 47 270.004 47H265.229ZM276.754 47V34H278.454V47H276.754ZM266.929 45.65H269.779C270.796 45.65 271.529 45.3583 271.979 44.775C272.429 44.175 272.654 43.4917 272.654 42.725C272.654 42.225 272.562 41.7667 272.379 41.35C272.212 40.9167 271.912 40.575 271.479 40.325C271.062 40.0583 270.479 39.925 269.729 39.925H266.929V45.65ZM17.95 76V61.55L11.525 72.775H10.425L3.975 61.55V76H2.225V58.25H4.025L10.95 70.4L17.925 58.25H19.7V76H17.95ZM22.6268 72.25C22.6268 71.45 22.8601 70.7583 23.3268 70.175C23.7934 69.575 24.4351 69.1083 25.2518 68.775C26.0851 68.4417 27.0434 68.275 28.1268 68.275C28.7601 68.275 29.4184 68.3333 30.1018 68.45C30.7851 68.55 31.3934 68.6917 31.9268 68.875V67.775C31.9268 66.675 31.6018 65.8 30.9518 65.15C30.3018 64.5 29.4018 64.175 28.2518 64.175C27.5684 64.175 26.8851 64.3083 26.2018 64.575C25.5184 64.825 24.8101 65.2 24.0768 65.7L23.4268 64.5C24.2768 63.9167 25.1101 63.4833 25.9268 63.2C26.7434 62.9 27.5768 62.75 28.4268 62.75C30.0268 62.75 31.2934 63.2083 32.2268 64.125C33.1601 65.0417 33.6268 66.3083 33.6268 67.925V73.95C33.6268 74.4 33.8351 74.6333 34.2518 74.65V76C33.8851 76.05 33.6268 76.0667 33.4768 76.05C33.0601 76.0333 32.7434 75.9 32.5268 75.65C32.3101 75.4 32.1934 75.1333 32.1768 74.85L32.1518 73.9C31.5684 74.65 30.8101 75.2333 29.8768 75.65C28.9434 76.05 27.9934 76.25 27.0268 76.25C26.1768 76.25 25.4184 76.075 24.7518 75.725C24.0851 75.3583 23.5601 74.875 23.1768 74.275C22.8101 73.6583 22.6268 72.9833 22.6268 72.25ZM31.3518 73.25C31.7351 72.8 31.9268 72.3833 31.9268 72V70.1C30.7768 69.65 29.5768 69.425 28.3268 69.425C27.1101 69.425 26.1268 69.6667 25.3768 70.15C24.6268 70.6333 24.2518 71.2917 24.2518 72.125C24.2518 72.8417 24.5268 73.4917 25.0768 74.075C25.6434 74.6583 26.4268 74.95 27.4268 74.95C28.2434 74.95 29.0018 74.7917 29.7018 74.475C30.4184 74.1583 30.9684 73.75 31.3518 73.25ZM40.3301 76V64.5H35.6801V62.975H46.6801V64.5H42.0301V76H40.3301ZM53.6191 76.225C52.4691 76.225 51.3775 75.9583 50.3441 75.425C49.3108 74.875 48.5525 74.1 48.0691 73.1L49.4441 72.475C49.8775 73.275 50.4608 73.8667 51.1941 74.25C51.9441 74.6333 52.7108 74.825 53.4941 74.825C54.3608 74.825 55.1441 74.6083 55.8441 74.175C56.5608 73.725 57.1358 73.1333 57.5691 72.4C58.0191 71.65 58.2775 70.8417 58.3441 69.975H52.2691V68.775H58.3191C58.2358 67.9917 57.9941 67.25 57.5941 66.55C57.1941 65.85 56.6525 65.2833 55.9691 64.85C55.2858 64.4 54.4691 64.175 53.5191 64.175C52.7358 64.175 52.0025 64.3417 51.3191 64.675C50.6525 65.0083 50.0941 65.5833 49.6441 66.4L48.3191 65.725C48.7858 64.8417 49.4608 64.125 50.3441 63.575C51.2275 63.025 52.2941 62.75 53.5441 62.75C54.5941 62.75 55.5191 62.9417 56.3191 63.325C57.1358 63.7083 57.8191 64.2167 58.3691 64.85C58.9358 65.4833 59.3608 66.2 59.6441 67C59.9275 67.8 60.0691 68.6083 60.0691 69.425C60.0691 70.275 59.9191 71.1083 59.6191 71.925C59.3191 72.725 58.8858 73.45 58.3191 74.1C57.7525 74.75 57.0691 75.2667 56.2691 75.65C55.4858 76.0333 54.6025 76.225 53.6191 76.225ZM62.8852 76V63H64.5852V73.7L72.5102 62.975H74.0352V76H72.3352V65.475L64.5352 76H62.8852ZM68.4852 61.325C67.3518 61.325 66.4768 61.0583 65.8602 60.525C65.2435 59.9917 64.9352 59.3167 64.9352 58.5H66.1852C66.1852 59 66.3685 59.4167 66.7352 59.75C67.1185 60.0833 67.7018 60.25 68.4852 60.25C69.2518 60.25 69.8102 60.0917 70.1602 59.775C70.5268 59.4583 70.7352 59.0333 70.7852 58.5H72.0102C72.0102 59.3167 71.7018 59.9917 71.0852 60.525C70.4685 61.0583 69.6018 61.325 68.4852 61.325ZM83.876 69.975V68.4H103.151V69.975H83.876ZM117.657 76.225C116.507 76.225 115.416 75.9583 114.382 75.425C113.349 74.875 112.591 74.1 112.107 73.1L113.482 72.475C113.916 73.275 114.499 73.8667 115.232 74.25C115.982 74.6333 116.749 74.825 117.532 74.825C118.399 74.825 119.182 74.6083 119.882 74.175C120.599 73.725 121.174 73.1333 121.607 72.4C122.057 71.65 122.316 70.8417 122.382 69.975H116.307V68.775H122.357C122.274 67.9917 122.032 67.25 121.632 66.55C121.232 65.85 120.691 65.2833 120.007 64.85C119.324 64.4 118.507 64.175 117.557 64.175C116.774 64.175 116.041 64.3417 115.357 64.675C114.691 65.0083 114.132 65.5833 113.682 66.4L112.357 65.725C112.824 64.8417 113.499 64.125 114.382 63.575C115.266 63.025 116.332 62.75 117.582 62.75C118.632 62.75 119.557 62.9417 120.357 63.325C121.174 63.7083 121.857 64.2167 122.407 64.85C122.974 65.4833 123.399 66.2 123.682 67C123.966 67.8 124.107 68.6083 124.107 69.425C124.107 70.275 123.957 71.1083 123.657 71.925C123.357 72.725 122.924 73.45 122.357 74.1C121.791 74.75 121.107 75.2667 120.307 75.65C119.524 76.0333 118.641 76.225 117.657 76.225ZM130.198 76V64.5H125.548V62.975H136.548V64.5H131.898V76H130.198ZM144.412 76.25C143.162 76.25 142.046 75.9417 141.062 75.325C140.096 74.7083 139.337 73.8917 138.787 72.875C138.237 71.8417 137.962 70.725 137.962 69.525C137.962 68.3083 138.237 67.1917 138.787 66.175C139.354 65.1417 140.121 64.3167 141.087 63.7C142.071 63.0667 143.179 62.75 144.412 62.75C145.662 62.75 146.771 63.0667 147.737 63.7C148.721 64.3167 149.487 65.1417 150.037 66.175C150.604 67.1917 150.887 68.3083 150.887 69.525C150.887 70.725 150.612 71.8417 150.062 72.875C149.512 73.8917 148.746 74.7083 147.762 75.325C146.796 75.9417 145.679 76.25 144.412 76.25ZM139.687 69.55C139.687 70.5167 139.896 71.4 140.312 72.2C140.746 72.9833 141.321 73.6083 142.037 74.075C142.754 74.525 143.546 74.75 144.412 74.75C145.279 74.75 146.071 74.5167 146.787 74.05C147.504 73.5833 148.079 72.95 148.512 72.15C148.946 71.35 149.162 70.4667 149.162 69.5C149.162 68.5333 148.946 67.65 148.512 66.85C148.079 66.05 147.504 65.4167 146.787 64.95C146.071 64.4833 145.279 64.25 144.412 64.25C143.562 64.25 142.779 64.4917 142.062 64.975C141.346 65.4417 140.771 66.075 140.337 66.875C139.904 67.675 139.687 68.5667 139.687 69.55ZM165.653 76.25C164.403 76.25 163.286 75.9417 162.303 75.325C161.336 74.7083 160.578 73.8917 160.028 72.875C159.478 71.8417 159.203 70.725 159.203 69.525C159.203 68.3083 159.478 67.1917 160.028 66.175C160.594 65.1417 161.361 64.3167 162.328 63.7C163.311 63.0667 164.419 62.75 165.653 62.75C166.903 62.75 168.011 63.0667 168.978 63.7C169.961 64.3167 170.728 65.1417 171.278 66.175C171.844 67.1917 172.128 68.3083 172.128 69.525C172.128 70.725 171.853 71.8417 171.303 72.875C170.753 73.8917 169.986 74.7083 169.003 75.325C168.036 75.9417 166.919 76.25 165.653 76.25ZM160.928 69.55C160.928 70.5167 161.136 71.4 161.553 72.2C161.986 72.9833 162.561 73.6083 163.278 74.075C163.994 74.525 164.786 74.75 165.653 74.75C166.519 74.75 167.311 74.5167 168.028 74.05C168.744 73.5833 169.319 72.95 169.753 72.15C170.186 71.35 170.403 70.4667 170.403 69.5C170.403 68.5333 170.186 67.65 169.753 66.85C169.319 66.05 168.744 65.4167 168.028 64.95C167.311 64.4833 166.519 64.25 165.653 64.25C164.803 64.25 164.019 64.4917 163.303 64.975C162.586 65.4417 162.011 66.075 161.578 66.875C161.144 67.675 160.928 68.5667 160.928 69.55ZM191.446 79.025V76H174.946V62.975H176.646V74.475H182.221V62.975H183.946V74.475H189.496V62.975H191.196V74.475H192.971V79.025H191.446ZM196.977 81.45C196.427 81.45 195.843 81.275 195.227 80.925L195.852 79.725C196.202 79.9583 196.543 80.075 196.877 80.075C197.71 80.075 198.485 79.225 199.202 77.525L199.852 75.9L194.052 62.975H195.852L200.627 74.25L205.027 62.975H206.727L200.527 78.05C200.027 79.2333 199.485 80.0917 198.902 80.625C198.318 81.175 197.677 81.45 196.977 81.45ZM225.577 79.025V76H209.077V62.975H210.777V74.475H216.352V62.975H218.077V74.475H223.627V62.975H225.327V74.475H227.102V79.025H225.577ZM235.308 76.25C234.058 76.25 232.941 75.9417 231.958 75.325C230.974 74.7083 230.199 73.8833 229.633 72.85C229.066 71.8167 228.783 70.6833 228.783 69.45C228.783 68.2333 229.058 67.1167 229.608 66.1C230.174 65.0833 230.949 64.275 231.933 63.675C232.916 63.0583 234.033 62.75 235.283 62.75C236.566 62.75 237.691 63.0583 238.658 63.675C239.624 64.2917 240.374 65.1083 240.908 66.125C241.458 67.125 241.733 68.225 241.733 69.425C241.733 69.6917 241.724 69.9167 241.708 70.1H230.558C230.641 71.0333 230.908 71.8667 231.358 72.6C231.808 73.3167 232.383 73.8917 233.083 74.325C233.783 74.7417 234.549 74.95 235.383 74.95C236.233 74.95 237.033 74.7333 237.783 74.3C238.533 73.8667 239.066 73.3 239.383 72.6L240.858 73C240.591 73.6333 240.174 74.2 239.608 74.7C239.058 75.1833 238.416 75.5667 237.683 75.85C236.949 76.1167 236.158 76.25 235.308 76.25ZM230.508 68.875H240.133C240.066 67.9417 239.808 67.1167 239.358 66.4C238.908 65.6667 238.333 65.1 237.633 64.7C236.933 64.2833 236.158 64.075 235.308 64.075C234.458 64.075 233.683 64.2833 232.983 64.7C232.283 65.1 231.708 65.6667 231.258 66.4C230.824 67.1167 230.574 67.9417 230.508 68.875ZM244.33 76V62.975H246.03V68.575H253.48V62.975H255.18V76H253.48V70.1H246.03V76H244.33ZM258.906 76V63H260.606V73.7L268.531 62.975H270.056V76H268.356V65.475L260.556 76H258.906ZM279.399 76.25C278.149 76.25 277.033 75.9417 276.049 75.325C275.066 74.7083 274.291 73.8833 273.724 72.85C273.158 71.8167 272.874 70.6833 272.874 69.45C272.874 68.2333 273.149 67.1167 273.699 66.1C274.266 65.0833 275.041 64.275 276.024 63.675C277.008 63.0583 278.124 62.75 279.374 62.75C280.658 62.75 281.783 63.0583 282.749 63.675C283.716 64.2917 284.466 65.1083 284.999 66.125C285.549 67.125 285.824 68.225 285.824 69.425C285.824 69.6917 285.816 69.9167 285.799 70.1H274.649C274.733 71.0333 274.999 71.8667 275.449 72.6C275.899 73.3167 276.474 73.8917 277.174 74.325C277.874 74.7417 278.641 74.95 279.474 74.95C280.324 74.95 281.124 74.7333 281.874 74.3C282.624 73.8667 283.158 73.3 283.474 72.6L284.949 73C284.683 73.6333 284.266 74.2 283.699 74.7C283.149 75.1833 282.508 75.5667 281.774 75.85C281.041 76.1167 280.249 76.25 279.399 76.25ZM274.599 68.875H284.224C284.158 67.9417 283.899 67.1167 283.449 66.4C282.999 65.6667 282.424 65.1 281.724 64.7C281.024 64.2833 280.249 64.075 279.399 64.075C278.549 64.075 277.774 64.2833 277.074 64.7C276.374 65.1 275.799 65.6667 275.349 66.4C274.916 67.1167 274.666 67.9417 274.599 68.875ZM0.625 105.075V103.525C1.05833 103.525 1.45 103.408 1.8 103.175C2.16667 102.942 2.48333 102.533 2.75 101.95C3.03333 101.367 3.25833 100.558 3.425 99.525C3.59167 98.4917 3.7 97.1833 3.75 95.6L3.9 91.975H12.35V105H10.65V93.5H5.4L5.35 95.75C5.26667 98.1667 5.04167 100.05 4.675 101.4C4.30833 102.75 3.78333 103.7 3.1 104.25C2.43333 104.783 1.60833 105.058 0.625 105.075ZM21.7334 105.25C20.4834 105.25 19.3667 104.942 18.3834 104.325C17.4001 103.708 16.6251 102.883 16.0584 101.85C15.4917 100.817 15.2084 99.6833 15.2084 98.45C15.2084 97.2333 15.4834 96.1167 16.0334 95.1C16.6001 94.0833 17.3751 93.275 18.3584 92.675C19.3417 92.0583 20.4584 91.75 21.7084 91.75C22.9917 91.75 24.1167 92.0583 25.0834 92.675C26.0501 93.2917 26.8001 94.1083 27.3334 95.125C27.8834 96.125 28.1584 97.225 28.1584 98.425C28.1584 98.6917 28.1501 98.9167 28.1334 99.1H16.9834C17.0667 100.033 17.3334 100.867 17.7834 101.6C18.2334 102.317 18.8084 102.892 19.5084 103.325C20.2084 103.742 20.9751 103.95 21.8084 103.95C22.6584 103.95 23.4584 103.733 24.2084 103.3C24.9584 102.867 25.4917 102.3 25.8084 101.6L27.2834 102C27.0167 102.633 26.6001 103.2 26.0334 103.7C25.4834 104.183 24.8417 104.567 24.1084 104.85C23.3751 105.117 22.5834 105.25 21.7334 105.25ZM16.9334 97.875H26.5584C26.4917 96.9417 26.2334 96.1167 25.7834 95.4C25.3334 94.6667 24.7584 94.1 24.0584 93.7C23.3584 93.2833 22.5834 93.075 21.7334 93.075C20.8834 93.075 20.1084 93.2833 19.4084 93.7C18.7084 94.1 18.1334 94.6667 17.6834 95.4C17.2501 96.1167 17.0001 96.9417 16.9334 97.875ZM19.0584 89.15V86.8H20.5084V89.15H19.0584ZM22.7834 89.15V86.8H24.2334V89.15H22.7834ZM30.7563 105V91.975H38.5313V93.5H32.4563V105H30.7563ZM40.8881 105V91.975H42.5881V97.55H44.5381L48.9131 91.975H50.8631L45.8881 98.3L51.4881 105H49.4881L44.5381 99.125H42.5881V105H40.8881ZM58.7678 105.25C57.5178 105.25 56.4011 104.942 55.4178 104.325C54.4511 103.708 53.6928 102.892 53.1428 101.875C52.5928 100.842 52.3178 99.725 52.3178 98.525C52.3178 97.3083 52.5928 96.1917 53.1428 95.175C53.7094 94.1417 54.4761 93.3167 55.4428 92.7C56.4261 92.0667 57.5344 91.75 58.7678 91.75C60.0178 91.75 61.1261 92.0667 62.0928 92.7C63.0761 93.3167 63.8428 94.1417 64.3928 95.175C64.9594 96.1917 65.2428 97.3083 65.2428 98.525C65.2428 99.725 64.9678 100.842 64.4178 101.875C63.8678 102.892 63.1011 103.708 62.1178 104.325C61.1511 104.942 60.0344 105.25 58.7678 105.25ZM54.0428 98.55C54.0428 99.5167 54.2511 100.4 54.6678 101.2C55.1011 101.983 55.6761 102.608 56.3928 103.075C57.1094 103.525 57.9011 103.75 58.7678 103.75C59.6344 103.75 60.4261 103.517 61.1428 103.05C61.8594 102.583 62.4344 101.95 62.8678 101.15C63.3011 100.35 63.5178 99.4667 63.5178 98.5C63.5178 97.5333 63.3011 96.65 62.8678 95.85C62.4344 95.05 61.8594 94.4167 61.1428 93.95C60.4261 93.4833 59.6344 93.25 58.7678 93.25C57.9178 93.25 57.1344 93.4917 56.4178 93.975C55.7011 94.4417 55.1261 95.075 54.6928 95.875C54.2594 96.675 54.0428 97.5667 54.0428 98.55ZM73.7359 105.25C72.4693 105.25 71.3443 104.942 70.3609 104.325C69.3776 103.692 68.6026 102.867 68.0359 101.85C67.4693 100.817 67.1859 99.6833 67.1859 98.45C67.1859 97.2167 67.4609 96.1 68.0109 95.1C68.5609 94.0833 69.3276 93.275 70.3109 92.675C71.2943 92.0583 72.4276 91.75 73.7109 91.75C74.9276 91.75 75.9943 92.0333 76.9109 92.6C77.8443 93.15 78.5443 93.9 79.0109 94.85L77.3609 95.375C76.9943 94.7083 76.4776 94.1917 75.8109 93.825C75.1609 93.4417 74.4359 93.25 73.6359 93.25C72.7526 93.25 71.9526 93.475 71.2359 93.925C70.5359 94.375 69.9693 95 69.5359 95.8C69.1193 96.5833 68.9109 97.4667 68.9109 98.45C68.9109 99.4333 69.1276 100.325 69.5609 101.125C69.9943 101.925 70.5693 102.567 71.2859 103.05C72.0026 103.517 72.7943 103.75 73.6609 103.75C74.2276 103.75 74.7776 103.65 75.3109 103.45C75.8443 103.25 76.3026 102.983 76.6859 102.65C77.0693 102.3 77.3276 101.925 77.4609 101.525L79.1359 102.025C78.9026 102.642 78.5193 103.2 77.9859 103.7C77.4526 104.183 76.8193 104.567 76.0859 104.85C75.3526 105.117 74.5693 105.25 73.7359 105.25ZM85.0566 105V93.5H80.4066V91.975H91.4066V93.5H86.7566V105H85.0566ZM93.6957 105V92H95.3957V102.7L103.321 91.975H104.846V105H103.146V94.475L95.3457 105H93.6957ZM108.839 107.025L109.264 104.925H108.689V102.55H110.339V104.925L109.714 107.025H108.839ZM125.177 105.225C124.027 105.225 122.935 104.958 121.902 104.425C120.868 103.875 120.11 103.1 119.627 102.1L121.002 101.475C121.435 102.275 122.018 102.867 122.752 103.25C123.502 103.633 124.268 103.825 125.052 103.825C125.918 103.825 126.702 103.608 127.402 103.175C128.118 102.725 128.693 102.133 129.127 101.4C129.577 100.65 129.835 99.8417 129.902 98.975H123.827V97.775H129.877C129.793 96.9917 129.552 96.25 129.152 95.55C128.752 94.85 128.21 94.2833 127.527 93.85C126.843 93.4 126.027 93.175 125.077 93.175C124.293 93.175 123.56 93.3417 122.877 93.675C122.21 94.0083 121.652 94.5833 121.202 95.4L119.877 94.725C120.343 93.8417 121.018 93.125 121.902 92.575C122.785 92.025 123.852 91.75 125.102 91.75C126.152 91.75 127.077 91.9417 127.877 92.325C128.693 92.7083 129.377 93.2167 129.927 93.85C130.493 94.4833 130.918 95.2 131.202 96C131.485 96.8 131.627 97.6083 131.627 98.425C131.627 99.275 131.477 100.108 131.177 100.925C130.877 101.725 130.443 102.45 129.877 103.1C129.31 103.75 128.627 104.267 127.827 104.65C127.043 105.033 126.16 105.225 125.177 105.225ZM134.443 105V91.975H136.143V97.575H143.593V91.975H145.293V105H143.593V99.1H136.143V105H134.443ZM154.668 105.25C153.418 105.25 152.301 104.942 151.318 104.325C150.335 103.708 149.56 102.883 148.993 101.85C148.426 100.817 148.143 99.6833 148.143 98.45C148.143 97.2333 148.418 96.1167 148.968 95.1C149.535 94.0833 150.31 93.275 151.293 92.675C152.276 92.0583 153.393 91.75 154.643 91.75C155.926 91.75 157.051 92.0583 158.018 92.675C158.985 93.2917 159.735 94.1083 160.268 95.125C160.818 96.125 161.093 97.225 161.093 98.425C161.093 98.6917 161.085 98.9167 161.068 99.1H149.918C150.001 100.033 150.268 100.867 150.718 101.6C151.168 102.317 151.743 102.892 152.443 103.325C153.143 103.742 153.91 103.95 154.743 103.95C155.593 103.95 156.393 103.733 157.143 103.3C157.893 102.867 158.426 102.3 158.743 101.6L160.218 102C159.951 102.633 159.535 103.2 158.968 103.7C158.418 104.183 157.776 104.567 157.043 104.85C156.31 105.117 155.518 105.25 154.668 105.25ZM149.868 97.875H159.493C159.426 96.9417 159.168 96.1167 158.718 95.4C158.268 94.6667 157.693 94.1 156.993 93.7C156.293 93.2833 155.518 93.075 154.668 93.075C153.818 93.075 153.043 93.2833 152.343 93.7C151.643 94.1 151.068 94.6667 150.618 95.4C150.185 96.1167 149.935 96.9417 149.868 97.875ZM170.366 105.25C169.282 105.25 168.307 104.967 167.441 104.4C166.591 103.833 165.916 103.133 165.416 102.3V110.325H163.716V91.975H165.241V94.5C165.757 93.6833 166.441 93.025 167.291 92.525C168.157 92.0083 169.091 91.75 170.091 91.75C170.991 91.75 171.816 91.9417 172.566 92.325C173.316 92.6917 173.966 93.1917 174.516 93.825C175.082 94.4583 175.516 95.1833 175.816 96C176.116 96.8 176.266 97.6333 176.266 98.5C176.266 99.7167 176.016 100.842 175.516 101.875C175.032 102.892 174.341 103.708 173.441 104.325C172.557 104.942 171.532 105.25 170.366 105.25ZM169.891 103.75C170.841 103.75 171.657 103.5 172.341 103C173.041 102.483 173.582 101.825 173.966 101.025C174.349 100.225 174.541 99.3833 174.541 98.5C174.541 97.5667 174.324 96.7 173.891 95.9C173.457 95.1 172.874 94.4583 172.141 93.975C171.424 93.4917 170.607 93.25 169.691 93.25C169.124 93.25 168.524 93.4 167.891 93.7C167.274 93.9833 166.724 94.375 166.241 94.875C165.774 95.3583 165.499 95.8917 165.416 96.475V100.475C165.799 101.392 166.399 102.167 167.216 102.8C168.032 103.433 168.924 103.75 169.891 103.75ZM179.121 105V91.975H186.896V93.5H180.821V105H179.121ZM189.252 105V92H190.952V102.7L198.877 91.975H200.402V105H198.702V94.475L190.902 105H189.252ZM204.096 105V92H205.796V102.7L213.721 91.975H215.246V105H213.546V94.475L205.746 105H204.096ZM225.312 105V92H227.012V102.7L234.937 91.975H236.462V105H234.762V94.475L226.962 105H225.312ZM246.528 105V91.975H248.228V97.575H255.678V91.975H257.378V105H255.678V99.1H248.228V105H246.528ZM266.678 105.25C265.428 105.25 264.311 104.942 263.328 104.325C262.361 103.708 261.603 102.892 261.053 101.875C260.503 100.842 260.228 99.725 260.228 98.525C260.228 97.3083 260.503 96.1917 261.053 95.175C261.62 94.1417 262.386 93.3167 263.353 92.7C264.336 92.0667 265.445 91.75 266.678 91.75C267.928 91.75 269.036 92.0667 270.003 92.7C270.986 93.3167 271.753 94.1417 272.303 95.175C272.87 96.1917 273.153 97.3083 273.153 98.525C273.153 99.725 272.878 100.842 272.328 101.875C271.778 102.892 271.011 103.708 270.028 104.325C269.061 104.942 267.945 105.25 266.678 105.25ZM261.953 98.55C261.953 99.5167 262.161 100.4 262.578 101.2C263.011 101.983 263.586 102.608 264.303 103.075C265.02 103.525 265.811 103.75 266.678 103.75C267.545 103.75 268.336 103.517 269.053 103.05C269.77 102.583 270.345 101.95 270.778 101.15C271.211 100.35 271.428 99.4667 271.428 98.5C271.428 97.5333 271.211 96.65 270.778 95.85C270.345 95.05 269.77 94.4167 269.053 93.95C268.336 93.4833 267.545 93.25 266.678 93.25C265.828 93.25 265.045 93.4917 264.328 93.975C263.611 94.4417 263.036 95.075 262.603 95.875C262.17 96.675 261.953 97.5667 261.953 98.55ZM275.971 105V91.975H282.471C283.204 91.975 283.821 92.1333 284.321 92.45C284.821 92.75 285.196 93.15 285.446 93.65C285.713 94.1333 285.846 94.6417 285.846 95.175C285.846 95.875 285.671 96.5083 285.321 97.075C284.988 97.625 284.513 98.0417 283.896 98.325C284.646 98.525 285.254 98.9167 285.721 99.5C286.188 100.083 286.421 100.767 286.421 101.55C286.421 102.6 286.046 103.442 285.296 104.075C284.563 104.692 283.621 105 282.471 105H275.971ZM277.596 97.85H282.021C282.671 97.85 283.196 97.6083 283.596 97.125C284.013 96.625 284.221 96.0667 284.221 95.45C284.221 94.85 284.021 94.325 283.621 93.875C283.238 93.425 282.738 93.2 282.121 93.2H277.596V97.85ZM277.596 103.775H282.421C283.088 103.775 283.646 103.533 284.096 103.05C284.546 102.55 284.771 102 284.771 101.4C284.771 100.75 284.554 100.192 284.121 99.725C283.688 99.2583 283.154 99.025 282.521 99.025H277.596V103.775ZM289.35 105V91.975H291.05V96.575H294C295.483 96.575 296.6 96.9583 297.35 97.725C298.117 98.475 298.5 99.4667 298.5 100.7C298.5 101.5 298.333 102.225 298 102.875C297.667 103.525 297.175 104.042 296.525 104.425C295.875 104.808 295.075 105 294.125 105H289.35ZM300.875 105V92H302.575V105H300.875ZM291.05 103.65H293.9C294.917 103.65 295.65 103.358 296.1 102.775C296.55 102.175 296.775 101.492 296.775 100.725C296.775 100.225 296.683 99.7667 296.5 99.35C296.333 98.9167 296.033 98.575 295.6 98.325C295.183 98.0583 294.6 97.925 293.85 97.925H291.05V103.65ZM306.293 105V92H307.993V102.7L315.918 91.975H317.443V105H315.743V94.475L307.943 105H306.293ZM311.893 90.325C310.76 90.325 309.885 90.0583 309.268 89.525C308.652 88.9917 308.343 88.3167 308.343 87.5H309.593C309.593 88 309.777 88.4167 310.143 88.75C310.527 89.0833 311.11 89.25 311.893 89.25C312.66 89.25 313.218 89.0917 313.568 88.775C313.935 88.4583 314.143 88.0333 314.193 87.5H315.418C315.418 88.3167 315.11 88.9917 314.493 89.525C313.877 90.0583 313.01 90.325 311.893 90.325ZM1.85 134V120.975H3.55V126.55H5.5L9.875 120.975H11.825L6.85 127.3L12.45 134H10.45L5.5 128.125H3.55V134H1.85ZM19.7297 134.25C18.4797 134.25 17.363 133.942 16.3797 133.325C15.413 132.708 14.6547 131.892 14.1047 130.875C13.5547 129.842 13.2797 128.725 13.2797 127.525C13.2797 126.308 13.5547 125.192 14.1047 124.175C14.6714 123.142 15.438 122.317 16.4047 121.7C17.388 121.067 18.4964 120.75 19.7297 120.75C20.9797 120.75 22.088 121.067 23.0547 121.7C24.038 122.317 24.8047 123.142 25.3547 124.175C25.9214 125.192 26.2047 126.308 26.2047 127.525C26.2047 128.725 25.9297 129.842 25.3797 130.875C24.8297 131.892 24.063 132.708 23.0797 133.325C22.113 133.942 20.9964 134.25 19.7297 134.25ZM15.0047 127.55C15.0047 128.517 15.213 129.4 15.6297 130.2C16.063 130.983 16.638 131.608 17.3547 132.075C18.0714 132.525 18.863 132.75 19.7297 132.75C20.5964 132.75 21.388 132.517 22.1047 132.05C22.8214 131.583 23.3964 130.95 23.8297 130.15C24.263 129.35 24.4797 128.467 24.4797 127.5C24.4797 126.533 24.263 125.65 23.8297 124.85C23.3964 124.05 22.8214 123.417 22.1047 122.95C21.388 122.483 20.5964 122.25 19.7297 122.25C18.8797 122.25 18.0964 122.492 17.3797 122.975C16.663 123.442 16.088 124.075 15.6547 124.875C15.2214 125.675 15.0047 126.567 15.0047 127.55ZM29.0229 134V120.975H30.7229V126.575H38.1729V120.975H39.8729V134H38.1729V128.1H30.7229V134H29.0229ZM46.873 134V122.5H42.223V120.975H53.223V122.5H48.573V134H46.873ZM54.4139 130.25C54.4139 129.45 54.6472 128.758 55.1139 128.175C55.5805 127.575 56.2222 127.108 57.0389 126.775C57.8722 126.442 58.8305 126.275 59.9139 126.275C60.5472 126.275 61.2055 126.333 61.8889 126.45C62.5722 126.55 63.1805 126.692 63.7139 126.875V125.775C63.7139 124.675 63.3889 123.8 62.7389 123.15C62.0889 122.5 61.1889 122.175 60.0389 122.175C59.3555 122.175 58.6722 122.308 57.9889 122.575C57.3055 122.825 56.5972 123.2 55.8639 123.7L55.2139 122.5C56.0639 121.917 56.8972 121.483 57.7139 121.2C58.5305 120.9 59.3639 120.75 60.2139 120.75C61.8139 120.75 63.0805 121.208 64.0139 122.125C64.9472 123.042 65.4139 124.308 65.4139 125.925V131.95C65.4139 132.4 65.6222 132.633 66.0389 132.65V134C65.6722 134.05 65.4139 134.067 65.2639 134.05C64.8472 134.033 64.5305 133.9 64.3139 133.65C64.0972 133.4 63.9805 133.133 63.9639 132.85L63.9389 131.9C63.3555 132.65 62.5972 133.233 61.6639 133.65C60.7305 134.05 59.7805 134.25 58.8139 134.25C57.9639 134.25 57.2055 134.075 56.5389 133.725C55.8722 133.358 55.3472 132.875 54.9639 132.275C54.5972 131.658 54.4139 130.983 54.4139 130.25ZM63.1389 131.25C63.5222 130.8 63.7139 130.383 63.7139 130V128.1C62.5639 127.65 61.3639 127.425 60.1139 127.425C58.8972 127.425 57.9139 127.667 57.1639 128.15C56.4139 128.633 56.0389 129.292 56.0389 130.125C56.0389 130.842 56.3139 131.492 56.8639 132.075C57.4305 132.658 58.2139 132.95 59.2139 132.95C60.0305 132.95 60.7889 132.792 61.4889 132.475C62.2055 132.158 62.7555 131.75 63.1389 131.25ZM69.0619 134V120.975H70.7619V126.55H72.7119L77.0869 120.975H79.0369L74.0619 127.3L79.6619 134H77.6619L72.7119 128.125H70.7619V134H69.0619ZM85.3252 134V122.5H80.6752V120.975H91.6752V122.5H87.0252V134H85.3252ZM106.011 134.25C104.745 134.25 103.62 133.942 102.636 133.325C101.653 132.692 100.878 131.867 100.311 130.85C99.7447 129.817 99.4613 128.683 99.4613 127.45C99.4613 126.217 99.7363 125.1 100.286 124.1C100.836 123.083 101.603 122.275 102.586 121.675C103.57 121.058 104.703 120.75 105.986 120.75C107.203 120.75 108.27 121.033 109.186 121.6C110.12 122.15 110.82 122.9 111.286 123.85L109.636 124.375C109.27 123.708 108.753 123.192 108.086 122.825C107.436 122.442 106.711 122.25 105.911 122.25C105.028 122.25 104.228 122.475 103.511 122.925C102.811 123.375 102.245 124 101.811 124.8C101.395 125.583 101.186 126.467 101.186 127.45C101.186 128.433 101.403 129.325 101.836 130.125C102.27 130.925 102.845 131.567 103.561 132.05C104.278 132.517 105.07 132.75 105.936 132.75C106.503 132.75 107.053 132.65 107.586 132.45C108.12 132.25 108.578 131.983 108.961 131.65C109.345 131.3 109.603 130.925 109.736 130.525L111.411 131.025C111.178 131.642 110.795 132.2 110.261 132.7C109.728 133.183 109.095 133.567 108.361 133.85C107.628 134.117 106.845 134.25 106.011 134.25ZM126.104 134.25C124.837 134.25 123.712 133.942 122.729 133.325C121.746 132.692 120.971 131.867 120.404 130.85C119.837 129.817 119.554 128.683 119.554 127.45C119.554 126.217 119.829 125.1 120.379 124.1C120.929 123.083 121.696 122.275 122.679 121.675C123.662 121.058 124.796 120.75 126.079 120.75C127.296 120.75 128.362 121.033 129.279 121.6C130.212 122.15 130.912 122.9 131.379 123.85L129.729 124.375C129.362 123.708 128.846 123.192 128.179 122.825C127.529 122.442 126.804 122.25 126.004 122.25C125.121 122.25 124.321 122.475 123.604 122.925C122.904 123.375 122.337 124 121.904 124.8C121.487 125.583 121.279 126.467 121.279 127.45C121.279 128.433 121.496 129.325 121.929 130.125C122.362 130.925 122.937 131.567 123.654 132.05C124.371 132.517 125.162 132.75 126.029 132.75C126.596 132.75 127.146 132.65 127.679 132.45C128.212 132.25 128.671 131.983 129.054 131.65C129.437 131.3 129.696 130.925 129.829 130.525L131.504 131.025C131.271 131.642 130.887 132.2 130.354 132.7C129.821 133.183 129.187 133.567 128.454 133.85C127.721 134.117 126.937 134.25 126.104 134.25ZM139.603 134.25C138.353 134.25 137.236 133.942 136.253 133.325C135.286 132.708 134.528 131.892 133.978 130.875C133.428 129.842 133.153 128.725 133.153 127.525C133.153 126.308 133.428 125.192 133.978 124.175C134.544 123.142 135.311 122.317 136.278 121.7C137.261 121.067 138.369 120.75 139.603 120.75C140.853 120.75 141.961 121.067 142.928 121.7C143.911 122.317 144.678 123.142 145.228 124.175C145.794 125.192 146.078 126.308 146.078 127.525C146.078 128.725 145.803 129.842 145.253 130.875C144.703 131.892 143.936 132.708 142.953 133.325C141.986 133.942 140.869 134.25 139.603 134.25ZM134.878 127.55C134.878 128.517 135.086 129.4 135.503 130.2C135.936 130.983 136.511 131.608 137.228 132.075C137.944 132.525 138.736 132.75 139.603 132.75C140.469 132.75 141.261 132.517 141.978 132.05C142.694 131.583 143.269 130.95 143.703 130.15C144.136 129.35 144.353 128.467 144.353 127.5C144.353 126.533 144.136 125.65 143.703 124.85C143.269 124.05 142.694 123.417 141.978 122.95C141.261 122.483 140.469 122.25 139.603 122.25C138.753 122.25 137.969 122.492 137.253 122.975C136.536 123.442 135.961 124.075 135.528 124.875C135.094 125.675 134.878 126.567 134.878 127.55ZM154.896 134.25C152.796 134.25 151.204 133.608 150.121 132.325C149.054 131.025 148.521 129.233 148.521 126.95C148.521 125.333 148.654 123.967 148.921 122.85C149.188 121.733 149.579 120.808 150.096 120.075C150.613 119.342 151.246 118.75 151.996 118.3C152.763 117.833 153.638 117.45 154.621 117.15L160.096 115.35L160.246 116.825L154.971 118.55C153.971 118.9 153.129 119.325 152.446 119.825C151.779 120.325 151.254 120.983 150.871 121.8C150.504 122.6 150.271 123.625 150.171 124.875C150.588 123.908 151.246 123.167 152.146 122.65C153.063 122.117 154.113 121.85 155.296 121.85C156.563 121.85 157.638 122.108 158.521 122.625C159.421 123.142 160.104 123.858 160.571 124.775C161.038 125.692 161.271 126.75 161.271 127.95C161.271 129.85 160.721 131.375 159.621 132.525C158.538 133.675 156.963 134.25 154.896 134.25ZM154.896 132.75C156.379 132.75 157.521 132.325 158.321 131.475C159.138 130.608 159.546 129.458 159.546 128.025C159.546 126.625 159.146 125.483 158.346 124.6C157.546 123.717 156.396 123.275 154.896 123.275C154.029 123.275 153.246 123.458 152.546 123.825C151.846 124.192 151.288 124.725 150.871 125.425C150.471 126.125 150.271 126.992 150.271 128.025C150.271 129.392 150.663 130.525 151.446 131.425C152.246 132.308 153.396 132.75 154.896 132.75ZM169.781 134.25C168.514 134.25 167.389 133.942 166.406 133.325C165.423 132.692 164.648 131.867 164.081 130.85C163.514 129.817 163.231 128.683 163.231 127.45C163.231 126.217 163.506 125.1 164.056 124.1C164.606 123.083 165.373 122.275 166.356 121.675C167.339 121.058 168.473 120.75 169.756 120.75C170.973 120.75 172.039 121.033 172.956 121.6C173.889 122.15 174.589 122.9 175.056 123.85L173.406 124.375C173.039 123.708 172.523 123.192 171.856 122.825C171.206 122.442 170.481 122.25 169.681 122.25C168.798 122.25 167.998 122.475 167.281 122.925C166.581 123.375 166.014 124 165.581 124.8C165.164 125.583 164.956 126.467 164.956 127.45C164.956 128.433 165.173 129.325 165.606 130.125C166.039 130.925 166.614 131.567 167.331 132.05C168.048 132.517 168.839 132.75 169.706 132.75C170.273 132.75 170.823 132.65 171.356 132.45C171.889 132.25 172.348 131.983 172.731 131.65C173.114 131.3 173.373 130.925 173.506 130.525L175.181 131.025C174.948 131.642 174.564 132.2 174.031 132.7C173.498 133.183 172.864 133.567 172.131 133.85C171.398 134.117 170.614 134.25 169.781 134.25ZM181.102 134V122.5H176.452V120.975H187.452V122.5H182.802V134H181.102ZM189.741 134V120.975H196.241C196.974 120.975 197.591 121.133 198.091 121.45C198.591 121.75 198.966 122.15 199.216 122.65C199.482 123.133 199.616 123.642 199.616 124.175C199.616 124.875 199.441 125.508 199.091 126.075C198.757 126.625 198.282 127.042 197.666 127.325C198.416 127.525 199.024 127.917 199.491 128.5C199.957 129.083 200.191 129.767 200.191 130.55C200.191 131.6 199.816 132.442 199.066 133.075C198.332 133.692 197.391 134 196.241 134H189.741ZM191.366 126.85H195.791C196.441 126.85 196.966 126.608 197.366 126.125C197.782 125.625 197.991 125.067 197.991 124.45C197.991 123.85 197.791 123.325 197.391 122.875C197.007 122.425 196.507 122.2 195.891 122.2H191.366V126.85ZM191.366 132.775H196.191C196.857 132.775 197.416 132.533 197.866 132.05C198.316 131.55 198.541 131 198.541 130.4C198.541 129.75 198.324 129.192 197.891 128.725C197.457 128.258 196.924 128.025 196.291 128.025H191.366V132.775ZM208.77 134.25C207.52 134.25 206.403 133.942 205.42 133.325C204.436 132.708 203.661 131.883 203.095 130.85C202.528 129.817 202.245 128.683 202.245 127.45C202.245 126.233 202.52 125.117 203.07 124.1C203.636 123.083 204.411 122.275 205.395 121.675C206.378 121.058 207.495 120.75 208.745 120.75C210.028 120.75 211.153 121.058 212.12 121.675C213.086 122.292 213.836 123.108 214.37 124.125C214.92 125.125 215.195 126.225 215.195 127.425C215.195 127.692 215.186 127.917 215.17 128.1H204.02C204.103 129.033 204.37 129.867 204.82 130.6C205.27 131.317 205.845 131.892 206.545 132.325C207.245 132.742 208.011 132.95 208.845 132.95C209.695 132.95 210.495 132.733 211.245 132.3C211.995 131.867 212.528 131.3 212.845 130.6L214.32 131C214.053 131.633 213.636 132.2 213.07 132.7C212.52 133.183 211.878 133.567 211.145 133.85C210.411 134.117 209.62 134.25 208.77 134.25ZM203.97 126.875H213.595C213.528 125.942 213.27 125.117 212.82 124.4C212.37 123.667 211.795 123.1 211.095 122.7C210.395 122.283 209.62 122.075 208.77 122.075C207.92 122.075 207.145 122.283 206.445 122.7C205.745 123.1 205.17 123.667 204.72 124.4C204.286 125.117 204.036 125.942 203.97 126.875ZM217.792 134V120.975H219.492V126.575H226.942V120.975H228.642V134H226.942V128.1H219.492V134H217.792ZM232.368 134V120.975H234.068V126.575H241.518V120.975H243.218V134H241.518V128.1H234.068V134H232.368ZM246.943 134V120.975H248.643V125.575H251.593C253.076 125.575 254.193 125.958 254.943 126.725C255.709 127.475 256.093 128.467 256.093 129.7C256.093 130.5 255.926 131.225 255.593 131.875C255.259 132.525 254.768 133.042 254.118 133.425C253.468 133.808 252.668 134 251.718 134H246.943ZM258.468 134V121H260.168V134H258.468ZM248.643 132.65H251.493C252.509 132.65 253.243 132.358 253.693 131.775C254.143 131.175 254.368 130.492 254.368 129.725C254.368 129.225 254.276 128.767 254.093 128.35C253.926 127.917 253.626 127.575 253.193 127.325C252.776 127.058 252.193 126.925 251.443 126.925H248.643V132.65ZM263.886 134V120.975H265.636L270.811 129.95L276.011 120.975H277.686V134H276.061V123.525L271.361 131.675H270.261L265.511 123.525V134H263.886ZM5.125 163V151.5H0.475V149.975H11.475V151.5H6.825V163H5.125ZM19.4141 163.25C18.1641 163.25 17.0474 162.942 16.0641 162.325C15.0807 161.708 14.3057 160.883 13.7391 159.85C13.1724 158.817 12.8891 157.683 12.8891 156.45C12.8891 155.233 13.1641 154.117 13.7141 153.1C14.2807 152.083 15.0557 151.275 16.0391 150.675C17.0224 150.058 18.1391 149.75 19.3891 149.75C20.6724 149.75 21.7974 150.058 22.7641 150.675C23.7307 151.292 24.4807 152.108 25.0141 153.125C25.5641 154.125 25.8391 155.225 25.8391 156.425C25.8391 156.692 25.8307 156.917 25.8141 157.1H14.6641C14.7474 158.033 15.0141 158.867 15.4641 159.6C15.9141 160.317 16.4891 160.892 17.1891 161.325C17.8891 161.742 18.6557 161.95 19.4891 161.95C20.3391 161.95 21.1391 161.733 21.8891 161.3C22.6391 160.867 23.1724 160.3 23.4891 159.6L24.9641 160C24.6974 160.633 24.2807 161.2 23.7141 161.7C23.1641 162.183 22.5224 162.567 21.7891 162.85C21.0557 163.117 20.2641 163.25 19.4141 163.25ZM14.6141 155.875H24.2391C24.1724 154.942 23.9141 154.117 23.4641 153.4C23.0141 152.667 22.4391 152.1 21.7391 151.7C21.0391 151.283 20.2641 151.075 19.4141 151.075C18.5641 151.075 17.7891 151.283 17.0891 151.7C16.3891 152.1 15.8141 152.667 15.3641 153.4C14.9307 154.117 14.6807 154.942 14.6141 155.875ZM27.2119 163.075V161.525C27.6452 161.525 28.0369 161.408 28.3869 161.175C28.7536 160.942 29.0702 160.533 29.3369 159.95C29.6202 159.367 29.8452 158.558 30.0119 157.525C30.1786 156.492 30.2869 155.183 30.3369 153.6L30.4869 149.975H38.9369V163H37.2369V151.5H31.9869L31.9369 153.75C31.8536 156.167 31.6286 158.05 31.2619 159.4C30.8952 160.75 30.3702 161.7 29.6869 162.25C29.0202 162.783 28.1952 163.058 27.2119 163.075ZM48.2453 163.25C46.9953 163.25 45.8786 162.942 44.8953 162.325C43.9286 161.708 43.1703 160.892 42.6203 159.875C42.0703 158.842 41.7953 157.725 41.7953 156.525C41.7953 155.308 42.0703 154.192 42.6203 153.175C43.187 152.142 43.9536 151.317 44.9203 150.7C45.9036 150.067 47.012 149.75 48.2453 149.75C49.4953 149.75 50.6036 150.067 51.5703 150.7C52.5536 151.317 53.3203 152.142 53.8703 153.175C54.437 154.192 54.7203 155.308 54.7203 156.525C54.7203 157.725 54.4453 158.842 53.8953 159.875C53.3453 160.892 52.5786 161.708 51.5953 162.325C50.6286 162.942 49.512 163.25 48.2453 163.25ZM43.5203 156.55C43.5203 157.517 43.7286 158.4 44.1453 159.2C44.5786 159.983 45.1536 160.608 45.8703 161.075C46.587 161.525 47.3786 161.75 48.2453 161.75C49.112 161.75 49.9036 161.517 50.6203 161.05C51.337 160.583 51.912 159.95 52.3453 159.15C52.7786 158.35 52.9953 157.467 52.9953 156.5C52.9953 155.533 52.7786 154.65 52.3453 153.85C51.912 153.05 51.337 152.417 50.6203 151.95C49.9036 151.483 49.112 151.25 48.2453 151.25C47.3953 151.25 46.612 151.492 45.8953 151.975C45.1786 152.442 44.6036 153.075 44.1703 153.875C43.737 154.675 43.5203 155.567 43.5203 156.55ZM57.5385 163V149.975H59.2885L64.4635 158.95L69.6635 149.975H71.3385V163H69.7135V152.525L65.0135 160.675H63.9135L59.1635 152.525V163H57.5385ZM74.8428 163V160.55H76.3178V163H74.8428ZM85.3762 154C85.3762 152.933 85.5595 151.875 85.9262 150.825C86.3095 149.775 86.8595 148.825 87.5762 147.975C88.2928 147.108 89.1762 146.425 90.2262 145.925C91.2762 145.408 92.4678 145.15 93.8012 145.15C95.3678 145.15 96.7178 145.517 97.8512 146.25C98.9845 146.967 99.8178 147.892 100.351 149.025L98.9762 149.875C98.5928 149.092 98.1095 148.475 97.5262 148.025C96.9428 147.558 96.3178 147.225 95.6512 147.025C95.0012 146.825 94.3512 146.725 93.7012 146.725C92.6345 146.725 91.6928 146.942 90.8762 147.375C90.0595 147.792 89.3678 148.358 88.8012 149.075C88.2512 149.792 87.8345 150.583 87.5512 151.45C87.2678 152.317 87.1262 153.2 87.1262 154.1C87.1262 155.083 87.2928 156.025 87.6262 156.925C87.9595 157.808 88.4262 158.6 89.0262 159.3C89.6262 160 90.3262 160.558 91.1262 160.975C91.9428 161.375 92.8262 161.575 93.7762 161.575C94.4428 161.575 95.1262 161.458 95.8262 161.225C96.5262 160.992 97.1762 160.633 97.7762 160.15C98.3762 159.667 98.8678 159.042 99.2512 158.275L100.701 159.025C100.318 159.908 99.7428 160.658 98.9762 161.275C98.2262 161.892 97.3762 162.358 96.4262 162.675C95.4928 162.992 94.5762 163.15 93.6762 163.15C92.4595 163.15 91.3428 162.892 90.3262 162.375C89.3095 161.842 88.4262 161.142 87.6762 160.275C86.9428 159.392 86.3762 158.408 85.9762 157.325C85.5762 156.225 85.3762 155.117 85.3762 154ZM108.462 163.075V161.525C108.895 161.525 109.287 161.408 109.637 161.175C110.004 160.942 110.32 160.533 110.587 159.95C110.87 159.367 111.095 158.558 111.262 157.525C111.429 156.492 111.537 155.183 111.587 153.6L111.737 149.975H120.187V163H118.487V151.5H113.237L113.187 153.75C113.104 156.167 112.879 158.05 112.512 159.4C112.145 160.75 111.62 161.7 110.937 162.25C110.27 162.783 109.445 163.058 108.462 163.075ZM134.27 163.25C133.137 163.25 132.129 162.992 131.245 162.475C130.379 161.958 129.679 161.25 129.145 160.35C128.629 159.45 128.329 158.417 128.245 157.25H125.645V163H123.945V149.975H125.645V155.75H128.245C128.329 154.55 128.637 153.5 129.17 152.6C129.72 151.7 130.429 151 131.295 150.5C132.179 150 133.17 149.75 134.27 149.75C135.554 149.75 136.662 150.05 137.595 150.65C138.529 151.25 139.254 152.058 139.77 153.075C140.287 154.092 140.545 155.242 140.545 156.525C140.545 157.842 140.279 159.008 139.745 160.025C139.212 161.025 138.479 161.817 137.545 162.4C136.612 162.967 135.52 163.25 134.27 163.25ZM134.27 161.75C135.17 161.75 135.962 161.533 136.645 161.1C137.329 160.65 137.854 160.033 138.22 159.25C138.604 158.45 138.795 157.542 138.795 156.525C138.795 155.442 138.595 154.508 138.195 153.725C137.812 152.942 137.279 152.333 136.595 151.9C135.912 151.467 135.137 151.25 134.27 151.25C133.404 151.25 132.637 151.475 131.97 151.925C131.32 152.358 130.812 152.975 130.445 153.775C130.079 154.558 129.895 155.475 129.895 156.525C129.895 157.592 130.079 158.517 130.445 159.3C130.829 160.083 131.354 160.692 132.02 161.125C132.687 161.542 133.437 161.75 134.27 161.75ZM149.378 163.25C147.278 163.25 145.687 162.608 144.603 161.325C143.537 160.025 143.003 158.233 143.003 155.95C143.003 154.333 143.137 152.967 143.403 151.85C143.67 150.733 144.062 149.808 144.578 149.075C145.095 148.342 145.728 147.75 146.478 147.3C147.245 146.833 148.12 146.45 149.103 146.15L154.578 144.35L154.728 145.825L149.453 147.55C148.453 147.9 147.612 148.325 146.928 148.825C146.262 149.325 145.737 149.983 145.353 150.8C144.987 151.6 144.753 152.625 144.653 153.875C145.07 152.908 145.728 152.167 146.628 151.65C147.545 151.117 148.595 150.85 149.778 150.85C151.045 150.85 152.12 151.108 153.003 151.625C153.903 152.142 154.587 152.858 155.053 153.775C155.52 154.692 155.753 155.75 155.753 156.95C155.753 158.85 155.203 160.375 154.103 161.525C153.02 162.675 151.445 163.25 149.378 163.25ZM149.378 161.75C150.862 161.75 152.003 161.325 152.803 160.475C153.62 159.608 154.028 158.458 154.028 157.025C154.028 155.625 153.628 154.483 152.828 153.6C152.028 152.717 150.878 152.275 149.378 152.275C148.512 152.275 147.728 152.458 147.028 152.825C146.328 153.192 145.77 153.725 145.353 154.425C144.953 155.125 144.753 155.992 144.753 157.025C144.753 158.392 145.145 159.525 145.928 160.425C146.728 161.308 147.878 161.75 149.378 161.75ZM164.163 163.25C162.913 163.25 161.797 162.942 160.813 162.325C159.847 161.708 159.088 160.892 158.538 159.875C157.988 158.842 157.713 157.725 157.713 156.525C157.713 155.308 157.988 154.192 158.538 153.175C159.105 152.142 159.872 151.317 160.838 150.7C161.822 150.067 162.93 149.75 164.163 149.75C165.413 149.75 166.522 150.067 167.488 150.7C168.472 151.317 169.238 152.142 169.788 153.175C170.355 154.192 170.638 155.308 170.638 156.525C170.638 157.725 170.363 158.842 169.813 159.875C169.263 160.892 168.497 161.708 167.513 162.325C166.547 162.942 165.43 163.25 164.163 163.25ZM159.438 156.55C159.438 157.517 159.647 158.4 160.063 159.2C160.497 159.983 161.072 160.608 161.788 161.075C162.505 161.525 163.297 161.75 164.163 161.75C165.03 161.75 165.822 161.517 166.538 161.05C167.255 160.583 167.83 159.95 168.263 159.15C168.697 158.35 168.913 157.467 168.913 156.5C168.913 155.533 168.697 154.65 168.263 153.85C167.83 153.05 167.255 152.417 166.538 151.95C165.822 151.483 165.03 151.25 164.163 151.25C163.313 151.25 162.53 151.492 161.813 151.975C161.097 152.442 160.522 153.075 160.088 153.875C159.655 154.675 159.438 155.567 159.438 156.55ZM173.456 163V149.975H179.956C180.69 149.975 181.306 150.133 181.806 150.45C182.306 150.75 182.681 151.15 182.931 151.65C183.198 152.133 183.331 152.642 183.331 153.175C183.331 153.875 183.156 154.508 182.806 155.075C182.473 155.625 181.998 156.042 181.381 156.325C182.131 156.525 182.74 156.917 183.206 157.5C183.673 158.083 183.906 158.767 183.906 159.55C183.906 160.6 183.531 161.442 182.781 162.075C182.048 162.692 181.106 163 179.956 163H173.456ZM175.081 155.85H179.506C180.156 155.85 180.681 155.608 181.081 155.125C181.498 154.625 181.706 154.067 181.706 153.45C181.706 152.85 181.506 152.325 181.106 151.875C180.723 151.425 180.223 151.2 179.606 151.2H175.081V155.85ZM175.081 161.775H179.906C180.573 161.775 181.131 161.533 181.581 161.05C182.031 160.55 182.256 160 182.256 159.4C182.256 158.75 182.04 158.192 181.606 157.725C181.173 157.258 180.64 157.025 180.006 157.025H175.081V161.775ZM186.835 163V149.975H188.535V154.575H191.91C193.394 154.575 194.51 154.958 195.26 155.725C196.027 156.475 196.41 157.467 196.41 158.7C196.41 159.5 196.244 160.225 195.91 160.875C195.577 161.525 195.085 162.042 194.435 162.425C193.785 162.808 192.985 163 192.035 163H186.835ZM188.535 161.65H191.81C192.827 161.65 193.56 161.358 194.01 160.775C194.46 160.175 194.685 159.492 194.685 158.725C194.685 158.225 194.594 157.767 194.41 157.35C194.244 156.917 193.944 156.575 193.51 156.325C193.094 156.058 192.51 155.925 191.76 155.925H188.535V161.65ZM209.392 163.25C208.259 163.25 207.251 162.992 206.367 162.475C205.501 161.958 204.801 161.25 204.267 160.35C203.751 159.45 203.451 158.417 203.367 157.25H200.767V163H199.067V149.975H200.767V155.75H203.367C203.451 154.55 203.759 153.5 204.292 152.6C204.842 151.7 205.551 151 206.417 150.5C207.301 150 208.292 149.75 209.392 149.75C210.676 149.75 211.784 150.05 212.717 150.65C213.651 151.25 214.376 152.058 214.892 153.075C215.409 154.092 215.667 155.242 215.667 156.525C215.667 157.842 215.401 159.008 214.867 160.025C214.334 161.025 213.601 161.817 212.667 162.4C211.734 162.967 210.642 163.25 209.392 163.25ZM209.392 161.75C210.292 161.75 211.084 161.533 211.767 161.1C212.451 160.65 212.976 160.033 213.342 159.25C213.726 158.45 213.917 157.542 213.917 156.525C213.917 155.442 213.717 154.508 213.317 153.725C212.934 152.942 212.401 152.333 211.717 151.9C211.034 151.467 210.259 151.25 209.392 151.25C208.526 151.25 207.759 151.475 207.092 151.925C206.442 152.358 205.934 152.975 205.567 153.775C205.201 154.558 205.017 155.475 205.017 156.525C205.017 157.592 205.201 158.517 205.567 159.3C205.951 160.083 206.476 160.692 207.142 161.125C207.809 161.542 208.559 161.75 209.392 161.75ZM218.95 157.3V145.075H220.65V157.3H218.95ZM218.95 163V160.2H220.65V163H218.95Z" fill="black"/>
</svg>
