<svg width="389" height="157" viewBox="0 0 389 157" fill="none" xmlns="http://www.w3.org/2000/svg">
<path d="M135.488 48.16C134.677 48.16 133.957 47.9627 133.328 47.568C132.699 47.1627 132.203 46.6347 131.84 45.984C131.477 45.3227 131.296 44.5973 131.296 43.808C131.296 43.0187 131.472 42.304 131.824 41.664C132.176 41.0133 132.667 40.496 133.296 40.112C133.925 39.7173 134.651 39.52 135.472 39.52C136.251 39.52 136.933 39.7013 137.52 40.064C138.117 40.416 138.565 40.896 138.864 41.504L137.808 41.84C137.573 41.4133 137.243 41.0827 136.816 40.848C136.4 40.6027 135.936 40.48 135.424 40.48C134.859 40.48 134.347 40.624 133.888 40.912C133.44 41.2 133.077 41.6 132.8 42.112C132.533 42.6133 132.4 43.1787 132.4 43.808C132.4 44.4373 132.539 45.008 132.816 45.52C133.093 46.032 133.461 46.4427 133.92 46.752C134.379 47.0507 134.885 47.2 135.44 47.2C135.803 47.2 136.155 47.136 136.496 47.008C136.837 46.88 137.131 46.7093 137.376 46.496C137.621 46.272 137.787 46.032 137.872 45.776L138.944 46.096C138.795 46.4907 138.549 46.848 138.208 47.168C137.867 47.4773 137.461 47.7227 136.992 47.904C136.523 48.0747 136.021 48.16 135.488 48.16ZM144.909 48.16C144.216 48.16 143.592 47.9787 143.037 47.616C142.493 47.2533 142.061 46.8053 141.741 46.272V51.408H140.653V39.664H141.629V41.28C141.96 40.7573 142.397 40.336 142.941 40.016C143.496 39.6853 144.093 39.52 144.733 39.52C145.309 39.52 145.837 39.6427 146.317 39.888C146.797 40.1227 147.213 40.4427 147.565 40.848C147.928 41.2533 148.205 41.7173 148.397 42.24C148.589 42.752 148.685 43.2853 148.685 43.84C148.685 44.6187 148.525 45.3387 148.205 46C147.896 46.6507 147.453 47.1733 146.877 47.568C146.312 47.9627 145.656 48.16 144.909 48.16ZM144.605 47.2C145.213 47.2 145.736 47.04 146.173 46.72C146.621 46.3893 146.968 45.968 147.213 45.456C147.458 44.944 147.581 44.4053 147.581 43.84C147.581 43.2427 147.442 42.688 147.165 42.176C146.888 41.664 146.514 41.2533 146.045 40.944C145.586 40.6347 145.064 40.48 144.477 40.48C144.114 40.48 143.73 40.576 143.325 40.768C142.93 40.9493 142.578 41.2 142.269 41.52C141.97 41.8293 141.794 42.1707 141.741 42.544V45.104C141.986 45.6907 142.37 46.1867 142.893 46.592C143.416 46.9973 143.986 47.2 144.605 47.2Z" fill="black"/>
<path d="M79.0981 48V39.664H83.2581C83.7274 39.664 84.1221 39.7653 84.4421 39.968C84.7621 40.16 85.0021 40.416 85.1621 40.736C85.3327 41.0453 85.4181 41.3707 85.4181 41.712C85.4181 42.16 85.3061 42.5653 85.0821 42.928C84.8687 43.28 84.5647 43.5467 84.1701 43.728C84.6501 43.856 85.0394 44.1067 85.3381 44.48C85.6367 44.8533 85.7861 45.2907 85.7861 45.792C85.7861 46.464 85.5461 47.0027 85.0661 47.408C84.5967 47.8027 83.9941 48 83.2581 48H79.0981ZM80.1381 43.424H82.9701C83.3861 43.424 83.7221 43.2693 83.9781 42.96C84.2447 42.64 84.3781 42.2827 84.3781 41.888C84.3781 41.504 84.2501 41.168 83.9941 40.88C83.7487 40.592 83.4287 40.448 83.0341 40.448H80.1381V43.424ZM80.1381 47.216H83.2261C83.6527 47.216 84.0101 47.0613 84.2981 46.752C84.5861 46.432 84.7301 46.08 84.7301 45.696C84.7301 45.28 84.5914 44.9227 84.3141 44.624C84.0367 44.3253 83.6954 44.176 83.2901 44.176H80.1381V47.216ZM89.7409 48V40.64H86.7649V39.664H93.8049V40.64H90.8289V48H89.7409Z" fill="black"/>
<path d="M73.029 91.696V94H66.117V91.696H68.389V87.616C68.261 87.7867 68.0423 87.9573 67.733 88.128C67.4343 88.2987 67.1037 88.448 66.741 88.576C66.389 88.6933 66.0743 88.752 65.797 88.752V86.384C65.9783 86.384 66.2023 86.3253 66.469 86.208C66.7357 86.0907 67.0023 85.952 67.269 85.792C67.5463 85.6213 67.7863 85.4507 67.989 85.28C68.2023 85.1093 68.3357 84.9707 68.389 84.864H70.997V91.696H73.029ZM73.8863 88.848C73.8863 88.1013 74.0676 87.4293 74.4303 86.832C74.8036 86.224 75.3049 85.744 75.9343 85.392C76.5636 85.04 77.2783 84.864 78.0783 84.864C79.4009 84.864 80.4356 85.3387 81.1823 86.288C81.9289 87.2373 82.3023 88.56 82.3023 90.256C82.3023 91.5787 82.1209 92.704 81.7583 93.632C81.3956 94.56 80.8783 95.264 80.2063 95.744C79.5343 96.2347 78.7396 96.48 77.8223 96.48C77.1183 96.48 76.4623 96.336 75.8543 96.048C75.2463 95.76 74.7183 95.344 74.2703 94.8L75.7103 93.168C75.9769 93.5093 76.2969 93.776 76.6703 93.968C77.0436 94.16 77.4383 94.256 77.8543 94.256C78.4836 94.256 78.9796 94.032 79.3423 93.584C79.7156 93.1253 79.9129 92.4907 79.9343 91.68C79.4863 92.288 78.7929 92.592 77.8543 92.592C77.1076 92.592 76.4303 92.4267 75.8223 92.096C75.2249 91.7653 74.7503 91.3173 74.3983 90.752C74.0569 90.1867 73.8863 89.552 73.8863 88.848ZM78.0783 87.024C77.7583 87.024 77.4649 87.1093 77.1983 87.28C76.9316 87.44 76.7183 87.6587 76.5583 87.936C76.3983 88.2133 76.3183 88.5173 76.3183 88.848C76.3183 89.328 76.4889 89.7387 76.8303 90.08C77.1823 90.4107 77.5983 90.576 78.0783 90.576C78.5583 90.576 78.9689 90.4107 79.3103 90.08C79.6623 89.7387 79.8383 89.328 79.8383 88.848C79.8383 88.5173 79.7529 88.2133 79.5823 87.936C79.4223 87.6587 79.2089 87.44 78.9423 87.28C78.6756 87.1093 78.3876 87.024 78.0783 87.024ZM83.9801 88.304V85.696H86.0601V88.304H83.9801ZM83.9801 94V91.392H86.0601V94H83.9801ZM96.3068 89.312C96.3068 90.2507 96.1254 91.088 95.7628 91.824C95.4001 92.5493 94.9041 93.12 94.2748 93.536C93.6454 93.952 92.9308 94.16 92.1308 94.16C91.3308 94.16 90.6161 93.952 89.9868 93.536C89.3574 93.12 88.8614 92.5493 88.4988 91.824C88.1361 91.088 87.9548 90.2507 87.9548 89.312C87.9548 88.3733 88.1361 87.5413 88.4988 86.816C88.8614 86.08 89.3574 85.504 89.9868 85.088C90.6161 84.6613 91.3308 84.448 92.1308 84.448C92.9308 84.448 93.6454 84.6613 94.2748 85.088C94.9041 85.504 95.4001 86.08 95.7628 86.816C96.1254 87.5413 96.3068 88.3733 96.3068 89.312ZM93.7308 89.312C93.7308 88.5653 93.5761 87.9627 93.2668 87.504C92.9681 87.0347 92.5894 86.8 92.1308 86.8C91.6508 86.8 91.2614 87.0347 90.9628 87.504C90.6641 87.9627 90.5148 88.5653 90.5148 89.312C90.5148 90.0587 90.6641 90.6613 90.9628 91.12C91.2614 91.5787 91.6508 91.808 92.1308 91.808C92.5894 91.808 92.9681 91.5787 93.2668 91.12C93.5761 90.6613 93.7308 90.0587 93.7308 89.312ZM106.135 89.312C106.135 90.2507 105.954 91.088 105.591 91.824C105.228 92.5493 104.732 93.12 104.103 93.536C103.474 93.952 102.759 94.16 101.959 94.16C101.159 94.16 100.444 93.952 99.8149 93.536C99.1855 93.12 98.6895 92.5493 98.3269 91.824C97.9642 91.088 97.7829 90.2507 97.7829 89.312C97.7829 88.3733 97.9642 87.5413 98.3269 86.816C98.6895 86.08 99.1855 85.504 99.8149 85.088C100.444 84.6613 101.159 84.448 101.959 84.448C102.759 84.448 103.474 84.6613 104.103 85.088C104.732 85.504 105.228 86.08 105.591 86.816C105.954 87.5413 106.135 88.3733 106.135 89.312ZM103.559 89.312C103.559 88.5653 103.404 87.9627 103.095 87.504C102.796 87.0347 102.418 86.8 101.959 86.8C101.479 86.8 101.09 87.0347 100.791 87.504C100.492 87.9627 100.343 88.5653 100.343 89.312C100.343 90.0587 100.492 90.6613 100.791 91.12C101.09 91.5787 101.479 91.808 101.959 91.808C102.418 91.808 102.796 91.5787 103.095 91.12C103.404 90.6613 103.559 90.0587 103.559 89.312ZM79.9177 114V104.752L75.8057 111.936H75.1017L70.9737 104.752V114H69.8537V102.64H71.0057L75.4377 110.416L79.9017 102.64H81.0377V114H79.9177ZM83.1329 108.24C83.1329 107.557 83.2503 106.88 83.4849 106.208C83.7303 105.536 84.0823 104.928 84.5409 104.384C84.9996 103.829 85.5649 103.392 86.2369 103.072C86.9089 102.741 87.6716 102.576 88.5249 102.576C89.5276 102.576 90.3916 102.811 91.1169 103.28C91.8423 103.739 92.3756 104.331 92.7169 105.056L91.8369 105.6C91.5916 105.099 91.2823 104.704 90.9089 104.416C90.5356 104.117 90.1356 103.904 89.7089 103.776C89.2929 103.648 88.8769 103.584 88.4609 103.584C87.7783 103.584 87.1756 103.723 86.6529 104C86.1303 104.267 85.6876 104.629 85.3249 105.088C84.9729 105.547 84.7063 106.053 84.5249 106.608C84.3436 107.163 84.2529 107.728 84.2529 108.304C84.2529 108.933 84.3596 109.536 84.5729 110.112C84.7863 110.677 85.0849 111.184 85.4689 111.632C85.8529 112.08 86.3009 112.437 86.8129 112.704C87.3356 112.96 87.9009 113.088 88.5089 113.088C88.9356 113.088 89.3729 113.013 89.8209 112.864C90.2689 112.715 90.6849 112.485 91.0689 112.176C91.4529 111.867 91.7676 111.467 92.0129 110.976L92.9409 111.456C92.6956 112.021 92.3276 112.501 91.8369 112.896C91.3569 113.291 90.8129 113.589 90.2049 113.792C89.6076 113.995 89.0209 114.096 88.4449 114.096C87.6663 114.096 86.9516 113.931 86.3009 113.6C85.6503 113.259 85.0849 112.811 84.6049 112.256C84.1356 111.691 83.7729 111.061 83.5169 110.368C83.2609 109.664 83.1329 108.955 83.1329 108.24ZM94.8537 114V102.64H95.9737V107.696H97.6857L101.59 102.64H102.886L98.6137 108.144L103.158 114H101.782L97.7177 108.72H95.9737V114H94.8537Z" fill="black"/>
<g filter="url(#filter0_d)">
<circle cx="86" cy="66" r="11" fill="#B0E3FF"/>
</g>
<g filter="url(#filter1_d)">
<circle cx="140" cy="66" r="11" fill="#B0E3FF"/>
</g>
<path d="M116.057 16.425C116.057 17.425 115.798 18.2667 115.282 18.95C114.765 19.6167 114.065 20.125 113.182 20.475C112.315 20.825 111.365 21 110.332 21H101.757V3.25H111.257C112.09 3.25 112.807 3.475 113.407 3.925C114.007 4.35833 114.473 4.925 114.807 5.625C115.14 6.325 115.307 7.04167 115.307 7.775C115.307 8.64167 115.09 9.45833 114.657 10.225C114.223 10.975 113.59 11.5333 112.757 11.9C113.773 12.2 114.573 12.7417 115.157 13.525C115.757 14.3083 116.057 15.275 116.057 16.425ZM105.207 6.2V10.675H109.807C110.373 10.675 110.865 10.475 111.282 10.075C111.698 9.675 111.907 9.125 111.907 8.425C111.907 7.75833 111.715 7.225 111.332 6.825C110.965 6.40833 110.507 6.2 109.957 6.2H105.207ZM112.582 15.775C112.582 15.125 112.382 14.5667 111.982 14.1C111.582 13.6333 111.09 13.4 110.507 13.4H105.207V18.075H110.332C110.965 18.075 111.498 17.85 111.932 17.4C112.365 16.95 112.582 16.4083 112.582 15.775ZM126.274 21.25C125.241 21.25 124.341 21.0167 123.574 20.55C122.807 20.0833 122.207 19.4667 121.774 18.7V26.325H118.424V7.9H121.349V10.15C121.832 9.38333 122.457 8.78333 123.224 8.35C124.007 7.9 124.891 7.675 125.874 7.675C127.057 7.675 128.107 7.98333 129.024 8.6C129.941 9.2 130.666 10.0167 131.199 11.05C131.732 12.0667 131.999 13.1917 131.999 14.425C131.999 15.7083 131.749 16.8667 131.249 17.9C130.766 18.9167 130.091 19.7333 129.224 20.35C128.374 20.95 127.391 21.25 126.274 21.25ZM125.149 18.4C125.832 18.4 126.424 18.2167 126.924 17.85C127.441 17.4667 127.841 16.975 128.124 16.375C128.424 15.7583 128.574 15.1083 128.574 14.425C128.574 13.6917 128.416 13.0333 128.099 12.45C127.782 11.85 127.349 11.3833 126.799 11.05C126.266 10.7 125.649 10.525 124.949 10.525C124.316 10.525 123.682 10.7333 123.049 11.15C122.416 11.5667 121.991 12.0917 121.774 12.725V15.8C122.074 16.5333 122.532 17.15 123.149 17.65C123.766 18.15 124.432 18.4 125.149 18.4ZM140.344 21.25C138.927 21.25 137.702 20.9417 136.669 20.325C135.652 19.7083 134.86 18.8917 134.294 17.875C133.727 16.8417 133.444 15.725 133.444 14.525C133.444 13.2917 133.719 12.1583 134.269 11.125C134.835 10.075 135.635 9.24167 136.669 8.625C137.702 7.99167 138.935 7.675 140.369 7.675C141.802 7.675 143.027 7.99167 144.044 8.625C145.06 9.24167 145.835 10.0667 146.369 11.1C146.919 12.1167 147.194 13.2167 147.194 14.4C147.194 14.8333 147.169 15.2083 147.119 15.525H136.994C137.077 16.5417 137.452 17.3417 138.119 17.925C138.802 18.5083 139.585 18.8 140.469 18.8C141.135 18.8 141.76 18.6417 142.344 18.325C142.944 17.9917 143.352 17.5583 143.569 17.025L146.444 17.825C145.96 18.825 145.185 19.65 144.119 20.3C143.052 20.9333 141.794 21.25 140.344 21.25ZM136.919 13.4H143.769C143.669 12.4167 143.294 11.625 142.644 11.025C142.01 10.4083 141.235 10.1 140.319 10.1C139.419 10.1 138.644 10.4083 137.994 11.025C137.36 11.625 137.002 12.4167 136.919 13.4ZM149.234 21V7.9H152.734L156.834 15.475L160.959 7.9H164.409V21H161.234V12.525L157.884 18.675H155.784L152.409 12.525V21H149.234ZM166.796 21L170.121 15.9C169.321 15.6833 168.696 15.2583 168.246 14.625C167.796 13.9917 167.571 13.1583 167.571 12.125C167.571 10.8417 168.005 9.80833 168.871 9.025C169.738 8.24167 170.863 7.85 172.246 7.85H178.471V21H175.121V16.475H173.346L170.471 21H166.796ZM172.646 14.075H175.121V10.425H172.771C172.171 10.425 171.696 10.5917 171.346 10.925C170.996 11.2417 170.821 11.675 170.821 12.225C170.821 12.7583 170.971 13.2 171.271 13.55C171.588 13.9 172.046 14.075 172.646 14.075ZM192.191 21.2C190.791 21.2 189.616 20.95 188.666 20.45C187.732 19.95 187.007 19.2583 186.491 18.375L189.191 17.15C189.474 17.5833 189.841 17.925 190.291 18.175C190.757 18.4083 191.332 18.525 192.016 18.525C192.799 18.525 193.399 18.375 193.816 18.075C194.249 17.7583 194.466 17.35 194.466 16.85C194.466 16.4 194.291 16.0333 193.941 15.75C193.591 15.45 193.074 15.3 192.391 15.3H191.041V13.225H192.416C192.882 13.225 193.249 13.0917 193.516 12.825C193.799 12.5583 193.941 12.2083 193.941 11.775C193.941 11.3417 193.774 11 193.441 10.75C193.124 10.4833 192.616 10.35 191.916 10.35C191.332 10.35 190.849 10.4583 190.466 10.675C190.082 10.8917 189.774 11.2167 189.541 11.65L187.016 10.3C187.482 9.48333 188.149 8.84167 189.016 8.375C189.899 7.90833 190.924 7.675 192.091 7.675C193.007 7.675 193.824 7.81667 194.541 8.1C195.274 8.38333 195.849 8.8 196.266 9.35C196.682 9.88333 196.891 10.5417 196.891 11.325C196.891 11.8917 196.749 12.4417 196.466 12.975C196.199 13.5083 195.757 13.9 195.141 14.15C195.941 14.3833 196.541 14.7833 196.941 15.35C197.357 15.9167 197.566 16.5833 197.566 17.35C197.566 18.1833 197.332 18.8917 196.866 19.475C196.399 20.0417 195.757 20.475 194.941 20.775C194.141 21.0583 193.224 21.2 192.191 21.2ZM199.018 17.125C199.018 16.275 199.251 15.5333 199.718 14.9C200.201 14.25 200.868 13.75 201.718 13.4C202.568 13.05 203.543 12.875 204.643 12.875C205.193 12.875 205.751 12.925 206.318 13.025C206.885 13.1083 207.376 13.2333 207.793 13.4V12.7C207.793 11.8667 207.543 11.225 207.043 10.775C206.56 10.325 205.835 10.1 204.868 10.1C204.151 10.1 203.468 10.225 202.818 10.475C202.168 10.725 201.485 11.0917 200.768 11.575L199.693 9.375C200.56 8.80833 201.443 8.38333 202.343 8.1C203.26 7.81667 204.218 7.675 205.218 7.675C207.085 7.675 208.535 8.14167 209.568 9.075C210.618 10.0083 211.143 11.3417 211.143 13.075V17.25C211.143 17.6167 211.201 17.875 211.318 18.025C211.435 18.1583 211.643 18.2417 211.943 18.275V21C211.643 21.0667 211.368 21.1083 211.118 21.125C210.885 21.1583 210.685 21.175 210.518 21.175C209.851 21.175 209.343 21.025 208.993 20.725C208.643 20.425 208.435 20.0583 208.368 19.625L208.293 18.95C207.71 19.7 206.993 20.275 206.143 20.675C205.31 21.0583 204.451 21.25 203.568 21.25C202.685 21.25 201.901 21.075 201.218 20.725C200.535 20.3583 199.993 19.8667 199.593 19.25C199.21 18.6167 199.018 17.9083 199.018 17.125ZM207.168 17.8C207.585 17.4 207.793 17.0167 207.793 16.65V15.325C206.926 14.975 206.051 14.8 205.168 14.8C204.285 14.8 203.568 14.9917 203.018 15.375C202.468 15.7417 202.193 16.2333 202.193 16.85C202.193 17.35 202.393 17.8 202.793 18.2C203.193 18.6 203.768 18.8 204.518 18.8C205.018 18.8 205.501 18.7083 205.968 18.525C206.451 18.3417 206.851 18.1 207.168 17.8ZM214.274 21V7.9H217.624V12.9H222.924V7.9H226.274V21H222.924V15.7H217.624V21H214.274ZM228.637 21L231.962 15.9C231.162 15.6833 230.537 15.2583 230.087 14.625C229.637 13.9917 229.412 13.1583 229.412 12.125C229.412 10.8417 229.845 9.80833 230.712 9.025C231.579 8.24167 232.704 7.85 234.087 7.85H240.312V21H236.962V16.475H235.187L232.312 21H228.637ZM234.487 14.075H236.962V10.425H234.612C234.012 10.425 233.537 10.5917 233.187 10.925C232.837 11.2417 232.662 11.675 232.662 12.225C232.662 12.7583 232.812 13.2 233.112 13.55C233.429 13.9 233.887 14.075 234.487 14.075ZM246.376 21V10.825H242.226V7.9H253.901V10.825H249.726V21H246.376ZM255.777 21V7.925H259.127V16.525L265.002 7.9H268.052V21H264.702V12.6L258.902 21H255.777ZM271.109 21V7.925H274.459V16.525L280.334 7.9H283.384V21H280.034V12.6L274.234 21H271.109ZM277.259 6.675C275.976 6.675 274.968 6.35 274.234 5.7C273.501 5.03333 273.134 4.18333 273.134 3.15H275.209C275.209 3.65 275.368 4.06667 275.684 4.4C276.018 4.73333 276.543 4.9 277.259 4.9C277.959 4.9 278.459 4.74167 278.759 4.425C279.076 4.10833 279.268 3.68333 279.334 3.15H281.409C281.409 4.18333 281.043 5.03333 280.309 5.7C279.576 6.35 278.559 6.675 277.259 6.675ZM286.642 11.65V8.05H289.367V11.65H286.642ZM286.642 21V17.4H289.367V21H286.642Z" fill="white"/>
<path d="M18.344 148.096C17.704 148.096 17.0853 147.995 16.488 147.792C15.9013 147.579 15.368 147.275 14.888 146.88C14.4187 146.485 14.0453 146.011 13.768 145.456L14.712 144.976C15.0853 145.68 15.6027 146.208 16.264 146.56C16.9253 146.912 17.608 147.088 18.312 147.088C18.9093 147.088 19.4587 146.971 19.96 146.736C20.472 146.501 20.92 146.181 21.304 145.776C21.688 145.36 21.992 144.885 22.216 144.352C22.4507 143.819 22.5787 143.253 22.6 142.656H17.24V141.728H22.584C22.52 141.024 22.312 140.357 21.96 139.728C21.608 139.099 21.128 138.587 20.52 138.192C19.912 137.787 19.1867 137.584 18.344 137.584C17.6613 137.584 17.0053 137.744 16.376 138.064C15.7573 138.384 15.2667 138.901 14.904 139.616L13.976 139.056C14.3707 138.331 14.9253 137.739 15.64 137.28C16.3547 136.811 17.2453 136.576 18.312 136.576C19.176 136.576 19.944 136.741 20.616 137.072C21.2987 137.392 21.8693 137.824 22.328 138.368C22.7973 138.912 23.1547 139.525 23.4 140.208C23.6453 140.88 23.768 141.568 23.768 142.272C23.768 143.008 23.6347 143.728 23.368 144.432C23.112 145.125 22.744 145.749 22.264 146.304C21.784 146.848 21.208 147.285 20.536 147.616C19.8747 147.936 19.144 148.096 18.344 148.096ZM29.4775 151.408V148H29.1095C28.2882 148 27.5735 147.813 26.9655 147.44C26.3575 147.056 25.8882 146.549 25.5575 145.92C25.2268 145.291 25.0615 144.603 25.0615 143.856C25.0615 143.099 25.2268 142.405 25.5575 141.776C25.8988 141.147 26.3735 140.64 26.9815 140.256C27.5895 139.872 28.2988 139.68 29.1095 139.68H29.4775V136.32H30.5655V139.68H30.9335C31.7442 139.68 32.4535 139.872 33.0615 140.256C33.6695 140.64 34.1388 141.147 34.4695 141.776C34.8108 142.405 34.9815 143.099 34.9815 143.856C34.9815 144.603 34.8162 145.291 34.4855 145.92C34.1548 146.549 33.6855 147.056 33.0775 147.44C32.4695 147.813 31.7548 148 30.9335 148H30.5655V151.408H29.4775ZM29.1095 147.088H29.5095V140.592H29.1095C28.5335 140.592 28.0162 140.741 27.5575 141.04C27.1095 141.328 26.7575 141.723 26.5015 142.224C26.2562 142.715 26.1335 143.264 26.1335 143.872C26.1335 144.469 26.2562 145.013 26.5015 145.504C26.7575 145.995 27.1095 146.384 27.5575 146.672C28.0055 146.949 28.5228 147.088 29.1095 147.088ZM30.5175 147.088H30.9335C31.5202 147.088 32.0375 146.949 32.4855 146.672C32.9335 146.384 33.2802 145.995 33.5255 145.504C33.7815 145.013 33.9095 144.469 33.9095 143.872C33.9095 143.264 33.7815 142.715 33.5255 142.224C33.2802 141.723 32.9282 141.328 32.4695 141.04C32.0215 140.741 31.5095 140.592 30.9335 140.592H30.5175V147.088ZM36.7934 148V139.68H37.8814V146.528L42.9534 139.664H43.9294V148H42.8414V141.264L37.8494 148H36.7934ZM50.5654 148.16C49.872 148.16 49.248 147.979 48.6934 147.616C48.1494 147.253 47.7174 146.805 47.3974 146.272V151.408H46.3094V139.664H47.2854V141.28C47.616 140.757 48.0534 140.336 48.5974 140.016C49.152 139.685 49.7494 139.52 50.3894 139.52C50.9654 139.52 51.4934 139.643 51.9734 139.888C52.4534 140.123 52.8694 140.443 53.2214 140.848C53.584 141.253 53.8614 141.717 54.0534 142.24C54.2454 142.752 54.3414 143.285 54.3414 143.84C54.3414 144.619 54.1814 145.339 53.8614 146C53.552 146.651 53.1094 147.173 52.5334 147.568C51.968 147.963 51.312 148.16 50.5654 148.16ZM50.2614 147.2C50.8694 147.2 51.392 147.04 51.8294 146.72C52.2774 146.389 52.624 145.968 52.8694 145.456C53.1147 144.944 53.2374 144.405 53.2374 143.84C53.2374 143.243 53.0987 142.688 52.8214 142.176C52.544 141.664 52.1707 141.253 51.7014 140.944C51.2427 140.635 50.72 140.48 50.1334 140.48C49.7707 140.48 49.3867 140.576 48.9814 140.768C48.5867 140.949 48.2347 141.2 47.9254 141.52C47.6267 141.829 47.4507 142.171 47.3974 142.544V145.104C47.6427 145.691 48.0267 146.187 48.5494 146.592C49.072 146.997 49.6427 147.2 50.2614 147.2ZM56.1684 148V139.664H57.2564V142.608H59.1444C60.0937 142.608 60.8084 142.853 61.2884 143.344C61.779 143.824 62.0244 144.459 62.0244 145.248C62.0244 145.76 61.9177 146.224 61.7044 146.64C61.491 147.056 61.1764 147.387 60.7604 147.632C60.3444 147.877 59.8324 148 59.2244 148H56.1684ZM63.5444 148V139.68H64.6324V148H63.5444ZM57.2564 147.136H59.0804C59.731 147.136 60.2004 146.949 60.4884 146.576C60.7764 146.192 60.9204 145.755 60.9204 145.264C60.9204 144.944 60.8617 144.651 60.7444 144.384C60.6377 144.107 60.4457 143.888 60.1684 143.728C59.9017 143.557 59.5284 143.472 59.0484 143.472H57.2564V147.136ZM70.1783 149.936V147.024H70.3223C70.6423 147.024 70.9303 146.885 71.1863 146.608C71.4423 146.331 71.6503 145.829 71.8103 145.104C71.9809 144.368 72.0823 143.328 72.1143 141.984L72.1943 139.664H77.6183V147.024H78.7383V149.936H77.7623V148H71.1383V149.936H70.1783ZM71.9703 147.024H76.5303V140.64H73.1703L73.1223 142.08C73.0689 143.573 72.9463 144.704 72.7543 145.472C72.5623 146.229 72.3009 146.747 71.9703 147.024ZM83.9395 148.16C83.1395 148.16 82.4248 147.963 81.7955 147.568C81.1768 147.173 80.6915 146.651 80.3395 146C79.9875 145.339 79.8115 144.624 79.8115 143.856C79.8115 143.077 79.9875 142.363 80.3395 141.712C80.7022 141.051 81.1928 140.523 81.8115 140.128C82.4408 139.723 83.1502 139.52 83.9395 139.52C84.7395 139.52 85.4488 139.723 86.0675 140.128C86.6968 140.523 87.1875 141.051 87.5395 141.712C87.9022 142.363 88.0835 143.077 88.0835 143.856C88.0835 144.624 87.9075 145.339 87.5555 146C87.2035 146.651 86.7128 147.173 86.0835 147.568C85.4648 147.963 84.7502 148.16 83.9395 148.16ZM80.9155 143.872C80.9155 144.491 81.0488 145.056 81.3155 145.568C81.5928 146.069 81.9608 146.469 82.4195 146.768C82.8782 147.056 83.3848 147.2 83.9395 147.2C84.4942 147.2 85.0008 147.051 85.4595 146.752C85.9182 146.453 86.2862 146.048 86.5635 145.536C86.8408 145.024 86.9795 144.459 86.9795 143.84C86.9795 143.221 86.8408 142.656 86.5635 142.144C86.2862 141.632 85.9182 141.227 85.4595 140.928C85.0008 140.629 84.4942 140.48 83.9395 140.48C83.3955 140.48 82.8942 140.635 82.4355 140.944C81.9768 141.243 81.6088 141.648 81.3315 142.16C81.0542 142.672 80.9155 143.243 80.9155 143.872ZM93.5191 148.16C92.7085 148.16 91.9885 147.963 91.3591 147.568C90.7298 147.163 90.2338 146.635 89.8711 145.984C89.5085 145.323 89.3271 144.597 89.3271 143.808C89.3271 143.019 89.5031 142.304 89.8551 141.664C90.2071 141.013 90.6978 140.496 91.3271 140.112C91.9565 139.717 92.6818 139.52 93.5031 139.52C94.2818 139.52 94.9645 139.701 95.5511 140.064C96.1485 140.416 96.5965 140.896 96.8951 141.504L95.8391 141.84C95.6045 141.413 95.2738 141.083 94.8471 140.848C94.4311 140.603 93.9671 140.48 93.4551 140.48C92.8898 140.48 92.3778 140.624 91.9191 140.912C91.4711 141.2 91.1085 141.6 90.8311 142.112C90.5645 142.613 90.4311 143.179 90.4311 143.808C90.4311 144.437 90.5698 145.008 90.8471 145.52C91.1245 146.032 91.4925 146.443 91.9511 146.752C92.4098 147.051 92.9165 147.2 93.4711 147.2C93.8338 147.2 94.1858 147.136 94.5271 147.008C94.8685 146.88 95.1618 146.709 95.4071 146.496C95.6525 146.272 95.8178 146.032 95.9031 145.776L96.9751 146.096C96.8258 146.491 96.5805 146.848 96.2391 147.168C95.8978 147.477 95.4925 147.723 95.0231 147.904C94.5538 148.075 94.0525 148.16 93.5191 148.16ZM100.764 148V140.64H97.7884V139.664H104.828V140.64H101.852V148H100.764ZM107.221 151.488C106.869 151.488 106.496 151.376 106.101 151.152L106.501 150.384C106.725 150.533 106.944 150.608 107.157 150.608C107.691 150.608 108.187 150.064 108.645 148.976L109.061 147.936L105.349 139.664H106.501L109.557 146.88L112.373 139.664H113.461L109.493 149.312C109.173 150.069 108.827 150.619 108.453 150.96C108.08 151.312 107.669 151.488 107.221 151.488ZM114.965 148V139.664H121.669V148H120.581V140.64H116.053V148H114.965ZM124.059 148V139.664H125.147V143.248H129.915V139.664H131.003V148H129.915V144.224H125.147V148H124.059ZM133.387 148V139.664H134.475V142.608H136.363C137.312 142.608 138.027 142.853 138.507 143.344C138.998 143.824 139.243 144.459 139.243 145.248C139.243 145.76 139.136 146.224 138.923 146.64C138.71 147.056 138.395 147.387 137.979 147.632C137.563 147.877 137.051 148 136.443 148H133.387ZM140.763 148V139.68H141.851V148H140.763ZM134.475 147.136H136.299C136.95 147.136 137.419 146.949 137.707 146.576C137.995 146.192 138.139 145.755 138.139 145.264C138.139 144.944 138.08 144.651 137.963 144.384C137.856 144.107 137.664 143.888 137.387 143.728C137.12 143.557 136.747 143.472 136.267 143.472H134.475V147.136ZM156.019 148.16C155.208 148.16 154.488 147.963 153.859 147.568C153.23 147.163 152.734 146.635 152.371 145.984C152.008 145.323 151.827 144.597 151.827 143.808C151.827 143.019 152.003 142.304 152.355 141.664C152.707 141.013 153.198 140.496 153.827 140.112C154.456 139.717 155.182 139.52 156.003 139.52C156.782 139.52 157.464 139.701 158.051 140.064C158.648 140.416 159.096 140.896 159.395 141.504L158.339 141.84C158.104 141.413 157.774 141.083 157.347 140.848C156.931 140.603 156.467 140.48 155.955 140.48C155.39 140.48 154.878 140.624 154.419 140.912C153.971 141.2 153.608 141.6 153.331 142.112C153.064 142.613 152.931 143.179 152.931 143.808C152.931 144.437 153.07 145.008 153.347 145.52C153.624 146.032 153.992 146.443 154.451 146.752C154.91 147.051 155.416 147.2 155.971 147.2C156.334 147.2 156.686 147.136 157.027 147.008C157.368 146.88 157.662 146.709 157.907 146.496C158.152 146.272 158.318 146.032 158.403 145.776L159.475 146.096C159.326 146.491 159.08 146.848 158.739 147.168C158.398 147.477 157.992 147.723 157.523 147.904C157.054 148.075 156.552 148.16 156.019 148.16ZM161.971 151.488C161.619 151.488 161.246 151.376 160.851 151.152L161.251 150.384C161.475 150.533 161.694 150.608 161.907 150.608C162.441 150.608 162.937 150.064 163.395 148.976L163.811 147.936L160.099 139.664H161.251L164.307 146.88L167.123 139.664H168.211L164.243 149.312C163.923 150.069 163.577 150.619 163.203 150.96C162.83 151.312 162.419 151.488 161.971 151.488ZM171.811 148V140.64H168.835V139.664H175.875V140.64H172.899V148H171.811ZM177.34 148V139.664H178.428V143.232H179.676L182.476 139.664H183.724L180.54 143.712L184.124 148H182.844L179.676 144.24H178.428V148H177.34ZM185.653 148V139.68H186.741V146.528L191.813 139.664H192.789V148H191.701V141.264L186.709 148H185.653ZM195.441 144.352V136.528H196.529V144.352H195.441ZM195.441 148V146.208H196.529V148H195.441Z" fill="black"/>
<path d="M125.826 91.696V94H118.914V91.696H121.186V87.616C121.058 87.7867 120.839 87.9573 120.53 88.128C120.231 88.2987 119.901 88.448 119.538 88.576C119.186 88.6933 118.871 88.752 118.594 88.752V86.384C118.775 86.384 118.999 86.3253 119.266 86.208C119.533 86.0907 119.799 85.952 120.066 85.792C120.343 85.6213 120.583 85.4507 120.786 85.28C120.999 85.1093 121.133 84.9707 121.186 84.864H123.794V91.696H125.826ZM135.291 89.312C135.291 90.2507 135.11 91.088 134.747 91.824C134.384 92.5493 133.888 93.12 133.259 93.536C132.63 93.952 131.915 94.16 131.115 94.16C130.315 94.16 129.6 93.952 128.971 93.536C128.342 93.12 127.846 92.5493 127.483 91.824C127.12 91.088 126.939 90.2507 126.939 89.312C126.939 88.3733 127.12 87.5413 127.483 86.816C127.846 86.08 128.342 85.504 128.971 85.088C129.6 84.6613 130.315 84.448 131.115 84.448C131.915 84.448 132.63 84.6613 133.259 85.088C133.888 85.504 134.384 86.08 134.747 86.816C135.11 87.5413 135.291 88.3733 135.291 89.312ZM132.715 89.312C132.715 88.5653 132.56 87.9627 132.251 87.504C131.952 87.0347 131.574 86.8 131.115 86.8C130.635 86.8 130.246 87.0347 129.947 87.504C129.648 87.9627 129.499 88.5653 129.499 89.312C129.499 90.0587 129.648 90.6613 129.947 91.12C130.246 91.5787 130.635 91.808 131.115 91.808C131.574 91.808 131.952 91.5787 132.251 91.12C132.56 90.6613 132.715 90.0587 132.715 89.312ZM137.183 88.304V85.696H139.263V88.304H137.183ZM137.183 94V91.392H139.263V94H137.183ZM149.51 89.312C149.51 90.2507 149.329 91.088 148.966 91.824C148.603 92.5493 148.107 93.12 147.478 93.536C146.849 93.952 146.134 94.16 145.334 94.16C144.534 94.16 143.819 93.952 143.19 93.536C142.561 93.12 142.065 92.5493 141.702 91.824C141.339 91.088 141.158 90.2507 141.158 89.312C141.158 88.3733 141.339 87.5413 141.702 86.816C142.065 86.08 142.561 85.504 143.19 85.088C143.819 84.6613 144.534 84.448 145.334 84.448C146.134 84.448 146.849 84.6613 147.478 85.088C148.107 85.504 148.603 86.08 148.966 86.816C149.329 87.5413 149.51 88.3733 149.51 89.312ZM146.934 89.312C146.934 88.5653 146.779 87.9627 146.47 87.504C146.171 87.0347 145.793 86.8 145.334 86.8C144.854 86.8 144.465 87.0347 144.166 87.504C143.867 87.9627 143.718 88.5653 143.718 89.312C143.718 90.0587 143.867 90.6613 144.166 91.12C144.465 91.5787 144.854 91.808 145.334 91.808C145.793 91.808 146.171 91.5787 146.47 91.12C146.779 90.6613 146.934 90.0587 146.934 89.312ZM159.338 89.312C159.338 90.2507 159.157 91.088 158.794 91.824C158.431 92.5493 157.935 93.12 157.306 93.536C156.677 93.952 155.962 94.16 155.162 94.16C154.362 94.16 153.647 93.952 153.018 93.536C152.389 93.12 151.893 92.5493 151.53 91.824C151.167 91.088 150.986 90.2507 150.986 89.312C150.986 88.3733 151.167 87.5413 151.53 86.816C151.893 86.08 152.389 85.504 153.018 85.088C153.647 84.6613 154.362 84.448 155.162 84.448C155.962 84.448 156.677 84.6613 157.306 85.088C157.935 85.504 158.431 86.08 158.794 86.816C159.157 87.5413 159.338 88.3733 159.338 89.312ZM156.762 89.312C156.762 88.5653 156.607 87.9627 156.298 87.504C155.999 87.0347 155.621 86.8 155.162 86.8C154.682 86.8 154.293 87.0347 153.994 87.504C153.695 87.9627 153.546 88.5653 153.546 89.312C153.546 90.0587 153.695 90.6613 153.994 91.12C154.293 91.5787 154.682 91.808 155.162 91.808C155.621 91.808 155.999 91.5787 156.298 91.12C156.607 90.6613 156.762 90.0587 156.762 89.312ZM132.918 114V104.752L128.806 111.936H128.102L123.974 104.752V114H122.854V102.64H124.006L128.438 110.416L132.902 102.64H134.038V114H132.918ZM136.133 108.24C136.133 107.557 136.25 106.88 136.485 106.208C136.73 105.536 137.082 104.928 137.541 104.384C138 103.829 138.565 103.392 139.237 103.072C139.909 102.741 140.672 102.576 141.525 102.576C142.528 102.576 143.392 102.811 144.117 103.28C144.842 103.739 145.376 104.331 145.717 105.056L144.837 105.6C144.592 105.099 144.282 104.704 143.909 104.416C143.536 104.117 143.136 103.904 142.709 103.776C142.293 103.648 141.877 103.584 141.461 103.584C140.778 103.584 140.176 103.723 139.653 104C139.13 104.267 138.688 104.629 138.325 105.088C137.973 105.547 137.706 106.053 137.525 106.608C137.344 107.163 137.253 107.728 137.253 108.304C137.253 108.933 137.36 109.536 137.573 110.112C137.786 110.677 138.085 111.184 138.469 111.632C138.853 112.08 139.301 112.437 139.813 112.704C140.336 112.96 140.901 113.088 141.509 113.088C141.936 113.088 142.373 113.013 142.821 112.864C143.269 112.715 143.685 112.485 144.069 112.176C144.453 111.867 144.768 111.467 145.013 110.976L145.941 111.456C145.696 112.021 145.328 112.501 144.837 112.896C144.357 113.291 143.813 113.589 143.205 113.792C142.608 113.995 142.021 114.096 141.445 114.096C140.666 114.096 139.952 113.931 139.301 113.6C138.65 113.259 138.085 112.811 137.605 112.256C137.136 111.691 136.773 111.061 136.517 110.368C136.261 109.664 136.133 108.955 136.133 108.24ZM147.854 114V102.64H148.974V107.696H150.686L154.59 102.64H155.886L151.614 108.144L156.158 114H154.782L150.718 108.72H148.974V114H147.854Z" fill="black"/>
<path d="M191.031 48V44.512C190.359 44.832 189.601 44.992 188.759 44.992C186.913 44.992 185.991 44.0373 185.991 42.128V39.664H187.079V41.984C187.079 42.7307 187.228 43.2747 187.527 43.616C187.836 43.9573 188.327 44.128 188.999 44.128C189.383 44.128 189.756 44.0853 190.119 44C190.492 43.9147 190.796 43.8027 191.031 43.664V39.664H192.119V48H191.031ZM196.593 48V40.64H193.617V39.664H200.657V40.64H197.681V48H196.593Z" fill="black"/>
<path d="M297.558 48.16C296.748 48.16 296.028 47.9627 295.398 47.568C294.769 47.1627 294.273 46.6347 293.91 45.984C293.548 45.3227 293.366 44.5973 293.366 43.808C293.366 43.0187 293.542 42.304 293.894 41.664C294.246 41.0133 294.737 40.496 295.366 40.112C295.996 39.7173 296.721 39.52 297.542 39.52C298.321 39.52 299.004 39.7013 299.59 40.064C300.188 40.416 300.636 40.896 300.934 41.504L299.878 41.84C299.644 41.4133 299.313 41.0827 298.886 40.848C298.47 40.6027 298.006 40.48 297.494 40.48C296.929 40.48 296.417 40.624 295.958 40.912C295.51 41.2 295.148 41.6 294.87 42.112C294.604 42.6133 294.47 43.1787 294.47 43.808C294.47 44.4373 294.609 45.008 294.886 45.52C295.164 46.032 295.532 46.4427 295.99 46.752C296.449 47.0507 296.956 47.2 297.51 47.2C297.873 47.2 298.225 47.136 298.566 47.008C298.908 46.88 299.201 46.7093 299.446 46.496C299.692 46.272 299.857 46.032 299.942 45.776L301.014 46.096C300.865 46.4907 300.62 46.848 300.278 47.168C299.937 47.4773 299.532 47.7227 299.062 47.904C298.593 48.0747 298.092 48.16 297.558 48.16ZM306.547 48.16C305.203 48.16 304.185 47.7493 303.491 46.928C302.809 46.096 302.467 44.9493 302.467 43.488C302.467 42.4533 302.553 41.5787 302.723 40.864C302.894 40.1493 303.145 39.5573 303.475 39.088C303.806 38.6187 304.211 38.24 304.691 37.952C305.182 37.6533 305.742 37.408 306.371 37.216L309.875 36.064L309.971 37.008L306.595 38.112C305.955 38.336 305.417 38.608 304.979 38.928C304.553 39.248 304.217 39.6693 303.971 40.192C303.737 40.704 303.587 41.36 303.523 42.16C303.79 41.5413 304.211 41.0667 304.787 40.736C305.374 40.3947 306.046 40.224 306.803 40.224C307.614 40.224 308.302 40.3893 308.867 40.72C309.443 41.0507 309.881 41.5093 310.179 42.096C310.478 42.6827 310.627 43.36 310.627 44.128C310.627 45.344 310.275 46.32 309.571 47.056C308.878 47.792 307.87 48.16 306.547 48.16ZM306.547 47.2C307.497 47.2 308.227 46.928 308.739 46.384C309.262 45.8293 309.523 45.0933 309.523 44.176C309.523 43.28 309.267 42.5493 308.755 41.984C308.243 41.4187 307.507 41.136 306.547 41.136C305.993 41.136 305.491 41.2533 305.043 41.488C304.595 41.7227 304.238 42.064 303.971 42.512C303.715 42.96 303.587 43.5147 303.587 44.176C303.587 45.0507 303.838 45.776 304.339 46.352C304.851 46.9173 305.587 47.2 306.547 47.2Z" fill="black"/>
<path d="M240.825 48V39.664H247.529V48H246.441V40.64H241.913V48H240.825ZM252.014 48V40.64H249.038V39.664H256.078V40.64H253.102V48H252.014Z" fill="black"/>
<path d="M348.512 48V39.664H352.672C353.141 39.664 353.536 39.7653 353.856 39.968C354.176 40.16 354.416 40.416 354.576 40.736C354.747 41.0453 354.832 41.3707 354.832 41.712C354.832 42.16 354.72 42.5653 354.496 42.928C354.283 43.28 353.979 43.5467 353.584 43.728C354.064 43.856 354.453 44.1067 354.752 44.48C355.051 44.8533 355.2 45.2907 355.2 45.792C355.2 46.464 354.96 47.0027 354.48 47.408C354.011 47.8027 353.408 48 352.672 48H348.512ZM349.552 43.424H352.384C352.8 43.424 353.136 43.2693 353.392 42.96C353.659 42.64 353.792 42.2827 353.792 41.888C353.792 41.504 353.664 41.168 353.408 40.88C353.163 40.592 352.843 40.448 352.448 40.448H349.552V43.424ZM349.552 47.216H352.64C353.067 47.216 353.424 47.0613 353.712 46.752C354 46.432 354.144 46.08 354.144 45.696C354.144 45.28 354.005 44.9227 353.728 44.624C353.451 44.3253 353.109 44.176 352.704 44.176H349.552V47.216ZM360.707 48.16C359.896 48.16 359.176 47.9627 358.547 47.568C357.917 47.1627 357.421 46.6347 357.059 45.984C356.696 45.3227 356.515 44.5973 356.515 43.808C356.515 43.0187 356.691 42.304 357.043 41.664C357.395 41.0133 357.885 40.496 358.515 40.112C359.144 39.7173 359.869 39.52 360.691 39.52C361.469 39.52 362.152 39.7013 362.739 40.064C363.336 40.416 363.784 40.896 364.083 41.504L363.027 41.84C362.792 41.4133 362.461 41.0827 362.035 40.848C361.619 40.6027 361.155 40.48 360.643 40.48C360.077 40.48 359.565 40.624 359.107 40.912C358.659 41.2 358.296 41.6 358.019 42.112C357.752 42.6133 357.619 43.1787 357.619 43.808C357.619 44.4373 357.757 45.008 358.035 45.52C358.312 46.032 358.68 46.4427 359.139 46.752C359.597 47.0507 360.104 47.2 360.659 47.2C361.021 47.2 361.373 47.136 361.715 47.008C362.056 46.88 362.349 46.7093 362.595 46.496C362.84 46.272 363.005 46.032 363.091 45.776L364.163 46.096C364.013 46.4907 363.768 46.848 363.427 47.168C363.085 47.4773 362.68 47.7227 362.211 47.904C361.741 48.0747 361.24 48.16 360.707 48.16Z" fill="black"/>
<path d="M180.029 91.696V94H173.117V91.696H175.389V87.616C175.261 87.7867 175.042 87.9573 174.733 88.128C174.434 88.2987 174.104 88.448 173.741 88.576C173.389 88.6933 173.074 88.752 172.797 88.752V86.384C172.978 86.384 173.202 86.3253 173.469 86.208C173.736 86.0907 174.002 85.952 174.269 85.792C174.546 85.6213 174.786 85.4507 174.989 85.28C175.202 85.1093 175.336 84.9707 175.389 84.864H177.997V91.696H180.029ZM180.886 88.848C180.886 88.1013 181.068 87.4293 181.43 86.832C181.804 86.224 182.305 85.744 182.934 85.392C183.564 85.04 184.278 84.864 185.078 84.864C186.401 84.864 187.436 85.3387 188.182 86.288C188.929 87.2373 189.302 88.56 189.302 90.256C189.302 91.5787 189.121 92.704 188.758 93.632C188.396 94.56 187.878 95.264 187.206 95.744C186.534 96.2347 185.74 96.48 184.822 96.48C184.118 96.48 183.462 96.336 182.854 96.048C182.246 95.76 181.718 95.344 181.27 94.8L182.71 93.168C182.977 93.5093 183.297 93.776 183.67 93.968C184.044 94.16 184.438 94.256 184.854 94.256C185.484 94.256 185.98 94.032 186.342 93.584C186.716 93.1253 186.913 92.4907 186.934 91.68C186.486 92.288 185.793 92.592 184.854 92.592C184.108 92.592 183.43 92.4267 182.822 92.096C182.225 91.7653 181.75 91.3173 181.398 90.752C181.057 90.1867 180.886 89.552 180.886 88.848ZM185.078 87.024C184.758 87.024 184.465 87.1093 184.198 87.28C183.932 87.44 183.718 87.6587 183.558 87.936C183.398 88.2133 183.318 88.5173 183.318 88.848C183.318 89.328 183.489 89.7387 183.83 90.08C184.182 90.4107 184.598 90.576 185.078 90.576C185.558 90.576 185.969 90.4107 186.31 90.08C186.662 89.7387 186.838 89.328 186.838 88.848C186.838 88.5173 186.753 88.2133 186.582 87.936C186.422 87.6587 186.209 87.44 185.942 87.28C185.676 87.1093 185.388 87.024 185.078 87.024ZM190.98 88.304V85.696H193.06V88.304H190.98ZM190.98 94V91.392H193.06V94H190.98ZM203.307 89.312C203.307 90.2507 203.125 91.088 202.763 91.824C202.4 92.5493 201.904 93.12 201.275 93.536C200.645 93.952 199.931 94.16 199.131 94.16C198.331 94.16 197.616 93.952 196.987 93.536C196.357 93.12 195.861 92.5493 195.499 91.824C195.136 91.088 194.955 90.2507 194.955 89.312C194.955 88.3733 195.136 87.5413 195.499 86.816C195.861 86.08 196.357 85.504 196.987 85.088C197.616 84.6613 198.331 84.448 199.131 84.448C199.931 84.448 200.645 84.6613 201.275 85.088C201.904 85.504 202.4 86.08 202.763 86.816C203.125 87.5413 203.307 88.3733 203.307 89.312ZM200.731 89.312C200.731 88.5653 200.576 87.9627 200.267 87.504C199.968 87.0347 199.589 86.8 199.131 86.8C198.651 86.8 198.261 87.0347 197.963 87.504C197.664 87.9627 197.515 88.5653 197.515 89.312C197.515 90.0587 197.664 90.6613 197.963 91.12C198.261 91.5787 198.651 91.808 199.131 91.808C199.589 91.808 199.968 91.5787 200.267 91.12C200.576 90.6613 200.731 90.0587 200.731 89.312ZM213.135 89.312C213.135 90.2507 212.954 91.088 212.591 91.824C212.228 92.5493 211.732 93.12 211.103 93.536C210.474 93.952 209.759 94.16 208.959 94.16C208.159 94.16 207.444 93.952 206.815 93.536C206.186 93.12 205.69 92.5493 205.327 91.824C204.964 91.088 204.783 90.2507 204.783 89.312C204.783 88.3733 204.964 87.5413 205.327 86.816C205.69 86.08 206.186 85.504 206.815 85.088C207.444 84.6613 208.159 84.448 208.959 84.448C209.759 84.448 210.474 84.6613 211.103 85.088C211.732 85.504 212.228 86.08 212.591 86.816C212.954 87.5413 213.135 88.3733 213.135 89.312ZM210.559 89.312C210.559 88.5653 210.404 87.9627 210.095 87.504C209.796 87.0347 209.418 86.8 208.959 86.8C208.479 86.8 208.09 87.0347 207.791 87.504C207.492 87.9627 207.343 88.5653 207.343 89.312C207.343 90.0587 207.492 90.6613 207.791 91.12C208.09 91.5787 208.479 91.808 208.959 91.808C209.418 91.808 209.796 91.5787 210.095 91.12C210.404 90.6613 210.559 90.0587 210.559 89.312ZM186.918 114V104.752L182.806 111.936H182.102L177.974 104.752V114H176.854V102.64H178.006L182.438 110.416L186.902 102.64H188.038V114H186.918ZM190.133 108.24C190.133 107.557 190.25 106.88 190.485 106.208C190.73 105.536 191.082 104.928 191.541 104.384C192 103.829 192.565 103.392 193.237 103.072C193.909 102.741 194.672 102.576 195.525 102.576C196.528 102.576 197.392 102.811 198.117 103.28C198.842 103.739 199.376 104.331 199.717 105.056L198.837 105.6C198.592 105.099 198.282 104.704 197.909 104.416C197.536 104.117 197.136 103.904 196.709 103.776C196.293 103.648 195.877 103.584 195.461 103.584C194.778 103.584 194.176 103.723 193.653 104C193.13 104.267 192.688 104.629 192.325 105.088C191.973 105.547 191.706 106.053 191.525 106.608C191.344 107.163 191.253 107.728 191.253 108.304C191.253 108.933 191.36 109.536 191.573 110.112C191.786 110.677 192.085 111.184 192.469 111.632C192.853 112.08 193.301 112.437 193.813 112.704C194.336 112.96 194.901 113.088 195.509 113.088C195.936 113.088 196.373 113.013 196.821 112.864C197.269 112.715 197.685 112.485 198.069 112.176C198.453 111.867 198.768 111.467 199.013 110.976L199.941 111.456C199.696 112.021 199.328 112.501 198.837 112.896C198.357 113.291 197.813 113.589 197.205 113.792C196.608 113.995 196.021 114.096 195.445 114.096C194.666 114.096 193.952 113.931 193.301 113.6C192.65 113.259 192.085 112.811 191.605 112.256C191.136 111.691 190.773 111.061 190.517 110.368C190.261 109.664 190.133 108.955 190.133 108.24ZM201.854 114V102.64H202.974V107.696H204.686L208.59 102.64H209.886L205.614 108.144L210.158 114H208.782L204.718 108.72H202.974V114H201.854Z" fill="black"/>
<g filter="url(#filter2_d)">
<circle cx="193" cy="66" r="11" fill="#B0E3FF"/>
</g>
<g filter="url(#filter3_i)">
<circle cx="247" cy="66" r="11" fill="white"/>
</g>
<g filter="url(#filter4_i)">
<circle cx="301" cy="66" r="11" fill="white"/>
</g>
<g filter="url(#filter5_i)">
<circle cx="355" cy="66" r="11" fill="white"/>
</g>
<path d="M24.9731 48V39.664H31.6771V48H30.5891V40.64H26.0611V48H24.9731ZM34.0668 48V39.664H35.1548V43.248H39.9228V39.664H41.0108V48H39.9228V44.224H35.1548V48H34.0668Z" fill="black"/>
<path d="M19.8259 91.696V94H12.9139V91.696H15.1859V87.616C15.0579 87.7867 14.8392 87.9573 14.5299 88.128C14.2312 88.2987 13.9005 88.448 13.5379 88.576C13.1859 88.6933 12.8712 88.752 12.5939 88.752V86.384C12.7752 86.384 12.9992 86.3253 13.2659 86.208C13.5325 86.0907 13.7992 85.952 14.0659 85.792C14.3432 85.6213 14.5832 85.4507 14.7859 85.28C14.9992 85.1093 15.1325 84.9707 15.1859 84.864H17.7939V91.696H19.8259ZM29.2911 89.312C29.2911 90.2507 29.1098 91.088 28.7471 91.824C28.3845 92.5493 27.8885 93.12 27.2591 93.536C26.6298 93.952 25.9151 94.16 25.1151 94.16C24.3151 94.16 23.6005 93.952 22.9711 93.536C22.3418 93.12 21.8458 92.5493 21.4831 91.824C21.1205 91.088 20.9391 90.2507 20.9391 89.312C20.9391 88.3733 21.1205 87.5413 21.4831 86.816C21.8458 86.08 22.3418 85.504 22.9711 85.088C23.6005 84.6613 24.3151 84.448 25.1151 84.448C25.9151 84.448 26.6298 84.6613 27.2591 85.088C27.8885 85.504 28.3845 86.08 28.7471 86.816C29.1098 87.5413 29.2911 88.3733 29.2911 89.312ZM26.7151 89.312C26.7151 88.5653 26.5605 87.9627 26.2511 87.504C25.9525 87.0347 25.5738 86.8 25.1151 86.8C24.6351 86.8 24.2458 87.0347 23.9471 87.504C23.6485 87.9627 23.4991 88.5653 23.4991 89.312C23.4991 90.0587 23.6485 90.6613 23.9471 91.12C24.2458 91.5787 24.6351 91.808 25.1151 91.808C25.5738 91.808 25.9525 91.5787 26.2511 91.12C26.5605 90.6613 26.7151 90.0587 26.7151 89.312ZM31.1833 88.304V85.696H33.2633V88.304H31.1833ZM31.1833 94V91.392H33.2633V94H31.1833ZM43.5099 89.312C43.5099 90.2507 43.3285 91.088 42.9659 91.824C42.6032 92.5493 42.1072 93.12 41.4779 93.536C40.8485 93.952 40.1339 94.16 39.3339 94.16C38.5339 94.16 37.8192 93.952 37.1899 93.536C36.5605 93.12 36.0645 92.5493 35.7019 91.824C35.3392 91.088 35.1579 90.2507 35.1579 89.312C35.1579 88.3733 35.3392 87.5413 35.7019 86.816C36.0645 86.08 36.5605 85.504 37.1899 85.088C37.8192 84.6613 38.5339 84.448 39.3339 84.448C40.1339 84.448 40.8485 84.6613 41.4779 85.088C42.1072 85.504 42.6032 86.08 42.9659 86.816C43.3285 87.5413 43.5099 88.3733 43.5099 89.312ZM40.9339 89.312C40.9339 88.5653 40.7792 87.9627 40.4699 87.504C40.1712 87.0347 39.7925 86.8 39.3339 86.8C38.8539 86.8 38.4645 87.0347 38.1659 87.504C37.8672 87.9627 37.7179 88.5653 37.7179 89.312C37.7179 90.0587 37.8672 90.6613 38.1659 91.12C38.4645 91.5787 38.8539 91.808 39.3339 91.808C39.7925 91.808 40.1712 91.5787 40.4699 91.12C40.7792 90.6613 40.9339 90.0587 40.9339 89.312ZM53.338 89.312C53.338 90.2507 53.1567 91.088 52.794 91.824C52.4313 92.5493 51.9353 93.12 51.306 93.536C50.6767 93.952 49.962 94.16 49.162 94.16C48.362 94.16 47.6473 93.952 47.018 93.536C46.3887 93.12 45.8927 92.5493 45.53 91.824C45.1673 91.088 44.986 90.2507 44.986 89.312C44.986 88.3733 45.1673 87.5413 45.53 86.816C45.8927 86.08 46.3887 85.504 47.018 85.088C47.6473 84.6613 48.362 84.448 49.162 84.448C49.962 84.448 50.6767 84.6613 51.306 85.088C51.9353 85.504 52.4313 86.08 52.794 86.816C53.1567 87.5413 53.338 88.3733 53.338 89.312ZM50.762 89.312C50.762 88.5653 50.6073 87.9627 50.298 87.504C49.9993 87.0347 49.6207 86.8 49.162 86.8C48.682 86.8 48.2927 87.0347 47.994 87.504C47.6953 87.9627 47.546 88.5653 47.546 89.312C47.546 90.0587 47.6953 90.6613 47.994 91.12C48.2927 91.5787 48.682 91.808 49.162 91.808C49.6207 91.808 49.9993 91.5787 50.298 91.12C50.6073 90.6613 50.762 90.0587 50.762 89.312ZM26.9177 114V104.752L22.8057 111.936H22.1017L17.9737 104.752V114H16.8537V102.64H18.0057L22.4377 110.416L26.9017 102.64H28.0377V114H26.9177ZM30.1329 108.24C30.1329 107.557 30.2503 106.88 30.4849 106.208C30.7303 105.536 31.0823 104.928 31.5409 104.384C31.9996 103.829 32.5649 103.392 33.2369 103.072C33.9089 102.741 34.6716 102.576 35.5249 102.576C36.5276 102.576 37.3916 102.811 38.1169 103.28C38.8423 103.739 39.3756 104.331 39.7169 105.056L38.8369 105.6C38.5916 105.099 38.2823 104.704 37.9089 104.416C37.5356 104.117 37.1356 103.904 36.7089 103.776C36.2929 103.648 35.8769 103.584 35.4609 103.584C34.7783 103.584 34.1756 103.723 33.6529 104C33.1303 104.267 32.6876 104.629 32.3249 105.088C31.9729 105.547 31.7063 106.053 31.5249 106.608C31.3436 107.163 31.2529 107.728 31.2529 108.304C31.2529 108.933 31.3596 109.536 31.5729 110.112C31.7863 110.677 32.0849 111.184 32.4689 111.632C32.8529 112.08 33.3009 112.437 33.8129 112.704C34.3356 112.96 34.9009 113.088 35.5089 113.088C35.9356 113.088 36.3729 113.013 36.8209 112.864C37.2689 112.715 37.6849 112.485 38.0689 112.176C38.4529 111.867 38.7676 111.467 39.0129 110.976L39.9409 111.456C39.6956 112.021 39.3276 112.501 38.8369 112.896C38.3569 113.291 37.8129 113.589 37.2049 113.792C36.6076 113.995 36.0209 114.096 35.4449 114.096C34.6663 114.096 33.9516 113.931 33.3009 113.6C32.6503 113.259 32.0849 112.811 31.6049 112.256C31.1356 111.691 30.7729 111.061 30.5169 110.368C30.2609 109.664 30.1329 108.955 30.1329 108.24ZM41.8537 114V102.64H42.9737V107.696H44.6857L48.5897 102.64H49.8857L45.6137 108.144L50.1577 114H48.7817L44.7177 108.72H42.9737V114H41.8537Z" fill="black"/>
<g filter="url(#filter6_d)">
<circle cx="33" cy="66" r="11" fill="#B0E3FF"/>
</g>
<defs>
<filter id="filter0_d" x="69" y="49" width="34" height="34" filterUnits="userSpaceOnUse" color-interpolation-filters="sRGB">
<feFlood flood-opacity="0" result="BackgroundImageFix"/>
<feColorMatrix in="SourceAlpha" type="matrix" values="0 0 0 0 0 0 0 0 0 0 0 0 0 0 0 0 0 0 127 0"/>
<feOffset/>
<feGaussianBlur stdDeviation="3"/>
<feColorMatrix type="matrix" values="0 0 0 0 0.690196 0 0 0 0 0.890196 0 0 0 0 1 0 0 0 1 0"/>
<feBlend mode="normal" in2="BackgroundImageFix" result="effect1_dropShadow"/>
<feBlend mode="normal" in="SourceGraphic" in2="effect1_dropShadow" result="shape"/>
</filter>
<filter id="filter1_d" x="123" y="49" width="34" height="34" filterUnits="userSpaceOnUse" color-interpolation-filters="sRGB">
<feFlood flood-opacity="0" result="BackgroundImageFix"/>
<feColorMatrix in="SourceAlpha" type="matrix" values="0 0 0 0 0 0 0 0 0 0 0 0 0 0 0 0 0 0 127 0"/>
<feOffset/>
<feGaussianBlur stdDeviation="3"/>
<feColorMatrix type="matrix" values="0 0 0 0 0.690196 0 0 0 0 0.890196 0 0 0 0 1 0 0 0 1 0"/>
<feBlend mode="normal" in2="BackgroundImageFix" result="effect1_dropShadow"/>
<feBlend mode="normal" in="SourceGraphic" in2="effect1_dropShadow" result="shape"/>
</filter>
<filter id="filter2_d" x="176" y="49" width="34" height="34" filterUnits="userSpaceOnUse" color-interpolation-filters="sRGB">
<feFlood flood-opacity="0" result="BackgroundImageFix"/>
<feColorMatrix in="SourceAlpha" type="matrix" values="0 0 0 0 0 0 0 0 0 0 0 0 0 0 0 0 0 0 127 0"/>
<feOffset/>
<feGaussianBlur stdDeviation="3"/>
<feColorMatrix type="matrix" values="0 0 0 0 0.690196 0 0 0 0 0.890196 0 0 0 0 1 0 0 0 1 0"/>
<feBlend mode="normal" in2="BackgroundImageFix" result="effect1_dropShadow"/>
<feBlend mode="normal" in="SourceGraphic" in2="effect1_dropShadow" result="shape"/>
</filter>
<filter id="filter3_i" x="236" y="55" width="22" height="22" filterUnits="userSpaceOnUse" color-interpolation-filters="sRGB">
<feFlood flood-opacity="0" result="BackgroundImageFix"/>
<feBlend mode="normal" in="SourceGraphic" in2="BackgroundImageFix" result="shape"/>
<feColorMatrix in="SourceAlpha" type="matrix" values="0 0 0 0 0 0 0 0 0 0 0 0 0 0 0 0 0 0 127 0" result="hardAlpha"/>
<feMorphology radius="4" operator="dilate" in="SourceAlpha" result="effect1_innerShadow"/>
<feOffset/>
<feGaussianBlur stdDeviation="4"/>
<feComposite in2="hardAlpha" operator="arithmetic" k2="-1" k3="1"/>
<feColorMatrix type="matrix" values="0 0 0 0 0.956863 0 0 0 0 0.568627 0 0 0 0 0.313726 0 0 0 0.6 0"/>
<feBlend mode="normal" in2="shape" result="effect1_innerShadow"/>
</filter>
<filter id="filter4_i" x="290" y="55" width="22" height="22" filterUnits="userSpaceOnUse" color-interpolation-filters="sRGB">
<feFlood flood-opacity="0" result="BackgroundImageFix"/>
<feBlend mode="normal" in="SourceGraphic" in2="BackgroundImageFix" result="shape"/>
<feColorMatrix in="SourceAlpha" type="matrix" values="0 0 0 0 0 0 0 0 0 0 0 0 0 0 0 0 0 0 127 0" result="hardAlpha"/>
<feMorphology radius="4" operator="dilate" in="SourceAlpha" result="effect1_innerShadow"/>
<feOffset/>
<feGaussianBlur stdDeviation="4"/>
<feComposite in2="hardAlpha" operator="arithmetic" k2="-1" k3="1"/>
<feColorMatrix type="matrix" values="0 0 0 0 0.956863 0 0 0 0 0.568627 0 0 0 0 0.313726 0 0 0 0.6 0"/>
<feBlend mode="normal" in2="shape" result="effect1_innerShadow"/>
</filter>
<filter id="filter5_i" x="344" y="55" width="22" height="22" filterUnits="userSpaceOnUse" color-interpolation-filters="sRGB">
<feFlood flood-opacity="0" result="BackgroundImageFix"/>
<feBlend mode="normal" in="SourceGraphic" in2="BackgroundImageFix" result="shape"/>
<feColorMatrix in="SourceAlpha" type="matrix" values="0 0 0 0 0 0 0 0 0 0 0 0 0 0 0 0 0 0 127 0" result="hardAlpha"/>
<feMorphology radius="4" operator="dilate" in="SourceAlpha" result="effect1_innerShadow"/>
<feOffset/>
<feGaussianBlur stdDeviation="4"/>
<feComposite in2="hardAlpha" operator="arithmetic" k2="-1" k3="1"/>
<feColorMatrix type="matrix" values="0 0 0 0 0.956863 0 0 0 0 0.568627 0 0 0 0 0.313726 0 0 0 0.6 0"/>
<feBlend mode="normal" in2="shape" result="effect1_innerShadow"/>
</filter>
<filter id="filter6_d" x="16" y="49" width="34" height="34" filterUnits="userSpaceOnUse" color-interpolation-filters="sRGB">
<feFlood flood-opacity="0" result="BackgroundImageFix"/>
<feColorMatrix in="SourceAlpha" type="matrix" values="0 0 0 0 0 0 0 0 0 0 0 0 0 0 0 0 0 0 127 0"/>
<feOffset/>
<feGaussianBlur stdDeviation="3"/>
<feColorMatrix type="matrix" values="0 0 0 0 0.690196 0 0 0 0 0.890196 0 0 0 0 1 0 0 0 1 0"/>
<feBlend mode="normal" in2="BackgroundImageFix" result="effect1_dropShadow"/>
<feBlend mode="normal" in="SourceGraphic" in2="effect1_dropShadow" result="shape"/>
</filter>
</defs>
</svg>
