<svg width="312" height="127" viewBox="0 0 312 127" fill="none" xmlns="http://www.w3.org/2000/svg">
<path d="M47.5484 18V0.249999H50.9734V7.4H52.7234L57.9984 0.249999H61.8484L55.3984 8.85L62.3484 18H58.1734L52.6734 10.525H50.9734V18H47.5484ZM63.3877 14.125C63.3877 13.275 63.621 12.5333 64.0877 11.9C64.571 11.25 65.2377 10.75 66.0877 10.4C66.9377 10.05 67.9127 9.875 69.0127 9.875C69.5627 9.875 70.121 9.925 70.6877 10.025C71.2544 10.1083 71.746 10.2333 72.1627 10.4V9.7C72.1627 8.86667 71.9127 8.225 71.4127 7.775C70.9294 7.325 70.2044 7.1 69.2377 7.1C68.521 7.1 67.8377 7.225 67.1877 7.475C66.5377 7.725 65.8544 8.09167 65.1377 8.575L64.0627 6.375C64.9294 5.80833 65.8127 5.38333 66.7127 5.1C67.6294 4.81667 68.5877 4.675 69.5877 4.675C71.4544 4.675 72.9044 5.14167 73.9377 6.075C74.9877 7.00833 75.5127 8.34167 75.5127 10.075V14.25C75.5127 14.6167 75.571 14.875 75.6877 15.025C75.8044 15.1583 76.0127 15.2417 76.3127 15.275V18C76.0127 18.0667 75.7377 18.1083 75.4877 18.125C75.2544 18.1583 75.0544 18.175 74.8877 18.175C74.221 18.175 73.7127 18.025 73.3627 17.725C73.0127 17.425 72.8044 17.0583 72.7377 16.625L72.6627 15.95C72.0794 16.7 71.3627 17.275 70.5127 17.675C69.6794 18.0583 68.821 18.25 67.9377 18.25C67.0544 18.25 66.271 18.075 65.5877 17.725C64.9044 17.3583 64.3627 16.8667 63.9627 16.25C63.5794 15.6167 63.3877 14.9083 63.3877 14.125ZM71.5377 14.8C71.9544 14.4 72.1627 14.0167 72.1627 13.65V12.325C71.296 11.975 70.421 11.8 69.5377 11.8C68.6544 11.8 67.9377 11.9917 67.3877 12.375C66.8377 12.7417 66.5627 13.2333 66.5627 13.85C66.5627 14.35 66.7627 14.8 67.1627 15.2C67.5627 15.6 68.1377 15.8 68.8877 15.8C69.3877 15.8 69.871 15.7083 70.3377 15.525C70.821 15.3417 71.221 15.1 71.5377 14.8ZM77.6682 18L82.2682 11.225L77.9932 4.9H81.7182L85.0682 9.875H86.0932V4.9H89.5432V9.875H90.6432L93.9182 4.9H97.6682L93.3932 11.225L98.0182 18H94.1932L90.6432 12.775H89.5432V18H86.1182V12.775H85.0682L81.4682 18H77.6682ZM98.9793 21.175V15.075H99.3293C99.7626 15.075 100.163 14.9083 100.529 14.575C100.896 14.2417 101.196 13.6417 101.429 12.775C101.679 11.9083 101.829 10.6583 101.879 9.025L102.029 4.9H111.854V15.075H113.679V21.175H110.754V18H101.929V21.175H98.9793ZM103.554 15.075H108.504V7.725H104.954L104.879 9.35C104.813 11.0167 104.671 12.2917 104.454 13.175C104.238 14.0583 103.938 14.6917 103.554 15.075ZM115.85 18V4.9H119.2V9.025H121.5C123.084 9.025 124.292 9.425 125.125 10.225C125.959 11.025 126.375 12.0833 126.375 13.4C126.375 14.75 125.975 15.8583 125.175 16.725C124.392 17.575 123.242 18 121.725 18H115.85ZM128.425 18V4.925H131.775V18H128.425ZM119.2 15.45H121.2C121.884 15.45 122.384 15.2583 122.7 14.875C123.017 14.475 123.175 13.9917 123.175 13.425C123.175 12.875 123.025 12.4167 122.725 12.05C122.425 11.6667 121.909 11.475 121.175 11.475H119.2V15.45ZM134.844 18V4.925H138.194V13.525L144.069 4.9H147.119V18H143.769V9.6L137.969 18H134.844ZM140.994 3.675C139.711 3.675 138.703 3.35 137.969 2.7C137.236 2.03333 136.869 1.18333 136.869 0.149999H138.944C138.944 0.649999 139.103 1.06667 139.419 1.4C139.753 1.73333 140.278 1.9 140.994 1.9C141.694 1.9 142.194 1.74167 142.494 1.425C142.811 1.10833 143.003 0.683332 143.069 0.149999H145.144C145.144 1.18333 144.778 2.03333 144.044 2.7C143.311 3.35 142.294 3.675 140.994 3.675ZM156.182 18V4.9H159.682L163.782 12.475L167.907 4.9H171.357V18H168.182V9.525L164.832 15.675H162.732L159.357 9.525V18H156.182ZM180.519 18.25C179.102 18.25 177.877 17.9417 176.844 17.325C175.827 16.7083 175.036 15.8917 174.469 14.875C173.902 13.8417 173.619 12.725 173.619 11.525C173.619 10.2917 173.894 9.15833 174.444 8.125C175.011 7.075 175.811 6.24167 176.844 5.625C177.877 4.99167 179.111 4.675 180.544 4.675C181.977 4.675 183.202 4.99167 184.219 5.625C185.236 6.24167 186.011 7.06667 186.544 8.1C187.094 9.11667 187.369 10.2167 187.369 11.4C187.369 11.8333 187.344 12.2083 187.294 12.525H177.169C177.252 13.5417 177.627 14.3417 178.294 14.925C178.977 15.5083 179.761 15.8 180.644 15.8C181.311 15.8 181.936 15.6417 182.519 15.325C183.119 14.9917 183.527 14.5583 183.744 14.025L186.619 14.825C186.136 15.825 185.361 16.65 184.294 17.3C183.227 17.9333 181.969 18.25 180.519 18.25ZM177.094 10.4H183.944C183.844 9.41667 183.469 8.625 182.819 8.025C182.186 7.40833 181.411 7.1 180.494 7.1C179.594 7.1 178.819 7.40833 178.169 8.025C177.536 8.625 177.177 9.41667 177.094 10.4ZM195.51 18.25C194.093 18.25 192.868 17.9333 191.835 17.3C190.801 16.6667 190.001 15.8333 189.435 14.8C188.868 13.7667 188.585 12.65 188.585 11.45C188.585 10.2333 188.86 9.10833 189.41 8.075C189.976 7.04167 190.776 6.21667 191.81 5.6C192.843 4.98333 194.068 4.675 195.485 4.675C196.918 4.675 198.135 4.98333 199.135 5.6C200.151 6.21667 200.91 7.025 201.41 8.025L198.135 9.025C197.551 8.025 196.66 7.525 195.46 7.525C194.81 7.525 194.226 7.69167 193.71 8.025C193.193 8.34167 192.785 8.8 192.485 9.4C192.185 9.98333 192.035 10.6667 192.035 11.45C192.035 12.2167 192.185 12.9 192.485 13.5C192.801 14.0833 193.218 14.55 193.735 14.9C194.251 15.2333 194.826 15.4 195.46 15.4C196.06 15.4 196.61 15.2583 197.11 14.975C197.626 14.675 197.985 14.3 198.185 13.85L201.46 14.85C201.01 15.8333 200.26 16.65 199.21 17.3C198.176 17.9333 196.943 18.25 195.51 18.25ZM202.626 18L205.951 12.9C205.151 12.6833 204.526 12.2583 204.076 11.625C203.626 10.9917 203.401 10.1583 203.401 9.125C203.401 7.84167 203.834 6.80833 204.701 6.025C205.567 5.24167 206.692 4.85 208.076 4.85H214.301V18H210.951V13.475H209.176L206.301 18H202.626ZM208.476 11.075H210.951V7.425H208.601C208.001 7.425 207.526 7.59167 207.176 7.925C206.826 8.24167 206.651 8.675 206.651 9.225C206.651 9.75833 206.801 10.2 207.101 10.55C207.417 10.9 207.876 11.075 208.476 11.075ZM227.539 21.175V18H217.339V4.9H220.689V15.075H225.289V4.9H228.639V15.075H230.489V21.175H227.539ZM238.602 12.65V9.625H258.902V12.65H238.602ZM0.347266 45V31.9H3.69727V36.9H8.99727V31.9H12.3473V45H8.99727V39.7H3.69727V45H0.347266ZM21.4607 45.25C20.0274 45.25 18.7941 44.9417 17.7607 44.325C16.7441 43.6917 15.9607 42.8583 15.4107 41.825C14.8607 40.7917 14.5857 39.675 14.5857 38.475C14.5857 37.2583 14.8607 36.1333 15.4107 35.1C15.9774 34.0667 16.7691 33.2417 17.7857 32.625C18.8191 31.9917 20.0441 31.675 21.4607 31.675C22.8774 31.675 24.0941 31.9917 25.1107 32.625C26.1441 33.2417 26.9357 34.0667 27.4857 35.1C28.0357 36.1333 28.3107 37.2583 28.3107 38.475C28.3107 39.675 28.0357 40.7917 27.4857 41.825C26.9357 42.8583 26.1441 43.6917 25.1107 44.325C24.0941 44.9417 22.8774 45.25 21.4607 45.25ZM18.0357 38.475C18.0357 39.2417 18.1857 39.925 18.4857 40.525C18.7857 41.1083 19.1941 41.5667 19.7107 41.9C20.2274 42.2333 20.8107 42.4 21.4607 42.4C22.0941 42.4 22.6691 42.2333 23.1857 41.9C23.7024 41.55 24.1107 41.0833 24.4107 40.5C24.7274 39.9 24.8857 39.2167 24.8857 38.45C24.8857 37.7 24.7274 37.0333 24.4107 36.45C24.1107 35.85 23.7024 35.3833 23.1857 35.05C22.6691 34.7 22.0941 34.525 21.4607 34.525C20.8107 34.525 20.2274 34.7 19.7107 35.05C19.1941 35.3833 18.7857 35.85 18.4857 36.45C18.1857 37.0333 18.0357 37.7083 18.0357 38.475ZM30.5719 45V31.9H37.8719C38.7719 31.9 39.4969 32.05 40.0469 32.35C40.6135 32.65 41.0302 33.0417 41.2969 33.525C41.5635 34.0083 41.6969 34.525 41.6969 35.075C41.6969 35.8083 41.5302 36.45 41.1969 37C40.8635 37.55 40.3635 37.975 39.6969 38.275C40.4635 38.475 41.0885 38.8417 41.5719 39.375C42.0552 39.9083 42.2969 40.6 42.2969 41.45C42.2969 42.6833 41.8635 43.5833 40.9969 44.15C40.1469 44.7167 38.9885 45 37.5219 45H30.5719ZM33.7469 37.35H37.0219C37.4719 37.35 37.8385 37.1917 38.1219 36.875C38.4052 36.5417 38.5469 36.15 38.5469 35.7C38.5469 35.2667 38.4052 34.9083 38.1219 34.625C37.8552 34.325 37.4969 34.175 37.0469 34.175H33.7469V37.35ZM33.7469 42.725H37.4219C37.8885 42.725 38.2719 42.5667 38.5719 42.25C38.8885 41.9333 39.0469 41.5417 39.0469 41.075C39.0469 40.6083 38.8969 40.225 38.5969 39.925C38.2969 39.6083 37.9135 39.45 37.4469 39.45H33.7469V42.725ZM44.732 45V31.9H48.082V36.025H50.382C51.9654 36.025 53.1737 36.425 54.007 37.225C54.8404 38.025 55.257 39.0833 55.257 40.4C55.257 41.75 54.857 42.8583 54.057 43.725C53.2737 44.575 52.1237 45 50.607 45H44.732ZM57.307 45V31.925H60.657V45H57.307ZM48.082 42.45H50.082C50.7654 42.45 51.2654 42.2583 51.582 41.875C51.8987 41.475 52.057 40.9917 52.057 40.425C52.057 39.875 51.907 39.4167 51.607 39.05C51.307 38.6667 50.7904 38.475 50.057 38.475H48.082V42.45ZM63.7262 45V31.925H67.0762V40.525L72.9512 31.9H76.0012V45H72.6512V36.6L66.8512 45H63.7262ZM69.8762 30.675C68.5928 30.675 67.5845 30.35 66.8512 29.7C66.1178 29.0333 65.7512 28.1833 65.7512 27.15H67.8262C67.8262 27.65 67.9845 28.0667 68.3012 28.4C68.6345 28.7333 69.1595 28.9 69.8762 28.9C70.5762 28.9 71.0762 28.7417 71.3762 28.425C71.6928 28.1083 71.8845 27.6833 71.9512 27.15H74.0262C74.0262 28.1833 73.6595 29.0333 72.9262 29.7C72.1928 30.35 71.1762 30.675 69.8762 30.675ZM84.1641 41.125C84.1641 40.275 84.3974 39.5333 84.8641 38.9C85.3474 38.25 86.0141 37.75 86.8641 37.4C87.7141 37.05 88.6891 36.875 89.7891 36.875C90.3391 36.875 90.8974 36.925 91.4641 37.025C92.0307 37.1083 92.5224 37.2333 92.9391 37.4V36.7C92.9391 35.8667 92.6891 35.225 92.1891 34.775C91.7057 34.325 90.9807 34.1 90.0141 34.1C89.2974 34.1 88.6141 34.225 87.9641 34.475C87.3141 34.725 86.6307 35.0917 85.9141 35.575L84.8391 33.375C85.7057 32.8083 86.5891 32.3833 87.4891 32.1C88.4057 31.8167 89.3641 31.675 90.3641 31.675C92.2307 31.675 93.6807 32.1417 94.7141 33.075C95.7641 34.0083 96.2891 35.3417 96.2891 37.075V41.25C96.2891 41.6167 96.3474 41.875 96.4641 42.025C96.5807 42.1583 96.7891 42.2417 97.0891 42.275V45C96.7891 45.0667 96.5141 45.1083 96.2641 45.125C96.0307 45.1583 95.8307 45.175 95.6641 45.175C94.9974 45.175 94.4891 45.025 94.1391 44.725C93.7891 44.425 93.5807 44.0583 93.5141 43.625L93.4391 42.95C92.8557 43.7 92.1391 44.275 91.2891 44.675C90.4557 45.0583 89.5974 45.25 88.7141 45.25C87.8307 45.25 87.0474 45.075 86.3641 44.725C85.6807 44.3583 85.1391 43.8667 84.7391 43.25C84.3557 42.6167 84.1641 41.9083 84.1641 41.125ZM92.3141 41.8C92.7307 41.4 92.9391 41.0167 92.9391 40.65V39.325C92.0724 38.975 91.1974 38.8 90.3141 38.8C89.4307 38.8 88.7141 38.9917 88.1641 39.375C87.6141 39.7417 87.3391 40.2333 87.3391 40.85C87.3391 41.35 87.5391 41.8 87.9391 42.2C88.3391 42.6 88.9141 42.8 89.6641 42.8C90.1641 42.8 90.6474 42.7083 91.1141 42.525C91.5974 42.3417 91.9974 42.1 92.3141 41.8ZM99.4195 45V31.9H102.77V36.85H103.895L107.445 31.9H111.095L106.445 38.225L111.595 45H107.77L103.845 39.8H102.77V45H99.4195ZM123.877 48.175V45H113.677V31.9H117.027V42.075H121.627V31.9H124.977V42.075H126.827V48.175H123.877ZM135.084 45.25C133.668 45.25 132.443 44.9417 131.409 44.325C130.393 43.7083 129.601 42.8917 129.034 41.875C128.468 40.8417 128.184 39.725 128.184 38.525C128.184 37.2917 128.459 36.1583 129.009 35.125C129.576 34.075 130.376 33.2417 131.409 32.625C132.443 31.9917 133.676 31.675 135.109 31.675C136.543 31.675 137.768 31.9917 138.784 32.625C139.801 33.2417 140.576 34.0667 141.109 35.1C141.659 36.1167 141.934 37.2167 141.934 38.4C141.934 38.8333 141.909 39.2083 141.859 39.525H131.734C131.818 40.5417 132.193 41.3417 132.859 41.925C133.543 42.5083 134.326 42.8 135.209 42.8C135.876 42.8 136.501 42.6417 137.084 42.325C137.684 41.9917 138.093 41.5583 138.309 41.025L141.184 41.825C140.701 42.825 139.926 43.65 138.859 44.3C137.793 44.9333 136.534 45.25 135.084 45.25ZM131.659 37.4H138.509C138.409 36.4167 138.034 35.625 137.384 35.025C136.751 34.4083 135.976 34.1 135.059 34.1C134.159 34.1 133.384 34.4083 132.734 35.025C132.101 35.625 131.743 36.4167 131.659 37.4ZM143.975 45V31.9H147.325V36.9H152.625V31.9H155.975V45H152.625V39.7H147.325V45H143.975ZM162.064 45V34.825H157.914V31.9H169.589V34.825H165.414V45H162.064ZM177.471 45V31.9H184.771C185.671 31.9 186.396 32.05 186.946 32.35C187.513 32.65 187.93 33.0417 188.196 33.525C188.463 34.0083 188.596 34.525 188.596 35.075C188.596 35.8083 188.43 36.45 188.096 37C187.763 37.55 187.263 37.975 186.596 38.275C187.363 38.475 187.988 38.8417 188.471 39.375C188.955 39.9083 189.196 40.6 189.196 41.45C189.196 42.6833 188.763 43.5833 187.896 44.15C187.046 44.7167 185.888 45 184.421 45H177.471ZM180.646 37.35H183.921C184.371 37.35 184.738 37.1917 185.021 36.875C185.305 36.5417 185.446 36.15 185.446 35.7C185.446 35.2667 185.305 34.9083 185.021 34.625C184.755 34.325 184.396 34.175 183.946 34.175H180.646V37.35ZM180.646 42.725H184.321C184.788 42.725 185.171 42.5667 185.471 42.25C185.788 41.9333 185.946 41.5417 185.946 41.075C185.946 40.6083 185.796 40.225 185.496 39.925C185.196 39.6083 184.813 39.45 184.346 39.45H180.646V42.725ZM202.312 45.2C200.912 45.2 199.737 44.95 198.787 44.45C197.854 43.95 197.129 43.2583 196.612 42.375L199.312 41.15C199.596 41.5833 199.962 41.925 200.412 42.175C200.879 42.4083 201.454 42.525 202.137 42.525C202.921 42.525 203.521 42.375 203.937 42.075C204.371 41.7583 204.587 41.35 204.587 40.85C204.587 40.4 204.412 40.0333 204.062 39.75C203.712 39.45 203.196 39.3 202.512 39.3H201.162V37.225H202.537C203.004 37.225 203.371 37.0917 203.637 36.825C203.921 36.5583 204.062 36.2083 204.062 35.775C204.062 35.3417 203.896 35 203.562 34.75C203.246 34.4833 202.737 34.35 202.037 34.35C201.454 34.35 200.971 34.4583 200.587 34.675C200.204 34.8917 199.896 35.2167 199.662 35.65L197.137 34.3C197.604 33.4833 198.271 32.8417 199.137 32.375C200.021 31.9083 201.046 31.675 202.212 31.675C203.129 31.675 203.946 31.8167 204.662 32.1C205.396 32.3833 205.971 32.8 206.387 33.35C206.804 33.8833 207.012 34.5417 207.012 35.325C207.012 35.8917 206.871 36.4417 206.587 36.975C206.321 37.5083 205.879 37.9 205.262 38.15C206.062 38.3833 206.662 38.7833 207.062 39.35C207.479 39.9167 207.687 40.5833 207.687 41.35C207.687 42.1833 207.454 42.8917 206.987 43.475C206.521 44.0417 205.879 44.475 205.062 44.775C204.262 45.0583 203.346 45.2 202.312 45.2ZM209.14 41.125C209.14 40.275 209.373 39.5333 209.84 38.9C210.323 38.25 210.99 37.75 211.84 37.4C212.69 37.05 213.665 36.875 214.765 36.875C215.315 36.875 215.873 36.925 216.44 37.025C217.006 37.1083 217.498 37.2333 217.915 37.4V36.7C217.915 35.8667 217.665 35.225 217.165 34.775C216.681 34.325 215.956 34.1 214.99 34.1C214.273 34.1 213.59 34.225 212.94 34.475C212.29 34.725 211.606 35.0917 210.89 35.575L209.815 33.375C210.681 32.8083 211.565 32.3833 212.465 32.1C213.381 31.8167 214.34 31.675 215.34 31.675C217.206 31.675 218.656 32.1417 219.69 33.075C220.74 34.0083 221.265 35.3417 221.265 37.075V41.25C221.265 41.6167 221.323 41.875 221.44 42.025C221.556 42.1583 221.765 42.2417 222.065 42.275V45C221.765 45.0667 221.49 45.1083 221.24 45.125C221.006 45.1583 220.806 45.175 220.64 45.175C219.973 45.175 219.465 45.025 219.115 44.725C218.765 44.425 218.556 44.0583 218.49 43.625L218.415 42.95C217.831 43.7 217.115 44.275 216.265 44.675C215.431 45.0583 214.573 45.25 213.69 45.25C212.806 45.25 212.023 45.075 211.34 44.725C210.656 44.3583 210.115 43.8667 209.715 43.25C209.331 42.6167 209.14 41.9083 209.14 41.125ZM217.29 41.8C217.706 41.4 217.915 41.0167 217.915 40.65V39.325C217.048 38.975 216.173 38.8 215.29 38.8C214.406 38.8 213.69 38.9917 213.14 39.375C212.59 39.7417 212.315 40.2333 212.315 40.85C212.315 41.35 212.515 41.8 212.915 42.2C213.315 42.6 213.89 42.8 214.64 42.8C215.14 42.8 215.623 42.7083 216.09 42.525C216.573 42.3417 216.973 42.1 217.29 41.8ZM224.395 45V31.9H227.745V36.9H233.045V31.9H236.395V45H233.045V39.7H227.745V45H224.395ZM238.759 45L242.084 39.9C241.284 39.6833 240.659 39.2583 240.209 38.625C239.759 37.9917 239.534 37.1583 239.534 36.125C239.534 34.8417 239.967 33.8083 240.834 33.025C241.7 32.2417 242.825 31.85 244.209 31.85H250.434V45H247.084V40.475H245.309L242.434 45H238.759ZM244.609 38.075H247.084V34.425H244.734C244.134 34.425 243.659 34.5917 243.309 34.925C242.959 35.2417 242.784 35.675 242.784 36.225C242.784 36.7583 242.934 37.2 243.234 37.55C243.55 37.9 244.009 38.075 244.609 38.075ZM256.497 45V34.825H252.347V31.9H264.022V34.825H259.847V45H256.497ZM265.899 45V31.925H269.249V40.525L275.124 31.9H278.174V45H274.824V36.6L269.024 45H265.899ZM280.531 45L283.856 39.9C283.056 39.6833 282.431 39.2583 281.981 38.625C281.531 37.9917 281.306 37.1583 281.306 36.125C281.306 34.8417 281.739 33.8083 282.606 33.025C283.473 32.2417 284.598 31.85 285.981 31.85H292.206V45H288.856V40.475H287.081L284.206 45H280.531ZM286.381 38.075H288.856V34.425H286.506C285.906 34.425 285.431 34.5917 285.081 34.925C284.731 35.2417 284.556 35.675 284.556 36.225C284.556 36.7583 284.706 37.2 285.006 37.55C285.323 37.9 285.781 38.075 286.381 38.075ZM297.395 31.9L300.145 36L300.345 36.45L300.595 36L303.32 31.9H306.845L302.295 38.425L306.92 45H303.395L300.57 40.925L300.345 40.5L300.145 40.925L297.345 45H293.82L298.445 38.5L293.895 31.9H297.395ZM308.726 35.65V32.05H311.451V35.65H308.726ZM308.726 45V41.4H311.451V45H308.726ZM9.86406 72.25C8.43073 72.25 7.1974 71.9417 6.16406 71.325C5.1474 70.6917 4.36406 69.8583 3.81406 68.825C3.26406 67.7917 2.98906 66.675 2.98906 65.475C2.98906 64.2583 3.26406 63.1333 3.81406 62.1C4.38073 61.0667 5.1724 60.2417 6.18906 59.625C7.2224 58.9917 8.4474 58.675 9.86406 58.675C11.2807 58.675 12.4974 58.9917 13.5141 59.625C14.5474 60.2417 15.3391 61.0667 15.8891 62.1C16.4391 63.1333 16.7141 64.2583 16.7141 65.475C16.7141 66.675 16.4391 67.7917 15.8891 68.825C15.3391 69.8583 14.5474 70.6917 13.5141 71.325C12.4974 71.9417 11.2807 72.25 9.86406 72.25ZM6.43906 65.475C6.43906 66.2417 6.58906 66.925 6.88906 67.525C7.18906 68.1083 7.5974 68.5667 8.11406 68.9C8.63073 69.2333 9.21406 69.4 9.86406 69.4C10.4974 69.4 11.0724 69.2333 11.5891 68.9C12.1057 68.55 12.5141 68.0833 12.8141 67.5C13.1307 66.9 13.2891 66.2167 13.2891 65.45C13.2891 64.7 13.1307 64.0333 12.8141 63.45C12.5141 62.85 12.1057 62.3833 11.5891 62.05C11.0724 61.7 10.4974 61.525 9.86406 61.525C9.21406 61.525 8.63073 61.7 8.11406 62.05C7.5974 62.3833 7.18906 62.85 6.88906 63.45C6.58906 64.0333 6.43906 64.7083 6.43906 65.475ZM25.0752 72.25C23.6585 72.25 22.4335 71.9333 21.4002 71.3C20.3669 70.6667 19.5669 69.8333 19.0002 68.8C18.4335 67.7667 18.1502 66.65 18.1502 65.45C18.1502 64.2333 18.4252 63.1083 18.9752 62.075C19.5419 61.0417 20.3419 60.2167 21.3752 59.6C22.4085 58.9833 23.6335 58.675 25.0502 58.675C26.4835 58.675 27.7002 58.9833 28.7002 59.6C29.7169 60.2167 30.4752 61.025 30.9752 62.025L27.7002 63.025C27.1169 62.025 26.2252 61.525 25.0252 61.525C24.3752 61.525 23.7919 61.6917 23.2752 62.025C22.7585 62.3417 22.3502 62.8 22.0502 63.4C21.7502 63.9833 21.6002 64.6667 21.6002 65.45C21.6002 66.2167 21.7502 66.9 22.0502 67.5C22.3669 68.0833 22.7835 68.55 23.3002 68.9C23.8169 69.2333 24.3919 69.4 25.0252 69.4C25.6252 69.4 26.1752 69.2583 26.6752 68.975C27.1919 68.675 27.5502 68.3 27.7502 67.85L31.0252 68.85C30.5752 69.8333 29.8252 70.65 28.7752 71.3C27.7419 71.9333 26.5085 72.25 25.0752 72.25ZM32.1865 68.125C32.1865 67.275 32.4199 66.5333 32.8865 65.9C33.3699 65.25 34.0365 64.75 34.8865 64.4C35.7365 64.05 36.7115 63.875 37.8115 63.875C38.3615 63.875 38.9199 63.925 39.4865 64.025C40.0532 64.1083 40.5449 64.2333 40.9615 64.4V63.7C40.9615 62.8667 40.7115 62.225 40.2115 61.775C39.7282 61.325 39.0032 61.1 38.0365 61.1C37.3199 61.1 36.6365 61.225 35.9865 61.475C35.3365 61.725 34.6532 62.0917 33.9365 62.575L32.8615 60.375C33.7282 59.8083 34.6115 59.3833 35.5115 59.1C36.4282 58.8167 37.3865 58.675 38.3865 58.675C40.2532 58.675 41.7032 59.1417 42.7365 60.075C43.7865 61.0083 44.3115 62.3417 44.3115 64.075V68.25C44.3115 68.6167 44.3699 68.875 44.4865 69.025C44.6032 69.1583 44.8115 69.2417 45.1115 69.275V72C44.8115 72.0667 44.5365 72.1083 44.2865 72.125C44.0532 72.1583 43.8532 72.175 43.6865 72.175C43.0199 72.175 42.5115 72.025 42.1615 71.725C41.8115 71.425 41.6032 71.0583 41.5365 70.625L41.4615 69.95C40.8782 70.7 40.1615 71.275 39.3115 71.675C38.4782 72.0583 37.6199 72.25 36.7365 72.25C35.8532 72.25 35.0699 72.075 34.3865 71.725C33.7032 71.3583 33.1615 70.8667 32.7615 70.25C32.3782 69.6167 32.1865 68.9083 32.1865 68.125ZM40.3365 68.8C40.7532 68.4 40.9615 68.0167 40.9615 67.65V66.325C40.0949 65.975 39.2199 65.8 38.3365 65.8C37.4532 65.8 36.7365 65.9917 36.1865 66.375C35.6365 66.7417 35.3615 67.2333 35.3615 67.85C35.3615 68.35 35.5615 68.8 35.9615 69.2C36.3615 69.6 36.9365 69.8 37.6865 69.8C38.1865 69.8 38.6699 69.7083 39.1365 69.525C39.6199 69.3417 40.0199 69.1 40.3365 68.8ZM47.442 72V58.9H50.792V63.9H56.092V58.9H59.442V72H56.092V66.7H50.792V72H47.442ZM62.5055 72V58.9H65.8555V63.85H66.9805L70.5305 58.9H74.1805L69.5305 65.225L74.6805 72H70.8555L66.9305 66.8H65.8555V72H62.5055ZM75.7412 68.125C75.7412 67.275 75.9745 66.5333 76.4412 65.9C76.9245 65.25 77.5912 64.75 78.4412 64.4C79.2912 64.05 80.2662 63.875 81.3662 63.875C81.9162 63.875 82.4745 63.925 83.0412 64.025C83.6079 64.1083 84.0995 64.2333 84.5162 64.4V63.7C84.5162 62.8667 84.2662 62.225 83.7662 61.775C83.2829 61.325 82.5579 61.1 81.5912 61.1C80.8745 61.1 80.1912 61.225 79.5412 61.475C78.8912 61.725 78.2079 62.0917 77.4912 62.575L76.4162 60.375C77.2829 59.8083 78.1662 59.3833 79.0662 59.1C79.9829 58.8167 80.9412 58.675 81.9412 58.675C83.8079 58.675 85.2579 59.1417 86.2912 60.075C87.3412 61.0083 87.8662 62.3417 87.8662 64.075V68.25C87.8662 68.6167 87.9245 68.875 88.0412 69.025C88.1579 69.1583 88.3662 69.2417 88.6662 69.275V72C88.3662 72.0667 88.0912 72.1083 87.8412 72.125C87.6079 72.1583 87.4079 72.175 87.2412 72.175C86.5745 72.175 86.0662 72.025 85.7162 71.725C85.3662 71.425 85.1579 71.0583 85.0912 70.625L85.0162 69.95C84.4329 70.7 83.7162 71.275 82.8662 71.675C82.0329 72.0583 81.1745 72.25 80.2912 72.25C79.4079 72.25 78.6245 72.075 77.9412 71.725C77.2579 71.3583 76.7162 70.8667 76.3162 70.25C75.9329 69.6167 75.7412 68.9083 75.7412 68.125ZM83.8912 68.8C84.3079 68.4 84.5162 68.0167 84.5162 67.65V66.325C83.6495 65.975 82.7745 65.8 81.8912 65.8C81.0079 65.8 80.2912 65.9917 79.7412 66.375C79.1912 66.7417 78.9162 67.2333 78.9162 67.85C78.9162 68.35 79.1162 68.8 79.5162 69.2C79.9162 69.6 80.4912 69.8 81.2412 69.8C81.7412 69.8 82.2245 69.7083 82.6912 69.525C83.1745 69.3417 83.5745 69.1 83.8912 68.8ZM91.2967 74.875L91.9717 71.9H90.9217V68.4H93.8217V71.9L92.7967 74.875H91.2967ZM102.813 72V58.9H106.313L110.413 66.475L114.538 58.9H117.988V72H114.813V63.525L111.463 69.675H109.363L105.988 63.525V72H102.813ZM121.075 72V58.9H124.425V63.025H126.725C128.308 63.025 129.516 63.425 130.35 64.225C131.183 65.025 131.6 66.0833 131.6 67.4C131.6 68.75 131.2 69.8583 130.4 70.725C129.616 71.575 128.466 72 126.95 72H121.075ZM133.65 72V58.925H137V72H133.65ZM124.425 69.45H126.425C127.108 69.45 127.608 69.2583 127.925 68.875C128.241 68.475 128.4 67.9917 128.4 67.425C128.4 66.875 128.25 66.4167 127.95 66.05C127.65 65.6667 127.133 65.475 126.4 65.475H124.425V69.45ZM140.069 72V58.9H143.419V69.075H147.594V58.9H150.969V69.075H155.119V58.9H158.469V72H140.069ZM171.729 75.175V72H161.529V58.9H164.879V69.075H169.479V58.9H172.829V69.075H174.679V75.175H171.729ZM176.861 72V58.9H180.211V63.025H182.511C184.094 63.025 185.303 63.425 186.136 64.225C186.969 65.025 187.386 66.0833 187.386 67.4C187.386 68.75 186.986 69.8583 186.186 70.725C185.403 71.575 184.253 72 182.736 72H176.861ZM189.436 72V58.925H192.786V72H189.436ZM180.211 69.45H182.211C182.894 69.45 183.394 69.2583 183.711 68.875C184.028 68.475 184.186 67.9917 184.186 67.425C184.186 66.875 184.036 66.4167 183.736 66.05C183.436 65.6667 182.919 65.475 182.186 65.475H180.211V69.45ZM204.886 72V61.825H200.736V58.9H212.411V61.825H208.236V72H204.886ZM213.339 68.125C213.339 67.275 213.572 66.5333 214.039 65.9C214.522 65.25 215.189 64.75 216.039 64.4C216.889 64.05 217.864 63.875 218.964 63.875C219.514 63.875 220.072 63.925 220.639 64.025C221.206 64.1083 221.697 64.2333 222.114 64.4V63.7C222.114 62.8667 221.864 62.225 221.364 61.775C220.881 61.325 220.156 61.1 219.189 61.1C218.472 61.1 217.789 61.225 217.139 61.475C216.489 61.725 215.806 62.0917 215.089 62.575L214.014 60.375C214.881 59.8083 215.764 59.3833 216.664 59.1C217.581 58.8167 218.539 58.675 219.539 58.675C221.406 58.675 222.856 59.1417 223.889 60.075C224.939 61.0083 225.464 62.3417 225.464 64.075V68.25C225.464 68.6167 225.522 68.875 225.639 69.025C225.756 69.1583 225.964 69.2417 226.264 69.275V72C225.964 72.0667 225.689 72.1083 225.439 72.125C225.206 72.1583 225.006 72.175 224.839 72.175C224.172 72.175 223.664 72.025 223.314 71.725C222.964 71.425 222.756 71.0583 222.689 70.625L222.614 69.95C222.031 70.7 221.314 71.275 220.464 71.675C219.631 72.0583 218.772 72.25 217.889 72.25C217.006 72.25 216.222 72.075 215.539 71.725C214.856 71.3583 214.314 70.8667 213.914 70.25C213.531 69.6167 213.339 68.9083 213.339 68.125ZM221.489 68.8C221.906 68.4 222.114 68.0167 222.114 67.65V66.325C221.247 65.975 220.372 65.8 219.489 65.8C218.606 65.8 217.889 65.9917 217.339 66.375C216.789 66.7417 216.514 67.2333 216.514 67.85C216.514 68.35 216.714 68.8 217.114 69.2C217.514 69.6 218.089 69.8 218.839 69.8C219.339 69.8 219.822 69.7083 220.289 69.525C220.772 69.3417 221.172 69.1 221.489 68.8ZM233.269 72.2C231.869 72.2 230.694 71.95 229.744 71.45C228.811 70.95 228.086 70.2583 227.569 69.375L230.269 68.15C230.553 68.5833 230.919 68.925 231.369 69.175C231.836 69.4083 232.411 69.525 233.094 69.525C233.878 69.525 234.478 69.375 234.894 69.075C235.328 68.7583 235.544 68.35 235.544 67.85C235.544 67.4 235.369 67.0333 235.019 66.75C234.669 66.45 234.153 66.3 233.469 66.3H232.119V64.225H233.494C233.961 64.225 234.328 64.0917 234.594 63.825C234.878 63.5583 235.019 63.2083 235.019 62.775C235.019 62.3417 234.853 62 234.519 61.75C234.203 61.4833 233.694 61.35 232.994 61.35C232.411 61.35 231.928 61.4583 231.544 61.675C231.161 61.8917 230.853 62.2167 230.619 62.65L228.094 61.3C228.561 60.4833 229.228 59.8417 230.094 59.375C230.978 58.9083 232.003 58.675 233.169 58.675C234.086 58.675 234.903 58.8167 235.619 59.1C236.353 59.3833 236.928 59.8 237.344 60.35C237.761 60.8833 237.969 61.5417 237.969 62.325C237.969 62.8917 237.828 63.4417 237.544 63.975C237.278 64.5083 236.836 64.9 236.219 65.15C237.019 65.3833 237.619 65.7833 238.019 66.35C238.436 66.9167 238.644 67.5833 238.644 68.35C238.644 69.1833 238.411 69.8917 237.944 70.475C237.478 71.0417 236.836 71.475 236.019 71.775C235.219 72.0583 234.303 72.2 233.269 72.2ZM247.047 72.25C245.613 72.25 244.38 71.9417 243.347 71.325C242.33 70.6917 241.547 69.8583 240.997 68.825C240.447 67.7917 240.172 66.675 240.172 65.475C240.172 64.2583 240.447 63.1333 240.997 62.1C241.563 61.0667 242.355 60.2417 243.372 59.625C244.405 58.9917 245.63 58.675 247.047 58.675C248.463 58.675 249.68 58.9917 250.697 59.625C251.73 60.2417 252.522 61.0667 253.072 62.1C253.622 63.1333 253.897 64.2583 253.897 65.475C253.897 66.675 253.622 67.7917 253.072 68.825C252.522 69.8583 251.73 70.6917 250.697 71.325C249.68 71.9417 248.463 72.25 247.047 72.25ZM243.622 65.475C243.622 66.2417 243.772 66.925 244.072 67.525C244.372 68.1083 244.78 68.5667 245.297 68.9C245.813 69.2333 246.397 69.4 247.047 69.4C247.68 69.4 248.255 69.2333 248.772 68.9C249.288 68.55 249.697 68.0833 249.997 67.5C250.313 66.9 250.472 66.2167 250.472 65.45C250.472 64.7 250.313 64.0333 249.997 63.45C249.697 62.85 249.288 62.3833 248.772 62.05C248.255 61.7 247.68 61.525 247.047 61.525C246.397 61.525 245.813 61.7 245.297 62.05C244.78 62.3833 244.372 62.85 244.072 63.45C243.772 64.0333 243.622 64.7083 243.622 65.475ZM256.158 72V58.9H263.458C264.358 58.9 265.083 59.05 265.633 59.35C266.199 59.65 266.616 60.0417 266.883 60.525C267.149 61.0083 267.283 61.525 267.283 62.075C267.283 62.8083 267.116 63.45 266.783 64C266.449 64.55 265.949 64.975 265.283 65.275C266.049 65.475 266.674 65.8417 267.158 66.375C267.641 66.9083 267.883 67.6 267.883 68.45C267.883 69.6833 267.449 70.5833 266.583 71.15C265.733 71.7167 264.574 72 263.108 72H256.158ZM259.333 64.35H262.608C263.058 64.35 263.424 64.1917 263.708 63.875C263.991 63.5417 264.133 63.15 264.133 62.7C264.133 62.2667 263.991 61.9083 263.708 61.625C263.441 61.325 263.083 61.175 262.633 61.175H259.333V64.35ZM259.333 69.725H263.008C263.474 69.725 263.858 69.5667 264.158 69.25C264.474 68.9333 264.633 68.5417 264.633 68.075C264.633 67.6083 264.483 67.225 264.183 66.925C263.883 66.6083 263.499 66.45 263.033 66.45H259.333V69.725ZM276.368 72.25C274.935 72.25 273.701 71.9417 272.668 71.325C271.651 70.6917 270.868 69.8583 270.318 68.825C269.768 67.7917 269.493 66.675 269.493 65.475C269.493 64.2583 269.768 63.1333 270.318 62.1C270.885 61.0667 271.676 60.2417 272.693 59.625C273.726 58.9917 274.951 58.675 276.368 58.675C277.785 58.675 279.001 58.9917 280.018 59.625C281.051 60.2417 281.843 61.0667 282.393 62.1C282.943 63.1333 283.218 64.2583 283.218 65.475C283.218 66.675 282.943 67.7917 282.393 68.825C281.843 69.8583 281.051 70.6917 280.018 71.325C279.001 71.9417 277.785 72.25 276.368 72.25ZM272.943 65.475C272.943 66.2417 273.093 66.925 273.393 67.525C273.693 68.1083 274.101 68.5667 274.618 68.9C275.135 69.2333 275.718 69.4 276.368 69.4C277.001 69.4 277.576 69.2333 278.093 68.9C278.61 68.55 279.018 68.0833 279.318 67.5C279.635 66.9 279.793 66.2167 279.793 65.45C279.793 64.7 279.635 64.0333 279.318 63.45C279.018 62.85 278.61 62.3833 278.093 62.05C277.576 61.7 277.001 61.525 276.368 61.525C275.718 61.525 275.135 61.7 274.618 62.05C274.101 62.3833 273.693 62.85 273.393 63.45C273.093 64.0333 272.943 64.7083 272.943 65.475ZM285.479 72V58.9H294.154V61.825H288.829V72H285.479ZM302.125 72.25C300.691 72.25 299.458 71.9417 298.425 71.325C297.408 70.6917 296.625 69.8583 296.075 68.825C295.525 67.7917 295.25 66.675 295.25 65.475C295.25 64.2583 295.525 63.1333 296.075 62.1C296.641 61.0667 297.433 60.2417 298.45 59.625C299.483 58.9917 300.708 58.675 302.125 58.675C303.541 58.675 304.758 58.9917 305.775 59.625C306.808 60.2417 307.6 61.0667 308.15 62.1C308.7 63.1333 308.975 64.2583 308.975 65.475C308.975 66.675 308.7 67.7917 308.15 68.825C307.6 69.8583 306.808 70.6917 305.775 71.325C304.758 71.9417 303.541 72.25 302.125 72.25ZM298.7 65.475C298.7 66.2417 298.85 66.925 299.15 67.525C299.45 68.1083 299.858 68.5667 300.375 68.9C300.891 69.2333 301.475 69.4 302.125 69.4C302.758 69.4 303.333 69.2333 303.85 68.9C304.366 68.55 304.775 68.0833 305.075 67.5C305.391 66.9 305.55 66.2167 305.55 65.45C305.55 64.7 305.391 64.0333 305.075 63.45C304.775 62.85 304.366 62.3833 303.85 62.05C303.333 61.7 302.758 61.525 302.125 61.525C301.475 61.525 300.891 61.7 300.375 62.05C299.858 62.3833 299.45 62.85 299.15 63.45C298.85 64.0333 298.7 64.7083 298.7 65.475ZM29.8265 102.175V96.075H30.1765C30.6098 96.075 31.0098 95.9083 31.3765 95.575C31.7431 95.2417 32.0431 94.6417 32.2765 93.775C32.5265 92.9083 32.6765 91.6583 32.7265 90.025L32.8765 85.9H42.7015V96.075H44.5265V102.175H41.6015V99H32.7765V102.175H29.8265ZM34.4015 96.075H39.3515V88.725H35.8015L35.7265 90.35C35.6598 92.0167 35.5181 93.2917 35.3015 94.175C35.0848 95.0583 34.7848 95.6917 34.4015 96.075ZM46.6974 99V85.9H50.0474V90.9H55.3474V85.9H58.6974V99H55.3474V93.7H50.0474V99H46.6974ZM61.0608 99L64.3858 93.9C63.5858 93.6833 62.9608 93.2583 62.5108 92.625C62.0608 91.9917 61.8358 91.1583 61.8358 90.125C61.8358 88.8417 62.2692 87.8083 63.1358 87.025C64.0025 86.2417 65.1275 85.85 66.5108 85.85H72.7358V99H69.3858V94.475H67.6108L64.7358 99H61.0608ZM66.9108 92.075H69.3858V88.425H67.0358C66.4358 88.425 65.9608 88.5917 65.6108 88.925C65.2608 89.2417 65.0858 89.675 65.0858 90.225C65.0858 90.7583 65.2358 91.2 65.5358 91.55C65.8525 91.9 66.3108 92.075 66.9108 92.075ZM76.0745 101.875L76.7495 98.9H75.6995V95.4H78.5995V98.9L77.5745 101.875H76.0745ZM87.5909 99V85.9H99.3409V99H95.9909V88.825H90.9409V99H87.5909ZM110.236 99.25C109.203 99.25 108.303 99.0167 107.536 98.55C106.769 98.0833 106.169 97.4667 105.736 96.7V104.325H102.386V85.9H105.311V88.15C105.794 87.3833 106.419 86.7833 107.186 86.35C107.969 85.9 108.853 85.675 109.836 85.675C111.019 85.675 112.069 85.9833 112.986 86.6C113.903 87.2 114.628 88.0167 115.161 89.05C115.694 90.0667 115.961 91.1917 115.961 92.425C115.961 93.7083 115.711 94.8667 115.211 95.9C114.728 96.9167 114.053 97.7333 113.186 98.35C112.336 98.95 111.353 99.25 110.236 99.25ZM109.111 96.4C109.794 96.4 110.386 96.2167 110.886 95.85C111.403 95.4667 111.803 94.975 112.086 94.375C112.386 93.7583 112.536 93.1083 112.536 92.425C112.536 91.6917 112.378 91.0333 112.061 90.45C111.744 89.85 111.311 89.3833 110.761 89.05C110.228 88.7 109.611 88.525 108.911 88.525C108.278 88.525 107.644 88.7333 107.011 89.15C106.378 89.5667 105.953 90.0917 105.736 90.725V93.8C106.036 94.5333 106.494 95.15 107.111 95.65C107.728 96.15 108.394 96.4 109.111 96.4ZM124.306 99.25C122.889 99.25 121.664 98.9417 120.631 98.325C119.614 97.7083 118.822 96.8917 118.256 95.875C117.689 94.8417 117.406 93.725 117.406 92.525C117.406 91.2917 117.681 90.1583 118.231 89.125C118.797 88.075 119.597 87.2417 120.631 86.625C121.664 85.9917 122.897 85.675 124.331 85.675C125.764 85.675 126.989 85.9917 128.006 86.625C129.022 87.2417 129.797 88.0667 130.331 89.1C130.881 90.1167 131.156 91.2167 131.156 92.4C131.156 92.8333 131.131 93.2083 131.081 93.525H120.956C121.039 94.5417 121.414 95.3417 122.081 95.925C122.764 96.5083 123.547 96.8 124.431 96.8C125.097 96.8 125.722 96.6417 126.306 96.325C126.906 95.9917 127.314 95.5583 127.531 95.025L130.406 95.825C129.922 96.825 129.147 97.65 128.081 98.3C127.014 98.9333 125.756 99.25 124.306 99.25ZM120.881 91.4H127.731C127.631 90.4167 127.256 89.625 126.606 89.025C125.972 88.4083 125.197 88.1 124.281 88.1C123.381 88.1 122.606 88.4083 121.956 89.025C121.322 89.625 120.964 90.4167 120.881 91.4ZM139.296 99.25C137.88 99.25 136.655 98.9333 135.621 98.3C134.588 97.6667 133.788 96.8333 133.221 95.8C132.655 94.7667 132.371 93.65 132.371 92.45C132.371 91.2333 132.646 90.1083 133.196 89.075C133.763 88.0417 134.563 87.2167 135.596 86.6C136.63 85.9833 137.855 85.675 139.271 85.675C140.705 85.675 141.921 85.9833 142.921 86.6C143.938 87.2167 144.696 88.025 145.196 89.025L141.921 90.025C141.338 89.025 140.446 88.525 139.246 88.525C138.596 88.525 138.013 88.6917 137.496 89.025C136.98 89.3417 136.571 89.8 136.271 90.4C135.971 90.9833 135.821 91.6667 135.821 92.45C135.821 93.2167 135.971 93.9 136.271 94.5C136.588 95.0833 137.005 95.55 137.521 95.9C138.038 96.2333 138.613 96.4 139.246 96.4C139.846 96.4 140.396 96.2583 140.896 95.975C141.413 95.675 141.771 95.3 141.971 94.85L145.246 95.85C144.796 96.8333 144.046 97.65 142.996 98.3C141.963 98.9333 140.73 99.25 139.296 99.25ZM153.286 99.25C151.869 99.25 150.644 98.9333 149.611 98.3C148.577 97.6667 147.777 96.8333 147.211 95.8C146.644 94.7667 146.361 93.65 146.361 92.45C146.361 91.2333 146.636 90.1083 147.186 89.075C147.752 88.0417 148.552 87.2167 149.586 86.6C150.619 85.9833 151.844 85.675 153.261 85.675C154.694 85.675 155.911 85.9833 156.911 86.6C157.927 87.2167 158.686 88.025 159.186 89.025L155.911 90.025C155.327 89.025 154.436 88.525 153.236 88.525C152.586 88.525 152.002 88.6917 151.486 89.025C150.969 89.3417 150.561 89.8 150.261 90.4C149.961 90.9833 149.811 91.6667 149.811 92.45C149.811 93.2167 149.961 93.9 150.261 94.5C150.577 95.0833 150.994 95.55 151.511 95.9C152.027 96.2333 152.602 96.4 153.236 96.4C153.836 96.4 154.386 96.2583 154.886 95.975C155.402 95.675 155.761 95.3 155.961 94.85L159.236 95.85C158.786 96.8333 158.036 97.65 156.986 98.3C155.952 98.9333 154.719 99.25 153.286 99.25ZM161.597 101.875L162.272 98.9H161.222V95.4H164.122V98.9L163.097 101.875H161.597ZM172.413 99L175.738 93.9C174.938 93.6833 174.313 93.2583 173.863 92.625C173.413 91.9917 173.188 91.1583 173.188 90.125C173.188 88.8417 173.622 87.8083 174.488 87.025C175.355 86.2417 176.48 85.85 177.863 85.85H184.088V99H180.738V94.475H178.963L176.088 99H172.413ZM178.263 92.075H180.738V88.425H178.388C177.788 88.425 177.313 88.5917 176.963 88.925C176.613 89.2417 176.438 89.675 176.438 90.225C176.438 90.7583 176.588 91.2 176.888 91.55C177.205 91.9 177.663 92.075 178.263 92.075ZM187.127 99V85.9H195.802V88.825H190.477V99H187.127ZM203.773 99.25C202.339 99.25 201.106 98.9417 200.073 98.325C199.056 97.6917 198.273 96.8583 197.723 95.825C197.173 94.7917 196.898 93.675 196.898 92.475C196.898 91.2583 197.173 90.1333 197.723 89.1C198.289 88.0667 199.081 87.2417 200.098 86.625C201.131 85.9917 202.356 85.675 203.773 85.675C205.189 85.675 206.406 85.9917 207.423 86.625C208.456 87.2417 209.248 88.0667 209.798 89.1C210.348 90.1333 210.623 91.2583 210.623 92.475C210.623 93.675 210.348 94.7917 209.798 95.825C209.248 96.8583 208.456 97.6917 207.423 98.325C206.406 98.9417 205.189 99.25 203.773 99.25ZM200.348 92.475C200.348 93.2417 200.498 93.925 200.798 94.525C201.098 95.1083 201.506 95.5667 202.023 95.9C202.539 96.2333 203.123 96.4 203.773 96.4C204.406 96.4 204.981 96.2333 205.498 95.9C206.014 95.55 206.423 95.0833 206.723 94.5C207.039 93.9 207.198 93.2167 207.198 92.45C207.198 91.7 207.039 91.0333 206.723 90.45C206.423 89.85 206.014 89.3833 205.498 89.05C204.981 88.7 204.406 88.525 203.773 88.525C203.123 88.525 202.539 88.7 202.023 89.05C201.506 89.3833 201.098 89.85 200.798 90.45C200.498 91.0333 200.348 91.7083 200.348 92.475ZM211.809 102.175V96.075H212.159C212.592 96.075 212.992 95.9083 213.359 95.575C213.726 95.2417 214.026 94.6417 214.259 93.775C214.509 92.9083 214.659 91.6583 214.709 90.025L214.859 85.9H224.684V96.075H226.509V102.175H223.584V99H214.759V102.175H211.809ZM216.384 96.075H221.334V88.725H217.784L217.709 90.35C217.642 92.0167 217.501 93.2917 217.284 94.175C217.067 95.0583 216.767 95.6917 216.384 96.075ZM228.68 99V85.925H232.03V94.525L237.905 85.9H240.955V99H237.605V90.6L231.805 99H228.68ZM254.212 102.175V99H244.012V85.9H247.362V96.075H251.962V85.9H255.312V96.075H257.162V102.175H254.212ZM259.344 99V85.9H262.694V90.025H264.994C266.577 90.025 267.786 90.425 268.619 91.225C269.452 92.025 269.869 93.0833 269.869 94.4C269.869 95.75 269.469 96.8583 268.669 97.725C267.886 98.575 266.736 99 265.219 99H259.344ZM271.919 99V85.925H275.269V99H271.919ZM262.694 96.45H264.694C265.377 96.45 265.877 96.2583 266.194 95.875C266.511 95.475 266.669 94.9917 266.669 94.425C266.669 93.875 266.519 93.4167 266.219 93.05C265.919 92.6667 265.402 92.475 264.669 92.475H262.694V96.45ZM278.638 101.875L279.313 98.9H278.263V95.4H281.163V98.9L280.138 101.875H278.638ZM102.508 126V112.9H111.183V115.825H105.858V126H102.508ZM113.104 126V112.925H116.454V121.525L122.329 112.9H125.379V126H122.029V117.6L116.229 126H113.104ZM134.961 126.25C132.711 126.25 131.002 125.592 129.836 124.275C128.686 122.942 128.111 121 128.111 118.45C128.111 116.333 128.361 114.642 128.861 113.375C129.361 112.092 130.102 111.108 131.086 110.425C132.069 109.742 133.302 109.217 134.786 108.85L140.411 107.425L140.461 110.15L134.911 111.6C133.694 111.967 132.719 112.525 131.986 113.275C131.252 114.025 130.819 115.117 130.686 116.55C131.186 115.717 131.869 115.067 132.736 114.6C133.602 114.133 134.652 113.9 135.886 113.9C137.052 113.9 138.077 114.15 138.961 114.65C139.844 115.15 140.527 115.85 141.011 116.75C141.511 117.633 141.761 118.65 141.761 119.8C141.761 121.05 141.502 122.167 140.986 123.15C140.469 124.117 139.702 124.875 138.686 125.425C137.669 125.975 136.427 126.25 134.961 126.25ZM134.961 123.4C135.994 123.4 136.811 123.092 137.411 122.475C138.027 121.842 138.336 121.008 138.336 119.975C138.336 118.975 138.036 118.158 137.436 117.525C136.836 116.892 136.011 116.575 134.961 116.575C133.977 116.575 133.161 116.875 132.511 117.475C131.877 118.075 131.561 118.908 131.561 119.975C131.561 120.992 131.861 121.817 132.461 122.45C133.061 123.083 133.894 123.4 134.961 123.4ZM143.987 126V112.9H147.337V117.85H148.462L152.012 112.9H155.662L151.012 119.225L156.162 126H152.337L148.412 120.8H147.337V126H143.987ZM163.612 126.25C162.178 126.25 160.945 125.942 159.912 125.325C158.895 124.692 158.112 123.858 157.562 122.825C157.012 121.792 156.737 120.675 156.737 119.475C156.737 118.258 157.012 117.133 157.562 116.1C158.128 115.067 158.92 114.242 159.937 113.625C160.97 112.992 162.195 112.675 163.612 112.675C165.028 112.675 166.245 112.992 167.262 113.625C168.295 114.242 169.087 115.067 169.637 116.1C170.187 117.133 170.462 118.258 170.462 119.475C170.462 120.675 170.187 121.792 169.637 122.825C169.087 123.858 168.295 124.692 167.262 125.325C166.245 125.942 165.028 126.25 163.612 126.25ZM160.187 119.475C160.187 120.242 160.337 120.925 160.637 121.525C160.937 122.108 161.345 122.567 161.862 122.9C162.378 123.233 162.962 123.4 163.612 123.4C164.245 123.4 164.82 123.233 165.337 122.9C165.853 122.55 166.262 122.083 166.562 121.5C166.878 120.9 167.037 120.217 167.037 119.45C167.037 118.7 166.878 118.033 166.562 117.45C166.262 116.85 165.853 116.383 165.337 116.05C164.82 115.7 164.245 115.525 163.612 115.525C162.962 115.525 162.378 115.7 161.862 116.05C161.345 116.383 160.937 116.85 160.637 117.45C160.337 118.033 160.187 118.708 160.187 119.475ZM178.823 126.25C177.406 126.25 176.181 125.933 175.148 125.3C174.114 124.667 173.314 123.833 172.748 122.8C172.181 121.767 171.898 120.65 171.898 119.45C171.898 118.233 172.173 117.108 172.723 116.075C173.289 115.042 174.089 114.217 175.123 113.6C176.156 112.983 177.381 112.675 178.798 112.675C180.231 112.675 181.448 112.983 182.448 113.6C183.464 114.217 184.223 115.025 184.723 116.025L181.448 117.025C180.864 116.025 179.973 115.525 178.773 115.525C178.123 115.525 177.539 115.692 177.023 116.025C176.506 116.342 176.098 116.8 175.798 117.4C175.498 117.983 175.348 118.667 175.348 119.45C175.348 120.217 175.498 120.9 175.798 121.5C176.114 122.083 176.531 122.55 177.048 122.9C177.564 123.233 178.139 123.4 178.773 123.4C179.373 123.4 179.923 123.258 180.423 122.975C180.939 122.675 181.298 122.3 181.498 121.85L184.773 122.85C184.323 123.833 183.573 124.65 182.523 125.3C181.489 125.933 180.256 126.25 178.823 126.25ZM189.859 126V115.825H185.709V112.9H197.384V115.825H193.209V126H189.859ZM199.261 126V112.9H202.611V117.025H205.586C207.153 117.025 208.353 117.425 209.186 118.225C210.019 119.025 210.436 120.083 210.436 121.4C210.436 122.75 210.036 123.858 209.236 124.725C208.453 125.575 207.311 126 205.811 126H199.261ZM202.611 123.45H205.286C205.969 123.45 206.469 123.258 206.786 122.875C207.103 122.475 207.261 121.992 207.261 121.425C207.261 120.875 207.111 120.417 206.811 120.05C206.511 119.667 205.994 119.475 205.261 119.475H202.611V123.45Z" fill="black"/>
</svg>
