<svg width="380" height="117" viewBox="0 0 380 117" fill="none" xmlns="http://www.w3.org/2000/svg">
<path d="M-77 20.9897C-77 9.5652 -67.4464 0.461892 -56.0352 1.01301L288.503 17.653C301.151 18.2639 310.055 30.3272 306.912 42.5942L300.472 67.7254C298.379 75.8941 291.387 81.8723 282.992 82.671L-55.1057 114.837C-66.8468 115.954 -77 106.721 -77 94.9273V20.9897Z" fill="#F49150"/>
<path d="M30.9 60.0005V42.2505H45.275V60.0005H41.85V45.2755H34.325V60.0005H30.9ZM56.5391 60.2505C55.5057 60.2505 54.6057 60.0172 53.8391 59.5505C53.0724 59.0838 52.4724 58.4672 52.0391 57.7005V65.3255H48.6891V46.9005H51.6141V49.1505C52.0974 48.3838 52.7224 47.7838 53.4891 47.3505C54.2724 46.9005 55.1557 46.6755 56.1391 46.6755C57.3224 46.6755 58.3724 46.9838 59.2891 47.6005C60.2057 48.2005 60.9307 49.0172 61.4641 50.0505C61.9974 51.0672 62.2641 52.1922 62.2641 53.4255C62.2641 54.7088 62.0141 55.8672 61.5141 56.9005C61.0307 57.9172 60.3557 58.7338 59.4891 59.3505C58.6391 59.9505 57.6557 60.2505 56.5391 60.2505ZM55.4141 57.4005C56.0974 57.4005 56.6891 57.2172 57.1891 56.8505C57.7057 56.4672 58.1057 55.9755 58.3891 55.3755C58.6891 54.7588 58.8391 54.1088 58.8391 53.4255C58.8391 52.6922 58.6807 52.0338 58.3641 51.4505C58.0474 50.8505 57.6141 50.3838 57.0641 50.0505C56.5307 49.7005 55.9141 49.5255 55.2141 49.5255C54.5807 49.5255 53.9474 49.7338 53.3141 50.1505C52.6807 50.5672 52.2557 51.0922 52.0391 51.7255V54.8005C52.3391 55.5338 52.7974 56.1505 53.4141 56.6505C54.0307 57.1505 54.6974 57.4005 55.4141 57.4005ZM70.5838 60.2505C69.1505 60.2505 67.9171 59.9422 66.8838 59.3255C65.8671 58.6922 65.0838 57.8588 64.5338 56.8255C63.9838 55.7922 63.7088 54.6755 63.7088 53.4755C63.7088 52.2588 63.9838 51.1338 64.5338 50.1005C65.1005 49.0672 65.8921 48.2422 66.9088 47.6255C67.9421 46.9922 69.1671 46.6755 70.5838 46.6755C72.0005 46.6755 73.2171 46.9922 74.2338 47.6255C75.2671 48.2422 76.0588 49.0672 76.6088 50.1005C77.1588 51.1338 77.4338 52.2588 77.4338 53.4755C77.4338 54.6755 77.1588 55.7922 76.6088 56.8255C76.0588 57.8588 75.2671 58.6922 74.2338 59.3255C73.2171 59.9422 72.0005 60.2505 70.5838 60.2505ZM67.1588 53.4755C67.1588 54.2422 67.3088 54.9255 67.6088 55.5255C67.9088 56.1088 68.3171 56.5672 68.8338 56.9005C69.3505 57.2338 69.9338 57.4005 70.5838 57.4005C71.2171 57.4005 71.7921 57.2338 72.3088 56.9005C72.8255 56.5505 73.2338 56.0838 73.5338 55.5005C73.8505 54.9005 74.0088 54.2172 74.0088 53.4505C74.0088 52.7005 73.8505 52.0338 73.5338 51.4505C73.2338 50.8505 72.8255 50.3838 72.3088 50.0505C71.7921 49.7005 71.2171 49.5255 70.5838 49.5255C69.9338 49.5255 69.3505 49.7005 68.8338 50.0505C68.3171 50.3838 67.9088 50.8505 67.6088 51.4505C67.3088 52.0338 67.1588 52.7088 67.1588 53.4755ZM82.7199 60.0005V49.8255H78.5699V46.9005H90.2449V49.8255H86.0699V60.0005H82.7199ZM92.1217 60.0005V46.9255H95.4717V55.5255L101.347 46.9005H104.397V60.0005H101.047V51.6005L95.2467 60.0005H92.1217ZM107.454 60.0005V46.9005H114.754C115.654 46.9005 116.379 47.0505 116.929 47.3505C117.495 47.6505 117.912 48.0422 118.179 48.5255C118.445 49.0088 118.579 49.5255 118.579 50.0755C118.579 50.8088 118.412 51.4505 118.079 52.0005C117.745 52.5505 117.245 52.9755 116.579 53.2755C117.345 53.4755 117.97 53.8422 118.454 54.3755C118.937 54.9088 119.179 55.6005 119.179 56.4505C119.179 57.6838 118.745 58.5838 117.879 59.1505C117.029 59.7172 115.87 60.0005 114.404 60.0005H107.454ZM110.629 52.3505H113.904C114.354 52.3505 114.72 52.1922 115.004 51.8755C115.287 51.5422 115.429 51.1505 115.429 50.7005C115.429 50.2672 115.287 49.9088 115.004 49.6255C114.737 49.3255 114.379 49.1755 113.929 49.1755H110.629V52.3505ZM110.629 57.7255H114.304C114.77 57.7255 115.154 57.5672 115.454 57.2505C115.77 56.9338 115.929 56.5422 115.929 56.0755C115.929 55.6088 115.779 55.2255 115.479 54.9255C115.179 54.6088 114.795 54.4505 114.329 54.4505H110.629V57.7255ZM127.664 60.2505C126.231 60.2505 124.997 59.9422 123.964 59.3255C122.947 58.6922 122.164 57.8588 121.614 56.8255C121.064 55.7922 120.789 54.6755 120.789 53.4755C120.789 52.2588 121.064 51.1338 121.614 50.1005C122.181 49.0672 122.972 48.2422 123.989 47.6255C125.022 46.9922 126.247 46.6755 127.664 46.6755C129.081 46.6755 130.297 46.9922 131.314 47.6255C132.347 48.2422 133.139 49.0672 133.689 50.1005C134.239 51.1338 134.514 52.2588 134.514 53.4755C134.514 54.6755 134.239 55.7922 133.689 56.8255C133.139 57.8588 132.347 58.6922 131.314 59.3255C130.297 59.9422 129.081 60.2505 127.664 60.2505ZM124.239 53.4755C124.239 54.2422 124.389 54.9255 124.689 55.5255C124.989 56.1088 125.397 56.5672 125.914 56.9005C126.431 57.2338 127.014 57.4005 127.664 57.4005C128.297 57.4005 128.872 57.2338 129.389 56.9005C129.906 56.5505 130.314 56.0838 130.614 55.5005C130.931 54.9005 131.089 54.2172 131.089 53.4505C131.089 52.7005 130.931 52.0338 130.614 51.4505C130.314 50.8505 129.906 50.3838 129.389 50.0505C128.872 49.7005 128.297 49.5255 127.664 49.5255C127.014 49.5255 126.431 49.7005 125.914 50.0505C125.397 50.3838 124.989 50.8505 124.689 51.4505C124.389 52.0338 124.239 52.7088 124.239 53.4755ZM136.775 60.0005V46.9005H148.525V60.0005H145.175V49.8255H140.125V60.0005H136.775ZM157.62 60.2505C156.187 60.2505 154.953 59.9422 153.92 59.3255C152.903 58.6922 152.12 57.8588 151.57 56.8255C151.02 55.7922 150.745 54.6755 150.745 53.4755C150.745 52.2588 151.02 51.1338 151.57 50.1005C152.137 49.0672 152.928 48.2422 153.945 47.6255C154.978 46.9922 156.203 46.6755 157.62 46.6755C159.037 46.6755 160.253 46.9922 161.27 47.6255C162.303 48.2422 163.095 49.0672 163.645 50.1005C164.195 51.1338 164.47 52.2588 164.47 53.4755C164.47 54.6755 164.195 55.7922 163.645 56.8255C163.095 57.8588 162.303 58.6922 161.27 59.3255C160.253 59.9422 159.037 60.2505 157.62 60.2505ZM154.195 53.4755C154.195 54.2422 154.345 54.9255 154.645 55.5255C154.945 56.1088 155.353 56.5672 155.87 56.9005C156.387 57.2338 156.97 57.4005 157.62 57.4005C158.253 57.4005 158.828 57.2338 159.345 56.9005C159.862 56.5505 160.27 56.0838 160.57 55.5005C160.887 54.9005 161.045 54.2172 161.045 53.4505C161.045 52.7005 160.887 52.0338 160.57 51.4505C160.27 50.8505 159.862 50.3838 159.345 50.0505C158.828 49.7005 158.253 49.5255 157.62 49.5255C156.97 49.5255 156.387 49.7005 155.87 50.0505C155.353 50.3838 154.945 50.8505 154.645 51.4505C154.345 52.0338 154.195 52.7088 154.195 53.4755ZM166.731 60.0005V46.9005H170.081V51.8505H171.206L174.756 46.9005H178.406L173.756 53.2255L178.906 60.0005H175.081L171.156 54.8005H170.081V60.0005H166.731ZM179.967 56.1255C179.967 55.2755 180.2 54.5338 180.667 53.9005C181.15 53.2505 181.817 52.7505 182.667 52.4005C183.517 52.0505 184.492 51.8755 185.592 51.8755C186.142 51.8755 186.7 51.9255 187.267 52.0255C187.833 52.1088 188.325 52.2338 188.742 52.4005V51.7005C188.742 50.8672 188.492 50.2255 187.992 49.7755C187.508 49.3255 186.783 49.1005 185.817 49.1005C185.1 49.1005 184.417 49.2255 183.767 49.4755C183.117 49.7255 182.433 50.0922 181.717 50.5755L180.642 48.3755C181.508 47.8088 182.392 47.3838 183.292 47.1005C184.208 46.8172 185.167 46.6755 186.167 46.6755C188.033 46.6755 189.483 47.1422 190.517 48.0755C191.567 49.0088 192.092 50.3422 192.092 52.0755V56.2505C192.092 56.6172 192.15 56.8755 192.267 57.0255C192.383 57.1588 192.592 57.2422 192.892 57.2755V60.0005C192.592 60.0672 192.317 60.1088 192.067 60.1255C191.833 60.1588 191.633 60.1755 191.467 60.1755C190.8 60.1755 190.292 60.0255 189.942 59.7255C189.592 59.4255 189.383 59.0588 189.317 58.6255L189.242 57.9505C188.658 58.7005 187.942 59.2755 187.092 59.6755C186.258 60.0588 185.4 60.2505 184.517 60.2505C183.633 60.2505 182.85 60.0755 182.167 59.7255C181.483 59.3588 180.942 58.8672 180.542 58.2505C180.158 57.6172 179.967 56.9088 179.967 56.1255ZM188.117 56.8005C188.533 56.4005 188.742 56.0172 188.742 55.6505V54.3255C187.875 53.9755 187 53.8005 186.117 53.8005C185.233 53.8005 184.517 53.9922 183.967 54.3755C183.417 54.7422 183.142 55.2338 183.142 55.8505C183.142 56.3505 183.342 56.8005 183.742 57.2005C184.142 57.6005 184.717 57.8005 185.467 57.8005C185.967 57.8005 186.45 57.7088 186.917 57.5255C187.4 57.3422 187.8 57.1005 188.117 56.8005ZM199.897 60.2005C198.497 60.2005 197.322 59.9505 196.372 59.4505C195.439 58.9505 194.714 58.2588 194.197 57.3755L196.897 56.1505C197.181 56.5838 197.547 56.9255 197.997 57.1755C198.464 57.4088 199.039 57.5255 199.722 57.5255C200.506 57.5255 201.106 57.3755 201.522 57.0755C201.956 56.7588 202.172 56.3505 202.172 55.8505C202.172 55.4005 201.997 55.0338 201.647 54.7505C201.297 54.4505 200.781 54.3005 200.097 54.3005H198.747V52.2255H200.122C200.589 52.2255 200.956 52.0922 201.222 51.8255C201.506 51.5588 201.647 51.2088 201.647 50.7755C201.647 50.3422 201.481 50.0005 201.147 49.7505C200.831 49.4838 200.322 49.3505 199.622 49.3505C199.039 49.3505 198.556 49.4588 198.172 49.6755C197.789 49.8922 197.481 50.2172 197.247 50.6505L194.722 49.3005C195.189 48.4838 195.856 47.8422 196.722 47.3755C197.606 46.9088 198.631 46.6755 199.797 46.6755C200.714 46.6755 201.531 46.8172 202.247 47.1005C202.981 47.3838 203.556 47.8005 203.972 48.3505C204.389 48.8838 204.597 49.5422 204.597 50.3255C204.597 50.8922 204.456 51.4422 204.172 51.9755C203.906 52.5088 203.464 52.9005 202.847 53.1505C203.647 53.3838 204.247 53.7838 204.647 54.3505C205.064 54.9172 205.272 55.5838 205.272 56.3505C205.272 57.1838 205.039 57.8922 204.572 58.4755C204.106 59.0422 203.464 59.4755 202.647 59.7755C201.847 60.0588 200.931 60.2005 199.897 60.2005ZM206.725 56.1255C206.725 55.2755 206.958 54.5338 207.425 53.9005C207.908 53.2505 208.575 52.7505 209.425 52.4005C210.275 52.0505 211.25 51.8755 212.35 51.8755C212.9 51.8755 213.458 51.9255 214.025 52.0255C214.591 52.1088 215.083 52.2338 215.5 52.4005V51.7005C215.5 50.8672 215.25 50.2255 214.75 49.7755C214.266 49.3255 213.541 49.1005 212.575 49.1005C211.858 49.1005 211.175 49.2255 210.525 49.4755C209.875 49.7255 209.191 50.0922 208.475 50.5755L207.4 48.3755C208.266 47.8088 209.15 47.3838 210.05 47.1005C210.966 46.8172 211.925 46.6755 212.925 46.6755C214.791 46.6755 216.241 47.1422 217.275 48.0755C218.325 49.0088 218.85 50.3422 218.85 52.0755V56.2505C218.85 56.6172 218.908 56.8755 219.025 57.0255C219.141 57.1588 219.35 57.2422 219.65 57.2755V60.0005C219.35 60.0672 219.075 60.1088 218.825 60.1255C218.591 60.1588 218.391 60.1755 218.225 60.1755C217.558 60.1755 217.05 60.0255 216.7 59.7255C216.35 59.4255 216.141 59.0588 216.075 58.6255L216 57.9505C215.416 58.7005 214.7 59.2755 213.85 59.6755C213.016 60.0588 212.158 60.2505 211.275 60.2505C210.391 60.2505 209.608 60.0755 208.925 59.7255C208.241 59.3588 207.7 58.8672 207.3 58.2505C206.916 57.6172 206.725 56.9088 206.725 56.1255ZM214.875 56.8005C215.291 56.4005 215.5 56.0172 215.5 55.6505V54.3255C214.633 53.9755 213.758 53.8005 212.875 53.8005C211.991 53.8005 211.275 53.9922 210.725 54.3755C210.175 54.7422 209.9 55.2338 209.9 55.8505C209.9 56.3505 210.1 56.8005 210.5 57.2005C210.9 57.6005 211.475 57.8005 212.225 57.8005C212.725 57.8005 213.208 57.7088 213.675 57.5255C214.158 57.3422 214.558 57.1005 214.875 56.8005ZM221.98 60.0005V46.9005H225.33V51.9005H230.63V46.9005H233.98V60.0005H230.63V54.7005H225.33V60.0005H221.98ZM237.044 60.0005V46.9255H240.394V55.5255L246.269 46.9005H249.319V60.0005H245.969V51.6005L240.169 60.0005H237.044ZM251.676 60.0005L255.001 54.9005C254.201 54.6838 253.576 54.2588 253.126 53.6255C252.676 52.9922 252.451 52.1588 252.451 51.1255C252.451 49.8422 252.884 48.8088 253.751 48.0255C254.617 47.2422 255.742 46.8505 257.126 46.8505H263.351V60.0005H260.001V55.4755H258.226L255.351 60.0005H251.676ZM257.526 53.0755H260.001V49.4255H257.651C257.051 49.4255 256.576 49.5922 256.226 49.9255C255.876 50.2422 255.701 50.6755 255.701 51.2255C255.701 51.7588 255.851 52.2005 256.151 52.5505C256.467 52.9005 256.926 53.0755 257.526 53.0755Z" fill="black"/>
<g clip-path="url(#clip0)">
<path d="M317.805 73.8969C317.84 73.7887 317.874 73.6806 317.874 73.6806C318.047 73.1397 317.863 72.6047 317.362 72.3259C312.598 69.4982 310.509 63.829 312.197 58.5287C313.885 53.2283 318.975 49.8453 324.497 50.2933C325.067 50.3557 325.702 49.8432 325.66 49.2341C325.725 48.6591 325.22 48.0217 324.616 48.0675C318.061 47.5287 312.053 51.5724 310.055 57.8462C308.056 64.1201 310.62 70.8935 316.244 74.3528C316.745 74.6316 317.492 74.5118 317.805 73.8969Z" fill="#C0C0C0"/>
<path d="M314.662 59.3134C313.077 64.2892 315.766 69.554 320.695 71.1236C321.231 71.2942 321.904 71.0322 322.111 70.3831C322.283 69.8423 322.027 69.1649 321.384 68.9602C317.634 67.7659 315.491 63.7477 316.697 59.9617C317.903 56.1758 321.975 54.1365 325.725 55.3308C326.26 55.5014 326.934 55.2393 327.14 54.5903C327.313 54.0495 327.056 53.3721 326.414 53.1674C321.485 51.5978 316.246 54.3376 314.662 59.3134Z" fill="#C0C0C0"/>
<path d="M342.834 44.2189C342.524 45.1924 342.57 46.1601 342.757 47.0538C340.331 46.5195 337.783 47.8523 336.99 50.3403C336.646 51.422 336.657 52.4978 337.059 53.4598C335.031 53.5287 333.301 54.8841 332.647 56.9393C332.337 57.9129 332.382 58.8806 332.57 59.7743L326.677 57.8976C324.106 57.0786 321.381 58.5937 320.554 61.1898C319.727 63.7859 321.074 66.5976 323.645 67.4165L343.145 73.6267L340.106 75.7567C339.081 76.3832 338.38 77.4707 338.25 78.6206C337.978 79.8446 338.204 80.9888 338.927 82.0531C339.941 83.6865 341.977 84.3348 343.787 83.839L364.439 77.9065C364.937 77.8267 365.434 77.7468 365.97 77.9174L369.398 79.0093C369.934 79.1799 370.608 78.9179 370.814 78.2688C371.021 77.6198 370.73 77.0506 370.087 76.8459L366.445 75.6858C365.587 75.4128 364.661 75.3562 363.739 75.6582L343.087 81.5907C342.164 81.8927 341.235 81.4774 340.657 80.6977C340.332 80.2367 340.183 79.5935 340.355 79.0526C340.42 78.4776 340.841 77.8969 341.3 77.5666L345.823 74.4797L348.18 75.2304C348.716 75.401 349.39 75.139 349.596 74.4899C349.769 73.9491 349.512 73.2718 348.869 73.067L324.334 65.2531C322.942 64.8096 322.249 63.2785 322.697 61.8723C323.145 60.466 324.702 59.6515 325.988 60.061L335.738 63.1661L345.702 66.3394C346.237 66.51 346.911 66.2479 347.118 65.5989C347.29 65.058 347.034 64.3807 346.391 64.176L336.427 61.0027C335.034 60.5591 334.342 59.028 334.789 57.6218C335.237 56.2156 336.795 55.401 338.08 55.8105L340.116 56.4588L349.223 59.3592C349.759 59.5298 350.432 59.2677 350.639 58.6187C350.811 58.0778 350.555 57.4005 349.912 57.1957L340.805 54.2954C339.412 53.8518 338.72 52.3207 339.168 50.9145C339.615 49.5083 341.173 48.6938 342.459 49.1032L345.887 50.1951L352.744 52.3789C353.28 52.5495 353.953 52.2875 354.16 51.6384C354.332 51.0976 354.076 50.4203 353.433 50.2155L346.576 48.0317C345.183 47.5881 344.491 46.0571 344.939 44.6508C345.387 43.2446 346.944 42.4301 348.23 42.8396L360.015 46.593C362.586 47.4119 364.844 48.8457 366.68 50.8603L369.634 54.1838C370.751 55.4928 372.148 56.295 373.755 56.8068L376.219 57.5916C376.755 57.7622 377.429 57.5002 377.635 56.8512C377.808 56.3103 377.551 55.633 376.908 55.4282L374.444 54.6434C373.266 54.2681 372.083 53.5341 371.326 52.578L368.372 49.2545C366.283 46.9212 363.738 45.2768 360.739 44.3214L348.953 40.568C346.386 40.1077 343.661 41.6228 342.834 44.2189Z" fill="#C0C0C0"/>
</g>
<defs>
<clipPath id="clip0">
<rect width="43.1389" height="64.0921" fill="white" transform="translate(305.438 72.3408) rotate(-72.3344)"/>
</clipPath>
</defs>
</svg>
