<svg width="463" height="191" viewBox="0 0 463 191" fill="none" xmlns="http://www.w3.org/2000/svg">
<path d="M89.4327 106.822V109H82.1247V106.822H84.6807V101.368C84.5367 101.548 84.2907 101.74 83.9427 101.944C83.6067 102.148 83.2347 102.322 82.8267 102.466C82.4307 102.61 82.0767 102.682 81.7647 102.682V100.432C81.9807 100.432 82.2387 100.366 82.5387 100.234C82.8507 100.09 83.1567 99.922 83.4567 99.73C83.7687 99.538 84.0327 99.352 84.2487 99.172C84.4767 98.98 84.6207 98.83 84.6807 98.722H87.1467V106.822H89.4327ZM90.4432 103.168C90.4432 102.34 90.6472 101.59 91.0552 100.918C91.4632 100.246 92.0212 99.712 92.7292 99.316C93.4372 98.92 94.2292 98.722 95.1052 98.722C96.0772 98.722 96.9112 98.956 97.6072 99.424C98.3152 99.892 98.8612 100.564 99.2452 101.44C99.6292 102.316 99.8212 103.366 99.8212 104.59C99.8212 106.918 99.3712 108.694 98.4712 109.918C97.5832 111.154 96.3832 111.772 94.8712 111.772C94.0672 111.772 93.3232 111.598 92.6392 111.25C91.9552 110.902 91.3792 110.404 90.9112 109.756L92.2972 108.244C92.5852 108.688 92.9572 109.036 93.4132 109.288C93.8812 109.552 94.3792 109.684 94.9072 109.684C95.7112 109.684 96.3532 109.366 96.8332 108.73C97.3132 108.082 97.5592 107.182 97.5712 106.03C97.3312 106.462 96.9712 106.804 96.4912 107.056C96.0232 107.308 95.4892 107.434 94.8892 107.434C94.0492 107.434 93.2932 107.248 92.6212 106.876C91.9492 106.492 91.4152 105.982 91.0192 105.346C90.6352 104.698 90.4432 103.972 90.4432 103.168ZM95.1052 100.756C94.6732 100.756 94.2772 100.87 93.9172 101.098C93.5692 101.314 93.2872 101.608 93.0712 101.98C92.8552 102.34 92.7472 102.736 92.7472 103.168C92.7472 103.6 92.8492 103.996 93.0532 104.356C93.2692 104.704 93.5572 104.986 93.9172 105.202C94.2772 105.406 94.6732 105.508 95.1052 105.508C95.5372 105.508 95.9272 105.406 96.2752 105.202C96.6352 104.986 96.9232 104.704 97.1392 104.356C97.3552 103.996 97.4632 103.6 97.4632 103.168C97.4632 102.736 97.3552 102.34 97.1392 101.98C96.9232 101.608 96.6352 101.314 96.2752 101.098C95.9152 100.87 95.5252 100.756 95.1052 100.756ZM101.709 102.268V99.676H103.671V102.268H101.709ZM101.709 109V106.408H103.671V109H101.709ZM115.084 103.726C115.084 104.782 114.88 105.724 114.472 106.552C114.076 107.368 113.524 108.01 112.816 108.478C112.12 108.946 111.328 109.18 110.44 109.18C109.552 109.18 108.754 108.946 108.046 108.478C107.35 108.01 106.798 107.368 106.39 106.552C105.994 105.724 105.796 104.782 105.796 103.726C105.796 102.67 105.994 101.734 106.39 100.918C106.798 100.09 107.35 99.442 108.046 98.974C108.754 98.494 109.552 98.254 110.44 98.254C111.328 98.254 112.12 98.494 112.816 98.974C113.524 99.442 114.076 100.09 114.472 100.918C114.88 101.734 115.084 102.67 115.084 103.726ZM112.654 103.726C112.654 102.766 112.444 101.986 112.024 101.386C111.616 100.774 111.088 100.468 110.44 100.468C109.768 100.468 109.228 100.774 108.82 101.386C108.412 101.986 108.208 102.766 108.208 103.726C108.208 104.686 108.412 105.466 108.82 106.066C109.228 106.666 109.768 106.966 110.44 106.966C111.088 106.966 111.616 106.666 112.024 106.066C112.444 105.466 112.654 104.686 112.654 103.726ZM126.141 103.726C126.141 104.782 125.937 105.724 125.529 106.552C125.133 107.368 124.581 108.01 123.873 108.478C123.177 108.946 122.385 109.18 121.497 109.18C120.609 109.18 119.811 108.946 119.103 108.478C118.407 108.01 117.855 107.368 117.447 106.552C117.051 105.724 116.853 104.782 116.853 103.726C116.853 102.67 117.051 101.734 117.447 100.918C117.855 100.09 118.407 99.442 119.103 98.974C119.811 98.494 120.609 98.254 121.497 98.254C122.385 98.254 123.177 98.494 123.873 98.974C124.581 99.442 125.133 100.09 125.529 100.918C125.937 101.734 126.141 102.67 126.141 103.726ZM123.711 103.726C123.711 102.766 123.501 101.986 123.081 101.386C122.673 100.774 122.145 100.468 121.497 100.468C120.825 100.468 120.285 100.774 119.877 101.386C119.469 101.986 119.265 102.766 119.265 103.726C119.265 104.686 119.469 105.466 119.877 106.066C120.285 106.666 120.825 106.966 121.497 106.966C122.145 106.966 122.673 106.666 123.081 106.066C123.501 105.466 123.711 104.686 123.711 103.726ZM97.1574 133V122.596L92.5314 130.678H91.7394L87.0954 122.596V133H85.8354V120.22H87.1314L92.1174 128.968L97.1394 120.22H98.4174V133H97.1574ZM100.775 126.52C100.775 125.752 100.907 124.99 101.171 124.234C101.447 123.478 101.843 122.794 102.359 122.182C102.875 121.558 103.511 121.066 104.267 120.706C105.023 120.334 105.881 120.148 106.841 120.148C107.969 120.148 108.941 120.412 109.757 120.94C110.573 121.456 111.173 122.122 111.557 122.938L110.567 123.55C110.291 122.986 109.943 122.542 109.523 122.218C109.103 121.882 108.653 121.642 108.173 121.498C107.705 121.354 107.237 121.282 106.769 121.282C106.001 121.282 105.323 121.438 104.735 121.75C104.147 122.05 103.649 122.458 103.241 122.974C102.845 123.49 102.545 124.06 102.341 124.684C102.137 125.308 102.035 125.944 102.035 126.592C102.035 127.3 102.155 127.978 102.395 128.626C102.635 129.262 102.971 129.832 103.403 130.336C103.835 130.84 104.339 131.242 104.915 131.542C105.503 131.83 106.139 131.974 106.823 131.974C107.303 131.974 107.795 131.89 108.299 131.722C108.803 131.554 109.271 131.296 109.703 130.948C110.135 130.6 110.489 130.15 110.765 129.598L111.809 130.138C111.533 130.774 111.119 131.314 110.567 131.758C110.027 132.202 109.415 132.538 108.731 132.766C108.059 132.994 107.399 133.108 106.751 133.108C105.875 133.108 105.071 132.922 104.339 132.55C103.607 132.166 102.971 131.662 102.431 131.038C101.903 130.402 101.495 129.694 101.207 128.914C100.919 128.122 100.775 127.324 100.775 126.52ZM113.96 133V120.22H115.22V125.908H117.146L121.538 120.22H122.996L118.19 126.412L123.302 133H121.754L117.182 127.06H115.22V133H113.96Z" fill="black"/>
<path d="M153.057 16.425C153.057 17.425 152.798 18.2667 152.282 18.95C151.765 19.6167 151.065 20.125 150.182 20.475C149.315 20.825 148.365 21 147.332 21H138.757V3.25H148.257C149.09 3.25 149.807 3.475 150.407 3.925C151.007 4.35833 151.473 4.925 151.807 5.625C152.14 6.325 152.307 7.04167 152.307 7.775C152.307 8.64167 152.09 9.45833 151.657 10.225C151.223 10.975 150.59 11.5333 149.757 11.9C150.773 12.2 151.573 12.7417 152.157 13.525C152.757 14.3083 153.057 15.275 153.057 16.425ZM142.207 6.2V10.675H146.807C147.373 10.675 147.865 10.475 148.282 10.075C148.698 9.675 148.907 9.125 148.907 8.425C148.907 7.75833 148.715 7.225 148.332 6.825C147.965 6.40833 147.507 6.2 146.957 6.2H142.207ZM149.582 15.775C149.582 15.125 149.382 14.5667 148.982 14.1C148.582 13.6333 148.09 13.4 147.507 13.4H142.207V18.075H147.332C147.965 18.075 148.498 17.85 148.932 17.4C149.365 16.95 149.582 16.4083 149.582 15.775ZM163.274 21.25C162.241 21.25 161.341 21.0167 160.574 20.55C159.807 20.0833 159.207 19.4667 158.774 18.7V26.325H155.424V7.9H158.349V10.15C158.832 9.38333 159.457 8.78333 160.224 8.35C161.007 7.9 161.891 7.675 162.874 7.675C164.057 7.675 165.107 7.98333 166.024 8.6C166.941 9.2 167.666 10.0167 168.199 11.05C168.732 12.0667 168.999 13.1917 168.999 14.425C168.999 15.7083 168.749 16.8667 168.249 17.9C167.766 18.9167 167.091 19.7333 166.224 20.35C165.374 20.95 164.391 21.25 163.274 21.25ZM162.149 18.4C162.832 18.4 163.424 18.2167 163.924 17.85C164.441 17.4667 164.841 16.975 165.124 16.375C165.424 15.7583 165.574 15.1083 165.574 14.425C165.574 13.6917 165.416 13.0333 165.099 12.45C164.782 11.85 164.349 11.3833 163.799 11.05C163.266 10.7 162.649 10.525 161.949 10.525C161.316 10.525 160.682 10.7333 160.049 11.15C159.416 11.5667 158.991 12.0917 158.774 12.725V15.8C159.074 16.5333 159.532 17.15 160.149 17.65C160.766 18.15 161.432 18.4 162.149 18.4ZM177.344 21.25C175.927 21.25 174.702 20.9417 173.669 20.325C172.652 19.7083 171.86 18.8917 171.294 17.875C170.727 16.8417 170.444 15.725 170.444 14.525C170.444 13.2917 170.719 12.1583 171.269 11.125C171.835 10.075 172.635 9.24167 173.669 8.625C174.702 7.99167 175.935 7.675 177.369 7.675C178.802 7.675 180.027 7.99167 181.044 8.625C182.06 9.24167 182.835 10.0667 183.369 11.1C183.919 12.1167 184.194 13.2167 184.194 14.4C184.194 14.8333 184.169 15.2083 184.119 15.525H173.994C174.077 16.5417 174.452 17.3417 175.119 17.925C175.802 18.5083 176.585 18.8 177.469 18.8C178.135 18.8 178.76 18.6417 179.344 18.325C179.944 17.9917 180.352 17.5583 180.569 17.025L183.444 17.825C182.96 18.825 182.185 19.65 181.119 20.3C180.052 20.9333 178.794 21.25 177.344 21.25ZM173.919 13.4H180.769C180.669 12.4167 180.294 11.625 179.644 11.025C179.01 10.4083 178.235 10.1 177.319 10.1C176.419 10.1 175.644 10.4083 174.994 11.025C174.36 11.625 174.002 12.4167 173.919 13.4ZM186.234 21V7.9H189.734L193.834 15.475L197.959 7.9H201.409V21H198.234V12.525L194.884 18.675H192.784L189.409 12.525V21H186.234ZM203.796 21L207.121 15.9C206.321 15.6833 205.696 15.2583 205.246 14.625C204.796 13.9917 204.571 13.1583 204.571 12.125C204.571 10.8417 205.005 9.80833 205.871 9.025C206.738 8.24167 207.863 7.85 209.246 7.85H215.471V21H212.121V16.475H210.346L207.471 21H203.796ZM209.646 14.075H212.121V10.425H209.771C209.171 10.425 208.696 10.5917 208.346 10.925C207.996 11.2417 207.821 11.675 207.821 12.225C207.821 12.7583 207.971 13.2 208.271 13.55C208.588 13.9 209.046 14.075 209.646 14.075ZM229.191 21.2C227.791 21.2 226.616 20.95 225.666 20.45C224.732 19.95 224.007 19.2583 223.491 18.375L226.191 17.15C226.474 17.5833 226.841 17.925 227.291 18.175C227.757 18.4083 228.332 18.525 229.016 18.525C229.799 18.525 230.399 18.375 230.816 18.075C231.249 17.7583 231.466 17.35 231.466 16.85C231.466 16.4 231.291 16.0333 230.941 15.75C230.591 15.45 230.074 15.3 229.391 15.3H228.041V13.225H229.416C229.882 13.225 230.249 13.0917 230.516 12.825C230.799 12.5583 230.941 12.2083 230.941 11.775C230.941 11.3417 230.774 11 230.441 10.75C230.124 10.4833 229.616 10.35 228.916 10.35C228.332 10.35 227.849 10.4583 227.466 10.675C227.082 10.8917 226.774 11.2167 226.541 11.65L224.016 10.3C224.482 9.48333 225.149 8.84167 226.016 8.375C226.899 7.90833 227.924 7.675 229.091 7.675C230.007 7.675 230.824 7.81667 231.541 8.1C232.274 8.38333 232.849 8.8 233.266 9.35C233.682 9.88333 233.891 10.5417 233.891 11.325C233.891 11.8917 233.749 12.4417 233.466 12.975C233.199 13.5083 232.757 13.9 232.141 14.15C232.941 14.3833 233.541 14.7833 233.941 15.35C234.357 15.9167 234.566 16.5833 234.566 17.35C234.566 18.1833 234.332 18.8917 233.866 19.475C233.399 20.0417 232.757 20.475 231.941 20.775C231.141 21.0583 230.224 21.2 229.191 21.2ZM236.018 17.125C236.018 16.275 236.251 15.5333 236.718 14.9C237.201 14.25 237.868 13.75 238.718 13.4C239.568 13.05 240.543 12.875 241.643 12.875C242.193 12.875 242.751 12.925 243.318 13.025C243.885 13.1083 244.376 13.2333 244.793 13.4V12.7C244.793 11.8667 244.543 11.225 244.043 10.775C243.56 10.325 242.835 10.1 241.868 10.1C241.151 10.1 240.468 10.225 239.818 10.475C239.168 10.725 238.485 11.0917 237.768 11.575L236.693 9.375C237.56 8.80833 238.443 8.38333 239.343 8.1C240.26 7.81667 241.218 7.675 242.218 7.675C244.085 7.675 245.535 8.14167 246.568 9.075C247.618 10.0083 248.143 11.3417 248.143 13.075V17.25C248.143 17.6167 248.201 17.875 248.318 18.025C248.435 18.1583 248.643 18.2417 248.943 18.275V21C248.643 21.0667 248.368 21.1083 248.118 21.125C247.885 21.1583 247.685 21.175 247.518 21.175C246.851 21.175 246.343 21.025 245.993 20.725C245.643 20.425 245.435 20.0583 245.368 19.625L245.293 18.95C244.71 19.7 243.993 20.275 243.143 20.675C242.31 21.0583 241.451 21.25 240.568 21.25C239.685 21.25 238.901 21.075 238.218 20.725C237.535 20.3583 236.993 19.8667 236.593 19.25C236.21 18.6167 236.018 17.9083 236.018 17.125ZM244.168 17.8C244.585 17.4 244.793 17.0167 244.793 16.65V15.325C243.926 14.975 243.051 14.8 242.168 14.8C241.285 14.8 240.568 14.9917 240.018 15.375C239.468 15.7417 239.193 16.2333 239.193 16.85C239.193 17.35 239.393 17.8 239.793 18.2C240.193 18.6 240.768 18.8 241.518 18.8C242.018 18.8 242.501 18.7083 242.968 18.525C243.451 18.3417 243.851 18.1 244.168 17.8ZM251.274 21V7.9H254.624V12.9H259.924V7.9H263.274V21H259.924V15.7H254.624V21H251.274ZM265.637 21L268.962 15.9C268.162 15.6833 267.537 15.2583 267.087 14.625C266.637 13.9917 266.412 13.1583 266.412 12.125C266.412 10.8417 266.845 9.80833 267.712 9.025C268.579 8.24167 269.704 7.85 271.087 7.85H277.312V21H273.962V16.475H272.187L269.312 21H265.637ZM271.487 14.075H273.962V10.425H271.612C271.012 10.425 270.537 10.5917 270.187 10.925C269.837 11.2417 269.662 11.675 269.662 12.225C269.662 12.7583 269.812 13.2 270.112 13.55C270.429 13.9 270.887 14.075 271.487 14.075ZM283.376 21V10.825H279.226V7.9H290.901V10.825H286.726V21H283.376ZM292.777 21V7.925H296.127V16.525L302.002 7.9H305.052V21H301.702V12.6L295.902 21H292.777ZM308.109 21V7.925H311.459V16.525L317.334 7.9H320.384V21H317.034V12.6L311.234 21H308.109ZM314.259 6.675C312.976 6.675 311.968 6.35 311.234 5.7C310.501 5.03333 310.134 4.18333 310.134 3.15H312.209C312.209 3.65 312.368 4.06667 312.684 4.4C313.018 4.73333 313.543 4.9 314.259 4.9C314.959 4.9 315.459 4.74167 315.759 4.425C316.076 4.10833 316.268 3.68333 316.334 3.15H318.409C318.409 4.18333 318.043 5.03333 317.309 5.7C316.576 6.35 315.559 6.675 314.259 6.675ZM323.642 11.65V8.05H326.367V11.65H323.642ZM323.642 21V17.4H326.367V21H323.642Z" fill="white"/>
<path d="M144.344 163.096C143.704 163.096 143.085 162.995 142.488 162.792C141.901 162.579 141.368 162.275 140.888 161.88C140.419 161.485 140.045 161.011 139.768 160.456L140.712 159.976C141.085 160.68 141.603 161.208 142.264 161.56C142.925 161.912 143.608 162.088 144.312 162.088C144.909 162.088 145.459 161.971 145.96 161.736C146.472 161.501 146.92 161.181 147.304 160.776C147.688 160.36 147.992 159.885 148.216 159.352C148.451 158.819 148.579 158.253 148.6 157.656H143.24V156.728H148.584C148.52 156.024 148.312 155.357 147.96 154.728C147.608 154.099 147.128 153.587 146.52 153.192C145.912 152.787 145.187 152.584 144.344 152.584C143.661 152.584 143.005 152.744 142.376 153.064C141.757 153.384 141.267 153.901 140.904 154.616L139.976 154.056C140.371 153.331 140.925 152.739 141.64 152.28C142.355 151.811 143.245 151.576 144.312 151.576C145.176 151.576 145.944 151.741 146.616 152.072C147.299 152.392 147.869 152.824 148.328 153.368C148.797 153.912 149.155 154.525 149.4 155.208C149.645 155.88 149.768 156.568 149.768 157.272C149.768 158.008 149.635 158.728 149.368 159.432C149.112 160.125 148.744 160.749 148.264 161.304C147.784 161.848 147.208 162.285 146.536 162.616C145.875 162.936 145.144 163.096 144.344 163.096ZM155.478 166.408V163H155.11C154.288 163 153.574 162.813 152.966 162.44C152.358 162.056 151.888 161.549 151.558 160.92C151.227 160.291 151.062 159.603 151.062 158.856C151.062 158.099 151.227 157.405 151.558 156.776C151.899 156.147 152.374 155.64 152.982 155.256C153.59 154.872 154.299 154.68 155.11 154.68H155.478V151.32H156.566V154.68H156.934C157.744 154.68 158.454 154.872 159.062 155.256C159.67 155.64 160.139 156.147 160.47 156.776C160.811 157.405 160.982 158.099 160.982 158.856C160.982 159.603 160.816 160.291 160.486 160.92C160.155 161.549 159.686 162.056 159.078 162.44C158.47 162.813 157.755 163 156.934 163H156.566V166.408H155.478ZM155.11 162.088H155.51V155.592H155.11C154.534 155.592 154.016 155.741 153.558 156.04C153.11 156.328 152.758 156.723 152.502 157.224C152.256 157.715 152.134 158.264 152.134 158.872C152.134 159.469 152.256 160.013 152.502 160.504C152.758 160.995 153.11 161.384 153.558 161.672C154.006 161.949 154.523 162.088 155.11 162.088ZM156.518 162.088H156.934C157.52 162.088 158.038 161.949 158.486 161.672C158.934 161.384 159.28 160.995 159.526 160.504C159.782 160.013 159.91 159.469 159.91 158.872C159.91 158.264 159.782 157.715 159.526 157.224C159.28 156.723 158.928 156.328 158.47 156.04C158.022 155.741 157.51 155.592 156.934 155.592H156.518V162.088ZM162.793 163V154.68H163.881V161.528L168.953 154.664H169.929V163H168.841V156.264L163.849 163H162.793ZM176.565 163.16C175.872 163.16 175.248 162.979 174.693 162.616C174.149 162.253 173.717 161.805 173.397 161.272V166.408H172.309V154.664H173.285V156.28C173.616 155.757 174.053 155.336 174.597 155.016C175.152 154.685 175.749 154.52 176.389 154.52C176.965 154.52 177.493 154.643 177.973 154.888C178.453 155.123 178.869 155.443 179.221 155.848C179.584 156.253 179.861 156.717 180.053 157.24C180.245 157.752 180.341 158.285 180.341 158.84C180.341 159.619 180.181 160.339 179.861 161C179.552 161.651 179.109 162.173 178.533 162.568C177.968 162.963 177.312 163.16 176.565 163.16ZM176.261 162.2C176.869 162.2 177.392 162.04 177.829 161.72C178.277 161.389 178.624 160.968 178.869 160.456C179.115 159.944 179.237 159.405 179.237 158.84C179.237 158.243 179.099 157.688 178.821 157.176C178.544 156.664 178.171 156.253 177.701 155.944C177.243 155.635 176.72 155.48 176.133 155.48C175.771 155.48 175.387 155.576 174.981 155.768C174.587 155.949 174.235 156.2 173.925 156.52C173.627 156.829 173.451 157.171 173.397 157.544V160.104C173.643 160.691 174.027 161.187 174.549 161.592C175.072 161.997 175.643 162.2 176.261 162.2ZM182.168 163V154.664H183.256V157.608H185.144C186.094 157.608 186.808 157.853 187.288 158.344C187.779 158.824 188.024 159.459 188.024 160.248C188.024 160.76 187.918 161.224 187.704 161.64C187.491 162.056 187.176 162.387 186.76 162.632C186.344 162.877 185.832 163 185.224 163H182.168ZM189.544 163V154.68H190.632V163H189.544ZM183.256 162.136H185.08C185.731 162.136 186.2 161.949 186.488 161.576C186.776 161.192 186.92 160.755 186.92 160.264C186.92 159.944 186.862 159.651 186.744 159.384C186.638 159.107 186.446 158.888 186.168 158.728C185.902 158.557 185.528 158.472 185.048 158.472H183.256V162.136ZM196.178 164.936V162.024H196.322C196.642 162.024 196.93 161.885 197.186 161.608C197.442 161.331 197.65 160.829 197.81 160.104C197.981 159.368 198.082 158.328 198.114 156.984L198.194 154.664H203.618V162.024H204.738V164.936H203.762V163H197.138V164.936H196.178ZM197.97 162.024H202.53V155.64H199.17L199.122 157.08C199.069 158.573 198.946 159.704 198.754 160.472C198.562 161.229 198.301 161.747 197.97 162.024ZM209.94 163.16C209.14 163.16 208.425 162.963 207.796 162.568C207.177 162.173 206.692 161.651 206.34 161C205.988 160.339 205.812 159.624 205.812 158.856C205.812 158.077 205.988 157.363 206.34 156.712C206.702 156.051 207.193 155.523 207.812 155.128C208.441 154.723 209.15 154.52 209.94 154.52C210.74 154.52 211.449 154.723 212.068 155.128C212.697 155.523 213.188 156.051 213.54 156.712C213.902 157.363 214.084 158.077 214.084 158.856C214.084 159.624 213.908 160.339 213.556 161C213.204 161.651 212.713 162.173 212.084 162.568C211.465 162.963 210.75 163.16 209.94 163.16ZM206.916 158.872C206.916 159.491 207.049 160.056 207.316 160.568C207.593 161.069 207.961 161.469 208.42 161.768C208.878 162.056 209.385 162.2 209.94 162.2C210.494 162.2 211.001 162.051 211.46 161.752C211.918 161.453 212.286 161.048 212.564 160.536C212.841 160.024 212.98 159.459 212.98 158.84C212.98 158.221 212.841 157.656 212.564 157.144C212.286 156.632 211.918 156.227 211.46 155.928C211.001 155.629 210.494 155.48 209.94 155.48C209.396 155.48 208.894 155.635 208.436 155.944C207.977 156.243 207.609 156.648 207.332 157.16C207.054 157.672 206.916 158.243 206.916 158.872ZM219.519 163.16C218.708 163.16 217.988 162.963 217.359 162.568C216.73 162.163 216.234 161.635 215.871 160.984C215.508 160.323 215.327 159.597 215.327 158.808C215.327 158.019 215.503 157.304 215.855 156.664C216.207 156.013 216.698 155.496 217.327 155.112C217.956 154.717 218.682 154.52 219.503 154.52C220.282 154.52 220.964 154.701 221.551 155.064C222.148 155.416 222.596 155.896 222.895 156.504L221.839 156.84C221.604 156.413 221.274 156.083 220.847 155.848C220.431 155.603 219.967 155.48 219.455 155.48C218.89 155.48 218.378 155.624 217.919 155.912C217.471 156.2 217.108 156.6 216.831 157.112C216.564 157.613 216.431 158.179 216.431 158.808C216.431 159.437 216.57 160.008 216.847 160.52C217.124 161.032 217.492 161.443 217.951 161.752C218.41 162.051 218.916 162.2 219.471 162.2C219.834 162.2 220.186 162.136 220.527 162.008C220.868 161.88 221.162 161.709 221.407 161.496C221.652 161.272 221.818 161.032 221.903 160.776L222.975 161.096C222.826 161.491 222.58 161.848 222.239 162.168C221.898 162.477 221.492 162.723 221.023 162.904C220.554 163.075 220.052 163.16 219.519 163.16ZM226.764 163V155.64H223.788V154.664H230.828V155.64H227.852V163H226.764ZM233.221 166.488C232.869 166.488 232.496 166.376 232.101 166.152L232.501 165.384C232.725 165.533 232.944 165.608 233.157 165.608C233.691 165.608 234.187 165.064 234.645 163.976L235.061 162.936L231.349 154.664H232.501L235.557 161.88L238.373 154.664H239.461L235.493 164.312C235.173 165.069 234.827 165.619 234.453 165.96C234.08 166.312 233.669 166.488 233.221 166.488ZM240.965 163V154.664H247.669V163H246.581V155.64H242.053V163H240.965ZM250.059 163V154.664H251.147V158.248H255.915V154.664H257.003V163H255.915V159.224H251.147V163H250.059ZM259.387 163V154.664H260.475V157.608H262.363C263.312 157.608 264.027 157.853 264.507 158.344C264.998 158.824 265.243 159.459 265.243 160.248C265.243 160.76 265.136 161.224 264.923 161.64C264.71 162.056 264.395 162.387 263.979 162.632C263.563 162.877 263.051 163 262.443 163H259.387ZM266.763 163V154.68H267.851V163H266.763ZM260.475 162.136H262.299C262.95 162.136 263.419 161.949 263.707 161.576C263.995 161.192 264.139 160.755 264.139 160.264C264.139 159.944 264.08 159.651 263.963 159.384C263.856 159.107 263.664 158.888 263.387 158.728C263.12 158.557 262.747 158.472 262.267 158.472H260.475V162.136ZM282.019 163.16C281.208 163.16 280.488 162.963 279.859 162.568C279.23 162.163 278.734 161.635 278.371 160.984C278.008 160.323 277.827 159.597 277.827 158.808C277.827 158.019 278.003 157.304 278.355 156.664C278.707 156.013 279.198 155.496 279.827 155.112C280.456 154.717 281.182 154.52 282.003 154.52C282.782 154.52 283.464 154.701 284.051 155.064C284.648 155.416 285.096 155.896 285.395 156.504L284.339 156.84C284.104 156.413 283.774 156.083 283.347 155.848C282.931 155.603 282.467 155.48 281.955 155.48C281.39 155.48 280.878 155.624 280.419 155.912C279.971 156.2 279.608 156.6 279.331 157.112C279.064 157.613 278.931 158.179 278.931 158.808C278.931 159.437 279.07 160.008 279.347 160.52C279.624 161.032 279.992 161.443 280.451 161.752C280.91 162.051 281.416 162.2 281.971 162.2C282.334 162.2 282.686 162.136 283.027 162.008C283.368 161.88 283.662 161.709 283.907 161.496C284.152 161.272 284.318 161.032 284.403 160.776L285.475 161.096C285.326 161.491 285.08 161.848 284.739 162.168C284.398 162.477 283.992 162.723 283.523 162.904C283.054 163.075 282.552 163.16 282.019 163.16ZM287.971 166.488C287.619 166.488 287.246 166.376 286.851 166.152L287.251 165.384C287.475 165.533 287.694 165.608 287.907 165.608C288.441 165.608 288.937 165.064 289.395 163.976L289.811 162.936L286.099 154.664H287.251L290.307 161.88L293.123 154.664H294.211L290.243 164.312C289.923 165.069 289.577 165.619 289.203 165.96C288.83 166.312 288.419 166.488 287.971 166.488ZM297.811 163V155.64H294.835V154.664H301.875V155.64H298.899V163H297.811ZM303.34 163V154.664H304.428V158.232H305.676L308.476 154.664H309.724L306.54 158.712L310.124 163H308.844L305.676 159.24H304.428V163H303.34ZM311.653 163V154.68H312.741V161.528L317.813 154.664H318.789V163H317.701V156.264L312.709 163H311.653ZM321.441 159.352V151.528H322.529V159.352H321.441ZM321.441 163V161.208H322.529V163H321.441ZM23.9177 173.632H19.8697V184H18.7497V173.632H14.7017V172.64H23.9177V173.632ZM28.2138 184.16C27.5205 184.16 26.8965 183.979 26.3418 183.616C25.7978 183.253 25.3658 182.805 25.0458 182.272V187.408H23.9578V175.664H24.9338V177.28C25.2645 176.757 25.7018 176.336 26.2458 176.016C26.8005 175.685 27.3978 175.52 28.0378 175.52C28.6138 175.52 29.1418 175.643 29.6218 175.888C30.1018 176.123 30.5178 176.443 30.8698 176.848C31.2325 177.253 31.5098 177.717 31.7018 178.24C31.8938 178.752 31.9898 179.285 31.9898 179.84C31.9898 180.619 31.8298 181.339 31.5098 182C31.2005 182.651 30.7578 183.173 30.1818 183.568C29.6165 183.963 28.9605 184.16 28.2138 184.16ZM27.9098 183.2C28.5178 183.2 29.0405 183.04 29.4778 182.72C29.9258 182.389 30.2725 181.968 30.5178 181.456C30.7631 180.944 30.8858 180.405 30.8858 179.84C30.8858 179.243 30.7471 178.688 30.4698 178.176C30.1925 177.664 29.8191 177.253 29.3498 176.944C28.8911 176.635 28.3685 176.48 27.7818 176.48C27.4191 176.48 27.0351 176.576 26.6298 176.768C26.2351 176.949 25.8831 177.2 25.5738 177.52C25.2751 177.829 25.0991 178.171 25.0458 178.544V181.104C25.2911 181.691 25.6751 182.187 26.1978 182.592C26.7205 182.997 27.2911 183.2 27.9098 183.2ZM37.4328 184.16C36.6328 184.16 35.9181 183.963 35.2888 183.568C34.6595 183.173 34.1635 182.645 33.8008 181.984C33.4381 181.323 33.2568 180.597 33.2568 179.808C33.2568 179.029 33.4328 178.315 33.7848 177.664C34.1475 177.013 34.6435 176.496 35.2728 176.112C35.9021 175.717 36.6168 175.52 37.4168 175.52C38.2381 175.52 38.9581 175.717 39.5768 176.112C40.1955 176.507 40.6755 177.029 41.0168 177.68C41.3688 178.32 41.5448 179.024 41.5448 179.792C41.5448 179.963 41.5395 180.107 41.5288 180.224H34.3928C34.4461 180.821 34.6168 181.355 34.9048 181.824C35.1928 182.283 35.5608 182.651 36.0088 182.928C36.4568 183.195 36.9475 183.328 37.4808 183.328C38.0248 183.328 38.5368 183.189 39.0168 182.912C39.4968 182.635 39.8381 182.272 40.0408 181.824L40.9848 182.08C40.8141 182.485 40.5475 182.848 40.1848 183.168C39.8328 183.477 39.4221 183.723 38.9528 183.904C38.4835 184.075 37.9768 184.16 37.4328 184.16ZM34.3608 179.44H40.5208C40.4781 178.843 40.3128 178.315 40.0248 177.856C39.7368 177.387 39.3688 177.024 38.9208 176.768C38.4728 176.501 37.9768 176.368 37.4328 176.368C36.8888 176.368 36.3928 176.501 35.9448 176.768C35.4968 177.024 35.1288 177.387 34.8408 177.856C34.5635 178.315 34.4035 178.843 34.3608 179.44ZM43.2074 184V175.664H44.2954V179.248H49.0634V175.664H50.1514V184H49.0634V180.224H44.2954V184H43.2074ZM52.5356 184V175.68H53.6236V182.528L58.6956 175.664H59.6716V184H58.5836V177.264L53.5916 184H52.5356ZM66.3076 184.16C65.6142 184.16 64.9902 183.979 64.4356 183.616C63.8916 183.253 63.4596 182.805 63.1396 182.272V187.408H62.0516V175.664H63.0276V177.28C63.3582 176.757 63.7956 176.336 64.3396 176.016C64.8942 175.685 65.4916 175.52 66.1316 175.52C66.7076 175.52 67.2356 175.643 67.7156 175.888C68.1956 176.123 68.6116 176.443 68.9636 176.848C69.3262 177.253 69.6036 177.717 69.7956 178.24C69.9876 178.752 70.0836 179.285 70.0836 179.84C70.0836 180.619 69.9236 181.339 69.6036 182C69.2942 182.651 68.8516 183.173 68.2756 183.568C67.7102 183.963 67.0542 184.16 66.3076 184.16ZM66.0036 183.2C66.6116 183.2 67.1342 183.04 67.5716 182.72C68.0196 182.389 68.3662 181.968 68.6116 181.456C68.8569 180.944 68.9796 180.405 68.9796 179.84C68.9796 179.243 68.8409 178.688 68.5636 178.176C68.2862 177.664 67.9129 177.253 67.4436 176.944C66.9849 176.635 66.4622 176.48 65.8756 176.48C65.5129 176.48 65.1289 176.576 64.7236 176.768C64.3289 176.949 63.9769 177.2 63.6676 177.52C63.3689 177.829 63.1929 178.171 63.1396 178.544V181.104C63.3849 181.691 63.7689 182.187 64.2916 182.592C64.8142 182.997 65.3849 183.2 66.0036 183.2ZM75.4786 184.16C74.6786 184.16 73.9639 183.963 73.3346 183.568C72.7159 183.173 72.2306 182.651 71.8786 182C71.5266 181.339 71.3506 180.624 71.3506 179.856C71.3506 179.077 71.5266 178.363 71.8786 177.712C72.2412 177.051 72.7319 176.523 73.3506 176.128C73.9799 175.723 74.6892 175.52 75.4786 175.52C76.2786 175.52 76.9879 175.723 77.6066 176.128C78.2359 176.523 78.7266 177.051 79.0786 177.712C79.4412 178.363 79.6226 179.077 79.6226 179.856C79.6226 180.624 79.4466 181.339 79.0946 182C78.7426 182.651 78.2519 183.173 77.6226 183.568C77.0039 183.963 76.2892 184.16 75.4786 184.16ZM72.4546 179.872C72.4546 180.491 72.5879 181.056 72.8546 181.568C73.1319 182.069 73.4999 182.469 73.9586 182.768C74.4172 183.056 74.9239 183.2 75.4786 183.2C76.0332 183.2 76.5399 183.051 76.9986 182.752C77.4572 182.453 77.8252 182.048 78.1026 181.536C78.3799 181.024 78.5186 180.459 78.5186 179.84C78.5186 179.221 78.3799 178.656 78.1026 178.144C77.8252 177.632 77.4572 177.227 76.9986 176.928C76.5399 176.629 76.0332 176.48 75.4786 176.48C74.9346 176.48 74.4332 176.635 73.9746 176.944C73.5159 177.243 73.1479 177.648 72.8706 178.16C72.5932 178.672 72.4546 179.243 72.4546 179.872ZM81.4262 184V175.664H85.5862C86.0555 175.664 86.4502 175.765 86.7702 175.968C87.0902 176.16 87.3302 176.416 87.4902 176.736C87.6609 177.045 87.7462 177.371 87.7462 177.712C87.7462 178.16 87.6342 178.565 87.4102 178.928C87.1969 179.28 86.8929 179.547 86.4982 179.728C86.9782 179.856 87.3675 180.107 87.6662 180.48C87.9649 180.853 88.1142 181.291 88.1142 181.792C88.1142 182.464 87.8742 183.003 87.3942 183.408C86.9249 183.803 86.3222 184 85.5862 184H81.4262ZM82.4662 179.424H85.2982C85.7142 179.424 86.0502 179.269 86.3062 178.96C86.5729 178.64 86.7062 178.283 86.7062 177.888C86.7062 177.504 86.5782 177.168 86.3222 176.88C86.0769 176.592 85.7569 176.448 85.3622 176.448H82.4662V179.424ZM82.4662 183.216H85.5542C85.9809 183.216 86.3382 183.061 86.6262 182.752C86.9142 182.432 87.0582 182.08 87.0582 181.696C87.0582 181.28 86.9195 180.923 86.6422 180.624C86.3649 180.325 86.0235 180.176 85.6182 180.176H82.4662V183.216ZM89.9887 184V175.664H91.0767V179.232H92.3247L95.1247 175.664H96.3727L93.1887 179.712L96.7727 184H95.4927L92.3247 180.24H91.0767V184H89.9887ZM97.6139 181.6C97.6139 181.088 97.7633 180.645 98.0619 180.272C98.3606 179.888 98.7713 179.589 99.2939 179.376C99.8273 179.163 100.441 179.056 101.134 179.056C101.539 179.056 101.961 179.093 102.398 179.168C102.835 179.232 103.225 179.323 103.566 179.44V178.736C103.566 178.032 103.358 177.472 102.942 177.056C102.526 176.64 101.95 176.432 101.214 176.432C100.777 176.432 100.339 176.517 99.9019 176.688C99.4646 176.848 99.0113 177.088 98.5419 177.408L98.1259 176.64C98.6699 176.267 99.2033 175.989 99.7259 175.808C100.249 175.616 100.782 175.52 101.326 175.52C102.35 175.52 103.161 175.813 103.758 176.4C104.355 176.987 104.654 177.797 104.654 178.832V182.688C104.654 182.976 104.787 183.125 105.054 183.136V184C104.819 184.032 104.654 184.043 104.558 184.032C104.291 184.021 104.089 183.936 103.95 183.776C103.811 183.616 103.737 183.445 103.726 183.264L103.71 182.656C103.337 183.136 102.851 183.509 102.254 183.776C101.657 184.032 101.049 184.16 100.43 184.16C99.8859 184.16 99.4006 184.048 98.9739 183.824C98.5473 183.589 98.2113 183.28 97.9659 182.896C97.7313 182.501 97.6139 182.069 97.6139 181.6ZM103.198 182.24C103.443 181.952 103.566 181.685 103.566 181.44V180.224C102.83 179.936 102.062 179.792 101.262 179.792C100.483 179.792 99.8539 179.947 99.3739 180.256C98.8939 180.565 98.6539 180.987 98.6539 181.52C98.6539 181.979 98.8299 182.395 99.1819 182.768C99.5446 183.141 100.046 183.328 100.686 183.328C101.209 183.328 101.694 183.227 102.142 183.024C102.601 182.821 102.953 182.56 103.198 182.24ZM115.851 184V180.512C115.179 180.832 114.421 180.992 113.579 180.992C111.733 180.992 110.811 180.037 110.811 178.128V175.664H111.899V177.984C111.899 178.731 112.048 179.275 112.347 179.616C112.656 179.957 113.147 180.128 113.819 180.128C114.203 180.128 114.576 180.085 114.939 180C115.312 179.915 115.616 179.803 115.851 179.664V175.664H116.939V184H115.851ZM122.933 184.16C122.133 184.16 121.418 183.963 120.789 183.568C120.159 183.173 119.663 182.645 119.301 181.984C118.938 181.323 118.757 180.597 118.757 179.808C118.757 179.029 118.933 178.315 119.285 177.664C119.647 177.013 120.143 176.496 120.773 176.112C121.402 175.717 122.117 175.52 122.917 175.52C123.738 175.52 124.458 175.717 125.077 176.112C125.695 176.507 126.175 177.029 126.517 177.68C126.869 178.32 127.045 179.024 127.045 179.792C127.045 179.963 127.039 180.107 127.029 180.224H119.893C119.946 180.821 120.117 181.355 120.405 181.824C120.693 182.283 121.061 182.651 121.509 182.928C121.957 183.195 122.447 183.328 122.981 183.328C123.525 183.328 124.037 183.189 124.517 182.912C124.997 182.635 125.338 182.272 125.541 181.824L126.485 182.08C126.314 182.485 126.047 182.848 125.685 183.168C125.333 183.477 124.922 183.723 124.453 183.904C123.983 184.075 123.477 184.16 122.933 184.16ZM119.861 179.44H126.021C125.978 178.843 125.813 178.315 125.525 177.856C125.237 177.387 124.869 177.024 124.421 176.768C123.973 176.501 123.477 176.368 122.933 176.368C122.389 176.368 121.893 176.501 121.445 176.768C120.997 177.024 120.629 177.387 120.341 177.856C120.063 178.315 119.903 178.843 119.861 179.44ZM130.803 184V176.64H127.827V175.664H134.867V176.64H131.891V184H130.803ZM136.332 184V175.664H140.492C140.962 175.664 141.356 175.765 141.676 175.968C141.996 176.16 142.236 176.416 142.396 176.736C142.567 177.045 142.652 177.371 142.652 177.712C142.652 178.16 142.54 178.565 142.316 178.928C142.103 179.28 141.799 179.547 141.404 179.728C141.884 179.856 142.274 180.107 142.572 180.48C142.871 180.853 143.02 181.291 143.02 181.792C143.02 182.464 142.78 183.003 142.3 183.408C141.831 183.803 141.228 184 140.492 184H136.332ZM137.372 179.424H140.204C140.62 179.424 140.956 179.269 141.212 178.96C141.479 178.64 141.612 178.283 141.612 177.888C141.612 177.504 141.484 177.168 141.228 176.88C140.983 176.592 140.663 176.448 140.268 176.448H137.372V179.424ZM137.372 183.216H140.46C140.887 183.216 141.244 183.061 141.532 182.752C141.82 182.432 141.964 182.08 141.964 181.696C141.964 181.28 141.826 180.923 141.548 180.624C141.271 180.325 140.93 180.176 140.524 180.176H137.372V183.216ZM148.511 184.16C147.711 184.16 146.996 183.963 146.367 183.568C145.738 183.173 145.242 182.645 144.879 181.984C144.516 181.323 144.335 180.597 144.335 179.808C144.335 179.029 144.511 178.315 144.863 177.664C145.226 177.013 145.722 176.496 146.351 176.112C146.98 175.717 147.695 175.52 148.495 175.52C149.316 175.52 150.036 175.717 150.655 176.112C151.274 176.507 151.754 177.029 152.095 177.68C152.447 178.32 152.623 179.024 152.623 179.792C152.623 179.963 152.618 180.107 152.607 180.224H145.471C145.524 180.821 145.695 181.355 145.983 181.824C146.271 182.283 146.639 182.651 147.087 182.928C147.535 183.195 148.026 183.328 148.559 183.328C149.103 183.328 149.615 183.189 150.095 182.912C150.575 182.635 150.916 182.272 151.119 181.824L152.063 182.08C151.892 182.485 151.626 182.848 151.263 183.168C150.911 183.477 150.5 183.723 150.031 183.904C149.562 184.075 149.055 184.16 148.511 184.16ZM145.439 179.44H151.599C151.556 178.843 151.391 178.315 151.103 177.856C150.815 177.387 150.447 177.024 149.999 176.768C149.551 176.501 149.055 176.368 148.511 176.368C147.967 176.368 147.471 176.501 147.023 176.768C146.575 177.024 146.207 177.387 145.919 177.856C145.642 178.315 145.482 178.843 145.439 179.44ZM158.558 184.16C157.864 184.16 157.24 183.979 156.686 183.616C156.142 183.253 155.71 182.805 155.39 182.272V187.408H154.302V175.664H155.278V177.28C155.608 176.757 156.046 176.336 156.59 176.016C157.144 175.685 157.742 175.52 158.382 175.52C158.958 175.52 159.486 175.643 159.966 175.888C160.446 176.123 160.862 176.443 161.214 176.848C161.576 177.253 161.854 177.717 162.046 178.24C162.238 178.752 162.334 179.285 162.334 179.84C162.334 180.619 162.174 181.339 161.854 182C161.544 182.651 161.102 183.173 160.526 183.568C159.96 183.963 159.304 184.16 158.558 184.16ZM158.254 183.2C158.862 183.2 159.384 183.04 159.822 182.72C160.27 182.389 160.616 181.968 160.862 181.456C161.107 180.944 161.23 180.405 161.23 179.84C161.23 179.243 161.091 178.688 160.814 178.176C160.536 177.664 160.163 177.253 159.694 176.944C159.235 176.635 158.712 176.48 158.126 176.48C157.763 176.48 157.379 176.576 156.974 176.768C156.579 176.949 156.227 177.2 155.918 177.52C155.619 177.829 155.443 178.171 155.39 178.544V181.104C155.635 181.691 156.019 182.187 156.542 182.592C157.064 182.997 157.635 183.2 158.254 183.2ZM164.161 184V175.664H169.137V176.64H165.249V184H164.161ZM169.989 181.6C169.989 181.088 170.138 180.645 170.437 180.272C170.736 179.888 171.146 179.589 171.669 179.376C172.202 179.163 172.816 179.056 173.509 179.056C173.914 179.056 174.336 179.093 174.773 179.168C175.21 179.232 175.6 179.323 175.941 179.44V178.736C175.941 178.032 175.733 177.472 175.317 177.056C174.901 176.64 174.325 176.432 173.589 176.432C173.152 176.432 172.714 176.517 172.277 176.688C171.84 176.848 171.386 177.088 170.917 177.408L170.501 176.64C171.045 176.267 171.578 175.989 172.101 175.808C172.624 175.616 173.157 175.52 173.701 175.52C174.725 175.52 175.536 175.813 176.133 176.4C176.73 176.987 177.029 177.797 177.029 178.832V182.688C177.029 182.976 177.162 183.125 177.429 183.136V184C177.194 184.032 177.029 184.043 176.933 184.032C176.666 184.021 176.464 183.936 176.325 183.776C176.186 183.616 176.112 183.445 176.101 183.264L176.085 182.656C175.712 183.136 175.226 183.509 174.629 183.776C174.032 184.032 173.424 184.16 172.805 184.16C172.261 184.16 171.776 184.048 171.349 183.824C170.922 183.589 170.586 183.28 170.341 182.896C170.106 182.501 169.989 182.069 169.989 181.6ZM175.573 182.24C175.818 181.952 175.941 181.685 175.941 181.44V180.224C175.205 179.936 174.437 179.792 173.637 179.792C172.858 179.792 172.229 179.947 171.749 180.256C171.269 180.565 171.029 180.987 171.029 181.52C171.029 181.979 171.205 182.395 171.557 182.768C171.92 183.141 172.421 183.328 173.061 183.328C173.584 183.328 174.069 183.227 174.517 183.024C174.976 182.821 175.328 182.56 175.573 182.24ZM187.074 184.16C186.263 184.16 185.543 183.963 184.914 183.568C184.284 183.163 183.788 182.635 183.426 181.984C183.063 181.323 182.882 180.597 182.882 179.808C182.882 179.019 183.058 178.304 183.41 177.664C183.762 177.013 184.252 176.496 184.882 176.112C185.511 175.717 186.236 175.52 187.058 175.52C187.836 175.52 188.519 175.701 189.106 176.064C189.703 176.416 190.151 176.896 190.45 177.504L189.394 177.84C189.159 177.413 188.828 177.083 188.402 176.848C187.986 176.603 187.522 176.48 187.01 176.48C186.444 176.48 185.932 176.624 185.474 176.912C185.026 177.2 184.663 177.6 184.386 178.112C184.119 178.613 183.986 179.179 183.986 179.808C183.986 180.437 184.124 181.008 184.402 181.52C184.679 182.032 185.047 182.443 185.506 182.752C185.964 183.051 186.471 183.2 187.026 183.2C187.388 183.2 187.74 183.136 188.082 183.008C188.423 182.88 188.716 182.709 188.962 182.496C189.207 182.272 189.372 182.032 189.458 181.776L190.53 182.096C190.38 182.491 190.135 182.848 189.794 183.168C189.452 183.477 189.047 183.723 188.578 183.904C188.108 184.075 187.607 184.16 187.074 184.16ZM195.713 184.16C194.913 184.16 194.198 183.963 193.569 183.568C192.95 183.173 192.465 182.651 192.113 182C191.761 181.339 191.585 180.624 191.585 179.856C191.585 179.077 191.761 178.363 192.113 177.712C192.476 177.051 192.966 176.523 193.585 176.128C194.214 175.723 194.924 175.52 195.713 175.52C196.513 175.52 197.222 175.723 197.841 176.128C198.47 176.523 198.961 177.051 199.313 177.712C199.676 178.363 199.857 179.077 199.857 179.856C199.857 180.624 199.681 181.339 199.329 182C198.977 182.651 198.486 183.173 197.857 183.568C197.238 183.963 196.524 184.16 195.713 184.16ZM192.689 179.872C192.689 180.491 192.822 181.056 193.089 181.568C193.366 182.069 193.734 182.469 194.193 182.768C194.652 183.056 195.158 183.2 195.713 183.2C196.268 183.2 196.774 183.051 197.233 182.752C197.692 182.453 198.06 182.048 198.337 181.536C198.614 181.024 198.753 180.459 198.753 179.84C198.753 179.221 198.614 178.656 198.337 178.144C198.06 177.632 197.692 177.227 197.233 176.928C196.774 176.629 196.268 176.48 195.713 176.48C195.169 176.48 194.668 176.635 194.209 176.944C193.75 177.243 193.382 177.648 193.105 178.16C192.828 178.672 192.689 179.243 192.689 179.872ZM201.933 175.664L204.381 178.928L204.509 179.168L204.637 178.928L207.069 175.664H208.301L205.133 179.856L208.301 184H207.069L204.637 180.752L204.509 180.528L204.381 180.752L201.949 184H200.717L203.869 179.856L200.717 175.664H201.933ZM213.995 184.16C213.302 184.16 212.678 183.979 212.123 183.616C211.579 183.253 211.147 182.805 210.827 182.272V187.408H209.739V175.664H210.715V177.28C211.046 176.757 211.483 176.336 212.027 176.016C212.582 175.685 213.179 175.52 213.819 175.52C214.395 175.52 214.923 175.643 215.403 175.888C215.883 176.123 216.299 176.443 216.651 176.848C217.014 177.253 217.291 177.717 217.483 178.24C217.675 178.752 217.771 179.285 217.771 179.84C217.771 180.619 217.611 181.339 217.291 182C216.982 182.651 216.539 183.173 215.963 183.568C215.398 183.963 214.742 184.16 213.995 184.16ZM213.691 183.2C214.299 183.2 214.822 183.04 215.259 182.72C215.707 182.389 216.054 181.968 216.299 181.456C216.544 180.944 216.667 180.405 216.667 179.84C216.667 179.243 216.528 178.688 216.251 178.176C215.974 177.664 215.6 177.253 215.131 176.944C214.672 176.635 214.15 176.48 213.563 176.48C213.2 176.48 212.816 176.576 212.411 176.768C212.016 176.949 211.664 177.2 211.355 177.52C211.056 177.829 210.88 178.171 210.827 178.544V181.104C211.072 181.691 211.456 182.187 211.979 182.592C212.502 182.997 213.072 183.2 213.691 183.2ZM218.942 181.6C218.942 181.088 219.091 180.645 219.39 180.272C219.689 179.888 220.099 179.589 220.622 179.376C221.155 179.163 221.769 179.056 222.462 179.056C222.867 179.056 223.289 179.093 223.726 179.168C224.163 179.232 224.553 179.323 224.894 179.44V178.736C224.894 178.032 224.686 177.472 224.27 177.056C223.854 176.64 223.278 176.432 222.542 176.432C222.105 176.432 221.667 176.517 221.23 176.688C220.793 176.848 220.339 177.088 219.87 177.408L219.454 176.64C219.998 176.267 220.531 175.989 221.054 175.808C221.577 175.616 222.11 175.52 222.654 175.52C223.678 175.52 224.489 175.813 225.086 176.4C225.683 176.987 225.982 177.797 225.982 178.832V182.688C225.982 182.976 226.115 183.125 226.382 183.136V184C226.147 184.032 225.982 184.043 225.886 184.032C225.619 184.021 225.417 183.936 225.278 183.776C225.139 183.616 225.065 183.445 225.054 183.264L225.038 182.656C224.665 183.136 224.179 183.509 223.582 183.776C222.985 184.032 222.377 184.16 221.758 184.16C221.214 184.16 220.729 184.048 220.302 183.824C219.875 183.589 219.539 183.28 219.294 182.896C219.059 182.501 218.942 182.069 218.942 181.6ZM224.526 182.24C224.771 181.952 224.894 181.685 224.894 181.44V180.224C224.158 179.936 223.39 179.792 222.59 179.792C221.811 179.792 221.182 179.947 220.702 180.256C220.222 180.565 219.982 180.987 219.982 181.52C219.982 181.979 220.158 182.395 220.51 182.768C220.873 183.141 221.374 183.328 222.014 183.328C222.537 183.328 223.022 183.227 223.47 183.024C223.929 182.821 224.281 182.56 224.526 182.24ZM228.317 184V175.664H229.405V179.248H234.173V175.664H235.261V184H234.173V180.224H229.405V184H228.317ZM237.037 184L239.517 180.592C238.941 180.517 238.482 180.272 238.141 179.856C237.8 179.44 237.629 178.875 237.629 178.16C237.629 177.691 237.741 177.269 237.965 176.896C238.189 176.512 238.504 176.208 238.909 175.984C239.325 175.76 239.81 175.648 240.365 175.648H243.549V184H242.461V180.768H240.605L238.253 184H237.037ZM240.349 179.936H242.461V176.512H240.541C239.986 176.512 239.544 176.672 239.213 176.992C238.882 177.301 238.717 177.696 238.717 178.176C238.717 178.667 238.85 179.083 239.117 179.424C239.394 179.765 239.805 179.936 240.349 179.936ZM249.542 184.16C248.742 184.16 248.028 183.963 247.398 183.568C246.769 183.173 246.273 182.645 245.91 181.984C245.548 181.323 245.366 180.597 245.366 179.808C245.366 179.029 245.542 178.315 245.894 177.664C246.257 177.013 246.753 176.496 247.382 176.112C248.012 175.717 248.726 175.52 249.526 175.52C250.348 175.52 251.068 175.717 251.686 176.112C252.305 176.507 252.785 177.029 253.126 177.68C253.478 178.32 253.654 179.024 253.654 179.792C253.654 179.963 253.649 180.107 253.638 180.224H246.502C246.556 180.821 246.726 181.355 247.014 181.824C247.302 182.283 247.67 182.651 248.118 182.928C248.566 183.195 249.057 183.328 249.59 183.328C250.134 183.328 250.646 183.189 251.126 182.912C251.606 182.635 251.948 182.272 252.15 181.824L253.094 182.08C252.924 182.485 252.657 182.848 252.294 183.168C251.942 183.477 251.532 183.723 251.062 183.904C250.593 184.075 250.086 184.16 249.542 184.16ZM246.47 179.44H252.63C252.588 178.843 252.422 178.315 252.134 177.856C251.846 177.387 251.478 177.024 251.03 176.768C250.582 176.501 250.086 176.368 249.542 176.368C248.998 176.368 248.502 176.501 248.054 176.768C247.606 177.024 247.238 177.387 246.95 177.856C246.673 178.315 246.513 178.843 246.47 179.44ZM257.413 184V176.64H254.437V175.664H261.477V176.64H258.501V184H257.413ZM266.574 184.16C265.763 184.16 265.043 183.963 264.414 183.568C263.784 183.163 263.288 182.635 262.926 181.984C262.563 181.323 262.382 180.597 262.382 179.808C262.382 179.019 262.558 178.304 262.91 177.664C263.262 177.013 263.752 176.496 264.382 176.112C265.011 175.717 265.736 175.52 266.558 175.52C267.336 175.52 268.019 175.701 268.606 176.064C269.203 176.416 269.651 176.896 269.95 177.504L268.894 177.84C268.659 177.413 268.328 177.083 267.902 176.848C267.486 176.603 267.022 176.48 266.51 176.48C265.944 176.48 265.432 176.624 264.974 176.912C264.526 177.2 264.163 177.6 263.886 178.112C263.619 178.613 263.486 179.179 263.486 179.808C263.486 180.437 263.624 181.008 263.902 181.52C264.179 182.032 264.547 182.443 265.006 182.752C265.464 183.051 265.971 183.2 266.526 183.2C266.888 183.2 267.24 183.136 267.582 183.008C267.923 182.88 268.216 182.709 268.462 182.496C268.707 182.272 268.872 182.032 268.958 181.776L270.03 182.096C269.88 182.491 269.635 182.848 269.294 183.168C268.952 183.477 268.547 183.723 268.078 183.904C267.608 184.075 267.107 184.16 266.574 184.16ZM271.053 184L273.533 180.592C272.957 180.517 272.498 180.272 272.157 179.856C271.815 179.44 271.645 178.875 271.645 178.16C271.645 177.691 271.757 177.269 271.981 176.896C272.205 176.512 272.519 176.208 272.925 175.984C273.341 175.76 273.826 175.648 274.381 175.648H277.565V184H276.477V180.768H274.621L272.269 184H271.053ZM274.365 179.936H276.477V176.512H274.557C274.002 176.512 273.559 176.672 273.229 176.992C272.898 177.301 272.733 177.696 272.733 178.176C272.733 178.667 272.866 179.083 273.133 179.424C273.41 179.765 273.821 179.936 274.365 179.936ZM283.108 185.936V183.024H283.252C283.572 183.024 283.86 182.885 284.116 182.608C284.372 182.331 284.58 181.829 284.74 181.104C284.911 180.368 285.012 179.328 285.044 177.984L285.124 175.664H290.548V183.024H291.668V185.936H290.692V184H284.068V185.936H283.108ZM284.9 183.024H289.46V176.64H286.1L286.052 178.08C285.999 179.573 285.876 180.704 285.684 181.472C285.492 182.229 285.231 182.747 284.9 183.024ZM296.869 184.16C296.069 184.16 295.355 183.963 294.725 183.568C294.107 183.173 293.621 182.651 293.269 182C292.917 181.339 292.741 180.624 292.741 179.856C292.741 179.077 292.917 178.363 293.269 177.712C293.632 177.051 294.123 176.523 294.741 176.128C295.371 175.723 296.08 175.52 296.869 175.52C297.669 175.52 298.379 175.723 298.997 176.128C299.627 176.523 300.117 177.051 300.469 177.712C300.832 178.363 301.013 179.077 301.013 179.856C301.013 180.624 300.837 181.339 300.485 182C300.133 182.651 299.643 183.173 299.013 183.568C298.395 183.963 297.68 184.16 296.869 184.16ZM293.845 179.872C293.845 180.491 293.979 181.056 294.245 181.568C294.523 182.069 294.891 182.469 295.349 182.768C295.808 183.056 296.315 183.2 296.869 183.2C297.424 183.2 297.931 183.051 298.389 182.752C298.848 182.453 299.216 182.048 299.493 181.536C299.771 181.024 299.909 180.459 299.909 179.84C299.909 179.221 299.771 178.656 299.493 178.144C299.216 177.632 298.848 177.227 298.389 176.928C297.931 176.629 297.424 176.48 296.869 176.48C296.325 176.48 295.824 176.635 295.365 176.944C294.907 177.243 294.539 177.648 294.261 178.16C293.984 178.672 293.845 179.243 293.845 179.872ZM306.415 184C306.415 183.52 306.474 183.035 306.591 182.544C306.719 182.043 306.97 181.563 307.343 181.104C307.727 180.635 308.303 180.203 309.071 179.808C309.38 179.648 309.7 179.493 310.031 179.344C310.362 179.184 310.671 179.013 310.959 178.832C311.247 178.64 311.482 178.427 311.663 178.192C311.844 177.947 311.935 177.659 311.935 177.328C311.935 177.061 311.855 176.805 311.695 176.56C311.535 176.304 311.3 176.096 310.991 175.936C310.682 175.765 310.292 175.68 309.823 175.68C309.375 175.68 308.975 175.76 308.623 175.92C308.282 176.08 307.994 176.267 307.759 176.48C307.535 176.683 307.364 176.848 307.247 176.976L306.559 176.224C306.623 176.16 306.746 176.048 306.927 175.888C307.108 175.717 307.343 175.541 307.631 175.36C307.93 175.179 308.276 175.024 308.671 174.896C309.066 174.768 309.508 174.704 309.999 174.704C310.65 174.704 311.204 174.821 311.663 175.056C312.132 175.291 312.49 175.6 312.735 175.984C312.98 176.357 313.103 176.768 313.103 177.216C313.103 177.653 313.007 178.032 312.815 178.352C312.634 178.661 312.394 178.933 312.095 179.168C311.807 179.392 311.503 179.589 311.183 179.76C310.874 179.92 310.591 180.059 310.335 180.176C309.663 180.496 309.135 180.816 308.751 181.136C308.367 181.445 308.084 181.755 307.903 182.064C307.732 182.373 307.615 182.688 307.551 183.008H313.279V184H306.415ZM320.551 183.008V184H315.127V183.008H317.399V176.16C317.281 176.32 317.068 176.501 316.759 176.704C316.449 176.907 316.113 177.083 315.751 177.232C315.388 177.371 315.068 177.44 314.791 177.44V176.384C315.036 176.384 315.303 176.315 315.591 176.176C315.889 176.037 316.167 175.877 316.423 175.696C316.689 175.504 316.913 175.328 317.095 175.168C317.276 175.008 317.377 174.907 317.399 174.864H318.519V183.008H320.551ZM321.938 177.28V175.712H322.866V177.28H321.938ZM321.938 184V182.432H322.866V184H321.938ZM332.826 179.312C332.826 180.251 332.65 181.088 332.298 181.824C331.946 182.549 331.466 183.12 330.858 183.536C330.261 183.952 329.578 184.16 328.81 184.16C328.042 184.16 327.354 183.952 326.746 183.536C326.138 183.12 325.658 182.549 325.306 181.824C324.965 181.088 324.794 180.251 324.794 179.312C324.794 178.373 324.965 177.541 325.306 176.816C325.658 176.08 326.138 175.504 326.746 175.088C327.354 174.661 328.042 174.448 328.81 174.448C329.578 174.448 330.261 174.661 330.858 175.088C331.466 175.504 331.946 176.08 332.298 176.816C332.65 177.541 332.826 178.373 332.826 179.312ZM331.722 179.312C331.722 178.555 331.599 177.888 331.354 177.312C331.109 176.725 330.767 176.272 330.33 175.952C329.893 175.632 329.386 175.472 328.81 175.472C328.234 175.472 327.727 175.632 327.29 175.952C326.853 176.272 326.506 176.725 326.25 177.312C326.005 177.888 325.882 178.555 325.882 179.312C325.882 180.069 326.005 180.736 326.25 181.312C326.506 181.888 326.853 182.336 327.29 182.656C327.727 182.976 328.234 183.136 328.81 183.136C329.386 183.136 329.893 182.976 330.33 182.656C330.767 182.336 331.109 181.888 331.354 181.312C331.599 180.736 331.722 180.069 331.722 179.312ZM342.623 179.312C342.623 180.251 342.447 181.088 342.095 181.824C341.743 182.549 341.263 183.12 340.655 183.536C340.058 183.952 339.375 184.16 338.607 184.16C337.839 184.16 337.151 183.952 336.543 183.536C335.935 183.12 335.455 182.549 335.103 181.824C334.762 181.088 334.591 180.251 334.591 179.312C334.591 178.373 334.762 177.541 335.103 176.816C335.455 176.08 335.935 175.504 336.543 175.088C337.151 174.661 337.839 174.448 338.607 174.448C339.375 174.448 340.058 174.661 340.655 175.088C341.263 175.504 341.743 176.08 342.095 176.816C342.447 177.541 342.623 178.373 342.623 179.312ZM341.519 179.312C341.519 178.555 341.396 177.888 341.151 177.312C340.906 176.725 340.564 176.272 340.127 175.952C339.69 175.632 339.183 175.472 338.607 175.472C338.031 175.472 337.524 175.632 337.087 175.952C336.65 176.272 336.303 176.725 336.047 177.312C335.802 177.888 335.679 178.555 335.679 179.312C335.679 180.069 335.802 180.736 336.047 181.312C336.303 181.888 336.65 182.336 337.087 182.656C337.524 182.976 338.031 183.136 338.607 183.136C339.183 183.136 339.69 182.976 340.127 182.656C340.564 182.336 340.906 181.888 341.151 181.312C341.396 180.736 341.519 180.069 341.519 179.312ZM348.77 184V175.664H352.93C353.399 175.664 353.794 175.765 354.114 175.968C354.434 176.16 354.674 176.416 354.834 176.736C355.005 177.045 355.09 177.371 355.09 177.712C355.09 178.16 354.978 178.565 354.754 178.928C354.541 179.28 354.237 179.547 353.842 179.728C354.322 179.856 354.711 180.107 355.01 180.48C355.309 180.853 355.458 181.291 355.458 181.792C355.458 182.464 355.218 183.003 354.738 183.408C354.269 183.803 353.666 184 352.93 184H348.77ZM349.81 179.424H352.642C353.058 179.424 353.394 179.269 353.65 178.96C353.917 178.64 354.05 178.283 354.05 177.888C354.05 177.504 353.922 177.168 353.666 176.88C353.421 176.592 353.101 176.448 352.706 176.448H349.81V179.424ZM349.81 183.216H352.898C353.325 183.216 353.682 183.061 353.97 182.752C354.258 182.432 354.402 182.08 354.402 181.696C354.402 181.28 354.263 180.923 353.986 180.624C353.709 180.325 353.367 180.176 352.962 180.176H349.81V183.216ZM360.9 184.16C360.1 184.16 359.386 183.963 358.756 183.568C358.138 183.173 357.652 182.651 357.3 182C356.948 181.339 356.772 180.624 356.772 179.856C356.772 179.077 356.948 178.363 357.3 177.712C357.663 177.051 358.154 176.523 358.772 176.128C359.402 175.723 360.111 175.52 360.9 175.52C361.7 175.52 362.41 175.723 363.028 176.128C363.658 176.523 364.148 177.051 364.5 177.712C364.863 178.363 365.044 179.077 365.044 179.856C365.044 180.624 364.868 181.339 364.516 182C364.164 182.651 363.674 183.173 363.044 183.568C362.426 183.963 361.711 184.16 360.9 184.16ZM357.876 179.872C357.876 180.491 358.01 181.056 358.276 181.568C358.554 182.069 358.922 182.469 359.38 182.768C359.839 183.056 360.346 183.2 360.9 183.2C361.455 183.2 361.962 183.051 362.42 182.752C362.879 182.453 363.247 182.048 363.524 181.536C363.802 181.024 363.94 180.459 363.94 179.84C363.94 179.221 363.802 178.656 363.524 178.144C363.247 177.632 362.879 177.227 362.42 176.928C361.962 176.629 361.455 176.48 360.9 176.48C360.356 176.48 359.855 176.635 359.396 176.944C358.938 177.243 358.57 177.648 358.292 178.16C358.015 178.672 357.876 179.243 357.876 179.872ZM370.48 184.16C369.669 184.16 368.949 183.963 368.32 183.568C367.691 183.163 367.195 182.635 366.832 181.984C366.469 181.323 366.288 180.597 366.288 179.808C366.288 179.019 366.464 178.304 366.816 177.664C367.168 177.013 367.659 176.496 368.288 176.112C368.917 175.717 369.643 175.52 370.464 175.52C371.243 175.52 371.925 175.701 372.512 176.064C373.109 176.416 373.557 176.896 373.856 177.504L372.8 177.84C372.565 177.413 372.235 177.083 371.808 176.848C371.392 176.603 370.928 176.48 370.416 176.48C369.851 176.48 369.339 176.624 368.88 176.912C368.432 177.2 368.069 177.6 367.792 178.112C367.525 178.613 367.392 179.179 367.392 179.808C367.392 180.437 367.531 181.008 367.808 181.52C368.085 182.032 368.453 182.443 368.912 182.752C369.371 183.051 369.877 183.2 370.432 183.2C370.795 183.2 371.147 183.136 371.488 183.008C371.829 182.88 372.123 182.709 372.368 182.496C372.613 182.272 372.779 182.032 372.864 181.776L373.936 182.096C373.787 182.491 373.541 182.848 373.2 183.168C372.859 183.477 372.453 183.723 371.984 183.904C371.515 184.075 371.013 184.16 370.48 184.16ZM375.629 184V175.664H376.717V179.232H377.965L380.765 175.664H382.013L378.829 179.712L382.413 184H381.133L377.965 180.24H376.717V184H375.629ZM388.214 184.16C387.52 184.16 386.896 183.979 386.342 183.616C385.798 183.253 385.366 182.805 385.046 182.272V187.408H383.958V175.664H384.934V177.28C385.264 176.757 385.702 176.336 386.246 176.016C386.8 175.685 387.398 175.52 388.038 175.52C388.614 175.52 389.142 175.643 389.622 175.888C390.102 176.123 390.518 176.443 390.87 176.848C391.232 177.253 391.51 177.717 391.702 178.24C391.894 178.752 391.99 179.285 391.99 179.84C391.99 180.619 391.83 181.339 391.51 182C391.2 182.651 390.758 183.173 390.182 183.568C389.616 183.963 388.96 184.16 388.214 184.16ZM387.91 183.2C388.518 183.2 389.04 183.04 389.478 182.72C389.926 182.389 390.272 181.968 390.518 181.456C390.763 180.944 390.886 180.405 390.886 179.84C390.886 179.243 390.747 178.688 390.47 178.176C390.192 177.664 389.819 177.253 389.35 176.944C388.891 176.635 388.368 176.48 387.782 176.48C387.419 176.48 387.035 176.576 386.63 176.768C386.235 176.949 385.883 177.2 385.574 177.52C385.275 177.829 385.099 178.171 385.046 178.544V181.104C385.291 181.691 385.675 182.187 386.198 182.592C386.72 182.997 387.291 183.2 387.91 183.2ZM397.433 184.16C396.633 184.16 395.918 183.963 395.289 183.568C394.659 183.173 394.163 182.645 393.801 181.984C393.438 181.323 393.257 180.597 393.257 179.808C393.257 179.029 393.433 178.315 393.785 177.664C394.147 177.013 394.643 176.496 395.273 176.112C395.902 175.717 396.617 175.52 397.417 175.52C398.238 175.52 398.958 175.717 399.577 176.112C400.195 176.507 400.675 177.029 401.017 177.68C401.369 178.32 401.545 179.024 401.545 179.792C401.545 179.963 401.539 180.107 401.529 180.224H394.393C394.446 180.821 394.617 181.355 394.905 181.824C395.193 182.283 395.561 182.651 396.009 182.928C396.457 183.195 396.947 183.328 397.481 183.328C398.025 183.328 398.537 183.189 399.017 182.912C399.497 182.635 399.838 182.272 400.041 181.824L400.985 182.08C400.814 182.485 400.547 182.848 400.185 183.168C399.833 183.477 399.422 183.723 398.953 183.904C398.483 184.075 397.977 184.16 397.433 184.16ZM394.361 179.44H400.521C400.478 178.843 400.313 178.315 400.025 177.856C399.737 177.387 399.369 177.024 398.921 176.768C398.473 176.501 397.977 176.368 397.433 176.368C396.889 176.368 396.393 176.501 395.945 176.768C395.497 177.024 395.129 177.387 394.841 177.856C394.563 178.315 394.403 178.843 394.361 179.44ZM406.839 184.16C406.029 184.16 405.309 183.963 404.679 183.568C404.05 183.163 403.554 182.635 403.191 181.984C402.829 181.323 402.647 180.597 402.647 179.808C402.647 179.019 402.823 178.304 403.175 177.664C403.527 177.013 404.018 176.496 404.647 176.112C405.277 175.717 406.002 175.52 406.823 175.52C407.602 175.52 408.285 175.701 408.871 176.064C409.469 176.416 409.917 176.896 410.215 177.504L409.159 177.84C408.925 177.413 408.594 177.083 408.167 176.848C407.751 176.603 407.287 176.48 406.775 176.48C406.21 176.48 405.698 176.624 405.239 176.912C404.791 177.2 404.429 177.6 404.151 178.112C403.885 178.613 403.751 179.179 403.751 179.808C403.751 180.437 403.89 181.008 404.167 181.52C404.445 182.032 404.813 182.443 405.271 182.752C405.73 183.051 406.237 183.2 406.791 183.2C407.154 183.2 407.506 183.136 407.847 183.008C408.189 182.88 408.482 182.709 408.727 182.496C408.973 182.272 409.138 182.032 409.223 181.776L410.295 182.096C410.146 182.491 409.901 182.848 409.559 183.168C409.218 183.477 408.813 183.723 408.343 183.904C407.874 184.075 407.373 184.16 406.839 184.16ZM415.527 184.16C414.727 184.16 414.012 183.963 413.383 183.568C412.753 183.173 412.257 182.645 411.895 181.984C411.532 181.323 411.351 180.597 411.351 179.808C411.351 179.029 411.527 178.315 411.879 177.664C412.241 177.013 412.737 176.496 413.367 176.112C413.996 175.717 414.711 175.52 415.511 175.52C416.332 175.52 417.052 175.717 417.671 176.112C418.289 176.507 418.769 177.029 419.111 177.68C419.463 178.32 419.639 179.024 419.639 179.792C419.639 179.963 419.633 180.107 419.623 180.224H412.487C412.54 180.821 412.711 181.355 412.999 181.824C413.287 182.283 413.655 182.651 414.103 182.928C414.551 183.195 415.041 183.328 415.575 183.328C416.119 183.328 416.631 183.189 417.111 182.912C417.591 182.635 417.932 182.272 418.135 181.824L419.079 182.08C418.908 182.485 418.641 182.848 418.279 183.168C417.927 183.477 417.516 183.723 417.047 183.904C416.577 184.075 416.071 184.16 415.527 184.16ZM412.455 179.44H418.615C418.572 178.843 418.407 178.315 418.119 177.856C417.831 177.387 417.463 177.024 417.015 176.768C416.567 176.501 416.071 176.368 415.527 176.368C414.983 176.368 414.487 176.501 414.039 176.768C413.591 177.024 413.223 177.387 412.935 177.856C412.657 178.315 412.497 178.843 412.455 179.44ZM421.301 184V175.664H422.389V179.248H427.157V175.664H428.245V184H427.157V180.224H422.389V184H421.301ZM430.629 184V175.664H431.717V178.608H433.877C434.827 178.608 435.541 178.853 436.021 179.344C436.512 179.824 436.757 180.459 436.757 181.248C436.757 181.76 436.651 182.224 436.437 182.64C436.224 183.056 435.909 183.387 435.493 183.632C435.077 183.877 434.565 184 433.957 184H430.629ZM431.717 183.136H433.813C434.464 183.136 434.933 182.949 435.221 182.576C435.509 182.192 435.653 181.755 435.653 181.264C435.653 180.944 435.595 180.651 435.477 180.384C435.371 180.107 435.179 179.888 434.901 179.728C434.635 179.557 434.261 179.472 433.781 179.472H431.717V183.136ZM437.834 184L440.314 180.592C439.738 180.517 439.279 180.272 438.938 179.856C438.596 179.44 438.426 178.875 438.426 178.16C438.426 177.691 438.538 177.269 438.762 176.896C438.986 176.512 439.3 176.208 439.706 175.984C440.122 175.76 440.607 175.648 441.162 175.648H444.346V184H443.258V180.768H441.402L439.05 184H437.834ZM441.146 179.936H443.258V176.512H441.338C440.783 176.512 440.34 176.672 440.01 176.992C439.679 177.301 439.514 177.696 439.514 178.176C439.514 178.667 439.647 179.083 439.914 179.424C440.191 179.765 440.602 179.936 441.146 179.936ZM446.579 184V182.432H447.523V184H446.579Z" fill="black"/>
<path d="M152.204 106.822V109H144.896V106.822H147.452V101.368C147.308 101.548 147.062 101.74 146.714 101.944C146.378 102.148 146.006 102.322 145.598 102.466C145.202 102.61 144.848 102.682 144.536 102.682V100.432C144.752 100.432 145.01 100.366 145.31 100.234C145.622 100.09 145.928 99.922 146.228 99.73C146.54 99.538 146.804 99.352 147.02 99.172C147.248 98.98 147.392 98.83 147.452 98.722H149.918V106.822H152.204ZM162.809 103.726C162.809 104.782 162.605 105.724 162.197 106.552C161.801 107.368 161.249 108.01 160.541 108.478C159.845 108.946 159.053 109.18 158.165 109.18C157.277 109.18 156.479 108.946 155.771 108.478C155.075 108.01 154.523 107.368 154.115 106.552C153.719 105.724 153.521 104.782 153.521 103.726C153.521 102.67 153.719 101.734 154.115 100.918C154.523 100.09 155.075 99.442 155.771 98.974C156.479 98.494 157.277 98.254 158.165 98.254C159.053 98.254 159.845 98.494 160.541 98.974C161.249 99.442 161.801 100.09 162.197 100.918C162.605 101.734 162.809 102.67 162.809 103.726ZM160.379 103.726C160.379 102.766 160.169 101.986 159.749 101.386C159.341 100.774 158.813 100.468 158.165 100.468C157.493 100.468 156.953 100.774 156.545 101.386C156.137 101.986 155.933 102.766 155.933 103.726C155.933 104.686 156.137 105.466 156.545 106.066C156.953 106.666 157.493 106.966 158.165 106.966C158.813 106.966 159.341 106.666 159.749 106.066C160.169 105.466 160.379 104.686 160.379 103.726ZM164.937 102.268V99.676H166.899V102.268H164.937ZM164.937 109V106.408H166.899V109H164.937ZM178.313 103.726C178.313 104.782 178.109 105.724 177.701 106.552C177.305 107.368 176.753 108.01 176.045 108.478C175.349 108.946 174.557 109.18 173.669 109.18C172.781 109.18 171.983 108.946 171.275 108.478C170.579 108.01 170.027 107.368 169.619 106.552C169.223 105.724 169.025 104.782 169.025 103.726C169.025 102.67 169.223 101.734 169.619 100.918C170.027 100.09 170.579 99.442 171.275 98.974C171.983 98.494 172.781 98.254 173.669 98.254C174.557 98.254 175.349 98.494 176.045 98.974C176.753 99.442 177.305 100.09 177.701 100.918C178.109 101.734 178.313 102.67 178.313 103.726ZM175.883 103.726C175.883 102.766 175.673 101.986 175.253 101.386C174.845 100.774 174.317 100.468 173.669 100.468C172.997 100.468 172.457 100.774 172.049 101.386C171.641 101.986 171.437 102.766 171.437 103.726C171.437 104.686 171.641 105.466 172.049 106.066C172.457 106.666 172.997 106.966 173.669 106.966C174.317 106.966 174.845 106.666 175.253 106.066C175.673 105.466 175.883 104.686 175.883 103.726ZM189.369 103.726C189.369 104.782 189.165 105.724 188.757 106.552C188.361 107.368 187.809 108.01 187.101 108.478C186.405 108.946 185.613 109.18 184.725 109.18C183.837 109.18 183.039 108.946 182.331 108.478C181.635 108.01 181.083 107.368 180.675 106.552C180.279 105.724 180.081 104.782 180.081 103.726C180.081 102.67 180.279 101.734 180.675 100.918C181.083 100.09 181.635 99.442 182.331 98.974C183.039 98.494 183.837 98.254 184.725 98.254C185.613 98.254 186.405 98.494 187.101 98.974C187.809 99.442 188.361 100.09 188.757 100.918C189.165 101.734 189.369 102.67 189.369 103.726ZM186.939 103.726C186.939 102.766 186.729 101.986 186.309 101.386C185.901 100.774 185.373 100.468 184.725 100.468C184.053 100.468 183.513 100.774 183.105 101.386C182.697 101.986 182.493 102.766 182.493 103.726C182.493 104.686 182.697 105.466 183.105 106.066C183.513 106.666 184.053 106.966 184.725 106.966C185.373 106.966 185.901 106.666 186.309 106.066C186.729 105.466 186.939 104.686 186.939 103.726ZM160.157 133V122.596L155.531 130.678H154.739L150.095 122.596V133H148.835V120.22H150.131L155.117 128.968L160.139 120.22H161.417V133H160.157ZM163.775 126.52C163.775 125.752 163.907 124.99 164.171 124.234C164.447 123.478 164.843 122.794 165.359 122.182C165.875 121.558 166.511 121.066 167.267 120.706C168.023 120.334 168.881 120.148 169.841 120.148C170.969 120.148 171.941 120.412 172.757 120.94C173.573 121.456 174.173 122.122 174.557 122.938L173.567 123.55C173.291 122.986 172.943 122.542 172.523 122.218C172.103 121.882 171.653 121.642 171.173 121.498C170.705 121.354 170.237 121.282 169.769 121.282C169.001 121.282 168.323 121.438 167.735 121.75C167.147 122.05 166.649 122.458 166.241 122.974C165.845 123.49 165.545 124.06 165.341 124.684C165.137 125.308 165.035 125.944 165.035 126.592C165.035 127.3 165.155 127.978 165.395 128.626C165.635 129.262 165.971 129.832 166.403 130.336C166.835 130.84 167.339 131.242 167.915 131.542C168.503 131.83 169.139 131.974 169.823 131.974C170.303 131.974 170.795 131.89 171.299 131.722C171.803 131.554 172.271 131.296 172.703 130.948C173.135 130.6 173.489 130.15 173.765 129.598L174.809 130.138C174.533 130.774 174.119 131.314 173.567 131.758C173.027 132.202 172.415 132.538 171.731 132.766C171.059 132.994 170.399 133.108 169.751 133.108C168.875 133.108 168.071 132.922 167.339 132.55C166.607 132.166 165.971 131.662 165.431 131.038C164.903 130.402 164.495 129.694 164.207 128.914C163.919 128.122 163.775 127.324 163.775 126.52ZM176.96 133V120.22H178.22V125.908H180.146L184.538 120.22H185.996L181.19 126.412L186.302 133H184.754L180.182 127.06H178.22V133H176.96Z" fill="black"/>
<path d="M216.433 106.822V109H209.125V106.822H211.681V101.368C211.537 101.548 211.291 101.74 210.943 101.944C210.607 102.148 210.235 102.322 209.827 102.466C209.431 102.61 209.077 102.682 208.765 102.682V100.432C208.981 100.432 209.239 100.366 209.539 100.234C209.851 100.09 210.157 99.922 210.457 99.73C210.769 99.538 211.033 99.352 211.249 99.172C211.477 98.98 211.621 98.83 211.681 98.722H214.147V106.822H216.433ZM217.443 103.168C217.443 102.34 217.647 101.59 218.055 100.918C218.463 100.246 219.021 99.712 219.729 99.316C220.437 98.92 221.229 98.722 222.105 98.722C223.077 98.722 223.911 98.956 224.607 99.424C225.315 99.892 225.861 100.564 226.245 101.44C226.629 102.316 226.821 103.366 226.821 104.59C226.821 106.918 226.371 108.694 225.471 109.918C224.583 111.154 223.383 111.772 221.871 111.772C221.067 111.772 220.323 111.598 219.639 111.25C218.955 110.902 218.379 110.404 217.911 109.756L219.297 108.244C219.585 108.688 219.957 109.036 220.413 109.288C220.881 109.552 221.379 109.684 221.907 109.684C222.711 109.684 223.353 109.366 223.833 108.73C224.313 108.082 224.559 107.182 224.571 106.03C224.331 106.462 223.971 106.804 223.491 107.056C223.023 107.308 222.489 107.434 221.889 107.434C221.049 107.434 220.293 107.248 219.621 106.876C218.949 106.492 218.415 105.982 218.019 105.346C217.635 104.698 217.443 103.972 217.443 103.168ZM222.105 100.756C221.673 100.756 221.277 100.87 220.917 101.098C220.569 101.314 220.287 101.608 220.071 101.98C219.855 102.34 219.747 102.736 219.747 103.168C219.747 103.6 219.849 103.996 220.053 104.356C220.269 104.704 220.557 104.986 220.917 105.202C221.277 105.406 221.673 105.508 222.105 105.508C222.537 105.508 222.927 105.406 223.275 105.202C223.635 104.986 223.923 104.704 224.139 104.356C224.355 103.996 224.463 103.6 224.463 103.168C224.463 102.736 224.355 102.34 224.139 101.98C223.923 101.608 223.635 101.314 223.275 101.098C222.915 100.87 222.525 100.756 222.105 100.756ZM228.709 102.268V99.676H230.671V102.268H228.709ZM228.709 109V106.408H230.671V109H228.709ZM242.084 103.726C242.084 104.782 241.88 105.724 241.472 106.552C241.076 107.368 240.524 108.01 239.816 108.478C239.12 108.946 238.328 109.18 237.44 109.18C236.552 109.18 235.754 108.946 235.046 108.478C234.35 108.01 233.798 107.368 233.39 106.552C232.994 105.724 232.796 104.782 232.796 103.726C232.796 102.67 232.994 101.734 233.39 100.918C233.798 100.09 234.35 99.442 235.046 98.974C235.754 98.494 236.552 98.254 237.44 98.254C238.328 98.254 239.12 98.494 239.816 98.974C240.524 99.442 241.076 100.09 241.472 100.918C241.88 101.734 242.084 102.67 242.084 103.726ZM239.654 103.726C239.654 102.766 239.444 101.986 239.024 101.386C238.616 100.774 238.088 100.468 237.44 100.468C236.768 100.468 236.228 100.774 235.82 101.386C235.412 101.986 235.208 102.766 235.208 103.726C235.208 104.686 235.412 105.466 235.82 106.066C236.228 106.666 236.768 106.966 237.44 106.966C238.088 106.966 238.616 106.666 239.024 106.066C239.444 105.466 239.654 104.686 239.654 103.726ZM253.141 103.726C253.141 104.782 252.937 105.724 252.529 106.552C252.133 107.368 251.581 108.01 250.873 108.478C250.177 108.946 249.385 109.18 248.497 109.18C247.609 109.18 246.811 108.946 246.103 108.478C245.407 108.01 244.855 107.368 244.447 106.552C244.051 105.724 243.853 104.782 243.853 103.726C243.853 102.67 244.051 101.734 244.447 100.918C244.855 100.09 245.407 99.442 246.103 98.974C246.811 98.494 247.609 98.254 248.497 98.254C249.385 98.254 250.177 98.494 250.873 98.974C251.581 99.442 252.133 100.09 252.529 100.918C252.937 101.734 253.141 102.67 253.141 103.726ZM250.711 103.726C250.711 102.766 250.501 101.986 250.081 101.386C249.673 100.774 249.145 100.468 248.497 100.468C247.825 100.468 247.285 100.774 246.877 101.386C246.469 101.986 246.265 102.766 246.265 103.726C246.265 104.686 246.469 105.466 246.877 106.066C247.285 106.666 247.825 106.966 248.497 106.966C249.145 106.966 249.673 106.666 250.081 106.066C250.501 105.466 250.711 104.686 250.711 103.726ZM224.157 133V122.596L219.531 130.678H218.739L214.095 122.596V133H212.835V120.22H214.131L219.117 128.968L224.139 120.22H225.417V133H224.157ZM227.775 126.52C227.775 125.752 227.907 124.99 228.171 124.234C228.447 123.478 228.843 122.794 229.359 122.182C229.875 121.558 230.511 121.066 231.267 120.706C232.023 120.334 232.881 120.148 233.841 120.148C234.969 120.148 235.941 120.412 236.757 120.94C237.573 121.456 238.173 122.122 238.557 122.938L237.567 123.55C237.291 122.986 236.943 122.542 236.523 122.218C236.103 121.882 235.653 121.642 235.173 121.498C234.705 121.354 234.237 121.282 233.769 121.282C233.001 121.282 232.323 121.438 231.735 121.75C231.147 122.05 230.649 122.458 230.241 122.974C229.845 123.49 229.545 124.06 229.341 124.684C229.137 125.308 229.035 125.944 229.035 126.592C229.035 127.3 229.155 127.978 229.395 128.626C229.635 129.262 229.971 129.832 230.403 130.336C230.835 130.84 231.339 131.242 231.915 131.542C232.503 131.83 233.139 131.974 233.823 131.974C234.303 131.974 234.795 131.89 235.299 131.722C235.803 131.554 236.271 131.296 236.703 130.948C237.135 130.6 237.489 130.15 237.765 129.598L238.809 130.138C238.533 130.774 238.119 131.314 237.567 131.758C237.027 132.202 236.415 132.538 235.731 132.766C235.059 132.994 234.399 133.108 233.751 133.108C232.875 133.108 232.071 132.922 231.339 132.55C230.607 132.166 229.971 131.662 229.431 131.038C228.903 130.402 228.495 129.694 228.207 128.914C227.919 128.122 227.775 127.324 227.775 126.52ZM240.96 133V120.22H242.22V125.908H244.146L248.538 120.22H249.996L245.19 126.412L250.302 133H248.754L244.182 127.06H242.22V133H240.96Z" fill="black"/>
<path d="M26.2041 106.822V109H18.8961V106.822H21.4521V101.368C21.3081 101.548 21.0621 101.74 20.7141 101.944C20.3781 102.148 20.0061 102.322 19.5981 102.466C19.2021 102.61 18.8481 102.682 18.5361 102.682V100.432C18.7521 100.432 19.0101 100.366 19.3101 100.234C19.6221 100.09 19.9281 99.922 20.2281 99.73C20.5401 99.538 20.8041 99.352 21.0201 99.172C21.2481 98.98 21.3921 98.83 21.4521 98.722H23.9181V106.822H26.2041ZM36.8087 103.726C36.8087 104.782 36.6047 105.724 36.1967 106.552C35.8007 107.368 35.2487 108.01 34.5407 108.478C33.8447 108.946 33.0527 109.18 32.1647 109.18C31.2767 109.18 30.4787 108.946 29.7707 108.478C29.0747 108.01 28.5227 107.368 28.1147 106.552C27.7187 105.724 27.5207 104.782 27.5207 103.726C27.5207 102.67 27.7187 101.734 28.1147 100.918C28.5227 100.09 29.0747 99.442 29.7707 98.974C30.4787 98.494 31.2767 98.254 32.1647 98.254C33.0527 98.254 33.8447 98.494 34.5407 98.974C35.2487 99.442 35.8007 100.09 36.1967 100.918C36.6047 101.734 36.8087 102.67 36.8087 103.726ZM34.3787 103.726C34.3787 102.766 34.1687 101.986 33.7487 101.386C33.3407 100.774 32.8127 100.468 32.1647 100.468C31.4927 100.468 30.9527 100.774 30.5447 101.386C30.1367 101.986 29.9327 102.766 29.9327 103.726C29.9327 104.686 30.1367 105.466 30.5447 106.066C30.9527 106.666 31.4927 106.966 32.1647 106.966C32.8127 106.966 33.3407 106.666 33.7487 106.066C34.1687 105.466 34.3787 104.686 34.3787 103.726ZM38.9373 102.268V99.676H40.8993V102.268H38.9373ZM38.9373 109V106.408H40.8993V109H38.9373ZM52.3126 103.726C52.3126 104.782 52.1086 105.724 51.7006 106.552C51.3046 107.368 50.7526 108.01 50.0446 108.478C49.3486 108.946 48.5566 109.18 47.6686 109.18C46.7806 109.18 45.9826 108.946 45.2746 108.478C44.5786 108.01 44.0266 107.368 43.6186 106.552C43.2226 105.724 43.0246 104.782 43.0246 103.726C43.0246 102.67 43.2226 101.734 43.6186 100.918C44.0266 100.09 44.5786 99.442 45.2746 98.974C45.9826 98.494 46.7806 98.254 47.6686 98.254C48.5566 98.254 49.3486 98.494 50.0446 98.974C50.7526 99.442 51.3046 100.09 51.7006 100.918C52.1086 101.734 52.3126 102.67 52.3126 103.726ZM49.8826 103.726C49.8826 102.766 49.6726 101.986 49.2526 101.386C48.8446 100.774 48.3166 100.468 47.6686 100.468C46.9966 100.468 46.4566 100.774 46.0486 101.386C45.6406 101.986 45.4366 102.766 45.4366 103.726C45.4366 104.686 45.6406 105.466 46.0486 106.066C46.4566 106.666 46.9966 106.966 47.6686 106.966C48.3166 106.966 48.8446 106.666 49.2526 106.066C49.6726 105.466 49.8826 104.686 49.8826 103.726ZM63.3692 103.726C63.3692 104.782 63.1652 105.724 62.7572 106.552C62.3612 107.368 61.8092 108.01 61.1012 108.478C60.4052 108.946 59.6132 109.18 58.7252 109.18C57.8372 109.18 57.0392 108.946 56.3312 108.478C55.6352 108.01 55.0832 107.368 54.6752 106.552C54.2792 105.724 54.0812 104.782 54.0812 103.726C54.0812 102.67 54.2792 101.734 54.6752 100.918C55.0832 100.09 55.6352 99.442 56.3312 98.974C57.0392 98.494 57.8372 98.254 58.7252 98.254C59.6132 98.254 60.4052 98.494 61.1012 98.974C61.8092 99.442 62.3612 100.09 62.7572 100.918C63.1652 101.734 63.3692 102.67 63.3692 103.726ZM60.9392 103.726C60.9392 102.766 60.7292 101.986 60.3092 101.386C59.9012 100.774 59.3732 100.468 58.7252 100.468C58.0532 100.468 57.5132 100.774 57.1052 101.386C56.6972 101.986 56.4932 102.766 56.4932 103.726C56.4932 104.686 56.6972 105.466 57.1052 106.066C57.5132 106.666 58.0532 106.966 58.7252 106.966C59.3732 106.966 59.9012 106.666 60.3092 106.066C60.7292 105.466 60.9392 104.686 60.9392 103.726ZM34.1574 133V122.596L29.5314 130.678H28.7394L24.0954 122.596V133H22.8354V120.22H24.1314L29.1174 128.968L34.1394 120.22H35.4174V133H34.1574ZM37.7746 126.52C37.7746 125.752 37.9066 124.99 38.1706 124.234C38.4466 123.478 38.8426 122.794 39.3586 122.182C39.8746 121.558 40.5106 121.066 41.2666 120.706C42.0226 120.334 42.8806 120.148 43.8406 120.148C44.9686 120.148 45.9406 120.412 46.7566 120.94C47.5726 121.456 48.1726 122.122 48.5566 122.938L47.5666 123.55C47.2906 122.986 46.9426 122.542 46.5226 122.218C46.1026 121.882 45.6526 121.642 45.1726 121.498C44.7046 121.354 44.2366 121.282 43.7686 121.282C43.0006 121.282 42.3226 121.438 41.7346 121.75C41.1466 122.05 40.6486 122.458 40.2406 122.974C39.8446 123.49 39.5446 124.06 39.3406 124.684C39.1366 125.308 39.0346 125.944 39.0346 126.592C39.0346 127.3 39.1546 127.978 39.3946 128.626C39.6346 129.262 39.9706 129.832 40.4026 130.336C40.8346 130.84 41.3386 131.242 41.9146 131.542C42.5026 131.83 43.1386 131.974 43.8226 131.974C44.3026 131.974 44.7946 131.89 45.2986 131.722C45.8026 131.554 46.2706 131.296 46.7026 130.948C47.1346 130.6 47.4886 130.15 47.7646 129.598L48.8086 130.138C48.5326 130.774 48.1186 131.314 47.5666 131.758C47.0266 132.202 46.4146 132.538 45.7306 132.766C45.0586 132.994 44.3986 133.108 43.7506 133.108C42.8746 133.108 42.0706 132.922 41.3386 132.55C40.6066 132.166 39.9706 131.662 39.4306 131.038C38.9026 130.402 38.4946 129.694 38.2066 128.914C37.9186 128.122 37.7746 127.324 37.7746 126.52ZM50.9604 133V120.22H52.2204V125.908H54.1464L58.5384 120.22H59.9964L55.1904 126.412L60.3024 133H58.7544L54.1824 127.06H52.2204V133H50.9604Z" fill="black"/>
<path d="M162.924 51.18C162.012 51.18 161.202 50.958 160.494 50.514C159.786 50.058 159.228 49.464 158.82 48.732C158.412 47.988 158.208 47.172 158.208 46.284C158.208 45.396 158.406 44.592 158.802 43.872C159.198 43.14 159.75 42.558 160.458 42.126C161.166 41.682 161.982 41.46 162.906 41.46C163.782 41.46 164.55 41.664 165.21 42.072C165.882 42.468 166.386 43.008 166.722 43.692L165.534 44.07C165.27 43.59 164.898 43.218 164.418 42.954C163.95 42.678 163.428 42.54 162.852 42.54C162.216 42.54 161.64 42.702 161.124 43.026C160.62 43.35 160.212 43.8 159.9 44.376C159.6 44.94 159.45 45.576 159.45 46.284C159.45 46.992 159.606 47.634 159.918 48.21C160.23 48.786 160.644 49.248 161.16 49.596C161.676 49.932 162.246 50.1 162.87 50.1C163.278 50.1 163.674 50.028 164.058 49.884C164.442 49.74 164.772 49.548 165.048 49.308C165.324 49.056 165.51 48.786 165.606 48.498L166.812 48.858C166.644 49.302 166.368 49.704 165.984 50.064C165.6 50.412 165.144 50.688 164.616 50.892C164.088 51.084 163.524 51.18 162.924 51.18ZM173.523 51.18C172.743 51.18 172.041 50.976 171.417 50.568C170.805 50.16 170.319 49.656 169.959 49.056V54.834H168.735V41.622H169.833V43.44C170.205 42.852 170.697 42.378 171.309 42.018C171.933 41.646 172.605 41.46 173.325 41.46C173.973 41.46 174.567 41.598 175.107 41.874C175.647 42.138 176.115 42.498 176.511 42.954C176.919 43.41 177.231 43.932 177.447 44.52C177.663 45.096 177.771 45.696 177.771 46.32C177.771 47.196 177.591 48.006 177.231 48.75C176.883 49.482 176.385 50.07 175.737 50.514C175.101 50.958 174.363 51.18 173.523 51.18ZM173.181 50.1C173.865 50.1 174.453 49.92 174.945 49.56C175.449 49.188 175.839 48.714 176.115 48.138C176.391 47.562 176.529 46.956 176.529 46.32C176.529 45.648 176.373 45.024 176.061 44.448C175.749 43.872 175.329 43.41 174.801 43.062C174.285 42.714 173.697 42.54 173.037 42.54C172.629 42.54 172.197 42.648 171.741 42.864C171.297 43.068 170.901 43.35 170.553 43.71C170.217 44.058 170.019 44.442 169.959 44.862V47.742C170.235 48.402 170.667 48.96 171.255 49.416C171.843 49.872 172.485 50.1 173.181 50.1Z" fill="black"/>
<path d="M96.2353 51V41.622H100.915C101.443 41.622 101.887 41.736 102.247 41.964C102.607 42.18 102.877 42.468 103.057 42.828C103.249 43.176 103.345 43.542 103.345 43.926C103.345 44.43 103.219 44.886 102.967 45.294C102.727 45.69 102.385 45.99 101.941 46.194C102.481 46.338 102.919 46.62 103.255 47.04C103.591 47.46 103.759 47.952 103.759 48.516C103.759 49.272 103.489 49.878 102.949 50.334C102.421 50.778 101.743 51 100.915 51H96.2353ZM97.4053 45.852H100.591C101.059 45.852 101.437 45.678 101.725 45.33C102.025 44.97 102.175 44.568 102.175 44.124C102.175 43.692 102.031 43.314 101.743 42.99C101.467 42.666 101.107 42.504 100.663 42.504H97.4053V45.852ZM97.4053 50.118H100.879C101.359 50.118 101.761 49.944 102.085 49.596C102.409 49.236 102.571 48.84 102.571 48.408C102.571 47.94 102.415 47.538 102.103 47.202C101.791 46.866 101.407 46.698 100.951 46.698H97.4053V50.118ZM108.209 51V42.72H104.861V41.622H112.781V42.72H109.433V51H108.209Z" fill="black"/>
<g filter="url(#filter0_d)">
<circle cx="104" cy="74" r="11" fill="#B0E3FF"/>
</g>
<g filter="url(#filter1_d)">
<circle cx="168" cy="74" r="11" fill="#B0E3FF"/>
</g>
<path d="M228.784 51V47.076C228.028 47.436 227.176 47.616 226.228 47.616C224.152 47.616 223.114 46.542 223.114 44.394V41.622H224.338V44.232C224.338 45.072 224.506 45.684 224.842 46.068C225.19 46.452 225.742 46.644 226.498 46.644C226.93 46.644 227.35 46.596 227.758 46.5C228.178 46.404 228.52 46.278 228.784 46.122V41.622H230.008V51H228.784ZM235.042 51V42.72H231.694V41.622H239.614V42.72H236.266V51H235.042Z" fill="black"/>
<path d="M355.003 51.18C354.091 51.18 353.281 50.958 352.573 50.514C351.865 50.058 351.307 49.464 350.899 48.732C350.491 47.988 350.287 47.172 350.287 46.284C350.287 45.396 350.485 44.592 350.881 43.872C351.277 43.14 351.829 42.558 352.537 42.126C353.245 41.682 354.061 41.46 354.985 41.46C355.861 41.46 356.629 41.664 357.289 42.072C357.961 42.468 358.465 43.008 358.801 43.692L357.613 44.07C357.349 43.59 356.977 43.218 356.497 42.954C356.029 42.678 355.507 42.54 354.931 42.54C354.295 42.54 353.719 42.702 353.203 43.026C352.699 43.35 352.291 43.8 351.979 44.376C351.679 44.94 351.529 45.576 351.529 46.284C351.529 46.992 351.685 47.634 351.997 48.21C352.309 48.786 352.723 49.248 353.239 49.596C353.755 49.932 354.325 50.1 354.949 50.1C355.357 50.1 355.753 50.028 356.137 49.884C356.521 49.74 356.851 49.548 357.127 49.308C357.403 49.056 357.589 48.786 357.685 48.498L358.891 48.858C358.723 49.302 358.447 49.704 358.063 50.064C357.679 50.412 357.223 50.688 356.695 50.892C356.167 51.084 355.603 51.18 355.003 51.18ZM365.116 51.18C363.604 51.18 362.458 50.718 361.678 49.794C360.91 48.858 360.526 47.568 360.526 45.924C360.526 44.76 360.622 43.776 360.814 42.972C361.006 42.168 361.288 41.502 361.66 40.974C362.032 40.446 362.488 40.02 363.028 39.696C363.58 39.36 364.21 39.084 364.918 38.868L368.86 37.572L368.968 38.634L365.17 39.876C364.45 40.128 363.844 40.434 363.352 40.794C362.872 41.154 362.494 41.628 362.218 42.216C361.954 42.792 361.786 43.53 361.714 44.43C362.014 43.734 362.488 43.2 363.136 42.828C363.796 42.444 364.552 42.252 365.404 42.252C366.316 42.252 367.09 42.438 367.726 42.81C368.374 43.182 368.866 43.698 369.202 44.358C369.538 45.018 369.706 45.78 369.706 46.644C369.706 48.012 369.31 49.11 368.518 49.938C367.738 50.766 366.604 51.18 365.116 51.18ZM365.116 50.1C366.184 50.1 367.006 49.794 367.582 49.182C368.17 48.558 368.464 47.73 368.464 46.698C368.464 45.69 368.176 44.868 367.6 44.232C367.024 43.596 366.196 43.278 365.116 43.278C364.492 43.278 363.928 43.41 363.424 43.674C362.92 43.938 362.518 44.322 362.218 44.826C361.93 45.33 361.786 45.954 361.786 46.698C361.786 47.682 362.068 48.498 362.632 49.146C363.208 49.782 364.036 50.1 365.116 50.1Z" fill="black"/>
<path d="M287.928 51V41.622H295.47V51H294.246V42.72H289.152V51H287.928ZM300.516 51V42.72H297.168V41.622H305.088V42.72H301.74V51H300.516Z" fill="black"/>
<path d="M415.576 51V41.622H420.256C420.784 41.622 421.228 41.736 421.588 41.964C421.948 42.18 422.218 42.468 422.398 42.828C422.59 43.176 422.686 43.542 422.686 43.926C422.686 44.43 422.56 44.886 422.308 45.294C422.068 45.69 421.726 45.99 421.282 46.194C421.822 46.338 422.26 46.62 422.596 47.04C422.932 47.46 423.1 47.952 423.1 48.516C423.1 49.272 422.83 49.878 422.29 50.334C421.762 50.778 421.084 51 420.256 51H415.576ZM416.746 45.852H419.932C420.4 45.852 420.778 45.678 421.066 45.33C421.366 44.97 421.516 44.568 421.516 44.124C421.516 43.692 421.372 43.314 421.084 42.99C420.808 42.666 420.448 42.504 420.004 42.504H416.746V45.852ZM416.746 50.118H420.22C420.7 50.118 421.102 49.944 421.426 49.596C421.75 49.236 421.912 48.84 421.912 48.408C421.912 47.94 421.756 47.538 421.444 47.202C421.132 46.866 420.748 46.698 420.292 46.698H416.746V50.118ZM429.295 51.18C428.383 51.18 427.573 50.958 426.865 50.514C426.157 50.058 425.599 49.464 425.191 48.732C424.783 47.988 424.579 47.172 424.579 46.284C424.579 45.396 424.777 44.592 425.173 43.872C425.569 43.14 426.121 42.558 426.829 42.126C427.537 41.682 428.353 41.46 429.277 41.46C430.153 41.46 430.921 41.664 431.581 42.072C432.253 42.468 432.757 43.008 433.093 43.692L431.905 44.07C431.641 43.59 431.269 43.218 430.789 42.954C430.321 42.678 429.799 42.54 429.223 42.54C428.587 42.54 428.011 42.702 427.495 43.026C426.991 43.35 426.583 43.8 426.271 44.376C425.971 44.94 425.821 45.576 425.821 46.284C425.821 46.992 425.977 47.634 426.289 48.21C426.601 48.786 427.015 49.248 427.531 49.596C428.047 49.932 428.617 50.1 429.241 50.1C429.649 50.1 430.045 50.028 430.429 49.884C430.813 49.74 431.143 49.548 431.419 49.308C431.695 49.056 431.881 48.786 431.977 48.498L433.183 48.858C433.015 49.302 432.739 49.704 432.355 50.064C431.971 50.412 431.515 50.688 430.987 50.892C430.459 51.084 429.895 51.18 429.295 51.18Z" fill="black"/>
<g filter="url(#filter2_d)">
<circle cx="231" cy="74" r="11" fill="#B0E3FF"/>
</g>
<g filter="url(#filter3_i)">
<circle cx="295" cy="74" r="11" fill="white"/>
</g>
<g filter="url(#filter4_i)">
<circle cx="359" cy="74" r="11" fill="white"/>
</g>
<g filter="url(#filter5_i)">
<circle cx="423" cy="74" r="11" fill="white"/>
</g>
<path d="M31.9697 51V41.622H39.5117V51H38.2877V42.72H33.1937V51H31.9697ZM42.2002 51V41.622H43.4242V45.654H48.7882V41.622H50.0122V51H48.7882V46.752H43.4242V51H42.2002Z" fill="black"/>
<g filter="url(#filter6_d)">
<circle cx="41" cy="74" r="11" fill="#B0E3FF"/>
</g>
<defs>
<filter id="filter0_d" x="87" y="57" width="34" height="34" filterUnits="userSpaceOnUse" color-interpolation-filters="sRGB">
<feFlood flood-opacity="0" result="BackgroundImageFix"/>
<feColorMatrix in="SourceAlpha" type="matrix" values="0 0 0 0 0 0 0 0 0 0 0 0 0 0 0 0 0 0 127 0"/>
<feOffset/>
<feGaussianBlur stdDeviation="3"/>
<feColorMatrix type="matrix" values="0 0 0 0 0.690196 0 0 0 0 0.890196 0 0 0 0 1 0 0 0 1 0"/>
<feBlend mode="normal" in2="BackgroundImageFix" result="effect1_dropShadow"/>
<feBlend mode="normal" in="SourceGraphic" in2="effect1_dropShadow" result="shape"/>
</filter>
<filter id="filter1_d" x="151" y="57" width="34" height="34" filterUnits="userSpaceOnUse" color-interpolation-filters="sRGB">
<feFlood flood-opacity="0" result="BackgroundImageFix"/>
<feColorMatrix in="SourceAlpha" type="matrix" values="0 0 0 0 0 0 0 0 0 0 0 0 0 0 0 0 0 0 127 0"/>
<feOffset/>
<feGaussianBlur stdDeviation="3"/>
<feColorMatrix type="matrix" values="0 0 0 0 0.690196 0 0 0 0 0.890196 0 0 0 0 1 0 0 0 1 0"/>
<feBlend mode="normal" in2="BackgroundImageFix" result="effect1_dropShadow"/>
<feBlend mode="normal" in="SourceGraphic" in2="effect1_dropShadow" result="shape"/>
</filter>
<filter id="filter2_d" x="214" y="57" width="34" height="34" filterUnits="userSpaceOnUse" color-interpolation-filters="sRGB">
<feFlood flood-opacity="0" result="BackgroundImageFix"/>
<feColorMatrix in="SourceAlpha" type="matrix" values="0 0 0 0 0 0 0 0 0 0 0 0 0 0 0 0 0 0 127 0"/>
<feOffset/>
<feGaussianBlur stdDeviation="3"/>
<feColorMatrix type="matrix" values="0 0 0 0 0.690196 0 0 0 0 0.890196 0 0 0 0 1 0 0 0 1 0"/>
<feBlend mode="normal" in2="BackgroundImageFix" result="effect1_dropShadow"/>
<feBlend mode="normal" in="SourceGraphic" in2="effect1_dropShadow" result="shape"/>
</filter>
<filter id="filter3_i" x="284" y="63" width="22" height="22" filterUnits="userSpaceOnUse" color-interpolation-filters="sRGB">
<feFlood flood-opacity="0" result="BackgroundImageFix"/>
<feBlend mode="normal" in="SourceGraphic" in2="BackgroundImageFix" result="shape"/>
<feColorMatrix in="SourceAlpha" type="matrix" values="0 0 0 0 0 0 0 0 0 0 0 0 0 0 0 0 0 0 127 0" result="hardAlpha"/>
<feMorphology radius="4" operator="dilate" in="SourceAlpha" result="effect1_innerShadow"/>
<feOffset/>
<feGaussianBlur stdDeviation="4"/>
<feComposite in2="hardAlpha" operator="arithmetic" k2="-1" k3="1"/>
<feColorMatrix type="matrix" values="0 0 0 0 0.956863 0 0 0 0 0.568627 0 0 0 0 0.313726 0 0 0 0.6 0"/>
<feBlend mode="normal" in2="shape" result="effect1_innerShadow"/>
</filter>
<filter id="filter4_i" x="348" y="63" width="22" height="22" filterUnits="userSpaceOnUse" color-interpolation-filters="sRGB">
<feFlood flood-opacity="0" result="BackgroundImageFix"/>
<feBlend mode="normal" in="SourceGraphic" in2="BackgroundImageFix" result="shape"/>
<feColorMatrix in="SourceAlpha" type="matrix" values="0 0 0 0 0 0 0 0 0 0 0 0 0 0 0 0 0 0 127 0" result="hardAlpha"/>
<feMorphology radius="4" operator="dilate" in="SourceAlpha" result="effect1_innerShadow"/>
<feOffset/>
<feGaussianBlur stdDeviation="4"/>
<feComposite in2="hardAlpha" operator="arithmetic" k2="-1" k3="1"/>
<feColorMatrix type="matrix" values="0 0 0 0 0.956863 0 0 0 0 0.568627 0 0 0 0 0.313726 0 0 0 0.6 0"/>
<feBlend mode="normal" in2="shape" result="effect1_innerShadow"/>
</filter>
<filter id="filter5_i" x="412" y="63" width="22" height="22" filterUnits="userSpaceOnUse" color-interpolation-filters="sRGB">
<feFlood flood-opacity="0" result="BackgroundImageFix"/>
<feBlend mode="normal" in="SourceGraphic" in2="BackgroundImageFix" result="shape"/>
<feColorMatrix in="SourceAlpha" type="matrix" values="0 0 0 0 0 0 0 0 0 0 0 0 0 0 0 0 0 0 127 0" result="hardAlpha"/>
<feMorphology radius="4" operator="dilate" in="SourceAlpha" result="effect1_innerShadow"/>
<feOffset/>
<feGaussianBlur stdDeviation="4"/>
<feComposite in2="hardAlpha" operator="arithmetic" k2="-1" k3="1"/>
<feColorMatrix type="matrix" values="0 0 0 0 0.956863 0 0 0 0 0.568627 0 0 0 0 0.313726 0 0 0 0.6 0"/>
<feBlend mode="normal" in2="shape" result="effect1_innerShadow"/>
</filter>
<filter id="filter6_d" x="24" y="57" width="34" height="34" filterUnits="userSpaceOnUse" color-interpolation-filters="sRGB">
<feFlood flood-opacity="0" result="BackgroundImageFix"/>
<feColorMatrix in="SourceAlpha" type="matrix" values="0 0 0 0 0 0 0 0 0 0 0 0 0 0 0 0 0 0 127 0"/>
<feOffset/>
<feGaussianBlur stdDeviation="3"/>
<feColorMatrix type="matrix" values="0 0 0 0 0.690196 0 0 0 0 0.890196 0 0 0 0 1 0 0 0 1 0"/>
<feBlend mode="normal" in2="BackgroundImageFix" result="effect1_dropShadow"/>
<feBlend mode="normal" in="SourceGraphic" in2="effect1_dropShadow" result="shape"/>
</filter>
</defs>
</svg>
