<svg width="433" height="118" viewBox="0 0 433 118" fill="none" xmlns="http://www.w3.org/2000/svg">
<path d="M466.706 21.3555C466.706 9.93092 457.152 0.827615 445.741 1.37874L99.9994 18.0768C87.7531 18.6683 78.9169 30.0386 81.3679 42.0516L89.6284 82.5402C91.4502 91.4697 99.0781 98.0384 108.179 98.5149L445.66 116.184C457.101 116.783 466.706 107.668 466.706 96.2116V21.3555Z" fill="#F49150"/>
<path d="M124.606 66.3662V48.6162H138.981V66.3662H135.556V51.6412H128.031V66.3662H124.606ZM150.245 66.6162C149.212 66.6162 148.312 66.3829 147.545 65.9162C146.778 65.4495 146.178 64.8329 145.745 64.0662V71.6912H142.395V53.2662H145.32V55.5162C145.803 54.7495 146.428 54.1495 147.195 53.7162C147.978 53.2662 148.862 53.0412 149.845 53.0412C151.028 53.0412 152.078 53.3495 152.995 53.9662C153.912 54.5662 154.637 55.3829 155.17 56.4162C155.703 57.4329 155.97 58.5579 155.97 59.7912C155.97 61.0745 155.72 62.2329 155.22 63.2662C154.737 64.2829 154.062 65.0995 153.195 65.7162C152.345 66.3162 151.362 66.6162 150.245 66.6162ZM149.12 63.7662C149.803 63.7662 150.395 63.5829 150.895 63.2162C151.412 62.8329 151.812 62.3412 152.095 61.7412C152.395 61.1245 152.545 60.4745 152.545 59.7912C152.545 59.0579 152.387 58.3995 152.07 57.8162C151.753 57.2162 151.32 56.7495 150.77 56.4162C150.237 56.0662 149.62 55.8912 148.92 55.8912C148.287 55.8912 147.653 56.0995 147.02 56.5162C146.387 56.9329 145.962 57.4579 145.745 58.0912V61.1662C146.045 61.8995 146.503 62.5162 147.12 63.0162C147.737 63.5162 148.403 63.7662 149.12 63.7662ZM164.29 66.6162C162.857 66.6162 161.623 66.3079 160.59 65.6912C159.573 65.0579 158.79 64.2245 158.24 63.1912C157.69 62.1579 157.415 61.0412 157.415 59.8412C157.415 58.6245 157.69 57.4995 158.24 56.4662C158.807 55.4329 159.598 54.6079 160.615 53.9912C161.648 53.3579 162.873 53.0412 164.29 53.0412C165.707 53.0412 166.923 53.3579 167.94 53.9912C168.973 54.6079 169.765 55.4329 170.315 56.4662C170.865 57.4995 171.14 58.6245 171.14 59.8412C171.14 61.0412 170.865 62.1579 170.315 63.1912C169.765 64.2245 168.973 65.0579 167.94 65.6912C166.923 66.3079 165.707 66.6162 164.29 66.6162ZM160.865 59.8412C160.865 60.6079 161.015 61.2912 161.315 61.8912C161.615 62.4745 162.023 62.9329 162.54 63.2662C163.057 63.5995 163.64 63.7662 164.29 63.7662C164.923 63.7662 165.498 63.5995 166.015 63.2662C166.532 62.9162 166.94 62.4495 167.24 61.8662C167.557 61.2662 167.715 60.5829 167.715 59.8162C167.715 59.0662 167.557 58.3995 167.24 57.8162C166.94 57.2162 166.532 56.7495 166.015 56.4162C165.498 56.0662 164.923 55.8912 164.29 55.8912C163.64 55.8912 163.057 56.0662 162.54 56.4162C162.023 56.7495 161.615 57.2162 161.315 57.8162C161.015 58.3995 160.865 59.0745 160.865 59.8412ZM176.426 66.3662V56.1912H172.276V53.2662H183.951V56.1912H179.776V66.3662H176.426ZM185.828 66.3662V53.2912H189.178V61.8912L195.053 53.2662H198.103V66.3662H194.753V57.9662L188.953 66.3662H185.828ZM201.16 66.3662V53.2662H208.46C209.36 53.2662 210.085 53.4162 210.635 53.7162C211.201 54.0162 211.618 54.4079 211.885 54.8912C212.151 55.3745 212.285 55.8912 212.285 56.4412C212.285 57.1745 212.118 57.8162 211.785 58.3662C211.451 58.9162 210.951 59.3412 210.285 59.6412C211.051 59.8412 211.676 60.2079 212.16 60.7412C212.643 61.2745 212.885 61.9662 212.885 62.8162C212.885 64.0495 212.451 64.9495 211.585 65.5162C210.735 66.0829 209.576 66.3662 208.11 66.3662H201.16ZM204.335 58.7162H207.61C208.06 58.7162 208.426 58.5579 208.71 58.2412C208.993 57.9079 209.135 57.5162 209.135 57.0662C209.135 56.6329 208.993 56.2745 208.71 55.9912C208.443 55.6912 208.085 55.5412 207.635 55.5412H204.335V58.7162ZM204.335 64.0912H208.01C208.476 64.0912 208.86 63.9329 209.16 63.6162C209.476 63.2995 209.635 62.9079 209.635 62.4412C209.635 61.9745 209.485 61.5912 209.185 61.2912C208.885 60.9745 208.501 60.8162 208.035 60.8162H204.335V64.0912ZM221.37 66.6162C219.937 66.6162 218.703 66.3079 217.67 65.6912C216.653 65.0579 215.87 64.2245 215.32 63.1912C214.77 62.1579 214.495 61.0412 214.495 59.8412C214.495 58.6245 214.77 57.4995 215.32 56.4662C215.887 55.4329 216.678 54.6079 217.695 53.9912C218.728 53.3579 219.953 53.0412 221.37 53.0412C222.787 53.0412 224.003 53.3579 225.02 53.9912C226.053 54.6079 226.845 55.4329 227.395 56.4662C227.945 57.4995 228.22 58.6245 228.22 59.8412C228.22 61.0412 227.945 62.1579 227.395 63.1912C226.845 64.2245 226.053 65.0579 225.02 65.6912C224.003 66.3079 222.787 66.6162 221.37 66.6162ZM217.945 59.8412C217.945 60.6079 218.095 61.2912 218.395 61.8912C218.695 62.4745 219.103 62.9329 219.62 63.2662C220.137 63.5995 220.72 63.7662 221.37 63.7662C222.003 63.7662 222.578 63.5995 223.095 63.2662C223.612 62.9162 224.02 62.4495 224.32 61.8662C224.637 61.2662 224.795 60.5829 224.795 59.8162C224.795 59.0662 224.637 58.3995 224.32 57.8162C224.02 57.2162 223.612 56.7495 223.095 56.4162C222.578 56.0662 222.003 55.8912 221.37 55.8912C220.72 55.8912 220.137 56.0662 219.62 56.4162C219.103 56.7495 218.695 57.2162 218.395 57.8162C218.095 58.3995 217.945 59.0745 217.945 59.8412ZM230.481 66.3662V53.2662H242.231V66.3662H238.881V56.1912H233.831V66.3662H230.481ZM251.326 66.6162C249.893 66.6162 248.659 66.3079 247.626 65.6912C246.609 65.0579 245.826 64.2245 245.276 63.1912C244.726 62.1579 244.451 61.0412 244.451 59.8412C244.451 58.6245 244.726 57.4995 245.276 56.4662C245.843 55.4329 246.634 54.6079 247.651 53.9912C248.684 53.3579 249.909 53.0412 251.326 53.0412C252.743 53.0412 253.959 53.3579 254.976 53.9912C256.009 54.6079 256.801 55.4329 257.351 56.4662C257.901 57.4995 258.176 58.6245 258.176 59.8412C258.176 61.0412 257.901 62.1579 257.351 63.1912C256.801 64.2245 256.009 65.0579 254.976 65.6912C253.959 66.3079 252.743 66.6162 251.326 66.6162ZM247.901 59.8412C247.901 60.6079 248.051 61.2912 248.351 61.8912C248.651 62.4745 249.059 62.9329 249.576 63.2662C250.093 63.5995 250.676 63.7662 251.326 63.7662C251.959 63.7662 252.534 63.5995 253.051 63.2662C253.568 62.9162 253.976 62.4495 254.276 61.8662C254.593 61.2662 254.751 60.5829 254.751 59.8162C254.751 59.0662 254.593 58.3995 254.276 57.8162C253.976 57.2162 253.568 56.7495 253.051 56.4162C252.534 56.0662 251.959 55.8912 251.326 55.8912C250.676 55.8912 250.093 56.0662 249.576 56.4162C249.059 56.7495 248.651 57.2162 248.351 57.8162C248.051 58.3995 247.901 59.0745 247.901 59.8412ZM260.437 66.3662V53.2662H263.787V58.2162H264.912L268.462 53.2662H272.112L267.462 59.5912L272.612 66.3662H268.787L264.862 61.1662H263.787V66.3662H260.437ZM273.673 62.4912C273.673 61.6412 273.906 60.8995 274.373 60.2662C274.856 59.6162 275.523 59.1162 276.373 58.7662C277.223 58.4162 278.198 58.2412 279.298 58.2412C279.848 58.2412 280.406 58.2912 280.973 58.3912C281.54 58.4745 282.031 58.5995 282.448 58.7662V58.0662C282.448 57.2329 282.198 56.5912 281.698 56.1412C281.215 55.6912 280.49 55.4662 279.523 55.4662C278.806 55.4662 278.123 55.5912 277.473 55.8412C276.823 56.0912 276.14 56.4579 275.423 56.9412L274.348 54.7412C275.215 54.1745 276.098 53.7495 276.998 53.4662C277.915 53.1829 278.873 53.0412 279.873 53.0412C281.74 53.0412 283.19 53.5079 284.223 54.4412C285.273 55.3745 285.798 56.7079 285.798 58.4412V62.6162C285.798 62.9829 285.856 63.2412 285.973 63.3912C286.09 63.5245 286.298 63.6079 286.598 63.6412V66.3662C286.298 66.4329 286.023 66.4745 285.773 66.4912C285.54 66.5245 285.34 66.5412 285.173 66.5412C284.506 66.5412 283.998 66.3912 283.648 66.0912C283.298 65.7912 283.09 65.4245 283.023 64.9912L282.948 64.3162C282.365 65.0662 281.648 65.6412 280.798 66.0412C279.965 66.4245 279.106 66.6162 278.223 66.6162C277.34 66.6162 276.556 66.4412 275.873 66.0912C275.19 65.7245 274.648 65.2329 274.248 64.6162C273.865 63.9829 273.673 63.2745 273.673 62.4912ZM281.823 63.1662C282.24 62.7662 282.448 62.3829 282.448 62.0162V60.6912C281.581 60.3412 280.706 60.1662 279.823 60.1662C278.94 60.1662 278.223 60.3579 277.673 60.7412C277.123 61.1079 276.848 61.5995 276.848 62.2162C276.848 62.7162 277.048 63.1662 277.448 63.5662C277.848 63.9662 278.423 64.1662 279.173 64.1662C279.673 64.1662 280.156 64.0745 280.623 63.8912C281.106 63.7079 281.506 63.4662 281.823 63.1662ZM293.603 66.5662C292.203 66.5662 291.028 66.3162 290.078 65.8162C289.145 65.3162 288.42 64.6245 287.903 63.7412L290.603 62.5162C290.887 62.9495 291.253 63.2912 291.703 63.5412C292.17 63.7745 292.745 63.8912 293.428 63.8912C294.212 63.8912 294.812 63.7412 295.228 63.4412C295.662 63.1245 295.878 62.7162 295.878 62.2162C295.878 61.7662 295.703 61.3995 295.353 61.1162C295.003 60.8162 294.487 60.6662 293.803 60.6662H292.453V58.5912H293.828C294.295 58.5912 294.662 58.4579 294.928 58.1912C295.212 57.9245 295.353 57.5745 295.353 57.1412C295.353 56.7079 295.187 56.3662 294.853 56.1162C294.537 55.8495 294.028 55.7162 293.328 55.7162C292.745 55.7162 292.262 55.8245 291.878 56.0412C291.495 56.2579 291.187 56.5829 290.953 57.0162L288.428 55.6662C288.895 54.8495 289.562 54.2079 290.428 53.7412C291.312 53.2745 292.337 53.0412 293.503 53.0412C294.42 53.0412 295.237 53.1829 295.953 53.4662C296.687 53.7495 297.262 54.1662 297.678 54.7162C298.095 55.2495 298.303 55.9079 298.303 56.6912C298.303 57.2579 298.162 57.8079 297.878 58.3412C297.612 58.8745 297.17 59.2662 296.553 59.5162C297.353 59.7495 297.953 60.1495 298.353 60.7162C298.77 61.2829 298.978 61.9495 298.978 62.7162C298.978 63.5495 298.745 64.2579 298.278 64.8412C297.812 65.4079 297.17 65.8412 296.353 66.1412C295.553 66.4245 294.637 66.5662 293.603 66.5662ZM300.431 62.4912C300.431 61.6412 300.664 60.8995 301.131 60.2662C301.614 59.6162 302.281 59.1162 303.131 58.7662C303.981 58.4162 304.956 58.2412 306.056 58.2412C306.606 58.2412 307.164 58.2912 307.731 58.3912C308.297 58.4745 308.789 58.5995 309.206 58.7662V58.0662C309.206 57.2329 308.956 56.5912 308.456 56.1412C307.972 55.6912 307.247 55.4662 306.281 55.4662C305.564 55.4662 304.881 55.5912 304.231 55.8412C303.581 56.0912 302.897 56.4579 302.181 56.9412L301.106 54.7412C301.972 54.1745 302.856 53.7495 303.756 53.4662C304.672 53.1829 305.631 53.0412 306.631 53.0412C308.497 53.0412 309.947 53.5079 310.981 54.4412C312.031 55.3745 312.556 56.7079 312.556 58.4412V62.6162C312.556 62.9829 312.614 63.2412 312.731 63.3912C312.847 63.5245 313.056 63.6079 313.356 63.6412V66.3662C313.056 66.4329 312.781 66.4745 312.531 66.4912C312.297 66.5245 312.097 66.5412 311.931 66.5412C311.264 66.5412 310.756 66.3912 310.406 66.0912C310.056 65.7912 309.847 65.4245 309.781 64.9912L309.706 64.3162C309.122 65.0662 308.406 65.6412 307.556 66.0412C306.722 66.4245 305.864 66.6162 304.981 66.6162C304.097 66.6162 303.314 66.4412 302.631 66.0912C301.947 65.7245 301.406 65.2329 301.006 64.6162C300.622 63.9829 300.431 63.2745 300.431 62.4912ZM308.581 63.1662C308.997 62.7662 309.206 62.3829 309.206 62.0162V60.6912C308.339 60.3412 307.464 60.1662 306.581 60.1662C305.697 60.1662 304.981 60.3579 304.431 60.7412C303.881 61.1079 303.606 61.5995 303.606 62.2162C303.606 62.7162 303.806 63.1662 304.206 63.5662C304.606 63.9662 305.181 64.1662 305.931 64.1662C306.431 64.1662 306.914 64.0745 307.381 63.8912C307.864 63.7079 308.264 63.4662 308.581 63.1662ZM315.686 66.3662V53.2662H319.036V58.2662H324.336V53.2662H327.686V66.3662H324.336V61.0662H319.036V66.3662H315.686ZM330.75 66.3662V53.2912H334.1V61.8912L339.975 53.2662H343.025V66.3662H339.675V57.9662L333.875 66.3662H330.75ZM345.382 66.3662L348.707 61.2662C347.907 61.0495 347.282 60.6245 346.832 59.9912C346.382 59.3579 346.157 58.5245 346.157 57.4912C346.157 56.2079 346.59 55.1745 347.457 54.3912C348.323 53.6079 349.448 53.2162 350.832 53.2162H357.057V66.3662H353.707V61.8412H351.932L349.057 66.3662H345.382ZM351.232 59.4412H353.707V55.7912H351.357C350.757 55.7912 350.282 55.9579 349.932 56.2912C349.582 56.6079 349.407 57.0412 349.407 57.5912C349.407 58.1245 349.557 58.5662 349.857 58.9162C350.173 59.2662 350.632 59.4412 351.232 59.4412Z" fill="black"/>
<g clip-path="url(#clip0)">
<path d="M61.9005 74.2624C61.866 74.1542 61.8316 74.046 61.8316 74.046C61.6593 73.5052 61.8429 72.9701 62.3442 72.6913C67.1079 69.8636 69.1967 64.1945 67.5086 58.8941C65.8206 53.5938 60.7309 50.2108 55.2092 50.6588C54.6391 50.7212 54.0038 50.2087 54.0458 49.5996C53.9807 49.0246 54.4858 48.3872 55.0904 48.4329C61.6452 47.8942 67.6533 51.9379 69.6514 58.2117C71.6495 64.4856 69.0864 71.2589 63.4617 74.7183C62.9605 74.997 62.2143 74.8773 61.9005 74.2624Z" fill="#C0C0C0"/>
<path d="M65.0445 59.6791C66.6292 64.6549 63.9396 69.9197 59.0112 71.4893C58.4755 71.6599 57.802 71.3979 57.5953 70.7488C57.423 70.208 57.6794 69.5307 58.3222 69.3259C62.0721 68.1317 64.2145 64.1134 63.0088 60.3274C61.803 56.5415 57.7314 54.5022 53.9815 55.6965C53.4458 55.8671 52.7723 55.605 52.5656 54.956C52.3933 54.4152 52.6496 53.7378 53.2925 53.5331C58.2209 51.9635 63.4598 54.7033 65.0445 59.6791Z" fill="#C0C0C0"/>
<path d="M36.8718 44.5848C37.1818 45.5584 37.136 46.5261 36.9486 47.4198C39.3746 46.8854 41.9232 48.2183 42.7156 50.7062C43.0601 51.7879 43.0487 52.8638 42.647 53.8257C44.6751 53.8947 46.4048 55.2501 47.0594 57.3053C47.3694 58.2788 47.3236 59.2465 47.1362 60.1402L53.0289 58.2635C55.6002 57.4446 58.3249 58.9597 59.1517 61.5558C59.9785 64.1519 58.6319 66.9636 56.0605 67.7825L36.561 73.9926L39.5995 76.1226C40.6251 76.7491 41.3255 77.8366 41.4557 78.9866C41.7275 80.2106 41.5019 81.3547 40.7787 82.419C39.7649 84.0524 37.7292 84.7008 35.9192 84.2049L15.2667 78.2724C14.7692 78.1926 14.2718 78.1127 13.7361 78.2833L10.3076 79.3752C9.7719 79.5458 9.09841 79.2837 8.8917 78.6347C8.685 77.9857 8.97576 77.4165 9.61861 77.2118L13.2614 76.0517C14.1185 75.7787 15.0445 75.7221 15.9667 76.0241L36.6192 81.9566C37.5415 82.2586 38.4713 81.8433 39.049 81.0636C39.3742 80.6026 39.5234 79.9594 39.3511 79.4185C39.286 78.8436 38.865 78.2628 38.4058 77.9325L33.8825 74.8457L31.5254 75.5963C30.9897 75.767 30.3162 75.5049 30.1095 74.8559C29.9373 74.315 30.1936 73.6377 30.8364 73.4329L55.3715 65.6191C56.7643 65.1755 57.4568 63.6444 57.0089 62.2382C56.5611 60.832 55.0036 60.0175 53.7179 60.4269L43.9682 63.532L34.0041 66.7053C33.4684 66.8759 32.7949 66.6139 32.5882 65.9648C32.416 65.424 32.6723 64.7466 33.3151 64.5419L43.2792 61.3686C44.672 60.925 45.3644 59.3939 44.9166 57.9877C44.4687 56.5815 42.9112 55.767 41.6255 56.1764L39.5899 56.8248L30.483 59.7251C29.9473 59.8957 29.2738 59.6336 29.0671 58.9846C28.8948 58.4438 29.1512 57.7664 29.794 57.5617L38.9009 54.6614C40.2937 54.2178 40.9862 52.6867 40.5383 51.2805C40.0905 49.8743 38.533 49.0597 37.2473 49.4692L33.8188 50.5611L26.9618 52.7449C26.4262 52.9155 25.7526 52.6534 25.5459 52.0044C25.3737 51.4635 25.63 50.7862 26.2728 50.5815L33.1298 48.3977C34.5226 47.9541 35.2151 46.423 34.7672 45.0168C34.3194 43.6106 32.7619 42.7961 31.4762 43.2055L19.6908 46.9589C17.1194 47.7778 14.8619 49.2116 13.0254 51.2262L10.0716 54.5498C8.95442 55.8587 7.55781 56.6609 5.95071 57.1727L3.48649 57.9575C2.95079 58.1281 2.27729 57.8661 2.07059 57.2171C1.89834 56.6762 2.15465 55.9989 2.79749 55.7941L5.26171 55.0093C6.44025 54.634 7.62258 53.9 8.38013 52.9439L11.3339 49.6204C13.423 47.2871 15.9674 45.6427 18.9674 44.6873L30.7528 40.9339C33.3203 40.4737 36.045 41.9888 36.8718 44.5848Z" fill="#C0C0C0"/>
</g>
<defs>
<clipPath id="clip0">
<rect width="43.1389" height="64.0921" fill="white" transform="matrix(-0.303462 -0.952843 -0.952845 0.303459 74.2678 72.7065)"/>
</clipPath>
</defs>
</svg>
