<svg width="26" height="25" viewBox="0 0 26 25" fill="none" xmlns="http://www.w3.org/2000/svg">
<path d="M17.68 25H8.32C3.744 25 0 21.3014 0 16.7808V8.21918C0 3.69863 3.744 0 8.32 0H17.68C22.256 0 26 3.69863 26 8.21918V16.7808C26 21.3014 22.256 25 17.68 25ZM8.32 2.73973C5.26933 2.73973 2.77333 5.20548 2.77333 8.21918V16.7808C2.77333 19.7945 5.26933 22.2603 8.32 22.2603H17.68C20.7307 22.2603 23.2267 19.7945 23.2267 16.7808V8.21918C23.2267 5.20548 20.7307 2.73973 17.68 2.73973H8.32Z" fill="black"/>
<path d="M13.0347 18.8358C9.49867 18.8358 6.65601 16.0276 6.65601 12.5344C6.65601 9.04126 9.49867 6.16455 13.0347 6.16455C16.5707 6.16455 19.4133 8.97277 19.4133 12.4659C19.4133 15.9591 16.5013 18.8358 13.0347 18.8358ZM13.0347 8.90428C11.024 8.90428 9.42934 10.4796 9.42934 12.4659C9.42934 14.4522 11.024 16.0276 13.0347 16.0276C15.0453 16.0276 16.64 14.4522 16.64 12.4659C16.64 10.4796 14.976 8.90428 13.0347 8.90428Z" fill="black"/>
<path d="M21.0079 6.09572C21.0079 6.91763 20.3146 7.60257 19.4826 7.60257C18.6506 7.60257 17.9573 6.91763 17.9573 6.09572C17.9573 5.2738 18.6506 4.58887 19.4826 4.58887C20.3146 4.58887 21.0079 5.2738 21.0079 6.09572Z" fill="black"/>
</svg>
