<svg width="414" height="114" viewBox="0 0 414 114" fill="none" xmlns="http://www.w3.org/2000/svg">
<path d="M81.288 30.08V28.256H82.184C82.4507 28.256 82.6533 28.1973 82.792 28.08C82.9413 27.9627 83.0693 27.776 83.176 27.52L83.432 26.96L78.92 18.64H81.352L84.408 24.72L87.064 18.64H89.384L84.856 28.56C84.5787 29.1253 84.264 29.52 83.912 29.744C83.56 29.968 83.0907 30.08 82.504 30.08H81.288ZM94.0385 30V21.616H96.2785L98.9025 26.464L101.543 21.616H103.751V30H101.719V24.576L99.5745 28.512H98.2305L96.0705 24.576V30H94.0385ZM109.614 30.16C108.707 30.16 107.923 29.9627 107.262 29.568C106.611 29.1733 106.105 28.6507 105.742 28C105.379 27.3387 105.198 26.624 105.198 25.856C105.198 25.0667 105.374 24.3413 105.726 23.68C106.089 23.008 106.601 22.4747 107.262 22.08C107.923 21.6747 108.713 21.472 109.63 21.472C110.547 21.472 111.331 21.6747 111.982 22.08C112.633 22.4747 113.129 23.0027 113.47 23.664C113.822 24.3147 113.998 25.0187 113.998 25.776C113.998 26.0533 113.982 26.2933 113.95 26.496H107.47C107.523 27.1467 107.763 27.6587 108.19 28.032C108.627 28.4053 109.129 28.592 109.694 28.592C110.121 28.592 110.521 28.4907 110.894 28.288C111.278 28.0747 111.539 27.7973 111.678 27.456L113.518 27.968C113.209 28.608 112.713 29.136 112.03 29.552C111.347 29.9573 110.542 30.16 109.614 30.16ZM107.422 25.136H111.806C111.742 24.5067 111.502 24 111.086 23.616C110.681 23.2213 110.185 23.024 109.598 23.024C109.022 23.024 108.526 23.2213 108.11 23.616C107.705 24 107.475 24.5067 107.422 25.136ZM115.304 30V21.616H117.448V24.816H120.84V21.616H122.984V30H120.84V26.608H117.448V30H115.304ZM124.497 30L126.625 26.736C126.113 26.5973 125.713 26.3253 125.425 25.92C125.137 25.5147 124.993 24.9813 124.993 24.32C124.993 23.4987 125.27 22.8373 125.825 22.336C126.379 21.8347 127.099 21.584 127.985 21.584H131.969V30H129.825V27.104H128.689L126.849 30H124.497ZM128.241 25.568H129.825V23.232H128.321C127.937 23.232 127.633 23.3387 127.409 23.552C127.185 23.7547 127.073 24.032 127.073 24.384C127.073 24.7253 127.169 25.008 127.361 25.232C127.563 25.456 127.857 25.568 128.241 25.568ZM137.069 32.032V28.128H137.293C137.571 28.128 137.827 28.0213 138.061 27.808C138.296 27.5947 138.488 27.2107 138.637 26.656C138.797 26.1013 138.893 25.3013 138.925 24.256L139.021 21.616H145.309V28.128H146.477V32.032H144.605V30H138.957V32.032H137.069ZM139.997 28.128H143.165V23.424H140.893L140.845 24.464C140.803 25.5307 140.712 26.3467 140.573 26.912C140.435 27.4773 140.243 27.8827 139.997 28.128ZM147.867 30V21.632H150.011V27.136L153.771 21.616H155.723V30H153.579V24.624L149.867 30H147.867ZM157.103 27.52C157.103 26.976 157.252 26.5013 157.551 26.096C157.86 25.68 158.287 25.36 158.831 25.136C159.375 24.912 159.999 24.8 160.703 24.8C161.055 24.8 161.412 24.832 161.775 24.896C162.138 24.9493 162.452 25.0293 162.719 25.136V24.688C162.719 24.1547 162.559 23.744 162.239 23.456C161.93 23.168 161.466 23.024 160.847 23.024C160.388 23.024 159.951 23.104 159.535 23.264C159.119 23.424 158.682 23.6587 158.223 23.968L157.535 22.56C158.09 22.1973 158.655 21.9253 159.231 21.744C159.818 21.5627 160.431 21.472 161.071 21.472C162.266 21.472 163.194 21.7707 163.855 22.368C164.527 22.9653 164.863 23.8187 164.863 24.928V27.6C164.863 27.8347 164.9 28 164.975 28.096C165.05 28.1813 165.183 28.2347 165.375 28.256V30C165.183 30.0427 165.007 30.0693 164.847 30.08C164.698 30.1013 164.57 30.112 164.463 30.112C164.036 30.112 163.711 30.016 163.487 29.824C163.263 29.632 163.13 29.3973 163.087 29.12L163.039 28.688C162.666 29.168 162.207 29.536 161.663 29.792C161.13 30.0373 160.58 30.16 160.015 30.16C159.45 30.16 158.948 30.048 158.511 29.824C158.074 29.5893 157.727 29.2747 157.471 28.88C157.226 28.4747 157.103 28.0213 157.103 27.52ZM162.319 27.952C162.586 27.696 162.719 27.4507 162.719 27.216V26.368C162.164 26.144 161.604 26.032 161.039 26.032C160.474 26.032 160.015 26.1547 159.663 26.4C159.311 26.6347 159.135 26.9493 159.135 27.344C159.135 27.664 159.263 27.952 159.519 28.208C159.775 28.464 160.143 28.592 160.623 28.592C160.943 28.592 161.252 28.5333 161.551 28.416C161.86 28.2987 162.116 28.144 162.319 27.952ZM170.771 30.16C169.864 30.16 169.08 29.9573 168.419 29.552C167.757 29.1467 167.245 28.6133 166.883 27.952C166.52 27.2907 166.339 26.576 166.339 25.808C166.339 25.0293 166.515 24.3093 166.867 23.648C167.229 22.9867 167.741 22.4587 168.403 22.064C169.064 21.6693 169.848 21.472 170.755 21.472C171.672 21.472 172.451 21.6693 173.091 22.064C173.741 22.4587 174.227 22.976 174.547 23.616L172.451 24.256C172.077 23.616 171.507 23.296 170.739 23.296C170.323 23.296 169.949 23.4027 169.619 23.616C169.288 23.8187 169.027 24.112 168.835 24.496C168.643 24.8693 168.547 25.3067 168.547 25.808C168.547 26.2987 168.643 26.736 168.835 27.12C169.037 27.4933 169.304 27.792 169.635 28.016C169.965 28.2293 170.333 28.336 170.739 28.336C171.123 28.336 171.475 28.2453 171.795 28.064C172.125 27.872 172.355 27.632 172.483 27.344L174.579 27.984C174.291 28.6133 173.811 29.136 173.139 29.552C172.477 29.9573 171.688 30.16 170.771 30.16ZM177.834 30V23.488H175.178V21.616H182.65V23.488H179.978V30H177.834ZM183.244 27.52C183.244 26.976 183.393 26.5013 183.692 26.096C184.001 25.68 184.428 25.36 184.972 25.136C185.516 24.912 186.14 24.8 186.844 24.8C187.196 24.8 187.553 24.832 187.916 24.896C188.278 24.9493 188.593 25.0293 188.86 25.136V24.688C188.86 24.1547 188.7 23.744 188.38 23.456C188.07 23.168 187.606 23.024 186.988 23.024C186.529 23.024 186.092 23.104 185.676 23.264C185.26 23.424 184.822 23.6587 184.364 23.968L183.676 22.56C184.23 22.1973 184.796 21.9253 185.372 21.744C185.958 21.5627 186.572 21.472 187.212 21.472C188.406 21.472 189.334 21.7707 189.996 22.368C190.668 22.9653 191.004 23.8187 191.004 24.928V27.6C191.004 27.8347 191.041 28 191.116 28.096C191.19 28.1813 191.324 28.2347 191.516 28.256V30C191.324 30.0427 191.148 30.0693 190.988 30.08C190.838 30.1013 190.71 30.112 190.604 30.112C190.177 30.112 189.852 30.016 189.628 29.824C189.404 29.632 189.27 29.3973 189.228 29.12L189.18 28.688C188.806 29.168 188.348 29.536 187.804 29.792C187.27 30.0373 186.721 30.16 186.156 30.16C185.59 30.16 185.089 30.048 184.652 29.824C184.214 29.5893 183.868 29.2747 183.612 28.88C183.366 28.4747 183.244 28.0213 183.244 27.52ZM188.46 27.952C188.726 27.696 188.86 27.4507 188.86 27.216V26.368C188.305 26.144 187.745 26.032 187.18 26.032C186.614 26.032 186.156 26.1547 185.804 26.4C185.452 26.6347 185.276 26.9493 185.276 27.344C185.276 27.664 185.404 27.952 185.66 28.208C185.916 28.464 186.284 28.592 186.764 28.592C187.084 28.592 187.393 28.5333 187.692 28.416C188.001 28.2987 188.257 28.144 188.46 27.952ZM195.999 30.128C195.103 30.128 194.351 29.968 193.743 29.648C193.146 29.328 192.682 28.8853 192.351 28.32L194.079 27.536C194.261 27.8133 194.495 28.032 194.783 28.192C195.082 28.3413 195.45 28.416 195.887 28.416C196.389 28.416 196.773 28.32 197.039 28.128C197.317 27.9253 197.455 27.664 197.455 27.344C197.455 27.056 197.343 26.8213 197.119 26.64C196.895 26.448 196.565 26.352 196.127 26.352H195.263V25.024H196.143C196.442 25.024 196.677 24.9387 196.847 24.768C197.029 24.5973 197.119 24.3733 197.119 24.096C197.119 23.8187 197.013 23.6 196.799 23.44C196.597 23.2693 196.271 23.184 195.823 23.184C195.45 23.184 195.141 23.2533 194.895 23.392C194.65 23.5307 194.453 23.7387 194.303 24.016L192.687 23.152C192.986 22.6293 193.413 22.2187 193.967 21.92C194.533 21.6213 195.189 21.472 195.935 21.472C196.522 21.472 197.045 21.5627 197.503 21.744C197.973 21.9253 198.341 22.192 198.607 22.544C198.874 22.8853 199.007 23.3067 199.007 23.808C199.007 24.1707 198.917 24.5227 198.735 24.864C198.565 25.2053 198.282 25.456 197.887 25.616C198.399 25.7653 198.783 26.0213 199.039 26.384C199.306 26.7467 199.439 27.1733 199.439 27.664C199.439 28.1973 199.29 28.6507 198.991 29.024C198.693 29.3867 198.282 29.664 197.759 29.856C197.247 30.0373 196.661 30.128 195.999 30.128ZM211.333 28.064V30H204.837V28.064H207.109V23.216C206.981 23.376 206.762 23.5467 206.453 23.728C206.154 23.9093 205.823 24.064 205.461 24.192C205.109 24.32 204.794 24.384 204.517 24.384V22.384C204.709 22.384 204.938 22.3253 205.205 22.208C205.482 22.08 205.754 21.9307 206.021 21.76C206.298 21.5893 206.533 21.424 206.725 21.264C206.927 21.0933 207.055 20.96 207.109 20.864H209.301V28.064H211.333ZM212.569 26.576V24.64H217.417V26.576H212.569ZM218.936 30C218.936 29.3707 219.005 28.8107 219.144 28.32C219.293 27.8293 219.549 27.3867 219.912 26.992C220.275 26.5973 220.787 26.2133 221.448 25.84C222.035 25.5307 222.525 25.2693 222.92 25.056C223.315 24.8427 223.613 24.64 223.816 24.448C224.029 24.2453 224.136 24.0107 224.136 23.744C224.136 23.424 224.008 23.152 223.752 22.928C223.496 22.6933 223.133 22.576 222.664 22.576C222.152 22.576 221.709 22.6987 221.336 22.944C220.973 23.1893 220.659 23.472 220.392 23.792L219.032 22.224C219.224 22.0213 219.512 21.8027 219.896 21.568C220.28 21.3333 220.739 21.1307 221.272 20.96C221.805 20.7893 222.392 20.704 223.032 20.704C224.12 20.704 224.963 20.96 225.56 21.472C226.168 21.9733 226.472 22.624 226.472 23.424C226.472 23.9253 226.355 24.352 226.12 24.704C225.896 25.0453 225.613 25.3387 225.272 25.584C224.941 25.8187 224.621 26.0267 224.312 26.208C223.629 26.5493 223.091 26.848 222.696 27.104C222.312 27.36 222.003 27.68 221.768 28.064H226.648V30H218.936ZM236.083 30.16C235.176 30.16 234.392 29.9573 233.731 29.552C233.07 29.1467 232.558 28.6133 232.195 27.952C231.832 27.2907 231.651 26.576 231.651 25.808C231.651 25.0293 231.827 24.3093 232.179 23.648C232.542 22.9867 233.054 22.4587 233.715 22.064C234.376 21.6693 235.16 21.472 236.067 21.472C236.984 21.472 237.763 21.6693 238.403 22.064C239.054 22.4587 239.539 22.976 239.859 23.616L237.763 24.256C237.39 23.616 236.819 23.296 236.051 23.296C235.635 23.296 235.262 23.4027 234.931 23.616C234.6 23.8187 234.339 24.112 234.147 24.496C233.955 24.8693 233.859 25.3067 233.859 25.808C233.859 26.2987 233.955 26.736 234.147 27.12C234.35 27.4933 234.616 27.792 234.947 28.016C235.278 28.2293 235.646 28.336 236.051 28.336C236.435 28.336 236.787 28.2453 237.107 28.064C237.438 27.872 237.667 27.632 237.795 27.344L239.891 27.984C239.603 28.6133 239.123 29.136 238.451 29.552C237.79 29.9573 237 30.16 236.083 30.16ZM243.146 30V23.488H240.49V21.616H247.962V23.488H245.29V30H243.146ZM253.052 30.16C252.145 30.16 251.361 29.9627 250.7 29.568C250.049 29.1733 249.542 28.6507 249.18 28C248.817 27.3387 248.636 26.624 248.636 25.856C248.636 25.0667 248.812 24.3413 249.164 23.68C249.526 23.008 250.038 22.4747 250.7 22.08C251.361 21.6747 252.15 21.472 253.068 21.472C253.985 21.472 254.769 21.6747 255.42 22.08C256.07 22.4747 256.566 23.0027 256.908 23.664C257.26 24.3147 257.436 25.0187 257.436 25.776C257.436 26.0533 257.42 26.2933 257.388 26.496H250.908C250.961 27.1467 251.201 27.6587 251.628 28.032C252.065 28.4053 252.566 28.592 253.132 28.592C253.558 28.592 253.958 28.4907 254.332 28.288C254.716 28.0747 254.977 27.7973 255.116 27.456L256.956 27.968C256.646 28.608 256.15 29.136 255.468 29.552C254.785 29.9573 253.98 30.16 253.052 30.16ZM250.86 25.136H255.244C255.18 24.5067 254.94 24 254.524 23.616C254.118 23.2213 253.622 23.024 253.036 23.024C252.46 23.024 251.964 23.2213 251.548 23.616C251.142 24 250.913 24.5067 250.86 25.136ZM258.742 30V21.616H266.262V30H264.118V23.488H260.886V30H258.742ZM272.098 30.16C271.192 30.16 270.408 29.9627 269.746 29.568C269.096 29.1733 268.589 28.6507 268.226 28C267.864 27.3387 267.682 26.624 267.682 25.856C267.682 25.0667 267.858 24.3413 268.21 23.68C268.573 23.008 269.085 22.4747 269.746 22.08C270.408 21.6747 271.197 21.472 272.114 21.472C273.032 21.472 273.816 21.6747 274.466 22.08C275.117 22.4747 275.613 23.0027 275.954 23.664C276.306 24.3147 276.482 25.0187 276.482 25.776C276.482 26.0533 276.466 26.2933 276.434 26.496H269.954C270.008 27.1467 270.248 27.6587 270.674 28.032C271.112 28.4053 271.613 28.592 272.178 28.592C272.605 28.592 273.005 28.4907 273.378 28.288C273.762 28.0747 274.024 27.7973 274.162 27.456L276.002 27.968C275.693 28.608 275.197 29.136 274.514 29.552C273.832 29.9573 273.026 30.16 272.098 30.16ZM269.906 25.136H274.29C274.226 24.5067 273.986 24 273.57 23.616C273.165 23.2213 272.669 23.024 272.082 23.024C271.506 23.024 271.01 23.2213 270.594 23.616C270.189 24 269.96 24.5067 269.906 25.136ZM277.789 30V21.616H279.933V24.816H283.325V21.616H285.469V30H283.325V26.608H279.933V30H277.789ZM287.429 30V21.632H289.573V27.136L293.333 21.616H295.285V30H293.141V24.624L289.429 30H287.429ZM297.194 30V27.696H298.954V30H297.194ZM89.448 51V43.544L86.536 49.096H85.304L82.392 43.544V51H80.184V39.64H82.552L85.912 46.104L89.304 39.64H91.656V51H89.448ZM97.5511 51.16C96.6338 51.16 95.8445 50.9627 95.1831 50.568C94.5325 50.1627 94.0311 49.6293 93.6791 48.968C93.3271 48.3067 93.1511 47.592 93.1511 46.824C93.1511 46.0453 93.3271 45.3253 93.6791 44.664C94.0418 44.0027 94.5485 43.4747 95.1991 43.08C95.8605 42.6747 96.6445 42.472 97.5511 42.472C98.4578 42.472 99.2365 42.6747 99.8871 43.08C100.548 43.4747 101.055 44.0027 101.407 44.664C101.759 45.3253 101.935 46.0453 101.935 46.824C101.935 47.592 101.759 48.3067 101.407 48.968C101.055 49.6293 100.548 50.1627 99.8871 50.568C99.2365 50.9627 98.4578 51.16 97.5511 51.16ZM95.3591 46.824C95.3591 47.3147 95.4551 47.752 95.6471 48.136C95.8391 48.5093 96.1005 48.8027 96.4311 49.016C96.7618 49.2293 97.1351 49.336 97.5511 49.336C97.9565 49.336 98.3245 49.2293 98.6551 49.016C98.9858 48.792 99.2471 48.4933 99.4391 48.12C99.6418 47.736 99.7431 47.2987 99.7431 46.808C99.7431 46.328 99.6418 45.9013 99.4391 45.528C99.2471 45.144 98.9858 44.8453 98.6551 44.632C98.3245 44.408 97.9565 44.296 97.5511 44.296C97.1351 44.296 96.7618 44.408 96.4311 44.632C96.1005 44.8453 95.8391 45.144 95.6471 45.528C95.4551 45.9013 95.3591 46.3333 95.3591 46.824ZM102.758 51L105.702 46.664L102.966 42.616H105.35L107.494 45.8H108.15V42.616H110.358V45.8H111.062L113.158 42.616H115.558L112.822 46.664L115.782 51H113.334L111.062 47.656H110.358V51H108.166V47.656H107.494L105.19 51H102.758ZM117.085 51V42.616H119.229V45.816H122.621V42.616H124.765V51H122.621V47.608H119.229V51H117.085ZM130.598 51.16C129.681 51.16 128.891 50.9627 128.23 50.568C127.579 50.1627 127.078 49.6293 126.726 48.968C126.374 48.3067 126.198 47.592 126.198 46.824C126.198 46.0453 126.374 45.3253 126.726 44.664C127.089 44.0027 127.595 43.4747 128.246 43.08C128.907 42.6747 129.691 42.472 130.598 42.472C131.505 42.472 132.283 42.6747 132.934 43.08C133.595 43.4747 134.102 44.0027 134.454 44.664C134.806 45.3253 134.982 46.0453 134.982 46.824C134.982 47.592 134.806 48.3067 134.454 48.968C134.102 49.6293 133.595 50.1627 132.934 50.568C132.283 50.9627 131.505 51.16 130.598 51.16ZM128.406 46.824C128.406 47.3147 128.502 47.752 128.694 48.136C128.886 48.5093 129.147 48.8027 129.478 49.016C129.809 49.2293 130.182 49.336 130.598 49.336C131.003 49.336 131.371 49.2293 131.702 49.016C132.033 48.792 132.294 48.4933 132.486 48.12C132.689 47.736 132.79 47.2987 132.79 46.808C132.79 46.328 132.689 45.9013 132.486 45.528C132.294 45.144 132.033 44.8453 131.702 44.632C131.371 44.408 131.003 44.296 130.598 44.296C130.182 44.296 129.809 44.408 129.478 44.632C129.147 44.8453 128.886 45.144 128.694 45.528C128.502 45.9013 128.406 46.3333 128.406 46.824ZM139.665 51.112V49.208C140.006 49.1973 140.3 49.0853 140.545 48.872C140.801 48.6587 141.004 48.2693 141.153 47.704C141.302 47.1387 141.398 46.3227 141.441 45.256L141.553 42.616H147.841V51H145.697V44.488H143.441L143.409 45.464C143.345 46.9253 143.169 48.0667 142.881 48.888C142.604 49.6987 142.198 50.2693 141.665 50.6C141.132 50.9307 140.465 51.1013 139.665 51.112ZM149.789 51V42.632H151.933V48.136L155.693 42.616H157.645V51H155.501V45.624L151.789 51H149.789ZM166.437 51.128C165.541 51.128 164.789 50.968 164.181 50.648C163.583 50.328 163.119 49.8853 162.789 49.32L164.517 48.536C164.698 48.8133 164.933 49.032 165.221 49.192C165.519 49.3413 165.887 49.416 166.325 49.416C166.826 49.416 167.21 49.32 167.477 49.128C167.754 48.9253 167.893 48.664 167.893 48.344C167.893 48.056 167.781 47.8213 167.557 47.64C167.333 47.448 167.002 47.352 166.565 47.352H165.701V46.024H166.581C166.879 46.024 167.114 45.9387 167.285 45.768C167.466 45.5973 167.557 45.3733 167.557 45.096C167.557 44.8187 167.45 44.6 167.237 44.44C167.034 44.2693 166.709 44.184 166.261 44.184C165.887 44.184 165.578 44.2533 165.333 44.392C165.087 44.5307 164.89 44.7387 164.741 45.016L163.125 44.152C163.423 43.6293 163.85 43.2187 164.405 42.92C164.97 42.6213 165.626 42.472 166.373 42.472C166.959 42.472 167.482 42.5627 167.941 42.744C168.41 42.9253 168.778 43.192 169.045 43.544C169.311 43.8853 169.445 44.3067 169.445 44.808C169.445 45.1707 169.354 45.5227 169.173 45.864C169.002 46.2053 168.719 46.456 168.325 46.616C168.837 46.7653 169.221 47.0213 169.477 47.384C169.743 47.7467 169.877 48.1733 169.877 48.664C169.877 49.1973 169.727 49.6507 169.429 50.024C169.13 50.3867 168.719 50.664 168.197 50.856C167.685 51.0373 167.098 51.128 166.437 51.128ZM170.806 48.52C170.806 47.976 170.956 47.5013 171.254 47.096C171.564 46.68 171.99 46.36 172.534 46.136C173.078 45.912 173.702 45.8 174.406 45.8C174.758 45.8 175.116 45.832 175.478 45.896C175.841 45.9493 176.156 46.0293 176.422 46.136V45.688C176.422 45.1547 176.262 44.744 175.942 44.456C175.633 44.168 175.169 44.024 174.55 44.024C174.092 44.024 173.654 44.104 173.238 44.264C172.822 44.424 172.385 44.6587 171.926 44.968L171.238 43.56C171.793 43.1973 172.358 42.9253 172.934 42.744C173.521 42.5627 174.134 42.472 174.774 42.472C175.969 42.472 176.897 42.7707 177.558 43.368C178.23 43.9653 178.566 44.8187 178.566 45.928V48.6C178.566 48.8347 178.604 49 178.678 49.096C178.753 49.1813 178.886 49.2347 179.078 49.256V51C178.886 51.0427 178.71 51.0693 178.55 51.08C178.401 51.1013 178.273 51.112 178.166 51.112C177.74 51.112 177.414 51.016 177.19 50.824C176.966 50.632 176.833 50.3973 176.79 50.12L176.742 49.688C176.369 50.168 175.91 50.536 175.366 50.792C174.833 51.0373 174.284 51.16 173.718 51.16C173.153 51.16 172.652 51.048 172.214 50.824C171.777 50.5893 171.43 50.2747 171.174 49.88C170.929 49.4747 170.806 49.0213 170.806 48.52ZM176.022 48.952C176.289 48.696 176.422 48.4507 176.422 48.216V47.368C175.868 47.144 175.308 47.032 174.742 47.032C174.177 47.032 173.718 47.1547 173.366 47.4C173.014 47.6347 172.838 47.9493 172.838 48.344C172.838 48.664 172.966 48.952 173.222 49.208C173.478 49.464 173.846 49.592 174.326 49.592C174.646 49.592 174.956 49.5333 175.254 49.416C175.564 49.2987 175.82 49.144 176.022 48.952ZM180.57 51V42.616H182.714V45.816H186.106V42.616H188.25V51H186.106V47.608H182.714V51H180.57ZM190.21 51V42.632H192.354V48.136L196.114 42.616H198.066V51H195.922V45.624L192.21 51H190.21ZM200.023 51V42.616H202.263L204.887 47.464L207.527 42.616H209.735V51H207.703V45.576L205.559 49.512H204.215L202.055 45.576V51H200.023ZM211.134 48.52C211.134 47.976 211.284 47.5013 211.582 47.096C211.892 46.68 212.318 46.36 212.862 46.136C213.406 45.912 214.03 45.8 214.734 45.8C215.086 45.8 215.444 45.832 215.806 45.896C216.169 45.9493 216.484 46.0293 216.75 46.136V45.688C216.75 45.1547 216.59 44.744 216.27 44.456C215.961 44.168 215.497 44.024 214.878 44.024C214.42 44.024 213.982 44.104 213.566 44.264C213.15 44.424 212.713 44.6587 212.254 44.968L211.566 43.56C212.121 43.1973 212.686 42.9253 213.262 42.744C213.849 42.5627 214.462 42.472 215.102 42.472C216.297 42.472 217.225 42.7707 217.886 43.368C218.558 43.9653 218.894 44.8187 218.894 45.928V48.6C218.894 48.8347 218.932 49 219.006 49.096C219.081 49.1813 219.214 49.2347 219.406 49.256V51C219.214 51.0427 219.038 51.0693 218.878 51.08C218.729 51.1013 218.601 51.112 218.494 51.112C218.068 51.112 217.742 51.016 217.518 50.824C217.294 50.632 217.161 50.3973 217.118 50.12L217.07 49.688C216.697 50.168 216.238 50.536 215.694 50.792C215.161 51.0373 214.612 51.16 214.046 51.16C213.481 51.16 212.98 51.048 212.542 50.824C212.105 50.5893 211.758 50.2747 211.502 49.88C211.257 49.4747 211.134 49.0213 211.134 48.52ZM216.35 48.952C216.617 48.696 216.75 48.4507 216.75 48.216V47.368C216.196 47.144 215.636 47.032 215.07 47.032C214.505 47.032 214.046 47.1547 213.694 47.4C213.342 47.6347 213.166 47.9493 213.166 48.344C213.166 48.664 213.294 48.952 213.55 49.208C213.806 49.464 214.174 49.592 214.654 49.592C214.974 49.592 215.284 49.5333 215.582 49.416C215.892 49.2987 216.148 49.144 216.35 48.952ZM222.74 51V44.488H220.084V42.616H227.556V44.488H224.884V51H222.74ZM228.757 51V42.616H230.901V45.256H232.805C233.808 45.256 234.576 45.512 235.109 46.024C235.643 46.536 235.909 47.2133 235.909 48.056C235.909 48.92 235.653 49.6293 235.141 50.184C234.64 50.728 233.909 51 232.949 51H228.757ZM230.901 49.368H232.613C233.051 49.368 233.371 49.2453 233.573 49C233.776 48.744 233.877 48.4347 233.877 48.072C233.877 47.72 233.781 47.4267 233.589 47.192C233.397 46.9467 233.067 46.824 232.597 46.824H230.901V49.368ZM241.161 51.16C240.255 51.16 239.471 50.9573 238.809 50.552C238.148 50.1467 237.636 49.6133 237.273 48.952C236.911 48.2907 236.729 47.576 236.729 46.808C236.729 46.0293 236.905 45.3093 237.257 44.648C237.62 43.9867 238.132 43.4587 238.793 43.064C239.455 42.6693 240.239 42.472 241.145 42.472C242.063 42.472 242.841 42.6693 243.481 43.064C244.132 43.4587 244.617 43.976 244.937 44.616L242.841 45.256C242.468 44.616 241.897 44.296 241.129 44.296C240.713 44.296 240.34 44.4027 240.009 44.616C239.679 44.8187 239.417 45.112 239.225 45.496C239.033 45.8693 238.937 46.3067 238.937 46.808C238.937 47.2987 239.033 47.736 239.225 48.12C239.428 48.4933 239.695 48.792 240.025 49.016C240.356 49.2293 240.724 49.336 241.129 49.336C241.513 49.336 241.865 49.2453 242.185 49.064C242.516 48.872 242.745 48.632 242.873 48.344L244.969 48.984C244.681 49.6133 244.201 50.136 243.529 50.552C242.868 50.9573 242.079 51.16 241.161 51.16ZM245.715 51L247.844 47.736C247.332 47.5973 246.932 47.3253 246.644 46.92C246.356 46.5147 246.212 45.9813 246.212 45.32C246.212 44.4987 246.489 43.8373 247.044 43.336C247.598 42.8347 248.318 42.584 249.204 42.584H253.188V51H251.044V48.104H249.908L248.068 51H245.715ZM249.46 46.568H251.044V44.232H249.54C249.156 44.232 248.852 44.3387 248.628 44.552C248.404 44.7547 248.292 45.032 248.292 45.384C248.292 45.7253 248.388 46.008 248.58 46.232C248.782 46.456 249.076 46.568 249.46 46.568ZM256.108 47.272C256.108 46.7493 256.194 46.28 256.364 45.864C256.535 45.448 256.887 45.0853 257.42 44.776C257.58 44.68 257.778 44.568 258.012 44.44C258.247 44.312 258.476 44.1627 258.7 43.992C258.924 43.8213 259.111 43.624 259.26 43.4C259.42 43.176 259.5 42.9147 259.5 42.616C259.5 42.1787 259.346 41.8427 259.036 41.608C258.727 41.3627 258.375 41.24 257.98 41.24C257.511 41.24 257.122 41.384 256.812 41.672C256.503 41.9493 256.263 42.232 256.092 42.52L254.7 41.56C254.978 40.9093 255.42 40.4027 256.028 40.04C256.647 39.6773 257.319 39.496 258.044 39.496C258.588 39.496 259.111 39.608 259.612 39.832C260.124 40.0453 260.546 40.3867 260.876 40.856C261.207 41.3147 261.372 41.912 261.372 42.648C261.372 43.3307 261.218 43.8747 260.908 44.28C260.599 44.6747 260.194 45.0267 259.692 45.336C259.404 45.5067 259.122 45.672 258.844 45.832C258.567 45.992 258.332 46.184 258.14 46.408C257.959 46.6213 257.868 46.9093 257.868 47.272H256.108ZM256.14 51V48.792H257.916V51H256.14Z" fill="black"/>
<path d="M79.608 78.176V75.008H80.088C80.3867 74.9973 80.648 74.8747 80.872 74.64C81.1067 74.3947 81.304 74 81.464 73.456C81.6347 72.9013 81.768 72.16 81.864 71.232C81.9707 70.304 82.0453 69.152 82.088 67.776L82.168 64.64H88.968V75.008H90.328V78.176H89.336V76H80.6V78.176H79.608ZM81.688 75.008H87.848V65.632H83.192L83.128 67.904C83.096 69.344 83.0213 70.5493 82.904 71.52C82.7973 72.48 82.6427 73.2427 82.44 73.808C82.2373 74.3627 81.9867 74.7627 81.688 75.008ZM91.5124 73.6C91.5124 73.088 91.6617 72.6453 91.9604 72.272C92.259 71.888 92.6697 71.5893 93.1924 71.376C93.7257 71.1627 94.339 71.056 95.0324 71.056C95.4377 71.056 95.859 71.0933 96.2964 71.168C96.7337 71.232 97.123 71.3227 97.4644 71.44V70.736C97.4644 70.032 97.2564 69.472 96.8404 69.056C96.4244 68.64 95.8484 68.432 95.1124 68.432C94.675 68.432 94.2377 68.5173 93.8004 68.688C93.363 68.848 92.9097 69.088 92.4404 69.408L92.0244 68.64C92.5684 68.2667 93.1017 67.9893 93.6244 67.808C94.147 67.616 94.6804 67.52 95.2244 67.52C96.2484 67.52 97.059 67.8133 97.6564 68.4C98.2537 68.9867 98.5524 69.7973 98.5524 70.832V74.688C98.5524 74.976 98.6857 75.1253 98.9524 75.136V76C98.7177 76.032 98.5524 76.0427 98.4564 76.032C98.1897 76.0213 97.987 75.936 97.8484 75.776C97.7097 75.616 97.635 75.4453 97.6244 75.264L97.6084 74.656C97.235 75.136 96.7497 75.5093 96.1524 75.776C95.555 76.032 94.947 76.16 94.3284 76.16C93.7844 76.16 93.299 76.048 92.8724 75.824C92.4457 75.5893 92.1097 75.28 91.8644 74.896C91.6297 74.5013 91.5124 74.0693 91.5124 73.6ZM97.0964 74.24C97.3417 73.952 97.4644 73.6853 97.4644 73.44V72.224C96.7284 71.936 95.9604 71.792 95.1604 71.792C94.3817 71.792 93.7524 71.9467 93.2724 72.256C92.7924 72.5653 92.5524 72.9867 92.5524 73.52C92.5524 73.9787 92.7284 74.3947 93.0804 74.768C93.443 75.1413 93.9444 75.328 94.5844 75.328C95.107 75.328 95.5924 75.2267 96.0404 75.024C96.499 74.8213 96.851 74.56 97.0964 74.24ZM101.079 77.296L101.351 75.952H100.983V74.432H102.039V75.952L101.639 77.296H101.079ZM108.559 76V67.664H109.679L112.991 73.408L116.319 67.664H117.391V76H116.351V69.296L113.343 74.512H112.639L109.599 69.296V76H108.559ZM123.346 76.16C122.546 76.16 121.831 75.9627 121.202 75.568C120.583 75.1733 120.098 74.6507 119.746 74C119.394 73.3387 119.218 72.624 119.218 71.856C119.218 71.0773 119.394 70.3627 119.746 69.712C120.108 69.0507 120.599 68.5227 121.218 68.128C121.847 67.7227 122.556 67.52 123.346 67.52C124.146 67.52 124.855 67.7227 125.474 68.128C126.103 68.5227 126.594 69.0507 126.946 69.712C127.308 70.3627 127.49 71.0773 127.49 71.856C127.49 72.624 127.314 73.3387 126.962 74C126.61 74.6507 126.119 75.1733 125.49 75.568C124.871 75.9627 124.156 76.16 123.346 76.16ZM120.322 71.872C120.322 72.4907 120.455 73.056 120.722 73.568C120.999 74.0693 121.367 74.4693 121.826 74.768C122.284 75.056 122.791 75.2 123.346 75.2C123.9 75.2 124.407 75.0507 124.866 74.752C125.324 74.4533 125.692 74.048 125.97 73.536C126.247 73.024 126.386 72.4587 126.386 71.84C126.386 71.2213 126.247 70.656 125.97 70.144C125.692 69.632 125.324 69.2267 124.866 68.928C124.407 68.6293 123.9 68.48 123.346 68.48C122.802 68.48 122.3 68.6347 121.842 68.944C121.383 69.2427 121.015 69.648 120.738 70.16C120.46 70.672 120.322 71.2427 120.322 71.872ZM128.717 76L131.837 71.712L129.021 67.664H130.253L132.765 71.264H133.853V67.664H134.973V71.264H136.093L138.557 67.664H139.805L136.973 71.712L140.125 76H138.861L136.093 72.224H134.973V76H133.853V72.224H132.765L129.981 76H128.717ZM141.918 76V67.664H143.006V71.248H147.774V67.664H148.862V76H147.774V72.224H143.006V76H141.918ZM154.815 76.16C154.015 76.16 153.3 75.9627 152.671 75.568C152.052 75.1733 151.567 74.6507 151.215 74C150.863 73.3387 150.687 72.624 150.687 71.856C150.687 71.0773 150.863 70.3627 151.215 69.712C151.577 69.0507 152.068 68.5227 152.687 68.128C153.316 67.7227 154.025 67.52 154.815 67.52C155.615 67.52 156.324 67.7227 156.943 68.128C157.572 68.5227 158.063 69.0507 158.415 69.712C158.777 70.3627 158.959 71.0773 158.959 71.856C158.959 72.624 158.783 73.3387 158.431 74C158.079 74.6507 157.588 75.1733 156.959 75.568C156.34 75.9627 155.625 76.16 154.815 76.16ZM151.791 71.872C151.791 72.4907 151.924 73.056 152.191 73.568C152.468 74.0693 152.836 74.4693 153.295 74.768C153.753 75.056 154.26 75.2 154.815 75.2C155.369 75.2 155.876 75.0507 156.335 74.752C156.793 74.4533 157.161 74.048 157.439 73.536C157.716 73.024 157.855 72.4587 157.855 71.84C157.855 71.2213 157.716 70.656 157.439 70.144C157.161 69.632 156.793 69.2267 156.335 68.928C155.876 68.6293 155.369 68.48 154.815 68.48C154.271 68.48 153.769 68.6347 153.311 68.944C152.852 69.2427 152.484 69.648 152.207 70.16C151.929 70.672 151.791 71.2427 151.791 71.872ZM164.84 76V67.68H165.928V74.528L171 67.664H171.976V76H170.888V69.264L165.896 76H164.84ZM178.418 76V67.664H179.506V71.248H184.274V67.664H185.362V76H184.274V72.224H179.506V76H178.418ZM188.503 79.488C188.151 79.488 187.777 79.376 187.383 79.152L187.783 78.384C188.007 78.5333 188.225 78.608 188.439 78.608C188.972 78.608 189.468 78.064 189.927 76.976L190.343 75.936L186.631 67.664H187.783L190.839 74.88L193.655 67.664H194.743L190.775 77.312C190.455 78.0693 190.108 78.6187 189.735 78.96C189.361 79.312 188.951 79.488 188.503 79.488ZM195.671 76L198.791 71.712L195.975 67.664H197.207L199.719 71.264H200.807V67.664H201.927V71.264H203.047L205.511 67.664H206.759L203.927 71.712L207.079 76H205.815L203.047 72.224H201.927V76H200.807V72.224H199.719L196.935 76H195.671ZM208.872 76V67.664H209.96V71.248H214.728V67.664H215.816V76H214.728V72.224H209.96V76H208.872ZM221.768 76.16C220.968 76.16 220.253 75.9627 219.624 75.568C219.005 75.1733 218.52 74.6507 218.168 74C217.816 73.3387 217.64 72.624 217.64 71.856C217.64 71.0773 217.816 70.3627 218.168 69.712C218.53 69.0507 219.021 68.5227 219.64 68.128C220.269 67.7227 220.978 67.52 221.768 67.52C222.568 67.52 223.277 67.7227 223.896 68.128C224.525 68.5227 225.016 69.0507 225.368 69.712C225.73 70.3627 225.912 71.0773 225.912 71.856C225.912 72.624 225.736 73.3387 225.384 74C225.032 74.6507 224.541 75.1733 223.912 75.568C223.293 75.9627 222.578 76.16 221.768 76.16ZM218.744 71.872C218.744 72.4907 218.877 73.056 219.144 73.568C219.421 74.0693 219.789 74.4693 220.248 74.768C220.706 75.056 221.213 75.2 221.768 75.2C222.322 75.2 222.829 75.0507 223.288 74.752C223.746 74.4533 224.114 74.048 224.392 73.536C224.669 73.024 224.808 72.4587 224.808 71.84C224.808 71.2213 224.669 70.656 224.392 70.144C224.114 69.632 223.746 69.2267 223.288 68.928C222.829 68.6293 222.322 68.48 221.768 68.48C221.224 68.48 220.722 68.6347 220.264 68.944C219.805 69.2427 219.437 69.648 219.16 70.16C218.882 70.672 218.744 71.2427 218.744 71.872ZM227.259 76V74.432H228.203V76H227.259ZM234.368 76L237.408 71.184C236.587 71.0027 235.952 70.6187 235.504 70.032C235.067 69.4347 234.848 68.7307 234.848 67.92C234.848 67.312 234.997 66.7627 235.296 66.272C235.605 65.7707 236.037 65.376 236.592 65.088C237.147 64.7893 237.808 64.64 238.576 64.64H242.096V76H240.992V71.328H238.96C238.896 71.328 238.827 71.328 238.752 71.328C238.688 71.328 238.624 71.328 238.56 71.328L235.648 76H234.368ZM238.624 70.352H240.992V65.616H238.688C237.888 65.616 237.237 65.8293 236.736 66.256C236.235 66.672 235.984 67.2267 235.984 67.92C235.984 68.624 236.208 69.2053 236.656 69.664C237.104 70.1227 237.76 70.352 238.624 70.352ZM247.866 77.936V75.024H248.01C248.33 75.024 248.618 74.8853 248.874 74.608C249.13 74.3307 249.338 73.8293 249.498 73.104C249.668 72.368 249.77 71.328 249.802 69.984L249.882 67.664H255.306V75.024H256.426V77.936H255.45V76H248.826V77.936H247.866ZM249.658 75.024H254.218V68.64H250.858L250.81 70.08C250.756 71.5733 250.634 72.704 250.442 73.472C250.25 74.2293 249.988 74.7467 249.658 75.024ZM257.403 73.6C257.403 73.088 257.552 72.6453 257.851 72.272C258.15 71.888 258.56 71.5893 259.083 71.376C259.616 71.1627 260.23 71.056 260.923 71.056C261.328 71.056 261.75 71.0933 262.187 71.168C262.624 71.232 263.014 71.3227 263.355 71.44V70.736C263.355 70.032 263.147 69.472 262.731 69.056C262.315 68.64 261.739 68.432 261.003 68.432C260.566 68.432 260.128 68.5173 259.691 68.688C259.254 68.848 258.8 69.088 258.331 69.408L257.915 68.64C258.459 68.2667 258.992 67.9893 259.515 67.808C260.038 67.616 260.571 67.52 261.115 67.52C262.139 67.52 262.95 67.8133 263.547 68.4C264.144 68.9867 264.443 69.7973 264.443 70.832V74.688C264.443 74.976 264.576 75.1253 264.843 75.136V76C264.608 76.032 264.443 76.0427 264.347 76.032C264.08 76.0213 263.878 75.936 263.739 75.776C263.6 75.616 263.526 75.4453 263.515 75.264L263.499 74.656C263.126 75.136 262.64 75.5093 262.043 75.776C261.446 76.032 260.838 76.16 260.219 76.16C259.675 76.16 259.19 76.048 258.763 75.824C258.336 75.5893 258 75.28 257.755 74.896C257.52 74.5013 257.403 74.0693 257.403 73.6ZM262.987 74.24C263.232 73.952 263.355 73.6853 263.355 73.44V72.224C262.619 71.936 261.851 71.792 261.051 71.792C260.272 71.792 259.643 71.9467 259.163 72.256C258.683 72.5653 258.443 72.9867 258.443 73.52C258.443 73.9787 258.619 74.3947 258.971 74.768C259.334 75.1413 259.835 75.328 260.475 75.328C260.998 75.328 261.483 75.2267 261.931 75.024C262.39 74.8213 262.742 74.56 262.987 74.24ZM266.778 76V67.664H267.898L271.21 73.408L274.538 67.664H275.61V76H274.57V69.296L271.562 74.512H270.858L267.818 69.296V76H266.778ZM286.859 76V72.512C286.187 72.832 285.429 72.992 284.587 72.992C282.741 72.992 281.819 72.0373 281.819 70.128V67.664H282.907V69.984C282.907 70.7307 283.056 71.2747 283.355 71.616C283.664 71.9573 284.155 72.128 284.827 72.128C285.211 72.128 285.584 72.0853 285.947 72C286.32 71.9147 286.624 71.8027 286.859 71.664V67.664H287.947V76H286.859ZM293.941 76.16C293.141 76.16 292.426 75.9627 291.797 75.568C291.167 75.1733 290.671 74.6453 290.309 73.984C289.946 73.3227 289.765 72.5973 289.765 71.808C289.765 71.0293 289.941 70.3147 290.293 69.664C290.655 69.0133 291.151 68.496 291.781 68.112C292.41 67.7173 293.125 67.52 293.925 67.52C294.746 67.52 295.466 67.7173 296.085 68.112C296.703 68.5067 297.183 69.0293 297.525 69.68C297.877 70.32 298.053 71.024 298.053 71.792C298.053 71.9627 298.047 72.1067 298.037 72.224H290.901C290.954 72.8213 291.125 73.3547 291.413 73.824C291.701 74.2827 292.069 74.6507 292.517 74.928C292.965 75.1947 293.455 75.328 293.989 75.328C294.533 75.328 295.045 75.1893 295.525 74.912C296.005 74.6347 296.346 74.272 296.549 73.824L297.493 74.08C297.322 74.4853 297.055 74.848 296.693 75.168C296.341 75.4773 295.93 75.7227 295.461 75.904C294.991 76.0747 294.485 76.16 293.941 76.16ZM290.869 71.44H297.029C296.986 70.8427 296.821 70.3147 296.533 69.856C296.245 69.3867 295.877 69.024 295.429 68.768C294.981 68.5013 294.485 68.368 293.941 68.368C293.397 68.368 292.901 68.5013 292.453 68.768C292.005 69.024 291.637 69.3867 291.349 69.856C291.071 70.3147 290.911 70.8427 290.869 71.44ZM301.811 76V68.64H298.835V67.664H305.875V68.64H302.899V76H301.811ZM307.34 76V67.664H308.428V71.232H309.676L312.476 67.664H313.724L310.54 71.712L314.124 76H312.844L309.676 72.24H308.428V76H307.34ZM315.653 76V67.68H316.741V74.528L321.813 67.664H322.789V76H321.701V69.264L316.709 76H315.653ZM328.769 76.16C327.969 76.16 327.254 75.9627 326.625 75.568C325.995 75.1733 325.499 74.6453 325.137 73.984C324.774 73.3227 324.593 72.5973 324.593 71.808C324.593 71.0293 324.769 70.3147 325.121 69.664C325.483 69.0133 325.979 68.496 326.609 68.112C327.238 67.7173 327.953 67.52 328.753 67.52C329.574 67.52 330.294 67.7173 330.913 68.112C331.531 68.5067 332.011 69.0293 332.353 69.68C332.705 70.32 332.881 71.024 332.881 71.792C332.881 71.9627 332.875 72.1067 332.865 72.224H325.729C325.782 72.8213 325.953 73.3547 326.241 73.824C326.529 74.2827 326.897 74.6507 327.345 74.928C327.793 75.1947 328.283 75.328 328.817 75.328C329.361 75.328 329.873 75.1893 330.353 74.912C330.833 74.6347 331.174 74.272 331.377 73.824L332.321 74.08C332.15 74.4853 331.883 74.848 331.521 75.168C331.169 75.4773 330.758 75.7227 330.289 75.904C329.819 76.0747 329.313 76.16 328.769 76.16ZM325.697 71.44H331.857C331.814 70.8427 331.649 70.3147 331.361 69.856C331.073 69.3867 330.705 69.024 330.257 68.768C329.809 68.5013 329.313 68.368 328.769 68.368C328.225 68.368 327.729 68.5013 327.281 68.768C326.833 69.024 326.465 69.3867 326.177 69.856C325.899 70.3147 325.739 70.8427 325.697 71.44ZM84.456 97.16C83.7627 97.16 83.1387 96.9787 82.584 96.616C82.04 96.2533 81.608 95.8053 81.288 95.272V100.408H80.2V88.664H81.176V90.28C81.5067 89.7573 81.944 89.336 82.488 89.016C83.0427 88.6853 83.64 88.52 84.28 88.52C84.856 88.52 85.384 88.6427 85.864 88.888C86.344 89.1227 86.76 89.4427 87.112 89.848C87.4747 90.2533 87.752 90.7173 87.944 91.24C88.136 91.752 88.232 92.2853 88.232 92.84C88.232 93.6187 88.072 94.3387 87.752 95C87.4427 95.6507 87 96.1733 86.424 96.568C85.8587 96.9627 85.2027 97.16 84.456 97.16ZM84.152 96.2C84.76 96.2 85.2827 96.04 85.72 95.72C86.168 95.3893 86.5147 94.968 86.76 94.456C87.0053 93.944 87.128 93.4053 87.128 92.84C87.128 92.2427 86.9893 91.688 86.712 91.176C86.4347 90.664 86.0613 90.2533 85.592 89.944C85.1333 89.6347 84.6107 89.48 84.024 89.48C83.6613 89.48 83.2773 89.576 82.872 89.768C82.4773 89.9493 82.1253 90.2 81.816 90.52C81.5173 90.8293 81.3413 91.1707 81.288 91.544V94.104C81.5333 94.6907 81.9173 95.1867 82.44 95.592C82.9627 95.9973 83.5333 96.2 84.152 96.2ZM93.675 97.16C92.875 97.16 92.1603 96.9627 91.531 96.568C90.9017 96.1733 90.4057 95.6453 90.043 94.984C89.6803 94.3227 89.499 93.5973 89.499 92.808C89.499 92.0293 89.675 91.3147 90.027 90.664C90.3897 90.0133 90.8857 89.496 91.515 89.112C92.1443 88.7173 92.859 88.52 93.659 88.52C94.4803 88.52 95.2003 88.7173 95.819 89.112C96.4377 89.5067 96.9177 90.0293 97.259 90.68C97.611 91.32 97.787 92.024 97.787 92.792C97.787 92.9627 97.7817 93.1067 97.771 93.224H90.635C90.6883 93.8213 90.859 94.3547 91.147 94.824C91.435 95.2827 91.803 95.6507 92.251 95.928C92.699 96.1947 93.1897 96.328 93.723 96.328C94.267 96.328 94.779 96.1893 95.259 95.912C95.739 95.6347 96.0803 95.272 96.283 94.824L97.227 95.08C97.0563 95.4853 96.7897 95.848 96.427 96.168C96.075 96.4773 95.6643 96.7227 95.195 96.904C94.7257 97.0747 94.219 97.16 93.675 97.16ZM90.603 92.44H96.763C96.7203 91.8427 96.555 91.3147 96.267 90.856C95.979 90.3867 95.611 90.024 95.163 89.768C94.715 89.5013 94.219 89.368 93.675 89.368C93.131 89.368 92.635 89.5013 92.187 89.768C91.739 90.024 91.371 90.3867 91.083 90.856C90.8057 91.3147 90.6457 91.8427 90.603 92.44ZM99.4496 97V88.664H100.538V92.232H101.786L104.586 88.664H105.834L102.65 92.712L106.234 97H104.954L101.786 93.24H100.538V97H99.4496ZM110.893 97.16C110.093 97.16 109.378 96.9627 108.749 96.568C108.13 96.1733 107.645 95.6507 107.293 95C106.941 94.3387 106.765 93.624 106.765 92.856C106.765 92.0773 106.941 91.3627 107.293 90.712C107.655 90.0507 108.146 89.5227 108.765 89.128C109.394 88.7227 110.103 88.52 110.893 88.52C111.693 88.52 112.402 88.7227 113.021 89.128C113.65 89.5227 114.141 90.0507 114.493 90.712C114.855 91.3627 115.037 92.0773 115.037 92.856C115.037 93.624 114.861 94.3387 114.509 95C114.157 95.6507 113.666 96.1733 113.037 96.568C112.418 96.9627 111.703 97.16 110.893 97.16ZM107.869 92.872C107.869 93.4907 108.002 94.056 108.269 94.568C108.546 95.0693 108.914 95.4693 109.373 95.768C109.831 96.056 110.338 96.2 110.893 96.2C111.447 96.2 111.954 96.0507 112.413 95.752C112.871 95.4533 113.239 95.048 113.517 94.536C113.794 94.024 113.933 93.4587 113.933 92.84C113.933 92.2213 113.794 91.656 113.517 91.144C113.239 90.632 112.871 90.2267 112.413 89.928C111.954 89.6293 111.447 89.48 110.893 89.48C110.349 89.48 109.847 89.6347 109.389 89.944C108.93 90.2427 108.562 90.648 108.285 91.16C108.007 91.672 107.869 92.2427 107.869 92.872ZM116.84 97V88.664H117.96L121.272 94.408L124.6 88.664H125.672V97H124.632V90.296L121.624 95.512H120.92L117.88 90.296V97H116.84ZM131.675 97.16C130.875 97.16 130.16 96.9627 129.531 96.568C128.902 96.1733 128.406 95.6453 128.043 94.984C127.68 94.3227 127.499 93.5973 127.499 92.808C127.499 92.0293 127.675 91.3147 128.027 90.664C128.39 90.0133 128.886 89.496 129.515 89.112C130.144 88.7173 130.859 88.52 131.659 88.52C132.48 88.52 133.2 88.7173 133.819 89.112C134.438 89.5067 134.918 90.0293 135.259 90.68C135.611 91.32 135.787 92.024 135.787 92.792C135.787 92.9627 135.782 93.1067 135.771 93.224H128.635C128.688 93.8213 128.859 94.3547 129.147 94.824C129.435 95.2827 129.803 95.6507 130.251 95.928C130.699 96.1947 131.19 96.328 131.723 96.328C132.267 96.328 132.779 96.1893 133.259 95.912C133.739 95.6347 134.08 95.272 134.283 94.824L135.227 95.08C135.056 95.4853 134.79 95.848 134.427 96.168C134.075 96.4773 133.664 96.7227 133.195 96.904C132.726 97.0747 132.219 97.16 131.675 97.16ZM128.603 92.44H134.763C134.72 91.8427 134.555 91.3147 134.267 90.856C133.979 90.3867 133.611 90.024 133.163 89.768C132.715 89.5013 132.219 89.368 131.675 89.368C131.131 89.368 130.635 89.5013 130.187 89.768C129.739 90.024 129.371 90.3867 129.083 90.856C128.806 91.3147 128.646 91.8427 128.603 92.44ZM137.45 97V88.664H138.538V92.248H143.306V88.664H144.394V97H143.306V93.224H138.538V97H137.45ZM145.866 98.936V96.024H146.01C146.33 96.024 146.618 95.8853 146.874 95.608C147.13 95.3307 147.338 94.8293 147.498 94.104C147.668 93.368 147.77 92.328 147.802 90.984L147.882 88.664H153.306V96.024H154.426V98.936H153.45V97H146.826V98.936H145.866ZM147.658 96.024H152.218V89.64H148.858L148.81 91.08C148.756 92.5733 148.634 93.704 148.442 94.472C148.25 95.2293 147.988 95.7467 147.658 96.024ZM155.403 94.6C155.403 94.088 155.552 93.6453 155.851 93.272C156.15 92.888 156.56 92.5893 157.083 92.376C157.616 92.1627 158.23 92.056 158.923 92.056C159.328 92.056 159.75 92.0933 160.187 92.168C160.624 92.232 161.014 92.3227 161.355 92.44V91.736C161.355 91.032 161.147 90.472 160.731 90.056C160.315 89.64 159.739 89.432 159.003 89.432C158.566 89.432 158.128 89.5173 157.691 89.688C157.254 89.848 156.8 90.088 156.331 90.408L155.915 89.64C156.459 89.2667 156.992 88.9893 157.515 88.808C158.038 88.616 158.571 88.52 159.115 88.52C160.139 88.52 160.95 88.8133 161.547 89.4C162.144 89.9867 162.443 90.7973 162.443 91.832V95.688C162.443 95.976 162.576 96.1253 162.843 96.136V97C162.608 97.032 162.443 97.0427 162.347 97.032C162.08 97.0213 161.878 96.936 161.739 96.776C161.6 96.616 161.526 96.4453 161.515 96.264L161.499 95.656C161.126 96.136 160.64 96.5093 160.043 96.776C159.446 97.032 158.838 97.16 158.219 97.16C157.675 97.16 157.19 97.048 156.763 96.824C156.336 96.5893 156 96.28 155.755 95.896C155.52 95.5013 155.403 95.0693 155.403 94.6ZM160.987 95.24C161.232 94.952 161.355 94.6853 161.355 94.44V93.224C160.619 92.936 159.851 92.792 159.051 92.792C158.272 92.792 157.643 92.9467 157.163 93.256C156.683 93.5653 156.443 93.9867 156.443 94.52C156.443 94.9787 156.619 95.3947 156.971 95.768C157.334 96.1413 157.835 96.328 158.475 96.328C158.998 96.328 159.483 96.2267 159.931 96.024C160.39 95.8213 160.742 95.56 160.987 95.24ZM171.434 98.936V97H164.778V88.664H165.866V96.04H170.186V88.664H171.274V96.04H172.41V98.936H171.434ZM174.043 97V88.68H175.131V95.528L180.203 88.664H181.179V97H180.091V90.264L175.099 97H174.043ZM183.543 97V88.68H184.631V95.528L189.703 88.664H190.679V97H189.591V90.264L184.599 97H183.543ZM197.122 97V88.664H203.826V97H202.738V89.64H198.21V97H197.122ZM209.783 97.16C208.983 97.16 208.269 96.9627 207.639 96.568C207.021 96.1733 206.535 95.6507 206.183 95C205.831 94.3387 205.655 93.624 205.655 92.856C205.655 92.0773 205.831 91.3627 206.183 90.712C206.546 90.0507 207.037 89.5227 207.655 89.128C208.285 88.7227 208.994 88.52 209.783 88.52C210.583 88.52 211.293 88.7227 211.911 89.128C212.541 89.5227 213.031 90.0507 213.383 90.712C213.746 91.3627 213.927 92.0773 213.927 92.856C213.927 93.624 213.751 94.3387 213.399 95C213.047 95.6507 212.557 96.1733 211.927 96.568C211.309 96.9627 210.594 97.16 209.783 97.16ZM206.759 92.872C206.759 93.4907 206.893 94.056 207.159 94.568C207.437 95.0693 207.805 95.4693 208.263 95.768C208.722 96.056 209.229 96.2 209.783 96.2C210.338 96.2 210.845 96.0507 211.303 95.752C211.762 95.4533 212.13 95.048 212.407 94.536C212.685 94.024 212.823 93.4587 212.823 92.84C212.823 92.2213 212.685 91.656 212.407 91.144C212.13 90.632 211.762 90.2267 211.303 89.928C210.845 89.6293 210.338 89.48 209.783 89.48C209.239 89.48 208.738 89.6347 208.279 89.944C207.821 90.2427 207.453 90.648 207.175 91.16C206.898 91.672 206.759 92.2427 206.759 92.872ZM220.299 100.488C219.948 100.488 219.574 100.376 219.18 100.152L219.58 99.384C219.804 99.5333 220.022 99.608 220.236 99.608C220.769 99.608 221.265 99.064 221.724 97.976L222.14 96.936L218.428 88.664H219.58L222.636 95.88L225.452 88.664H226.54L222.572 98.312C222.252 99.0693 221.905 99.6187 221.532 99.96C221.158 100.312 220.748 100.488 220.299 100.488ZM228.043 97V88.664H234.747V97H233.659V89.64H229.131V97H228.043ZM241.409 97.16C240.716 97.16 240.092 96.9787 239.537 96.616C238.993 96.2533 238.561 95.8053 238.241 95.272V100.408H237.153V88.664H238.129V90.28C238.46 89.7573 238.897 89.336 239.441 89.016C239.996 88.6853 240.593 88.52 241.233 88.52C241.809 88.52 242.337 88.6427 242.817 88.888C243.297 89.1227 243.713 89.4427 244.065 89.848C244.428 90.2533 244.705 90.7173 244.897 91.24C245.089 91.752 245.185 92.2853 245.185 92.84C245.185 93.6187 245.025 94.3387 244.705 95C244.396 95.6507 243.953 96.1733 243.377 96.568C242.812 96.9627 242.156 97.16 241.409 97.16ZM241.105 96.2C241.713 96.2 242.236 96.04 242.673 95.72C243.121 95.3893 243.468 94.968 243.713 94.456C243.958 93.944 244.081 93.4053 244.081 92.84C244.081 92.2427 243.942 91.688 243.665 91.176C243.388 90.664 243.014 90.2533 242.545 89.944C242.086 89.6347 241.564 89.48 240.977 89.48C240.614 89.48 240.23 89.576 239.825 89.768C239.43 89.9493 239.078 90.2 238.769 90.52C238.47 90.8293 238.294 91.1707 238.241 91.544V94.104C238.486 94.6907 238.87 95.1867 239.393 95.592C239.916 95.9973 240.486 96.2 241.105 96.2ZM246.356 94.6C246.356 94.088 246.505 93.6453 246.804 93.272C247.103 92.888 247.513 92.5893 248.036 92.376C248.569 92.1627 249.183 92.056 249.876 92.056C250.281 92.056 250.703 92.0933 251.14 92.168C251.577 92.232 251.967 92.3227 252.308 92.44V91.736C252.308 91.032 252.1 90.472 251.684 90.056C251.268 89.64 250.692 89.432 249.956 89.432C249.519 89.432 249.081 89.5173 248.644 89.688C248.207 89.848 247.753 90.088 247.284 90.408L246.868 89.64C247.412 89.2667 247.945 88.9893 248.468 88.808C248.991 88.616 249.524 88.52 250.068 88.52C251.092 88.52 251.903 88.8133 252.5 89.4C253.097 89.9867 253.396 90.7973 253.396 91.832V95.688C253.396 95.976 253.529 96.1253 253.796 96.136V97C253.561 97.032 253.396 97.0427 253.3 97.032C253.033 97.0213 252.831 96.936 252.692 96.776C252.553 96.616 252.479 96.4453 252.468 96.264L252.452 95.656C252.079 96.136 251.593 96.5093 250.996 96.776C250.399 97.032 249.791 97.16 249.172 97.16C248.628 97.16 248.143 97.048 247.716 96.824C247.289 96.5893 246.953 96.28 246.708 95.896C246.473 95.5013 246.356 95.0693 246.356 94.6ZM251.94 95.24C252.185 94.952 252.308 94.6853 252.308 94.44V93.224C251.572 92.936 250.804 92.792 250.004 92.792C249.225 92.792 248.596 92.9467 248.116 93.256C247.636 93.5653 247.396 93.9867 247.396 94.52C247.396 94.9787 247.572 95.3947 247.924 95.768C248.287 96.1413 248.788 96.328 249.428 96.328C249.951 96.328 250.436 96.2267 250.884 96.024C251.343 95.8213 251.695 95.56 251.94 95.24ZM255.155 97L258.275 92.712L255.459 88.664H256.691L259.203 92.264H260.291V88.664H261.411V92.264H262.531L264.995 88.664H266.243L263.411 92.712L266.563 97H265.299L262.531 93.224H261.411V97H260.291V93.224H259.203L256.419 97H255.155ZM268.356 97V88.664H269.444V92.248H274.212V88.664H275.3V97H274.212V93.224H269.444V97H268.356ZM281.3 97.16C280.5 97.16 279.785 96.9627 279.156 96.568C278.527 96.1733 278.031 95.6453 277.668 94.984C277.305 94.3227 277.124 93.5973 277.124 92.808C277.124 92.0293 277.3 91.3147 277.652 90.664C278.015 90.0133 278.511 89.496 279.14 89.112C279.769 88.7173 280.484 88.52 281.284 88.52C282.105 88.52 282.825 88.7173 283.444 89.112C284.063 89.5067 284.543 90.0293 284.884 90.68C285.236 91.32 285.412 92.024 285.412 92.792C285.412 92.9627 285.407 93.1067 285.396 93.224H278.26C278.313 93.8213 278.484 94.3547 278.772 94.824C279.06 95.2827 279.428 95.6507 279.876 95.928C280.324 96.1947 280.815 96.328 281.348 96.328C281.892 96.328 282.404 96.1893 282.884 95.912C283.364 95.6347 283.705 95.272 283.908 94.824L284.852 95.08C284.681 95.4853 284.415 95.848 284.052 96.168C283.7 96.4773 283.289 96.7227 282.82 96.904C282.351 97.0747 281.844 97.16 281.3 97.16ZM278.228 92.44H284.388C284.345 91.8427 284.18 91.3147 283.892 90.856C283.604 90.3867 283.236 90.024 282.788 89.768C282.34 89.5013 281.844 89.368 281.3 89.368C280.756 89.368 280.26 89.5013 279.812 89.768C279.364 90.024 278.996 90.3867 278.708 90.856C278.431 91.3147 278.271 91.8427 278.228 92.44ZM287.075 97V88.664H288.163V92.248H292.931V88.664H294.019V97H292.931V93.224H288.163V97H287.075ZM296.403 97V88.68H297.491V95.528L302.563 88.664H303.539V97H302.451V90.264L297.459 97H296.403ZM305.295 97L307.775 93.592C307.199 93.5173 306.74 93.272 306.399 92.856C306.057 92.44 305.887 91.8747 305.887 91.16C305.887 90.6907 305.999 90.2693 306.223 89.896C306.447 89.512 306.761 89.208 307.167 88.984C307.583 88.76 308.068 88.648 308.623 88.648H311.807V97H310.719V93.768H308.863L306.511 97H305.295ZM308.607 92.936H310.719V89.512H308.799C308.244 89.512 307.801 89.672 307.471 89.992C307.14 90.3013 306.975 90.696 306.975 91.176C306.975 91.6667 307.108 92.0827 307.375 92.424C307.652 92.7653 308.063 92.936 308.607 92.936ZM314.184 97V88.664H315.304L318.616 94.408L321.944 88.664H323.016V97H321.976V90.296L318.968 95.512H318.264L315.224 90.296V97H314.184ZM325.259 97V95.432H326.203V97H325.259Z" fill="black"/>
<g filter="url(#filter0_i)">
<rect x="362" y="71.3428" width="30.3426" height="30" rx="15" transform="rotate(-90 362 71.3428)" fill="white"/>
</g>
<path d="M374.092 63.7646L381.892 56.1867L374.092 48.6088" stroke="#F49150" stroke-width="2"/>
<g filter="url(#filter1_i)">
<rect x="55" y="41.6572" width="30.3429" height="30" rx="15" transform="rotate(90 55 41.6572)" fill="white"/>
</g>
<path d="M42.9082 49.2354L35.1085 56.8133L42.9082 64.3912" stroke="#F49150" stroke-width="2"/>
<rect x="65.5" y="1.5" width="284" height="112" rx="16.5" stroke="white"/>
<rect x="-86.5" y="0.5" width="98" height="112" rx="16.5" stroke="white"/>
<rect x="402.5" y="0.5" width="98" height="112" rx="16.5" stroke="white"/>
<defs>
<filter id="filter0_i" x="362" y="41" width="30" height="30.3426" filterUnits="userSpaceOnUse" color-interpolation-filters="sRGB">
<feFlood flood-opacity="0" result="BackgroundImageFix"/>
<feBlend mode="normal" in="SourceGraphic" in2="BackgroundImageFix" result="shape"/>
<feColorMatrix in="SourceAlpha" type="matrix" values="0 0 0 0 0 0 0 0 0 0 0 0 0 0 0 0 0 0 127 0" result="hardAlpha"/>
<feMorphology radius="4" operator="dilate" in="SourceAlpha" result="effect1_innerShadow"/>
<feOffset/>
<feGaussianBlur stdDeviation="7.5"/>
<feComposite in2="hardAlpha" operator="arithmetic" k2="-1" k3="1"/>
<feColorMatrix type="matrix" values="0 0 0 0 0.956863 0 0 0 0 0.568627 0 0 0 0 0.313726 0 0 0 0.8 0"/>
<feBlend mode="normal" in2="shape" result="effect1_innerShadow"/>
</filter>
<filter id="filter1_i" x="25" y="41.6572" width="30" height="30.3429" filterUnits="userSpaceOnUse" color-interpolation-filters="sRGB">
<feFlood flood-opacity="0" result="BackgroundImageFix"/>
<feBlend mode="normal" in="SourceGraphic" in2="BackgroundImageFix" result="shape"/>
<feColorMatrix in="SourceAlpha" type="matrix" values="0 0 0 0 0 0 0 0 0 0 0 0 0 0 0 0 0 0 127 0" result="hardAlpha"/>
<feMorphology radius="4" operator="dilate" in="SourceAlpha" result="effect1_innerShadow"/>
<feOffset/>
<feGaussianBlur stdDeviation="7.5"/>
<feComposite in2="hardAlpha" operator="arithmetic" k2="-1" k3="1"/>
<feColorMatrix type="matrix" values="0 0 0 0 0.956863 0 0 0 0 0.568627 0 0 0 0 0.313726 0 0 0 0.8 0"/>
<feBlend mode="normal" in2="shape" result="effect1_innerShadow"/>
</filter>
</defs>
</svg>
